
<svg version="1.0" xmlns="http://www.w3.org/2000/svg" width='28'
height='20' viewBox="0 0 638.000000 400.000000"
 preserveAspectRatio="xMidYMid meet">

<g transform="translate(0.000000,400.000000) scale(0.100000,-0.100000)"
fill="#000000" stroke="none">
<path d="M0 2000 l0 -2000 3185 0 3185 0 0 2000 0 2000 -3185 0 -3185 0 0
-2000z m3168 1014 c12 -4 22 -13 22 -20 0 -9 12 -14 35 -14 24 0 35 -5 35 -15
0 -10 10 -15 30 -15 17 0 33 -6 36 -14 3 -8 19 -18 35 -21 16 -4 29 -13 29
-21 0 -8 7 -14 15 -14 8 0 15 -7 15 -15 0 -8 9 -15 20 -15 13 0 20 -7 20 -20
0 -11 7 -20 15 -20 8 0 15 -7 15 -15 0 -8 6 -15 14 -15 8 0 17 -13 21 -29 3
-16 13 -32 21 -35 8 -3 14 -19 14 -36 0 -19 5 -30 14 -30 9 0 15 -18 19 -52 4
-28 12 -55 19 -59 6 -4 14 -35 16 -68 l4 -61 -476 0 -476 0 0 -270 c0 -233 2
-270 15 -270 10 0 15 -10 15 -33 0 -20 8 -39 20 -50 11 -9 20 -26 20 -37 0
-11 7 -20 15 -20 8 0 15 -7 15 -15 0 -8 14 -17 35 -21 20 -3 35 -12 35 -20 0
-10 13 -14 45 -14 33 0 45 -4 45 -15 0 -12 18 -15 105 -15 87 0 105 3 105 15
0 11 12 15 50 15 37 0 50 4 50 15 0 8 14 17 35 21 20 3 35 12 35 20 0 8 9 14
20 14 11 0 20 7 20 15 0 8 7 15 15 15 8 0 15 9 15 20 0 11 7 20 15 20 8 0 15
7 15 15 0 8 9 15 20 15 16 0 20 7 20 35 0 24 5 35 15 35 10 0 15 11 15 35 0
23 5 35 14 35 9 0 16 18 20 51 7 49 7 50 39 47 l32 -3 3 -67 c2 -38 7 -68 12
-68 11 0 24 56 15 69 -9 16 6 61 21 61 10 0 14 15 14 55 0 40 4 55 14 55 9 0
16 17 20 49 4 27 12 51 18 53 7 3 14 33 16 71 3 48 8 67 18 67 10 0 14 14 14
50 0 36 4 50 14 50 15 0 26 42 26 96 0 24 5 34 15 34 12 0 15 13 15 55 0 42 3
55 15 55 10 0 15 10 15 34 0 18 3 54 6 80 6 42 5 48 -15 53 -11 3 -21 12 -21
21 0 12 -9 14 -50 9 -44 -5 -50 -4 -50 12 0 16 10 19 61 23 37 3 64 10 69 18
6 10 38 15 109 18 l101 4 0 -51 c0 -36 -4 -53 -14 -57 -10 -4 -17 -28 -21 -70
-5 -44 -12 -64 -21 -64 -10 0 -14 -15 -14 -55 0 -40 -4 -55 -14 -55 -9 0 -15
-19 -19 -61 -3 -34 -11 -65 -17 -69 -7 -4 -15 -28 -17 -54 -4 -30 -10 -46 -19
-46 -10 0 -14 -17 -14 -65 0 -48 -3 -65 -14 -65 -13 0 -26 -41 -26 -86 0 -15
-6 -24 -15 -24 -12 0 -15 -14 -15 -65 0 -48 -4 -65 -14 -65 -9 0 -15 -18 -19
-52 -4 -28 -12 -55 -19 -59 -6 -4 -14 -35 -16 -68 -3 -43 -8 -61 -18 -61 -11
0 -14 -17 -14 -71 l0 -71 28 7 c15 3 31 13 35 21 4 8 15 14 22 14 8 0 15 7 15
15 0 8 6 15 14 15 8 0 17 15 20 35 6 31 11 35 36 35 28 0 30 -3 30 -35 0 -24
-5 -35 -15 -35 -8 0 -15 -7 -15 -15 0 -8 -7 -15 -16 -15 -9 0 -18 -9 -21 -20
-3 -11 -12 -20 -19 -20 -8 0 -14 -7 -14 -15 0 -8 -7 -15 -15 -15 -8 0 -15 -7
-15 -15 0 -8 -7 -15 -16 -15 -9 0 -18 -9 -21 -20 -4 -14 -14 -20 -34 -20 -19
0 -29 -5 -29 -15 0 -11 -12 -15 -50 -15 -38 0 -50 4 -50 15 0 8 -9 15 -19 15
-23 0 -28 37 -23 159 3 61 8 81 18 81 10 0 14 14 14 50 0 38 -4 50 -15 50 -11
0 -15 -12 -15 -50 0 -38 -4 -50 -15 -50 -8 0 -15 -7 -15 -16 0 -9 -9 -18 -20
-21 -11 -3 -20 -12 -20 -19 0 -8 -7 -14 -15 -14 -8 0 -15 -7 -15 -15 0 -8 -6
-15 -14 -15 -7 0 -16 -9 -19 -20 -3 -11 -12 -20 -21 -20 -9 0 -16 -7 -16 -15
0 -8 -7 -15 -15 -15 -8 0 -15 -6 -15 -14 0 -8 -15 -17 -35 -20 -21 -4 -35 -13
-35 -21 0 -10 -11 -15 -35 -15 -24 0 -35 -5 -35 -15 0 -13 -27 -15 -185 -15
-158 0 -185 2 -185 15 0 10 -10 15 -27 15 -43 0 -73 11 -73 26 0 8 -9 14 -20
14 -11 0 -20 7 -20 15 0 10 -10 15 -30 15 -18 0 -33 6 -36 15 -4 8 -12 15 -20
15 -8 0 -14 9 -14 20 0 13 -7 20 -20 20 -11 0 -20 7 -20 15 0 8 -7 15 -15 15
-8 0 -15 7 -15 15 0 8 -7 15 -15 15 -8 0 -15 9 -15 20 0 11 -7 20 -15 20 -8 0
-15 7 -15 16 0 9 -9 18 -20 21 -14 4 -20 14 -20 34 0 18 -5 29 -14 29 -8 0
-17 15 -20 35 -4 21 -13 35 -21 35 -11 0 -15 13 -15 50 0 38 -4 50 -15 50 -13
0 -15 27 -15 185 0 158 2 185 15 185 11 0 15 11 15 39 0 22 6 46 14 53 7 8 17
29 21 46 3 18 13 32 21 32 9 0 14 11 14 34 0 25 5 35 20 39 11 3 20 12 20 21
0 9 7 16 15 16 8 0 15 7 15 15 0 8 6 15 14 15 7 0 16 14 20 30 4 24 12 32 36
36 16 4 30 13 30 20 0 8 7 14 15 14 8 0 15 7 15 16 0 9 9 18 20 21 11 3 20 12
20 19 0 9 12 14 35 14 24 0 35 5 35 15 0 10 10 15 30 15 16 0 33 6 37 14 4 7
15 16 23 19 20 7 299 8 328 1z m-2188 -2008 c0 -85 3 -161 6 -170 4 -12 0 -16
-15 -16 -21 0 -21 4 -21 170 0 144 2 170 15 170 13 0 15 -24 15 -154z m4880
-16 c0 -144 -2 -170 -15 -170 -13 0 -15 26 -15 170 0 144 2 170 15 170 13 0
15 -26 15 -170z m-5180 -5 c0 -158 -1 -165 -20 -165 -19 0 -20 7 -20 165 0
158 1 165 20 165 19 0 20 -7 20 -165z m170 150 c0 -8 -7 -15 -15 -15 -8 0 -15
7 -15 15 0 8 7 15 15 15 8 0 15 -7 15 -15z m500 -85 l0 -100 35 0 c28 0 35 -4
35 -20 0 -11 6 -20 14 -20 8 0 17 -13 21 -29 5 -22 14 -31 36 -36 38 -9 37
-25 -1 -25 -20 0 -30 5 -30 15 0 8 -6 15 -14 15 -7 0 -16 13 -19 29 -4 20 -14
31 -32 35 -35 9 -45 1 -45 -35 0 -22 5 -29 20 -29 11 0 20 -7 20 -15 0 -11
-11 -15 -36 -15 -33 0 -36 2 -30 23 3 12 6 86 6 165 0 88 4 142 10 142 6 0 10
-40 10 -100z m620 85 c0 -8 -9 -15 -20 -15 -11 0 -20 7 -20 15 0 8 9 15 20 15
11 0 20 -7 20 -15z m740 0 c0 -8 7 -15 15 -15 8 0 15 -7 15 -16 0 -9 9 -18 20
-21 14 -4 20 -14 20 -34 0 -18 5 -29 14 -29 8 0 17 -15 20 -35 6 -31 11 -35
36 -35 l30 0 0 -65 c0 -51 -3 -65 -15 -65 -10 0 -15 10 -15 30 0 20 -5 30 -15
30 -8 0 -17 14 -21 35 -3 20 -12 35 -20 35 -8 0 -14 9 -14 20 0 11 -7 20 -15
20 -10 0 -15 10 -15 30 0 23 -4 30 -20 30 -15 0 -20 7 -20 29 0 25 -5 31 -30
36 -16 4 -30 13 -30 21 0 9 11 14 30 14 20 0 30 -5 30 -15z m340 0 c0 -10 -10
-15 -30 -15 -20 0 -30 5 -30 15 0 10 10 15 30 15 20 0 30 -5 30 -15z m780 0
c0 -8 -7 -15 -15 -15 -8 0 -15 7 -15 15 0 8 7 15 15 15 8 0 15 -7 15 -15z
m540 -134 c0 -82 3 -156 6 -165 5 -12 0 -16 -21 -16 -21 0 -26 4 -21 16 3 9 6
83 6 165 0 126 2 149 15 149 13 0 15 -23 15 -149z m300 134 c0 -10 -10 -15
-30 -15 -20 0 -30 5 -30 15 0 10 10 15 30 15 20 0 30 -5 30 -15z m520 0 c0 -8
-9 -15 -20 -15 -11 0 -20 7 -20 15 0 8 9 15 20 15 11 0 20 -7 20 -15z m-3565
-85 c4 -16 13 -30 21 -30 8 0 14 -9 14 -20 0 -11 -7 -20 -15 -20 -11 0 -15
-11 -15 -42 0 -51 -9 -88 -21 -88 -5 0 -9 52 -9 115 0 110 11 148 25 85z m746
-2 c0 -18 1 -77 2 -131 2 -86 0 -97 -15 -97 -16 0 -18 13 -18 130 0 109 2 130
15 130 10 0 15 -11 16 -32z m2950 -5 c1 -21 0 -75 -1 -120 -1 -70 1 -83 14
-83 9 0 16 -4 16 -10 0 -5 -13 -10 -30 -10 l-30 0 0 130 c0 109 2 130 15 130
10 0 15 -11 16 -37z m-4541 -43 c0 -36 -4 -50 -14 -50 -7 0 -16 9 -19 20 -3
11 -12 20 -21 20 -23 0 -20 17 4 23 11 3 20 12 20 21 0 9 7 16 15 16 11 0 15
-12 15 -50z m1188 -83 c3 -92 2 -97 -18 -97 -19 0 -20 6 -20 93 0 52 3 97 7
101 19 19 28 -8 31 -97z m270 10 c2 -68 6 -87 17 -87 8 0 15 -4 15 -10 0 -5
-13 -10 -29 -10 l-30 0 -3 93 c-4 100 -2 110 15 104 8 -2 13 -36 15 -90z
m1592 -7 c0 -89 -2 -100 -17 -100 -16 0 -18 11 -16 97 1 54 2 99 2 101 1 1 8
2 16 2 12 0 15 -18 15 -100z m236 64 c3 -129 4 -134 19 -134 8 0 15 -7 15 -15
0 -8 -9 -15 -20 -15 -11 0 -20 6 -20 14 0 8 -4 16 -9 18 -9 3 -16 66 -13 131
2 46 27 47 28 1z m845 14 c1 -13 1 -51 -1 -85 -2 -52 1 -63 14 -63 9 0 16 -7
16 -15 0 -10 -10 -15 -27 -15 l-28 0 2 97 c2 114 0 103 13 103 6 0 11 -10 11
-22z m139 -63 c0 -69 3 -85 15 -85 8 0 15 -7 15 -15 0 -10 -10 -15 -30 -15
l-30 0 0 100 c0 82 3 100 15 100 12 0 15 -16 15 -85z m138 -18 c3 -92 2 -97
-18 -97 -19 0 -20 6 -20 93 0 52 3 97 7 101 19 19 28 -8 31 -97z m-3698 83 c0
-5 -7 -10 -15 -10 -8 0 -15 5 -15 10 0 6 7 10 15 10 8 0 15 -4 15 -10z m300
-69 c0 -44 3 -86 6 -95 5 -13 -1 -16 -30 -16 -25 0 -36 4 -36 15 0 8 7 15 15
15 12 0 15 14 15 70 0 56 -3 70 -15 70 -8 0 -15 5 -15 10 0 6 14 10 30 10 l30
0 0 -79z m70 69 c0 -5 -7 -10 -15 -10 -8 0 -15 5 -15 10 0 6 7 10 15 10 8 0
15 -4 15 -10z m240 -5 c0 -8 7 -15 15 -15 8 0 15 -7 15 -15 0 -8 -7 -15 -15
-15 -11 0 -15 -12 -15 -50 0 -38 4 -50 15 -50 8 0 15 -7 15 -15 0 -10 -10 -15
-30 -15 l-30 0 0 95 c0 78 3 95 15 95 8 0 15 -7 15 -15z m920 -70 c0 -69 3
-85 15 -85 8 0 15 -4 15 -10 0 -5 -15 -10 -32 -10 l-33 0 0 95 c0 84 2 95 18
95 15 0 17 -11 17 -85z m160 70 c0 -8 -4 -15 -10 -15 -5 0 -10 7 -10 15 0 8 5
15 10 15 6 0 10 -7 10 -15z m107 -26 c-9 -68 -26 -68 -33 0 -3 36 -1 41 18 41
18 0 20 -4 15 -41z m233 11 c0 -20 -5 -30 -15 -30 -10 0 -15 10 -15 30 0 20 5
30 15 30 10 0 15 -10 15 -30z m140 -65 l0 -95 -30 0 c-32 0 -40 14 -15 24 11
4 15 22 15 71 0 51 -3 65 -15 65 -8 0 -15 7 -15 15 0 10 10 15 30 15 l30 0 0
-95z m70 85 c0 -5 -7 -10 -15 -10 -8 0 -15 5 -15 10 0 6 7 10 15 10 8 0 15 -4
15 -10z m230 -20 c0 -20 -5 -30 -15 -30 -17 0 -18 4 -9 38 9 32 24 27 24 -8z
m680 -50 c0 -62 3 -82 15 -86 25 -10 17 -24 -15 -24 l-30 0 0 95 c0 78 3 95
15 95 12 0 15 -16 15 -80z m140 65 c0 -8 7 -15 15 -15 8 0 15 -7 15 -15 0 -8
-7 -15 -15 -15 -11 0 -15 -12 -15 -50 0 -38 4 -50 15 -50 8 0 15 -7 15 -15 0
-10 -10 -15 -30 -15 l-30 0 0 95 c0 78 3 95 15 95 8 0 15 -7 15 -15z m710 5
c0 -5 -7 -10 -15 -10 -8 0 -15 5 -15 10 0 6 7 10 15 10 8 0 15 -4 15 -10z
m100 -20 c0 -20 -5 -30 -15 -30 -10 0 -15 10 -15 30 0 20 5 30 15 30 10 0 15
-10 15 -30z m140 20 c0 -5 -7 -10 -15 -10 -8 0 -15 5 -15 10 0 6 7 10 15 10 8
0 15 -4 15 -10z m-4480 -30 c0 -11 -7 -20 -15 -20 -8 0 -15 9 -15 20 0 11 7
20 15 20 8 0 15 -9 15 -20z m-130 -55 c0 -49 -3 -65 -14 -65 -8 0 -17 14 -21
31 -9 42 2 99 20 99 12 0 15 -15 15 -65z m2030 50 c0 -8 -7 -15 -15 -15 -8 0
-15 7 -15 15 0 8 7 15 15 15 8 0 15 -7 15 -15z m240 -50 c0 -51 -3 -65 -15
-65 -12 0 -15 14 -15 65 0 51 3 65 15 65 12 0 15 -14 15 -65z m2070 0 c0 -49
-3 -65 -14 -65 -8 0 -17 14 -21 31 -9 42 2 99 20 99 12 0 15 -15 15 -65z m230
0 c0 -51 -3 -65 -15 -65 -12 0 -15 14 -15 65 0 51 3 65 15 65 12 0 15 -14 15
-65z m-2510 -15 c0 -5 -4 -10 -10 -10 -5 0 -10 5 -10 10 0 6 5 10 10 10 6 0
10 -4 10 -10z m780 -5 c0 -8 -4 -15 -10 -15 -5 0 -10 7 -10 15 0 8 5 15 10 15
6 0 10 -7 10 -15z m-30 -29 c0 -8 15 -17 35 -20 19 -4 35 -11 35 -16 0 -6 -16
-10 -35 -10 -24 0 -35 5 -35 15 0 8 -7 15 -15 15 -8 0 -15 7 -15 15 0 8 7 15
15 15 8 0 15 -6 15 -14z m-3080 -31 c0 -8 -9 -15 -20 -15 -20 0 -26 11 -13 23
12 13 33 7 33 -8z m810 0 c0 -8 -7 -15 -15 -15 -8 0 -15 7 -15 15 0 8 7 15 15
15 8 0 15 -7 15 -15z m1010 0 c0 -8 -4 -15 -10 -15 -5 0 -10 7 -10 15 0 8 5
15 10 15 6 0 10 -7 10 -15z m617 -1 c2 -7 -20 -13 -62 -17 -77 -6 -105 0 -105
20 0 11 16 13 82 11 48 -2 83 -8 85 -14z m1253 1 c0 -10 -10 -15 -30 -15 -49
0 -34 24 18 29 6 0 12 -6 12 -14z m1190 -5 c0 -5 -7 -10 -15 -10 -8 0 -15 5
-15 10 0 6 7 10 15 10 8 0 15 -4 15 -10z m-2580 -95 c0 -8 -7 -15 -15 -15 -8
0 -15 7 -15 15 0 8 7 15 15 15 8 0 15 -7 15 -15z"/>
<path d="M2910 2936 c0 -9 -18 -16 -50 -20 -34 -5 -50 -11 -50 -21 0 -10 -10
-15 -29 -15 -25 0 -31 -5 -36 -30 -4 -16 -13 -30 -21 -30 -9 0 -14 -11 -14
-35 0 -24 -5 -35 -15 -35 -13 0 -15 -22 -15 -135 l0 -135 306 0 305 0 -3 147
c-2 104 -7 148 -15 150 -7 3 -15 20 -19 39 -3 19 -12 34 -20 34 -8 0 -14 7
-14 15 0 8 -7 15 -15 15 -7 0 -18 7 -23 15 -4 9 -26 18 -48 22 -21 3 -43 12
-47 20 -12 19 -177 19 -177 -1z"/>
</g>
</svg>
