<svg width="42" height="8" viewBox="0 0 42 8" fill="none" xmlns="http://www.w3.org/2000/svg">
<path d="M2.46514 0.295696C2.46514 0.324312 2.44974 0.339721 2.42112 0.339721C2.3837 0.339721 2.37709 0.35513 2.37709 0.427771C2.37709 0.500413 2.37049 0.515822 2.33307 0.515822C2.29565 0.515822 2.28904 0.53123 2.28904 0.603872C2.28904 0.676513 2.28244 0.691922 2.24502 0.691922C2.2164 0.691922 2.20099 0.707331 2.20099 0.735947C2.20099 0.764564 2.18558 0.779973 2.15697 0.779973C2.11955 0.779973 2.11294 0.795381 2.11294 0.868023C2.11294 0.940664 2.10634 0.956073 2.06892 0.956073C2.0315 0.956073 2.02489 0.971482 2.02489 1.04412C2.02489 1.11676 2.01829 1.13217 1.98087 1.13217C1.94345 1.13217 1.93684 1.14758 1.93684 1.22022C1.93684 1.29287 1.93024 1.30827 1.89282 1.30827C1.8642 1.30827 1.84879 1.32368 1.84879 1.3523C1.84879 1.38092 1.83338 1.39632 1.80477 1.39632C1.77615 1.39632 1.76074 1.41173 1.76074 1.44035C1.76074 1.48438 1.77615 1.48438 2.9054 1.48438C4.03464 1.48438 4.05005 1.48438 4.05005 1.44035C4.05005 1.40293 4.06546 1.39632 4.1381 1.39632C4.21074 1.39632 4.22615 1.38972 4.22615 1.3523C4.22615 1.31488 4.24156 1.30827 4.3142 1.30827C4.38684 1.30827 4.40225 1.30167 4.40225 1.26425C4.40225 1.23563 4.41766 1.22022 4.44628 1.22022C4.47489 1.22022 4.4903 1.20482 4.4903 1.1762C4.4903 1.13878 4.50571 1.13217 4.57835 1.13217C4.65099 1.13217 4.6664 1.12557 4.6664 1.08815C4.6664 1.05073 4.68181 1.04412 4.75445 1.04412C4.82709 1.04412 4.8425 1.03752 4.8425 1.0001C4.8425 0.971482 4.85791 0.956073 4.88653 0.956073C4.91514 0.956073 4.93055 0.940664 4.93055 0.912048C4.93055 0.874627 4.94596 0.868023 5.0186 0.868023C5.09125 0.868023 5.10665 0.861419 5.10665 0.823998C5.10665 0.786576 5.12206 0.779973 5.1947 0.779973C5.26735 0.779973 5.28275 0.773369 5.28275 0.735947C5.28275 0.698526 5.29816 0.691922 5.3708 0.691922C5.44345 0.691922 5.45886 0.685318 5.45886 0.647897C5.45886 0.619281 5.47426 0.603872 5.50288 0.603872C5.5315 0.603872 5.54691 0.588463 5.54691 0.559847C5.54691 0.522425 5.56231 0.515822 5.63496 0.515822C5.7076 0.515822 5.72301 0.509218 5.72301 0.471796C5.72301 0.434375 5.73841 0.427771 5.81106 0.427771C5.8837 0.427771 5.89911 0.421168 5.89911 0.383746C5.89911 0.346325 5.91452 0.339721 5.98716 0.339721C6.0598 0.339721 6.07521 0.333117 6.07521 0.295696C6.07521 0.251671 6.0598 0.251671 4.27018 0.251671C2.48055 0.251671 2.46514 0.251671 2.46514 0.295696Z" fill="black"/>
<path d="M6.60352 0.339721C6.60352 0.412362 6.61012 0.427771 6.64754 0.427771C6.68496 0.427771 6.69157 0.44318 6.69157 0.515822C6.69157 0.588463 6.69817 0.603872 6.73559 0.603872C6.76421 0.603872 6.77962 0.619281 6.77962 0.647897C6.77962 0.676513 6.79503 0.691922 6.82364 0.691922C6.86106 0.691922 6.86767 0.707331 6.86767 0.779973C6.86767 0.852614 6.87427 0.868023 6.91169 0.868023C6.94911 0.868023 6.95572 0.883432 6.95572 0.956073C6.95572 1.02871 6.96232 1.04412 6.99974 1.04412C7.03716 1.04412 7.04377 1.05953 7.04377 1.13217C7.04377 1.20482 7.05037 1.22022 7.08779 1.22022C7.11641 1.22022 7.13182 1.23563 7.13182 1.26425C7.13182 1.29287 7.14723 1.30827 7.17584 1.30827C7.21326 1.30827 7.21987 1.32368 7.21987 1.39632V1.48438H7.83622C8.43716 1.48438 8.45257 1.48438 8.45257 1.44035C8.45257 1.41173 8.43716 1.39632 8.40855 1.39632C8.37993 1.39632 8.36452 1.38092 8.36452 1.3523C8.36452 1.32368 8.34911 1.30827 8.3205 1.30827C8.28308 1.30827 8.27647 1.29287 8.27647 1.22022C8.27647 1.14758 8.26987 1.13217 8.23245 1.13217C8.19502 1.13217 8.18842 1.11676 8.18842 1.04412C8.18842 0.971482 8.18182 0.956073 8.1444 0.956073C8.10697 0.956073 8.10037 0.940664 8.10037 0.868023C8.10037 0.795381 8.09377 0.779973 8.05635 0.779973C8.02773 0.779973 8.01232 0.764564 8.01232 0.735947C8.01232 0.707331 7.99691 0.691922 7.9683 0.691922C7.93087 0.691922 7.92427 0.676513 7.92427 0.603872C7.92427 0.53123 7.91767 0.515822 7.88024 0.515822C7.84282 0.515822 7.83622 0.500413 7.83622 0.427771C7.83622 0.35513 7.82962 0.339721 7.79219 0.339721C7.76358 0.339721 7.74817 0.324312 7.74817 0.295696C7.74817 0.253872 7.73276 0.251671 7.17584 0.251671H6.60352V0.339721Z" fill="black"/>
<path d="M1.5851 1.83655C1.5851 1.90919 1.5785 1.9246 1.54108 1.9246C1.51246 1.9246 1.49705 1.94001 1.49705 1.96862C1.49705 1.99724 1.48164 2.01265 1.45303 2.01265C1.41561 2.01265 1.409 2.02806 1.409 2.1007C1.409 2.17334 1.4024 2.18875 1.36498 2.18875C1.32755 2.18875 1.32095 2.20416 1.32095 2.2768C1.32095 2.34944 1.31435 2.36485 1.27693 2.36485C1.24831 2.36485 1.2329 2.38026 1.2329 2.40887C1.2329 2.43749 1.21749 2.4529 1.18888 2.4529C1.15145 2.4529 1.14485 2.46831 1.14485 2.54095C1.14485 2.61359 1.13825 2.629 1.10083 2.629C1.0634 2.629 1.0568 2.64441 1.0568 2.71705C1.0568 2.78969 1.0502 2.8051 1.01278 2.8051C0.975354 2.8051 0.96875 2.82051 0.96875 2.89315V2.9812H2.77378C4.5634 2.9812 4.57881 2.9812 4.57881 2.93718C4.57881 2.90856 4.5634 2.89315 4.53479 2.89315C4.49737 2.89315 4.49076 2.87774 4.49076 2.8051C4.49076 2.73246 4.48416 2.71705 4.44674 2.71705C4.40932 2.71705 4.40271 2.70164 4.40271 2.629C4.40271 2.55636 4.39611 2.54095 4.35869 2.54095C4.33007 2.54095 4.31466 2.52554 4.31466 2.49692C4.31466 2.46831 4.29925 2.4529 4.27064 2.4529C4.23321 2.4529 4.22661 2.43749 4.22661 2.36485C4.22661 2.29221 4.22001 2.2768 4.18259 2.2768C4.14516 2.2768 4.13856 2.26139 4.13856 2.18875C4.13856 2.11611 4.13196 2.1007 4.09454 2.1007C4.05711 2.1007 4.05051 2.08529 4.05051 2.01265C4.05051 1.94001 4.04391 1.9246 4.00649 1.9246C3.97787 1.9246 3.96246 1.90919 3.96246 1.88057C3.96246 1.85196 3.94705 1.83655 3.91844 1.83655C3.88982 1.83655 3.87441 1.82114 3.87441 1.79252C3.87441 1.7485 3.859 1.7485 2.72976 1.7485H1.5851V1.83655Z" fill="black"/>
<path d="M7.48386 1.83655C7.48386 1.90919 7.49046 1.9246 7.52788 1.9246C7.56531 1.9246 7.57191 1.94001 7.57191 2.01265C7.57191 2.08529 7.57851 2.1007 7.61593 2.1007C7.65336 2.1007 7.65996 2.11611 7.65996 2.18875C7.65996 2.26139 7.66656 2.2768 7.70398 2.2768C7.7326 2.2768 7.74801 2.29221 7.74801 2.32082C7.74801 2.34944 7.7326 2.36485 7.70398 2.36485C7.67537 2.36485 7.65996 2.38026 7.65996 2.40887C7.65996 2.4463 7.64455 2.4529 7.57191 2.4529C7.49927 2.4529 7.48386 2.4595 7.48386 2.49692C7.48386 2.53435 7.46845 2.54095 7.39581 2.54095C7.32317 2.54095 7.30776 2.54755 7.30776 2.58497C7.30776 2.6224 7.29235 2.629 7.21971 2.629C7.14707 2.629 7.13166 2.6356 7.13166 2.67303C7.13166 2.70164 7.11625 2.71705 7.08763 2.71705C7.05902 2.71705 7.04361 2.73246 7.04361 2.76108C7.04361 2.7985 7.0282 2.8051 6.95556 2.8051C6.88292 2.8051 6.86751 2.8117 6.86751 2.84913C6.86751 2.88655 6.8521 2.89315 6.77946 2.89315C6.70682 2.89315 6.69141 2.89975 6.69141 2.93718C6.69141 2.9812 6.70682 2.9812 7.96814 2.9812H9.24486V2.89315C9.24486 2.82051 9.23826 2.8051 9.20084 2.8051C9.16342 2.8051 9.15681 2.78969 9.15681 2.71705C9.15681 2.64441 9.15021 2.629 9.11279 2.629C9.07537 2.629 9.06876 2.61359 9.06876 2.54095C9.06876 2.46831 9.06216 2.4529 9.02474 2.4529C8.99612 2.4529 8.98071 2.43749 8.98071 2.40887C8.98071 2.38026 8.96531 2.36485 8.93669 2.36485C8.89927 2.36485 8.89266 2.34944 8.89266 2.2768C8.89266 2.20416 8.88606 2.18875 8.84864 2.18875C8.81122 2.18875 8.80461 2.17334 8.80461 2.1007C8.80461 2.02806 8.79801 2.01265 8.76059 2.01265C8.72317 2.01265 8.71656 1.99724 8.71656 1.9246C8.71656 1.85196 8.70996 1.83655 8.67254 1.83655C8.64392 1.83655 8.62851 1.82114 8.62851 1.79252C8.62851 1.7507 8.6131 1.7485 8.05619 1.7485H7.48386V1.83655Z" fill="black"/>
<path d="M13.0312 4.69801V7.38354H13.5596H14.0879V4.69801V2.01248H13.5596H13.0312V4.69801Z" fill="black"/>
<path d="M30.9053 4.69801V7.38354H31.4336H31.9619V6.85524C31.9619 6.34235 31.9641 6.32694 32.0059 6.32694C32.0345 6.32694 32.0499 6.31153 32.0499 6.28292C32.0499 6.2543 32.0653 6.23889 32.094 6.23889C32.1226 6.23889 32.138 6.22348 32.138 6.19487C32.138 6.16625 32.1534 6.15084 32.182 6.15084C32.2194 6.15084 32.226 6.13543 32.226 6.06279C32.226 5.99015 32.2326 5.97474 32.2701 5.97474C32.2987 5.97474 32.3141 5.95933 32.3141 5.93071C32.3141 5.89329 32.3295 5.88669 32.4021 5.88669H32.4902V5.97474C32.4902 6.04738 32.4968 6.06279 32.5342 6.06279C32.5628 6.06279 32.5782 6.0782 32.5782 6.10682C32.5782 6.13543 32.5936 6.15084 32.6223 6.15084C32.6597 6.15084 32.6663 6.16625 32.6663 6.23889C32.6663 6.31153 32.6729 6.32694 32.7103 6.32694C32.7389 6.32694 32.7543 6.34235 32.7543 6.37097C32.7543 6.39958 32.7697 6.41499 32.7984 6.41499C32.8358 6.41499 32.8424 6.4304 32.8424 6.50304C32.8424 6.57568 32.849 6.59109 32.8864 6.59109C32.915 6.59109 32.9304 6.6065 32.9304 6.63512C32.9304 6.66373 32.9458 6.67914 32.9745 6.67914C33.0031 6.67914 33.0185 6.69455 33.0185 6.72317C33.0185 6.75178 33.0339 6.76719 33.0625 6.76719C33.0999 6.76719 33.1065 6.7826 33.1065 6.85524C33.1065 6.92788 33.1131 6.94329 33.1506 6.94329C33.1792 6.94329 33.1946 6.9587 33.1946 6.98732C33.1946 7.01593 33.21 7.03134 33.2386 7.03134C33.276 7.03134 33.2826 7.04675 33.2826 7.11939C33.2826 7.19204 33.2892 7.20744 33.3267 7.20744C33.3553 7.20744 33.3707 7.22285 33.3707 7.25147C33.3707 7.28009 33.3861 7.29549 33.4147 7.29549C33.4433 7.29549 33.4587 7.3109 33.4587 7.33952C33.4587 7.38354 33.4741 7.38354 34.0751 7.38354C34.676 7.38354 34.6914 7.38354 34.6914 7.33952C34.6914 7.3109 34.676 7.29549 34.6474 7.29549C34.61 7.29549 34.6034 7.28009 34.6034 7.20744C34.6034 7.1348 34.5968 7.11939 34.5594 7.11939C34.5307 7.11939 34.5153 7.10399 34.5153 7.07537C34.5153 7.04675 34.4999 7.03134 34.4713 7.03134C34.4427 7.03134 34.4273 7.01593 34.4273 6.98732C34.4273 6.9587 34.4119 6.94329 34.3833 6.94329C34.3458 6.94329 34.3392 6.92788 34.3392 6.85524C34.3392 6.7826 34.3326 6.76719 34.2952 6.76719C34.2666 6.76719 34.2512 6.75178 34.2512 6.72317C34.2512 6.69455 34.2358 6.67914 34.2072 6.67914C34.1785 6.67914 34.1631 6.66373 34.1631 6.63512C34.1631 6.6065 34.1477 6.59109 34.1191 6.59109C34.0817 6.59109 34.0751 6.57568 34.0751 6.50304C34.0751 6.4304 34.0685 6.41499 34.0311 6.41499C34.0024 6.41499 33.987 6.39958 33.987 6.37097C33.987 6.34235 33.9716 6.32694 33.943 6.32694C33.9144 6.32694 33.899 6.31153 33.899 6.28292C33.899 6.2543 33.8836 6.23889 33.855 6.23889C33.8175 6.23889 33.8109 6.22348 33.8109 6.15084C33.8109 6.0782 33.8043 6.06279 33.7669 6.06279C33.7383 6.06279 33.7229 6.04738 33.7229 6.01877C33.7229 5.99015 33.7075 5.97474 33.6789 5.97474C33.6502 5.97474 33.6348 5.95933 33.6348 5.93071C33.6348 5.9021 33.6194 5.88669 33.5908 5.88669C33.5534 5.88669 33.5468 5.87128 33.5468 5.79864C33.5468 5.726 33.5402 5.71059 33.5028 5.71059C33.4741 5.71059 33.4587 5.69518 33.4587 5.66656C33.4587 5.63795 33.4433 5.62254 33.4147 5.62254C33.3861 5.62254 33.3707 5.60713 33.3707 5.57851C33.3707 5.5499 33.3553 5.53449 33.3267 5.53449C33.2892 5.53449 33.2826 5.51908 33.2826 5.44644C33.2826 5.3738 33.276 5.35839 33.2386 5.35839C33.21 5.35839 33.1946 5.34298 33.1946 5.31436C33.1946 5.28575 33.1792 5.27034 33.1506 5.27034C33.1219 5.27034 33.1065 5.25493 33.1065 5.22631C33.1065 5.1977 33.1219 5.18229 33.1506 5.18229C33.1792 5.18229 33.1946 5.16688 33.1946 5.13826C33.1946 5.10965 33.21 5.09424 33.2386 5.09424C33.2672 5.09424 33.2826 5.07883 33.2826 5.05021C33.2826 5.0216 33.298 5.00619 33.3267 5.00619C33.3553 5.00619 33.3707 4.99078 33.3707 4.96216C33.3707 4.93355 33.3861 4.91814 33.4147 4.91814C33.4433 4.91814 33.4587 4.90273 33.4587 4.87411C33.4587 4.8455 33.4741 4.83009 33.5028 4.83009C33.5314 4.83009 33.5468 4.81468 33.5468 4.78606C33.5468 4.75744 33.5622 4.74204 33.5908 4.74204C33.6194 4.74204 33.6348 4.72663 33.6348 4.69801C33.6348 4.66939 33.6502 4.65399 33.6789 4.65399C33.7163 4.65399 33.7229 4.63858 33.7229 4.56594C33.7229 4.49329 33.7295 4.47789 33.7669 4.47789C33.7955 4.47789 33.8109 4.46248 33.8109 4.43386C33.8109 4.40524 33.8263 4.38983 33.855 4.38983C33.8836 4.38983 33.899 4.37443 33.899 4.34581C33.899 4.31719 33.9144 4.30178 33.943 4.30178C33.9716 4.30178 33.987 4.28638 33.987 4.25776C33.987 4.22914 34.0024 4.21373 34.0311 4.21373C34.0597 4.21373 34.0751 4.19833 34.0751 4.16971C34.0751 4.14109 34.0905 4.12568 34.1191 4.12568C34.1477 4.12568 34.1631 4.11028 34.1631 4.08166C34.1631 4.05304 34.1785 4.03763 34.2072 4.03763C34.2358 4.03763 34.2512 4.02222 34.2512 3.99361C34.2512 3.96499 34.2666 3.94958 34.2952 3.94958C34.3326 3.94958 34.3392 3.93417 34.3392 3.86153C34.3392 3.78889 34.3458 3.77348 34.3833 3.77348C34.4119 3.77348 34.4273 3.75807 34.4273 3.72946C34.4273 3.70084 34.4427 3.68543 34.4713 3.68543C34.4999 3.68543 34.5153 3.67002 34.5153 3.64141C34.5153 3.61279 34.5307 3.59738 34.5594 3.59738C34.588 3.59738 34.6034 3.58197 34.6034 3.55336C34.6034 3.50933 34.588 3.50933 33.987 3.50933C33.3861 3.50933 33.3707 3.50933 33.3707 3.55336C33.3707 3.58197 33.3553 3.59738 33.3267 3.59738C33.298 3.59738 33.2826 3.61279 33.2826 3.64141C33.2826 3.67002 33.2672 3.68543 33.2386 3.68543C33.21 3.68543 33.1946 3.70084 33.1946 3.72946C33.1946 3.75807 33.1792 3.77348 33.1506 3.77348C33.1219 3.77348 33.1065 3.78889 33.1065 3.81751C33.1065 3.84612 33.0911 3.86153 33.0625 3.86153C33.0251 3.86153 33.0185 3.87694 33.0185 3.94958C33.0185 4.02222 33.0119 4.03763 32.9745 4.03763C32.9458 4.03763 32.9304 4.05304 32.9304 4.08166C32.9304 4.11028 32.915 4.12568 32.8864 4.12568C32.8578 4.12568 32.8424 4.14109 32.8424 4.16971C32.8424 4.19833 32.827 4.21373 32.7984 4.21373C32.7697 4.21373 32.7543 4.22914 32.7543 4.25776C32.7543 4.28638 32.7389 4.30178 32.7103 4.30178C32.6817 4.30178 32.6663 4.31719 32.6663 4.34581C32.6663 4.37443 32.6509 4.38983 32.6223 4.38983C32.5936 4.38983 32.5782 4.40524 32.5782 4.43386C32.5782 4.46248 32.5628 4.47789 32.5342 4.47789C32.4968 4.47789 32.4902 4.49329 32.4902 4.56594C32.4902 4.63858 32.4836 4.65399 32.4462 4.65399C32.4175 4.65399 32.4021 4.66939 32.4021 4.69801C32.4021 4.72663 32.3867 4.74204 32.3581 4.74204C32.3295 4.74204 32.3141 4.75744 32.3141 4.78606C32.3141 4.81468 32.2987 4.83009 32.2701 4.83009C32.2414 4.83009 32.226 4.8455 32.226 4.87411C32.226 4.90273 32.2106 4.91814 32.182 4.91814C32.1534 4.91814 32.138 4.93355 32.138 4.96216C32.138 4.99078 32.1226 5.00619 32.094 5.00619C32.0653 5.00619 32.0499 5.0216 32.0499 5.05021C32.0499 5.07883 32.0345 5.09424 32.0059 5.09424C31.9619 5.09424 31.9619 5.07883 31.9619 3.55336V2.01248H31.4336H30.9053V4.69801Z" fill="black"/>
<path d="M40.0625 4.38992C40.0625 6.75187 40.0625 6.76728 40.1065 6.76728C40.1461 6.76728 40.1506 6.78269 40.1506 6.89935C40.1506 7.01602 40.155 7.03143 40.1946 7.03143C40.2232 7.03143 40.2386 7.04684 40.2386 7.07545C40.2386 7.10407 40.254 7.11948 40.2826 7.11948C40.3112 7.11948 40.3267 7.13489 40.3267 7.1635C40.3267 7.19212 40.3421 7.20753 40.3707 7.20753C40.3993 7.20753 40.4147 7.22294 40.4147 7.25155C40.4147 7.28898 40.4301 7.29558 40.5028 7.29558C40.5754 7.29558 40.5908 7.30218 40.5908 7.3396C40.5908 7.37923 40.6062 7.38363 40.7229 7.38363C40.8395 7.38363 40.855 7.38803 40.855 7.42765C40.855 7.46948 40.8704 7.47168 41.1631 7.47168C41.4559 7.47168 41.4713 7.46948 41.4713 7.42765C41.4713 7.38803 41.4867 7.38363 41.6474 7.38363C41.8081 7.38363 41.8235 7.37923 41.8235 7.3396C41.8235 7.31099 41.8389 7.29558 41.8675 7.29558C41.8961 7.29558 41.9116 7.28017 41.9116 7.25155C41.9116 7.22294 41.927 7.20753 41.9556 7.20753C41.993 7.20753 41.9996 7.19212 41.9996 7.11948C41.9996 7.04684 41.993 7.03143 41.9556 7.03143C41.916 7.03143 41.9116 7.01602 41.9116 6.89935C41.9116 6.78269 41.9072 6.76728 41.8675 6.76728C41.8279 6.76728 41.8235 6.75187 41.8235 6.6352V6.50313H41.6914C41.5748 6.50313 41.5594 6.50753 41.5594 6.54715C41.5594 6.58457 41.5439 6.59118 41.4713 6.59118C41.3987 6.59118 41.3833 6.58457 41.3833 6.54715C41.3833 6.50973 41.3678 6.50313 41.2952 6.50313C41.2226 6.50313 41.2072 6.49652 41.2072 6.4591C41.2072 6.43048 41.1917 6.41508 41.1631 6.41508C41.1235 6.41508 41.1191 6.39967 41.1191 6.283C41.1191 6.16633 41.1147 6.15093 41.0751 6.15093C41.0311 6.15093 41.0311 6.13552 41.0311 4.08174V2.01256H40.5468H40.0625V4.38992Z" fill="black"/>
<path d="M20.4279 2.98111V3.50942H20.1197H19.8115V3.94967V4.38992H20.1197H20.4279V5.53457C20.4279 6.66382 20.4279 6.67923 20.4719 6.67923C20.5115 6.67923 20.5159 6.69464 20.5159 6.8113C20.5159 6.92797 20.5203 6.94338 20.56 6.94338C20.5974 6.94338 20.604 6.95879 20.604 7.03143C20.604 7.10407 20.6106 7.11948 20.648 7.11948C20.6766 7.11948 20.692 7.13489 20.692 7.1635C20.692 7.19212 20.7074 7.20753 20.7361 7.20753C20.7647 7.20753 20.7801 7.22294 20.7801 7.25155C20.7801 7.28898 20.7955 7.29558 20.8681 7.29558C20.9408 7.29558 20.9562 7.30218 20.9562 7.3396C20.9562 7.37923 20.9716 7.38363 21.1323 7.38363C21.293 7.38363 21.3084 7.38803 21.3084 7.42765C21.3084 7.46948 21.3238 7.47168 21.5725 7.47168C21.8213 7.47168 21.8367 7.46948 21.8367 7.42765C21.8367 7.38803 21.8521 7.38363 22.0128 7.38363C22.1735 7.38363 22.1889 7.37923 22.1889 7.3396C22.1889 7.30218 22.2043 7.29558 22.2769 7.29558H22.365V7.1635C22.365 7.04684 22.3606 7.03143 22.321 7.03143C22.2813 7.03143 22.2769 7.01602 22.2769 6.85533C22.2769 6.69464 22.2725 6.67923 22.2329 6.67923C22.1955 6.67923 22.1889 6.66382 22.1889 6.59118V6.50313H22.0568C21.9401 6.50313 21.9247 6.50753 21.9247 6.54715C21.9247 6.58457 21.9093 6.59118 21.8367 6.59118C21.764 6.59118 21.7486 6.58457 21.7486 6.54715C21.7486 6.50973 21.7332 6.50313 21.6606 6.50313C21.5879 6.50313 21.5725 6.49652 21.5725 6.4591C21.5725 6.43048 21.5571 6.41508 21.5285 6.41508C21.4845 6.41508 21.4845 6.39967 21.4845 5.4025V4.38992H21.8807H22.2769V3.94967V3.50942H21.8807H21.4845V2.98111V2.45281H20.9562H20.4279V2.98111Z" fill="black"/>
<path d="M0.704402 3.37724C0.704402 3.40586 0.688994 3.42126 0.660377 3.42126C0.622956 3.42126 0.616352 3.43667 0.616352 3.50931C0.616352 3.58196 0.609748 3.59736 0.572327 3.59736C0.543711 3.59736 0.528302 3.61277 0.528302 3.64139C0.528302 3.67001 0.512893 3.68541 0.484277 3.68541C0.446855 3.68541 0.440252 3.70082 0.440252 3.77347C0.440252 3.84611 0.433648 3.86152 0.396226 3.86152C0.358805 3.86152 0.352201 3.87692 0.352201 3.94957C0.352201 4.02221 0.345597 4.03762 0.308176 4.03762C0.270755 4.03762 0.264151 4.05302 0.264151 4.12567C0.264151 4.19831 0.257547 4.21372 0.220126 4.21372C0.191509 4.21372 0.176101 4.22913 0.176101 4.25774C0.176101 4.28636 0.160692 4.30177 0.132075 4.30177C0.0946541 4.30177 0.0880503 4.31718 0.0880503 4.38982C0.0880503 4.46246 0.0814465 4.47787 0.0440252 4.47787C0.0154088 4.47787 0 4.49328 0 4.52189C0 4.56592 0.0154088 4.56592 5.10692 4.56592C10.1984 4.56592 10.2138 4.56592 10.2138 4.52189C10.2138 4.49328 10.1984 4.47787 10.1698 4.47787C10.1324 4.47787 10.1258 4.46246 10.1258 4.38982C10.1258 4.31718 10.1192 4.30177 10.0818 4.30177C10.0443 4.30177 10.0377 4.28636 10.0377 4.21372C10.0377 4.14108 10.0311 4.12567 9.99371 4.12567C9.96509 4.12567 9.94968 4.11026 9.94968 4.08164C9.94968 4.05302 9.93428 4.03762 9.90566 4.03762C9.86824 4.03762 9.86163 4.02221 9.86163 3.94957C9.86163 3.87692 9.85503 3.86152 9.81761 3.86152C9.78019 3.86152 9.77358 3.84611 9.77358 3.77347C9.77358 3.70082 9.76698 3.68541 9.72956 3.68541C9.70094 3.68541 9.68553 3.67001 9.68553 3.64139C9.68553 3.61277 9.67012 3.59736 9.64151 3.59736C9.60409 3.59736 9.59748 3.58196 9.59748 3.50931C9.59748 3.43667 9.59088 3.42126 9.55346 3.42126C9.52484 3.42126 9.50943 3.40586 9.50943 3.37724C9.50943 3.33321 9.49402 3.33321 7.74843 3.33321C6.00283 3.33321 5.98742 3.33321 5.98742 3.37724C5.98742 3.41466 5.97201 3.42126 5.89937 3.42126C5.82673 3.42126 5.81132 3.42787 5.81132 3.46529C5.81132 3.50271 5.79591 3.50931 5.72327 3.50931C5.65063 3.50931 5.63522 3.51592 5.63522 3.55334C5.63522 3.59076 5.61981 3.59736 5.54717 3.59736C5.47453 3.59736 5.45912 3.60397 5.45912 3.64139C5.45912 3.67001 5.44371 3.68541 5.41509 3.68541C5.38648 3.68541 5.37107 3.70082 5.37107 3.72944C5.37107 3.76686 5.35566 3.77347 5.28302 3.77347C5.21038 3.77347 5.19497 3.78007 5.19497 3.81749C5.19497 3.84611 5.17956 3.86152 5.15094 3.86152C5.12233 3.86152 5.10692 3.84611 5.10692 3.81749C5.10692 3.78887 5.09151 3.77347 5.06289 3.77347C5.02547 3.77347 5.01887 3.75806 5.01887 3.68541C5.01887 3.61277 5.01226 3.59736 4.97484 3.59736C4.94623 3.59736 4.93082 3.58196 4.93082 3.55334C4.93082 3.52472 4.91541 3.50931 4.88679 3.50931C4.84937 3.50931 4.84277 3.49391 4.84277 3.42126V3.33321H2.77358C0.719811 3.33321 0.704402 3.33321 0.704402 3.37724Z" fill="black"/>
<path d="M17.2582 3.46531C17.2582 3.50493 17.2428 3.50933 17.1262 3.50933C17.0095 3.50933 16.9941 3.51373 16.9941 3.55336C16.9941 3.59078 16.9787 3.59738 16.906 3.59738C16.8334 3.59738 16.818 3.60399 16.818 3.64141C16.818 3.67883 16.8026 3.68543 16.7299 3.68543C16.6573 3.68543 16.6419 3.69204 16.6419 3.72946C16.6419 3.75807 16.6265 3.77348 16.5979 3.77348C16.5692 3.77348 16.5538 3.78889 16.5538 3.81751C16.5538 3.84612 16.5384 3.86153 16.5098 3.86153C16.4812 3.86153 16.4658 3.87694 16.4658 3.90556C16.4658 3.93417 16.4504 3.94958 16.4218 3.94958C16.3799 3.94958 16.3777 3.93417 16.3777 3.72946V3.50933H15.8935H15.4092V5.44644V7.38354H15.8935H16.3777V6.01877C16.3777 4.66939 16.3777 4.65399 16.4218 4.65399C16.4504 4.65399 16.4658 4.63858 16.4658 4.60996C16.4658 4.58134 16.4812 4.56594 16.5098 4.56594C16.5384 4.56594 16.5538 4.55053 16.5538 4.52191C16.5538 4.48449 16.5692 4.47789 16.6419 4.47789C16.7145 4.47789 16.7299 4.47128 16.7299 4.43386C16.7299 4.39644 16.7453 4.38983 16.818 4.38983C16.8906 4.38983 16.906 4.38323 16.906 4.34581C16.906 4.30399 16.9214 4.30178 17.3023 4.30178C17.6831 4.30178 17.6985 4.30399 17.6985 4.34581C17.6985 4.37443 17.7139 4.38983 17.7425 4.38983C17.7711 4.38983 17.7865 4.40524 17.7865 4.43386C17.7865 4.46248 17.8019 4.47789 17.8306 4.47789C17.8592 4.47789 17.8746 4.49329 17.8746 4.52191C17.8746 4.55053 17.89 4.56594 17.9186 4.56594C17.9582 4.56594 17.9626 4.58134 17.9626 4.74204C17.9626 4.90273 17.967 4.91814 18.0067 4.91814C18.0507 4.91814 18.0507 4.93355 18.0507 6.15084V7.38354H18.535H19.0192V5.84266C19.0192 4.31719 19.0192 4.30178 18.9752 4.30178C18.9356 4.30178 18.9312 4.28638 18.9312 4.16971C18.9312 4.05304 18.9268 4.03763 18.8872 4.03763C18.8497 4.03763 18.8431 4.02222 18.8431 3.94958C18.8431 3.87694 18.8365 3.86153 18.7991 3.86153C18.7705 3.86153 18.7551 3.84612 18.7551 3.81751C18.7551 3.78889 18.7397 3.77348 18.7111 3.77348C18.6824 3.77348 18.667 3.75807 18.667 3.72946C18.667 3.70084 18.6516 3.68543 18.623 3.68543C18.5944 3.68543 18.579 3.67002 18.579 3.64141C18.579 3.61279 18.5636 3.59738 18.535 3.59738C18.5063 3.59738 18.4909 3.58197 18.4909 3.55336C18.4909 3.51373 18.4755 3.50933 18.3589 3.50933C18.2422 3.50933 18.2268 3.50493 18.2268 3.46531C18.2268 3.42348 18.2114 3.42128 17.7425 3.42128C17.2736 3.42128 17.2582 3.42348 17.2582 3.46531Z" fill="black"/>
<path d="M24.3024 3.46539C24.3024 3.50281 24.287 3.50942 24.2143 3.50942C24.1417 3.50942 24.1263 3.51602 24.1263 3.55344C24.1263 3.59086 24.1109 3.59747 24.0382 3.59747C23.9656 3.59747 23.9502 3.60407 23.9502 3.64149C23.9502 3.67891 23.9347 3.68552 23.8621 3.68552C23.7895 3.68552 23.7741 3.69212 23.7741 3.72954C23.7741 3.75816 23.7586 3.77357 23.73 3.77357C23.7014 3.77357 23.686 3.78898 23.686 3.81759C23.686 3.84621 23.6706 3.86162 23.642 3.86162C23.6134 3.86162 23.598 3.87703 23.598 3.90564C23.598 3.93426 23.5825 3.94967 23.5539 3.94967C23.5253 3.94967 23.5099 3.96508 23.5099 3.99369C23.5099 4.02231 23.4945 4.03772 23.4659 4.03772C23.4373 4.03772 23.4219 4.05313 23.4219 4.08174C23.4219 4.11036 23.4064 4.12577 23.3778 4.12577C23.3492 4.12577 23.3338 4.14118 23.3338 4.16979C23.3338 4.19841 23.3184 4.21382 23.2898 4.21382C23.2524 4.21382 23.2458 4.22923 23.2458 4.30187C23.2458 4.37451 23.2392 4.38992 23.2017 4.38992C23.1731 4.38992 23.1577 4.40533 23.1577 4.43394C23.1577 4.46256 23.1423 4.47797 23.1137 4.47797C23.0741 4.47797 23.0697 4.49338 23.0697 4.61004C23.0697 4.72671 23.0653 4.74212 23.0256 4.74212C22.9838 4.74212 22.9816 4.75753 22.9816 4.96225C22.9816 5.16696 22.9794 5.18237 22.9376 5.18237C22.8958 5.18237 22.8936 5.19778 22.8936 5.4025C22.8936 5.60721 22.8958 5.62262 22.9376 5.62262C22.9794 5.62262 22.9816 5.63803 22.9816 5.88677C22.9816 6.13552 22.9838 6.15093 23.0256 6.15093C23.0631 6.15093 23.0697 6.16633 23.0697 6.23898C23.0697 6.31162 23.0763 6.32703 23.1137 6.32703C23.1511 6.32703 23.1577 6.34243 23.1577 6.41508C23.1577 6.48772 23.1643 6.50313 23.2017 6.50313C23.2392 6.50313 23.2458 6.51854 23.2458 6.59118C23.2458 6.66382 23.2524 6.67923 23.2898 6.67923C23.3184 6.67923 23.3338 6.69464 23.3338 6.72325C23.3338 6.75187 23.3492 6.76728 23.3778 6.76728C23.4064 6.76728 23.4219 6.78269 23.4219 6.8113C23.4219 6.83992 23.4373 6.85533 23.4659 6.85533C23.4945 6.85533 23.5099 6.87074 23.5099 6.89935C23.5099 6.92797 23.5253 6.94338 23.5539 6.94338C23.5825 6.94338 23.598 6.95879 23.598 6.9874C23.598 7.01602 23.6134 7.03143 23.642 7.03143C23.6706 7.03143 23.686 7.04684 23.686 7.07545C23.686 7.11287 23.7014 7.11948 23.7741 7.11948C23.8467 7.11948 23.8621 7.12608 23.8621 7.1635C23.8621 7.20093 23.8775 7.20753 23.9502 7.20753C24.0228 7.20753 24.0382 7.21413 24.0382 7.25155C24.0382 7.28898 24.0536 7.29558 24.1263 7.29558C24.1989 7.29558 24.2143 7.30218 24.2143 7.3396C24.2143 7.38143 24.2297 7.38363 24.4344 7.38363C24.6392 7.38363 24.6546 7.38583 24.6546 7.42765C24.6546 7.46948 24.67 7.47168 25.0068 7.47168C25.3436 7.47168 25.359 7.46948 25.359 7.42765C25.359 7.38583 25.3744 7.38363 25.5791 7.38363C25.7838 7.38363 25.7992 7.38143 25.7992 7.3396C25.7992 7.29998 25.8146 7.29558 25.9313 7.29558C26.048 7.29558 26.0634 7.29118 26.0634 7.25155C26.0634 7.21413 26.0788 7.20753 26.1514 7.20753C26.2241 7.20753 26.2395 7.20093 26.2395 7.1635C26.2395 7.12608 26.2549 7.11948 26.3275 7.11948C26.4002 7.11948 26.4156 7.11287 26.4156 7.07545C26.4156 7.04684 26.431 7.03143 26.4596 7.03143C26.4882 7.03143 26.5036 7.01602 26.5036 6.9874C26.5036 6.95879 26.519 6.94338 26.5476 6.94338C26.5763 6.94338 26.5917 6.92797 26.5917 6.89935C26.5917 6.87074 26.5763 6.85533 26.5476 6.85533C26.519 6.85533 26.5036 6.83992 26.5036 6.8113C26.5036 6.78269 26.4882 6.76728 26.4596 6.76728C26.4222 6.76728 26.4156 6.75187 26.4156 6.67923C26.4156 6.60659 26.409 6.59118 26.3715 6.59118C26.3429 6.59118 26.3275 6.57577 26.3275 6.54715C26.3275 6.51854 26.3121 6.50313 26.2835 6.50313C26.2461 6.50313 26.2395 6.48772 26.2395 6.41508V6.32703H26.1074C25.9907 6.32703 25.9753 6.33143 25.9753 6.37105C25.9753 6.39967 25.9599 6.41508 25.9313 6.41508C25.9027 6.41508 25.8873 6.43048 25.8873 6.4591C25.8873 6.49652 25.8719 6.50313 25.7992 6.50313C25.7266 6.50313 25.7112 6.50973 25.7112 6.54715C25.7112 6.58677 25.6958 6.59118 25.5351 6.59118C25.3744 6.59118 25.359 6.59558 25.359 6.6352C25.359 6.67703 25.3436 6.67923 25.0948 6.67923C24.8461 6.67923 24.8307 6.67703 24.8307 6.6352C24.8307 6.59558 24.8153 6.59118 24.6986 6.59118C24.5819 6.59118 24.5665 6.58677 24.5665 6.54715C24.5665 6.50973 24.5511 6.50313 24.4785 6.50313C24.4058 6.50313 24.3904 6.49652 24.3904 6.4591C24.3904 6.43048 24.375 6.41508 24.3464 6.41508C24.3178 6.41508 24.3024 6.39967 24.3024 6.37105C24.3024 6.34243 24.287 6.32703 24.2583 6.32703C24.2297 6.32703 24.2143 6.31162 24.2143 6.283C24.2143 6.25438 24.1989 6.23898 24.1703 6.23898C24.1329 6.23898 24.1263 6.22357 24.1263 6.15093C24.1263 6.07828 24.1197 6.06287 24.0822 6.06287C24.0448 6.06287 24.0382 6.04747 24.0382 5.97482C24.0382 5.90218 24.0316 5.88677 23.9942 5.88677C23.9568 5.88677 23.9502 5.87137 23.9502 5.79872V5.71067H25.403H26.8558V5.35847C26.8558 5.02168 26.8536 5.00627 26.8118 5.00627C26.7722 5.00627 26.7678 4.99086 26.7678 4.83017C26.7678 4.66948 26.7634 4.65407 26.7237 4.65407C26.6863 4.65407 26.6797 4.63866 26.6797 4.56602C26.6797 4.49338 26.6731 4.47797 26.6357 4.47797C26.5983 4.47797 26.5917 4.46256 26.5917 4.38992C26.5917 4.31728 26.5851 4.30187 26.5476 4.30187C26.5102 4.30187 26.5036 4.28646 26.5036 4.21382C26.5036 4.14118 26.497 4.12577 26.4596 4.12577C26.431 4.12577 26.4156 4.11036 26.4156 4.08174C26.4156 4.05313 26.4002 4.03772 26.3715 4.03772C26.3429 4.03772 26.3275 4.02231 26.3275 3.99369C26.3275 3.96508 26.3121 3.94967 26.2835 3.94967C26.2549 3.94967 26.2395 3.93426 26.2395 3.90564C26.2395 3.87703 26.2241 3.86162 26.1954 3.86162C26.1668 3.86162 26.1514 3.84621 26.1514 3.81759C26.1514 3.78898 26.136 3.77357 26.1074 3.77357C26.0788 3.77357 26.0634 3.75816 26.0634 3.72954C26.0634 3.69212 26.048 3.68552 25.9753 3.68552C25.9027 3.68552 25.8873 3.67891 25.8873 3.64149C25.8873 3.60407 25.8719 3.59747 25.7992 3.59747C25.7266 3.59747 25.7112 3.59086 25.7112 3.55344C25.7112 3.51602 25.6958 3.50942 25.6231 3.50942C25.5505 3.50942 25.5351 3.50281 25.5351 3.46539C25.5351 3.42137 25.5197 3.42137 24.9187 3.42137C24.3178 3.42137 24.3024 3.42137 24.3024 3.46539ZM25.359 4.25784C25.359 4.29527 25.3744 4.30187 25.447 4.30187C25.5197 4.30187 25.5351 4.30847 25.5351 4.34589C25.5351 4.37451 25.5505 4.38992 25.5791 4.38992C25.6077 4.38992 25.6231 4.40533 25.6231 4.43394C25.6231 4.46256 25.6385 4.47797 25.6671 4.47797C25.6958 4.47797 25.7112 4.49338 25.7112 4.52199C25.7112 4.55061 25.7266 4.56602 25.7552 4.56602C25.7948 4.56602 25.7992 4.58143 25.7992 4.6981C25.7992 4.81476 25.8036 4.83017 25.8432 4.83017C25.8829 4.83017 25.8873 4.84558 25.8873 4.96225V5.09432H24.9187H23.9502V5.00627C23.9502 4.93363 23.9568 4.91822 23.9942 4.91822C24.0338 4.91822 24.0382 4.90281 24.0382 4.78615C24.0382 4.66948 24.0426 4.65407 24.0822 4.65407C24.1109 4.65407 24.1263 4.63866 24.1263 4.61004C24.1263 4.58143 24.1417 4.56602 24.1703 4.56602C24.1989 4.56602 24.2143 4.55061 24.2143 4.52199C24.2143 4.49338 24.2297 4.47797 24.2583 4.47797C24.287 4.47797 24.3024 4.46256 24.3024 4.43394C24.3024 4.40533 24.3178 4.38992 24.3464 4.38992C24.375 4.38992 24.3904 4.37451 24.3904 4.34589C24.3904 4.31728 24.4058 4.30187 24.4344 4.30187C24.4631 4.30187 24.4785 4.28646 24.4785 4.25784C24.4785 4.21602 24.4939 4.21382 24.9187 4.21382C25.3436 4.21382 25.359 4.21602 25.359 4.25784Z" fill="black"/>
<path d="M29.5852 3.46531C29.5852 3.50273 29.5698 3.50933 29.4972 3.50933C29.4245 3.50933 29.4091 3.51594 29.4091 3.55336C29.4091 3.59078 29.3937 3.59738 29.3211 3.59738C29.2484 3.59738 29.233 3.60399 29.233 3.64141C29.233 3.67002 29.2176 3.68543 29.189 3.68543C29.1604 3.68543 29.145 3.70084 29.145 3.72946C29.145 3.75807 29.1296 3.77348 29.1009 3.77348C29.0723 3.77348 29.0569 3.78889 29.0569 3.81751C29.0569 3.84612 29.0415 3.86153 29.0129 3.86153C28.9843 3.86153 28.9689 3.87694 28.9689 3.90556C28.9689 3.94298 28.9535 3.94958 28.8808 3.94958H28.7928V3.72946V3.50933H28.3085H27.8242V5.44644V7.38354H28.3085H28.7928V6.10682C28.7928 4.8455 28.7928 4.83009 28.8368 4.83009C28.8742 4.83009 28.8808 4.81468 28.8808 4.74204V4.65399H28.9689C29.0415 4.65399 29.0569 4.64738 29.0569 4.60996C29.0569 4.58134 29.0723 4.56594 29.1009 4.56594C29.1296 4.56594 29.145 4.55053 29.145 4.52191C29.145 4.48449 29.1604 4.47789 29.233 4.47789C29.3057 4.47789 29.3211 4.47128 29.3211 4.43386C29.3211 4.39424 29.3365 4.38983 29.4972 4.38983C29.6579 4.38983 29.6733 4.38543 29.6733 4.34581C29.6733 4.30619 29.6887 4.30178 29.8494 4.30178H30.0255V3.86153V3.42128H29.8054C29.6006 3.42128 29.5852 3.42348 29.5852 3.46531Z" fill="black"/>
<path d="M36.5406 3.46539C36.5406 3.50501 36.5252 3.50942 36.4086 3.50942C36.2919 3.50942 36.2765 3.51382 36.2765 3.55344C36.2765 3.59086 36.2611 3.59747 36.1884 3.59747C36.1158 3.59747 36.1004 3.60407 36.1004 3.64149C36.1004 3.67011 36.085 3.68552 36.0564 3.68552C36.0277 3.68552 36.0123 3.70093 36.0123 3.72954C36.0123 3.76696 35.9969 3.77357 35.9243 3.77357C35.8516 3.77357 35.8362 3.78017 35.8362 3.81759C35.8362 3.84621 35.8208 3.86162 35.7922 3.86162C35.7636 3.86162 35.7482 3.87703 35.7482 3.90564C35.7482 3.93426 35.7328 3.94967 35.7042 3.94967C35.6755 3.94967 35.6601 3.96508 35.6601 3.99369C35.6601 4.02231 35.6447 4.03772 35.6161 4.03772C35.5787 4.03772 35.5721 4.05313 35.5721 4.12577C35.5721 4.19841 35.5655 4.21382 35.5281 4.21382C35.4994 4.21382 35.484 4.22923 35.484 4.25784C35.484 4.28646 35.4686 4.30187 35.44 4.30187C35.4026 4.30187 35.396 4.31728 35.396 4.38992C35.396 4.46256 35.3894 4.47797 35.352 4.47797C35.3145 4.47797 35.3079 4.49338 35.3079 4.56602C35.3079 4.63866 35.3013 4.65407 35.2639 4.65407C35.2221 4.65407 35.2199 4.66948 35.2199 4.8742C35.2199 5.07891 35.2177 5.09432 35.1759 5.09432C35.134 5.09432 35.1318 5.10973 35.1318 5.44652C35.1318 5.78332 35.134 5.79872 35.1759 5.79872C35.2155 5.79872 35.2199 5.81413 35.2199 5.97482C35.2199 6.13552 35.2243 6.15093 35.2639 6.15093C35.3035 6.15093 35.3079 6.16633 35.3079 6.283C35.3079 6.39967 35.3123 6.41508 35.352 6.41508C35.3806 6.41508 35.396 6.43048 35.396 6.4591C35.396 6.48772 35.4114 6.50313 35.44 6.50313C35.4774 6.50313 35.484 6.51854 35.484 6.59118C35.484 6.66382 35.4906 6.67923 35.5281 6.67923C35.5567 6.67923 35.5721 6.69464 35.5721 6.72325C35.5721 6.75187 35.5875 6.76728 35.6161 6.76728C35.6447 6.76728 35.6601 6.78269 35.6601 6.8113C35.6601 6.83992 35.6755 6.85533 35.7042 6.85533C35.7328 6.85533 35.7482 6.87074 35.7482 6.89935C35.7482 6.92797 35.7636 6.94338 35.7922 6.94338C35.8208 6.94338 35.8362 6.95879 35.8362 6.9874C35.8362 7.01602 35.8516 7.03143 35.8803 7.03143C35.9089 7.03143 35.9243 7.04684 35.9243 7.07545C35.9243 7.11287 35.9397 7.11948 36.0123 7.11948C36.085 7.11948 36.1004 7.12608 36.1004 7.1635C36.1004 7.20093 36.1158 7.20753 36.1884 7.20753C36.2611 7.20753 36.2765 7.21413 36.2765 7.25155C36.2765 7.28898 36.2919 7.29558 36.3645 7.29558C36.4372 7.29558 36.4526 7.30218 36.4526 7.3396C36.4526 7.38143 36.468 7.38363 36.6727 7.38363C36.8774 7.38363 36.8928 7.38583 36.8928 7.42765C36.8928 7.46948 36.9083 7.47168 37.201 7.47168C37.4938 7.47168 37.5092 7.46948 37.5092 7.42765C37.5092 7.38583 37.5246 7.38363 37.7733 7.38363C38.0221 7.38363 38.0375 7.38143 38.0375 7.3396C38.0375 7.29998 38.0529 7.29558 38.1696 7.29558C38.2862 7.29558 38.3016 7.29118 38.3016 7.25155C38.3016 7.21413 38.3171 7.20753 38.3897 7.20753C38.4623 7.20753 38.4777 7.20093 38.4777 7.1635C38.4777 7.12608 38.4932 7.11948 38.5658 7.11948C38.6384 7.11948 38.6538 7.11287 38.6538 7.07545C38.6538 7.04684 38.6693 7.03143 38.6979 7.03143C38.7265 7.03143 38.7419 7.01602 38.7419 6.9874C38.7419 6.95879 38.7573 6.94338 38.7859 6.94338C38.8145 6.94338 38.8299 6.92797 38.8299 6.89935C38.8299 6.87074 38.8145 6.85533 38.7859 6.85533C38.7573 6.85533 38.7419 6.83992 38.7419 6.8113C38.7419 6.78269 38.7265 6.76728 38.6979 6.76728C38.6605 6.76728 38.6538 6.75187 38.6538 6.67923C38.6538 6.60659 38.6472 6.59118 38.6098 6.59118C38.5812 6.59118 38.5658 6.57577 38.5658 6.54715C38.5658 6.51854 38.5504 6.50313 38.5218 6.50313C38.4844 6.50313 38.4777 6.48772 38.4777 6.41508V6.32703H38.3457C38.229 6.32703 38.2136 6.33143 38.2136 6.37105C38.2136 6.39967 38.1982 6.41508 38.1696 6.41508C38.141 6.41508 38.1255 6.43048 38.1255 6.4591C38.1255 6.49872 38.1101 6.50313 37.9935 6.50313C37.8768 6.50313 37.8614 6.50753 37.8614 6.54715C37.8614 6.58677 37.846 6.59118 37.7293 6.59118C37.6127 6.59118 37.5972 6.59558 37.5972 6.6352C37.5972 6.67703 37.5818 6.67923 37.3331 6.67923C37.0844 6.67923 37.0689 6.67703 37.0689 6.6352C37.0689 6.59558 37.0535 6.59118 36.9369 6.59118C36.8202 6.59118 36.8048 6.58677 36.8048 6.54715C36.8048 6.50973 36.7894 6.50313 36.7167 6.50313C36.6441 6.50313 36.6287 6.49652 36.6287 6.4591C36.6287 6.43048 36.6133 6.41508 36.5847 6.41508C36.556 6.41508 36.5406 6.39967 36.5406 6.37105C36.5406 6.34243 36.5252 6.32703 36.4966 6.32703C36.468 6.32703 36.4526 6.31162 36.4526 6.283C36.4526 6.25438 36.4372 6.23898 36.4086 6.23898C36.3799 6.23898 36.3645 6.22357 36.3645 6.19495C36.3645 6.16633 36.3491 6.15093 36.3205 6.15093C36.2809 6.15093 36.2765 6.13552 36.2765 6.01885C36.2765 5.90218 36.2721 5.88677 36.2325 5.88677C36.195 5.88677 36.1884 5.87137 36.1884 5.79872V5.71067H37.6413H39.0941V5.4025C39.0941 5.10973 39.0919 5.09432 39.0501 5.09432C39.0083 5.09432 39.006 5.07891 39.006 4.8742C39.006 4.66948 39.0038 4.65407 38.962 4.65407C38.9246 4.65407 38.918 4.63866 38.918 4.56602C38.918 4.49338 38.9114 4.47797 38.874 4.47797C38.8366 4.47797 38.8299 4.46256 38.8299 4.38992C38.8299 4.31728 38.8233 4.30187 38.7859 4.30187C38.7485 4.30187 38.7419 4.28646 38.7419 4.21382C38.7419 4.14118 38.7353 4.12577 38.6979 4.12577C38.6693 4.12577 38.6538 4.11036 38.6538 4.08174C38.6538 4.05313 38.6384 4.03772 38.6098 4.03772C38.5812 4.03772 38.5658 4.02231 38.5658 3.99369C38.5658 3.96508 38.5504 3.94967 38.5218 3.94967C38.4932 3.94967 38.4777 3.93426 38.4777 3.90564C38.4777 3.87703 38.4623 3.86162 38.4337 3.86162C38.4051 3.86162 38.3897 3.84621 38.3897 3.81759C38.3897 3.78898 38.3743 3.77357 38.3457 3.77357C38.3171 3.77357 38.3016 3.75816 38.3016 3.72954C38.3016 3.69212 38.2862 3.68552 38.2136 3.68552C38.141 3.68552 38.1255 3.67891 38.1255 3.64149C38.1255 3.60407 38.1101 3.59747 38.0375 3.59747C37.9649 3.59747 37.9494 3.59086 37.9494 3.55344C37.9494 3.51382 37.934 3.50942 37.8174 3.50942C37.7007 3.50942 37.6853 3.50501 37.6853 3.46539C37.6853 3.42357 37.6699 3.42137 37.113 3.42137C36.556 3.42137 36.5406 3.42357 36.5406 3.46539ZM37.5972 4.25784C37.5972 4.28646 37.6127 4.30187 37.6413 4.30187C37.6699 4.30187 37.6853 4.31728 37.6853 4.34589C37.6853 4.38332 37.7007 4.38992 37.7733 4.38992C37.846 4.38992 37.8614 4.39652 37.8614 4.43394C37.8614 4.46256 37.8768 4.47797 37.9054 4.47797C37.9428 4.47797 37.9494 4.49338 37.9494 4.56602C37.9494 4.63866 37.956 4.65407 37.9935 4.65407C38.0309 4.65407 38.0375 4.66948 38.0375 4.74212C38.0375 4.81476 38.0441 4.83017 38.0815 4.83017C38.1211 4.83017 38.1255 4.84558 38.1255 4.96225V5.09432H37.157H36.1884V4.96225C36.1884 4.84558 36.1928 4.83017 36.2325 4.83017C36.2699 4.83017 36.2765 4.81476 36.2765 4.74212C36.2765 4.66948 36.2831 4.65407 36.3205 4.65407C36.3579 4.65407 36.3645 4.63866 36.3645 4.56602C36.3645 4.49338 36.3711 4.47797 36.4086 4.47797C36.4372 4.47797 36.4526 4.46256 36.4526 4.43394C36.4526 4.39652 36.468 4.38992 36.5406 4.38992C36.6133 4.38992 36.6287 4.38332 36.6287 4.34589C36.6287 4.31728 36.6441 4.30187 36.6727 4.30187C36.7013 4.30187 36.7167 4.28646 36.7167 4.25784C36.7167 4.21602 36.7322 4.21382 37.157 4.21382C37.5818 4.21382 37.5972 4.21602 37.5972 4.25784Z" fill="black"/>
<path d="M0 4.9622C0 4.99082 0.0154088 5.00622 0.0440252 5.00622C0.0726415 5.00622 0.0880503 5.02163 0.0880503 5.05025C0.0880503 5.07887 0.103459 5.09428 0.132075 5.09428C0.169497 5.09428 0.176101 5.10968 0.176101 5.18233C0.176101 5.25497 0.182704 5.27038 0.220126 5.27038C0.257547 5.27038 0.264151 5.28578 0.264151 5.35843C0.264151 5.43107 0.270755 5.44648 0.308176 5.44648C0.345597 5.44648 0.352201 5.46189 0.352201 5.53453C0.352201 5.60717 0.358805 5.62258 0.396226 5.62258C0.424843 5.62258 0.440252 5.63799 0.440252 5.6666C0.440252 5.69522 0.45566 5.71063 0.484277 5.71063C0.521698 5.71063 0.528302 5.72604 0.528302 5.79868C0.528302 5.87132 0.534906 5.88673 0.572327 5.88673C0.609748 5.88673 0.616352 5.90214 0.616352 5.97478C0.616352 6.04742 0.622956 6.06283 0.660377 6.06283C0.688994 6.06283 0.704402 6.07824 0.704402 6.10685C0.704402 6.15088 0.719811 6.15088 2.06918 6.15088H3.43396V6.06283C3.43396 5.99019 3.44057 5.97478 3.47799 5.97478C3.5066 5.97478 3.52201 5.95937 3.52201 5.93075C3.52201 5.90214 3.53742 5.88673 3.56604 5.88673C3.60346 5.88673 3.61006 5.87132 3.61006 5.79868C3.61006 5.72604 3.61667 5.71063 3.65409 5.71063C3.69151 5.71063 3.69811 5.69522 3.69811 5.62258C3.69811 5.54994 3.70472 5.53453 3.74214 5.53453C3.77956 5.53453 3.78616 5.51912 3.78616 5.44648C3.78616 5.37383 3.79277 5.35843 3.83019 5.35843C3.8588 5.35843 3.87421 5.34302 3.87421 5.3144C3.87421 5.28578 3.88962 5.27038 3.91824 5.27038C3.95566 5.27038 3.96226 5.25497 3.96226 5.18233C3.96226 5.10968 3.96887 5.09428 4.00629 5.09428C4.04371 5.09428 4.05031 5.07887 4.05031 5.00622V4.91817H2.02516C0.0154088 4.91817 0 4.91817 0 4.9622Z" fill="black"/>
<path d="M7.13198 5.00622C7.13198 5.07887 7.12537 5.09428 7.08795 5.09428C7.05934 5.09428 7.04393 5.10968 7.04393 5.1383C7.04393 5.16692 7.02852 5.18233 6.9999 5.18233C6.96248 5.18233 6.95588 5.19773 6.95588 5.27038C6.95588 5.34302 6.94927 5.35843 6.91185 5.35843C6.87443 5.35843 6.86783 5.37383 6.86783 5.44648C6.86783 5.51912 6.86122 5.53453 6.8238 5.53453C6.78638 5.53453 6.77978 5.54994 6.77978 5.62258C6.77978 5.69522 6.77317 5.71063 6.73575 5.71063C6.70713 5.71063 6.69173 5.72604 6.69173 5.75465C6.69173 5.78327 6.67632 5.79868 6.6477 5.79868C6.61028 5.79868 6.60368 5.81409 6.60368 5.88673C6.60368 5.95937 6.59707 5.97478 6.55965 5.97478C6.52223 5.97478 6.51562 5.99019 6.51562 6.06283V6.15088H8.01248C9.49393 6.15088 9.50934 6.15088 9.50934 6.10685C9.50934 6.07824 9.52474 6.06283 9.55336 6.06283C9.59078 6.06283 9.59739 6.04742 9.59739 5.97478C9.59739 5.90214 9.60399 5.88673 9.64141 5.88673C9.67883 5.88673 9.68544 5.87132 9.68544 5.79868C9.68544 5.72604 9.69204 5.71063 9.72946 5.71063C9.75808 5.71063 9.77349 5.69522 9.77349 5.6666C9.77349 5.63799 9.78889 5.62258 9.81751 5.62258C9.85493 5.62258 9.86154 5.60717 9.86154 5.53453C9.86154 5.46189 9.86814 5.44648 9.90556 5.44648C9.94298 5.44648 9.94959 5.43107 9.94959 5.35843C9.94959 5.28578 9.95619 5.27038 9.99361 5.27038C10.031 5.27038 10.0376 5.25497 10.0376 5.18233C10.0376 5.10968 10.0442 5.09428 10.0817 5.09428C10.1103 5.09428 10.1257 5.07887 10.1257 5.05025C10.1257 5.02163 10.1411 5.00622 10.1697 5.00622C10.1983 5.00622 10.2137 4.99082 10.2137 4.9622C10.2137 4.91817 10.1983 4.91817 8.67286 4.91817H7.13198V5.00622Z" fill="black"/>
<path d="M0.880859 6.45912C0.880859 6.48774 0.896268 6.50314 0.924885 6.50314C0.962306 6.50314 0.96891 6.51855 0.96891 6.5912C0.96891 6.66384 0.975513 6.67925 1.01293 6.67925C1.04155 6.67925 1.05696 6.69465 1.05696 6.72327C1.05696 6.75189 1.07237 6.7673 1.10099 6.7673C1.13841 6.7673 1.14501 6.7827 1.14501 6.85535C1.14501 6.92799 1.15161 6.9434 1.18904 6.9434C1.22646 6.9434 1.23306 6.95881 1.23306 7.03145C1.23306 7.10409 1.23966 7.1195 1.27709 7.1195C1.31451 7.1195 1.32111 7.13491 1.32111 7.20755C1.32111 7.28019 1.32771 7.2956 1.36514 7.2956C1.39375 7.2956 1.40916 7.31101 1.40916 7.33962C1.40916 7.36824 1.42457 7.38365 1.45319 7.38365C1.49061 7.38365 1.49721 7.39906 1.49721 7.4717C1.49721 7.54434 1.50382 7.55975 1.54124 7.55975C1.57866 7.55975 1.58526 7.57516 1.58526 7.6478C1.58526 7.72044 1.59187 7.73585 1.62929 7.73585C1.66671 7.73585 1.67331 7.75126 1.67331 7.8239C1.67331 7.89654 1.67992 7.91195 1.71734 7.91195C1.74595 7.91195 1.76136 7.92736 1.76136 7.95597C1.76136 7.9978 1.77677 8 2.02551 8C2.27426 8 2.28966 7.9978 2.28966 7.95597C2.28966 7.92736 2.30507 7.91195 2.33369 7.91195C2.36231 7.91195 2.37771 7.89654 2.37771 7.86792C2.37771 7.83931 2.39312 7.8239 2.42174 7.8239C2.45916 7.8239 2.46576 7.80849 2.46576 7.73585C2.46576 7.66321 2.47237 7.6478 2.50979 7.6478C2.53841 7.6478 2.55382 7.63239 2.55382 7.60377C2.55382 7.57516 2.56922 7.55975 2.59784 7.55975C2.63526 7.55975 2.64187 7.54434 2.64187 7.4717C2.64187 7.39906 2.64847 7.38365 2.68589 7.38365C2.72331 7.38365 2.72992 7.36824 2.72992 7.2956C2.72992 7.22296 2.73652 7.20755 2.77394 7.20755C2.81136 7.20755 2.81797 7.19214 2.81797 7.1195C2.81797 7.04686 2.82457 7.03145 2.86199 7.03145C2.89061 7.03145 2.90602 7.01604 2.90602 6.98742C2.90602 6.95881 2.92143 6.9434 2.95004 6.9434C2.98746 6.9434 2.99407 6.92799 2.99407 6.85535C2.99407 6.7827 3.00067 6.7673 3.03809 6.7673C3.07551 6.7673 3.08212 6.75189 3.08212 6.67925C3.08212 6.6066 3.08872 6.5912 3.12614 6.5912C3.15476 6.5912 3.17017 6.57579 3.17017 6.54717C3.17017 6.51855 3.18558 6.50314 3.21419 6.50314C3.24281 6.50314 3.25822 6.48774 3.25822 6.45912C3.25822 6.41509 3.24281 6.41509 2.06954 6.41509C0.896268 6.41509 0.880859 6.41509 0.880859 6.45912Z" fill="black"/>
<path d="M6.25112 6.50321C6.25112 6.57585 6.24451 6.59126 6.20709 6.59126C6.16967 6.59126 6.16307 6.60667 6.16307 6.67931C6.16307 6.75195 6.15646 6.76736 6.11904 6.76736C6.09043 6.76736 6.07502 6.78277 6.07502 6.81139C6.07502 6.84 6.05961 6.85541 6.03099 6.85541C5.99357 6.85541 5.98697 6.87082 5.98697 6.94346C5.98697 7.0161 5.98036 7.03151 5.94294 7.03151C5.90552 7.03151 5.89892 7.04692 5.89892 7.11956C5.89892 7.1922 5.89231 7.20761 5.85489 7.20761C5.81747 7.20761 5.81087 7.22302 5.81087 7.29566C5.81087 7.36831 5.80426 7.38371 5.76684 7.38371C5.73822 7.38371 5.72282 7.39912 5.72282 7.42774C5.72282 7.45636 5.70741 7.47176 5.67879 7.47176C5.65017 7.47176 5.63477 7.48717 5.63477 7.51579C5.63477 7.55761 5.65017 7.55981 6.07502 7.55981C6.49986 7.55981 6.51527 7.55761 6.51527 7.51579C6.51527 7.47176 6.53068 7.47176 7.6159 7.47176C8.70112 7.47176 8.71653 7.47176 8.71653 7.42774C8.71653 7.39912 8.73193 7.38371 8.76055 7.38371C8.78917 7.38371 8.80458 7.36831 8.80458 7.33969C8.80458 7.31107 8.81999 7.29566 8.8486 7.29566C8.88602 7.29566 8.89263 7.28025 8.89263 7.20761C8.89263 7.13497 8.89923 7.11956 8.93665 7.11956C8.97407 7.11956 8.98068 7.10415 8.98068 7.03151C8.98068 6.95887 8.98728 6.94346 9.0247 6.94346C9.06212 6.94346 9.06873 6.92805 9.06873 6.85541C9.06873 6.78277 9.07533 6.76736 9.11275 6.76736C9.14137 6.76736 9.15678 6.75195 9.15678 6.72334C9.15678 6.69472 9.17219 6.67931 9.2008 6.67931C9.23822 6.67931 9.24483 6.6639 9.24483 6.59126C9.24483 6.51862 9.25143 6.50321 9.28885 6.50321C9.31747 6.50321 9.33288 6.4878 9.33288 6.45919C9.33288 6.41516 9.31747 6.41516 7.792 6.41516H6.25112V6.50321Z" fill="black"/>
</svg>