
<svg version="1.0" xmlns="http://www.w3.org/2000/svg"
 width="20" height="20" viewBox="0 0 200.000000 200.000000"
 preserveAspectRatio="xMidYMid meet">

<g transform="translate(0.000000,200.000000) scale(0.100000,-0.100000)"
fill="#000000" stroke="none">
<path d="M920 1170 c0 -13 7 -20 20 -20 15 0 20 -7 20 -28 0 -30 -16 -52 -38
-52 -18 0 -42 -25 -42 -44 0 -9 -4 -16 -10 -16 -5 0 -10 -13 -10 -30 0 -16 -4
-30 -10 -30 -5 0 -10 -4 -10 -10 0 -5 9 -10 20 -10 11 0 20 5 20 10 0 6 18 10
40 10 22 0 40 -4 40 -10 0 -5 9 -10 20 -10 11 0 20 5 20 10 0 6 -4 10 -10 10
-5 0 -10 14 -10 30 0 17 -4 30 -9 30 -5 0 -11 16 -13 35 -3 28 1 39 19 52 32
25 28 68 -6 71 -15 1 -27 7 -29 12 -6 18 -22 11 -22 -10z m20 -170 c0 -5 -9
-10 -20 -10 -11 0 -20 5 -20 10 0 6 9 10 20 10 11 0 20 -4 20 -10z"/>
<path d="M820 1160 c0 -5 9 -10 20 -10 11 0 20 5 20 10 0 6 -9 10 -20 10 -11
0 -20 -4 -20 -10z"/>
<path d="M760 1140 c0 -5 5 -10 10 -10 6 0 10 5 10 10 0 6 -4 10 -10 10 -5 0
-10 -4 -10 -10z"/>
<path d="M340 1110 c0 -11 5 -20 10 -20 6 0 10 9 10 20 0 11 -4 20 -10 20 -5
0 -10 -9 -10 -20z"/>
<path d="M700 1120 c0 -5 9 -10 20 -10 11 0 20 5 20 10 0 6 -9 10 -20 10 -11
0 -20 -4 -20 -10z"/>
<path d="M660 1100 c0 -5 5 -10 10 -10 6 0 10 5 10 10 0 6 -4 10 -10 10 -5 0
-10 -4 -10 -10z"/>
<path d="M640 1080 c0 -5 5 -10 11 -10 5 0 7 5 4 10 -3 6 -8 10 -11 10 -2 0
-4 -4 -4 -10z"/>
<path d="M720 1079 c0 -5 5 -7 10 -4 6 3 10 8 10 11 0 2 -4 4 -10 4 -5 0 -10
-5 -10 -11z"/>
<path d="M120 1000 c0 -40 4 -70 10 -70 6 0 10 27 10 60 l0 60 30 0 30 0 0
-60 c0 -33 4 -60 10 -60 6 0 10 27 10 60 l0 60 30 0 30 0 0 -60 c0 -33 4 -60
10 -60 6 0 10 30 10 70 l0 70 -39 0 c-22 0 -42 -6 -45 -12 -5 -10 -7 -10 -12
0 -3 6 -23 12 -45 12 l-39 0 0 -70z"/>
<path d="M340 1000 c0 -40 4 -70 10 -70 6 0 10 30 10 70 0 40 -4 70 -10 70 -6
0 -10 -30 -10 -70z"/>
<path d="M413 1055 c-22 -24 -16 -95 10 -118 15 -13 18 -21 10 -24 -17 -6 -16
-31 1 -49 17 -16 126 -20 126 -4 0 6 -16 10 -36 10 -38 0 -64 18 -64 44 0 9 8
16 20 16 12 0 20 7 20 16 0 15 23 44 34 44 3 0 6 -13 6 -30 0 -16 5 -30 10
-30 6 0 10 21 10 46 0 47 16 74 44 74 9 0 16 5 16 10 0 6 -18 10 -40 10 -38 0
-40 -2 -40 -29 0 -21 -6 -32 -20 -36 -11 -4 -32 -17 -45 -31 -39 -39 -55 -32
-55 26 0 49 1 50 30 50 17 0 30 -4 30 -10 0 -5 5 -10 10 -10 6 0 10 9 10 20 0
17 -7 20 -37 20 -21 -1 -44 -7 -50 -15z"/>
<path d="M760 1051 c0 -11 6 -21 13 -24 18 -6 -8 -51 -40 -68 -20 -11 -26 -11
-34 1 -8 12 -12 12 -16 2 -2 -6 -9 -10 -14 -6 -5 3 -9 -1 -9 -9 0 -16 53 -26
99 -19 24 3 27 7 23 33 -3 17 0 29 7 29 16 0 14 49 -3 66 -20 19 -26 18 -26
-5z"/>
<path d="M1020 1050 c0 -11 -4 -20 -10 -20 -20 0 -10 -51 15 -75 27 -28 78
-33 101 -11 21 21 17 46 -6 46 -11 0 -20 -4 -20 -10 0 -15 -30 -12 -47 6 -14
13 -14 17 -2 25 11 7 11 9 1 9 -10 0 -10 3 2 15 17 17 46 20 46 5 0 -5 9 -10
20 -10 24 0 25 6 6 26 -8 8 -34 14 -60 14 -39 0 -46 -3 -46 -20z"/>
<path d="M1180 1050 c0 -11 -4 -20 -10 -20 -20 0 -10 -51 15 -75 27 -28 78
-33 101 -11 21 21 17 46 -6 46 -11 0 -20 -4 -20 -10 0 -5 -13 -10 -30 -10 -26
0 -30 4 -30 26 0 14 6 32 14 40 17 16 46 19 46 4 0 -5 9 -10 20 -10 24 0 25 6
6 26 -8 8 -34 14 -60 14 -39 0 -46 -3 -46 -20z"/>
<path d="M1320 1000 l0 -70 60 0 c53 0 60 2 60 20 0 17 -7 20 -40 20 -22 0
-40 5 -40 10 0 6 18 10 40 10 22 0 40 5 40 10 0 6 -13 10 -30 10 -23 0 -30 4
-30 20 0 16 7 20 30 20 17 0 30 5 30 10 0 6 -27 10 -60 10 l-60 0 0 -70z"/>
<path d="M1480 1041 c0 -16 6 -32 13 -34 9 -4 9 -8 -1 -15 -8 -5 -14 -13 -14
-18 0 -5 -4 -8 -9 -6 -13 3 -11 -8 5 -24 9 -8 34 -14 60 -14 39 0 46 3 46 19
0 11 6 21 12 23 15 5 -13 38 -32 38 -17 0 -44 30 -35 38 4 4 10 1 12 -5 8 -22
43 -15 43 7 0 17 -7 20 -50 20 -49 0 -50 -1 -50 -29z m60 -71 c0 -24 -6 -25
-26 -6 -19 20 -18 26 6 26 13 0 20 -7 20 -20z"/>
<path d="M1633 1055 c-16 -18 -17 -45 -2 -45 6 0 9 -6 6 -13 -3 -9 5 -12 29
-9 29 4 34 1 34 -17 0 -14 -6 -21 -20 -21 -11 0 -20 5 -20 10 0 6 -9 10 -20
10 -24 0 -25 -6 -6 -26 19 -18 73 -18 92 0 22 23 18 66 -6 66 -11 0 -20 5 -20
10 0 6 -9 10 -20 10 -11 0 -20 5 -20 10 0 6 9 10 20 10 11 0 20 -4 20 -10 0
-5 9 -10 20 -10 24 0 25 6 6 26 -19 18 -77 18 -93 -1z"/>
<path d="M635 880 c4 -6 11 -8 16 -5 14 9 11 15 -7 15 -8 0 -12 -5 -9 -10z"/>
</g>
</svg>
