<svg width="28" height="28" viewBox="0 0 651 656" fill="none" xmlns="http://www.w3.org/2000/svg">
<path d="M279.667 2.66663C226.6 9.99997 187.533 24.6666 142.333 54.5333C137.267 57.8666 132.733 60.9333 132.333 61.3333C131.933 61.7333 127.8 65.0666 123 68.6666C112.333 76.9333 81.4001 107.333 73.0001 118C69.4001 122.4 66.2001 126.267 65.8001 126.667C65.4001 127.067 64.4667 128.267 63.6667 129.467C63.0001 130.667 58.7334 137.067 54.3334 143.467C49.9334 150 45.6667 156.4 44.7334 158C41.4001 163.6 23.0001 201.2 23.0001 202.4C23.0001 203.067 22.0667 205.467 21.0001 207.467C19.9334 209.6 19.0001 212.4 19.0001 213.6C19.0001 214.8 18.4667 216.133 17.8001 216.533C17.1334 216.933 16.2001 219.467 15.6667 222.133C15.2667 224.8 14.3334 228 13.6667 229.2C11.8001 232.8 9.5334 241.867 5.80007 262.667C4.86673 267.467 3.5334 274.667 2.7334 278.667C0.600067 289.867 -0.199933 349.067 1.5334 364.667C4.7334 392.4 5.80007 398.4 11.5334 420C14.4667 431.067 23.0001 456 25.5334 461.067C26.2001 462.267 29.6667 469.333 33.1334 476.667C40.7334 492.267 51.2667 510 61.5334 524C65.5334 529.467 69.1334 534.267 69.5334 534.667C69.9334 535.067 72.7334 538.267 75.5334 542C81.9334 550.133 107.933 576 117 583.333C120.6 586.267 125.133 590 127 591.733C128.867 593.333 131.4 595.067 132.733 595.467C133.933 595.867 135 596.8 135 597.467C135 598.133 135.8 598.667 136.867 598.667C137.933 598.667 139 599.2 139.267 599.733C139.533 600.267 143.933 603.467 149 606.667C161.533 614.8 162.733 615.467 169.667 618.933C173 620.667 175.933 622.4 176.333 622.8C176.733 623.333 178.467 624.133 180.333 624.667C182.2 625.2 183.933 626.133 184.333 626.533C184.733 627.067 188.733 628.933 193.4 630.533C197.933 632.267 202.067 634.267 202.467 634.8C202.867 635.467 204.467 636 206.2 636C207.8 636 209.667 636.533 210.467 637.2C211.933 638.533 234.467 645.467 247 648.4C276.333 655.333 276.067 655.333 325 655.2C367.533 655.2 372.867 654.933 385.667 652.4C420.733 645.067 441.933 638.133 470.333 624.4C486.2 616.8 504.333 606 505.4 603.6C505.667 603.067 506.467 602.667 507.133 602.667C507.8 602.667 514.2 598.4 521.4 593.067C539 580 575.933 542.667 587 526.8C591.8 520 596.333 513.6 597.267 512.667C598.2 511.733 600.2 508.667 601.667 505.867C603.267 502.933 606.333 497.6 608.467 494C616.333 480.533 626.867 457.867 631.267 444.667C632.6 440.267 634.333 435.467 635 434C636.867 429.467 640.333 417.6 640.333 415.6C640.333 414.533 641.133 410.667 642.2 407.2C646.467 392.8 651 351.867 651 328.667C651 306.667 646.6 265.2 643 252.667C642.467 250.4 641.533 246.533 641 244C639.533 236.4 631.267 211.2 627 200.667C619.4 182.533 600.2 146.667 597.4 145.6C596.867 145.333 596.333 144.533 596.333 143.867C596.333 143.2 593 138 588.867 132.4C564.067 99.0666 529.133 66.5333 497.4 47.3333C491.8 44 474.2 34 473 33.4666C472.333 33.2 466.867 30.6666 461 27.8666C455 25.0666 448.6 22.4 446.6 22C444.6 21.4666 442.6 20.5333 442.2 19.8666C441.8 19.2 440.333 18.6666 439 18.6666C437.533 18.6666 434.467 17.8666 432.067 16.8C426.467 14.4 418.2 11.8666 412.333 10.5333C393.267 6.1333 386.733 4.9333 369.667 2.66663C344.467 -0.800034 304.6 -0.666701 279.667 2.66663ZM362.333 21.3333C378.867 23.6 386.2 25.0666 404.333 29.2C429.133 34.8 469.8 53.3333 495.4 70.5333C500.467 73.8666 505.533 77.2 506.733 78C508.067 78.6666 509.267 79.6 509.667 80C510.067 80.4 513.4 83.0666 517 86C528.867 95.4666 530.067 96.5333 540.2 106.667C553 119.2 567.133 136.4 575.667 149.333C579.4 154.8 582.6 159.6 583 160C585.667 162.667 607 204.133 607 206.667C607 207.6 607.8 209.867 608.867 211.733C612.2 218 621.667 246 621.667 249.733C621.667 250.8 622.467 254.667 623.533 258.133C627.667 272.4 632.333 309.6 632.333 328.667C632.333 347.6 627.667 384.8 623.533 399.2C622.467 402.667 621.667 407.067 621.667 408.8C621.667 410.4 621.133 412.133 620.467 412.667C619.667 413.067 618.733 416.133 618.2 419.333C617.8 422.667 616.867 425.733 616.2 426.133C615.533 426.533 615 427.733 615 428.933C615 430 614.2 432.8 613.133 435.067C612.2 437.467 610.333 442 609 445.333C603.667 458.667 598.733 469.2 592.067 481.333C590.2 484.667 587.667 489.467 586.2 492C584.867 494.533 583.267 496.933 582.867 497.333C582.467 497.733 578.867 502.8 574.867 508.667C571 514.533 567.133 520 566.333 520.8C565.667 521.733 563.533 524.267 561.667 526.667C552.333 538.667 538.067 553.333 526.2 563.333C521.933 566.933 518.2 570.4 517.933 570.933C517.667 571.6 516.867 572 516.2 572C515.533 572 513.933 572.933 512.733 574.133C508.2 578 493.667 588 492.333 588C491.533 588 491 588.533 491 589.2C491 589.867 489.933 590.667 488.733 591.2C487.4 591.6 483.4 593.733 479.667 596C476.067 598.267 469.667 601.733 465.667 603.733C461.667 605.733 458.2 607.733 457.933 608.267C457.667 608.933 456.867 609.333 456.067 609.333C454.6 609.333 447.267 612.4 441.267 615.467C439.133 616.533 436.733 617.333 435.667 617.333C434.733 617.333 432.2 618.267 430.2 619.333C428.067 620.4 425.267 621.333 424.067 621.333C422.867 621.333 421.533 621.867 421.133 622.533C420.6 623.2 417.8 624.133 414.733 624.667C411.667 625.2 408.2 626.133 407 626.8C405.933 627.333 400.2 628.8 394.333 630C388.467 631.2 381 632.8 377.667 633.6C371.8 634.933 356.733 636.533 333.8 638.267C316.2 639.6 276.6 635.333 255 629.733C243.267 626.8 233.267 623.867 230.333 622.667C228.867 622.133 224.733 620.667 221 619.333C210.6 615.867 195.267 609.2 185 603.867C169.933 596 166.333 594 165.667 593.2C165.267 592.8 162.6 591.067 159.667 589.333C154.2 586.133 133 570.667 126.067 565.067C121.4 561.2 97.9334 537.733 94.3334 533.333C92.8667 531.467 88.7334 526.133 85.0001 521.333C81.4001 516.533 78.0667 512.4 77.6667 512C76.6001 510.933 64.8667 492.933 63.9334 490.667C63.4001 489.6 61.6667 486.533 60.0667 484C52.0667 470.8 36.6001 435.733 34.3334 425.333C33.8001 422.8 32.8667 419.867 32.2001 418.667C28.8667 412.267 23.4001 384.8 20.2001 358C18.4667 342.533 19.2667 297.067 21.6667 284.667C27.2667 255.2 27.8001 252.8 32.6001 237.333C38.3334 218.267 43.4001 205.867 52.0667 188.667C55.4001 182 59.0001 174.667 60.2001 172.267C61.2667 170 62.7334 168 63.2667 168C63.8001 168 64.3334 167.2 64.3334 166.267C64.3334 164.4 76.2001 146.267 77.9334 145.6C78.4667 145.333 79.0001 144.4 79.0001 143.467C79.0001 142.667 80.7334 140 83.0001 137.6C85.1334 135.2 87.0001 132.933 87.0001 132.533C87.0001 132.267 88.0667 130.933 89.4001 129.6C90.6001 128.267 93.4001 125.067 95.4001 122.533C101.933 114.533 116.6 100 126.333 92.2666C131.4 88.1333 137.133 83.3333 139 81.6C140.867 80 143.4 78.2666 144.733 77.8666C145.933 77.4666 147 76.5333 147 75.8666C147 75.2 147.8 74.6666 148.867 74.6666C149.933 74.6666 151 74.2666 151.267 73.6C151.8 72.2666 166.733 62.6666 168.2 62.6666C168.867 62.6666 169.667 62.2666 169.933 61.6C170.2 61.0666 172.467 59.6 175 58.1333C182.067 54.4 195.4 47.7333 198.333 46.5333C208.467 42.4 214.6 39.7333 216.6 38.6666C217.933 37.8666 220.067 37.3333 221.4 37.3333C222.733 37.3333 224.333 36.8 225.133 36.1333C225.8 35.3333 228.733 34.2666 231.667 33.4666C234.6 32.8 241.533 30.8 247 29.3333C282.733 19.2 325.933 16.1333 362.333 21.3333Z" fill="black"/>
<path d="M97.667 266V353.467L116.734 353.067L135.667 352.667L136.067 294.667C136.2 262.8 136.6 235.867 137 234.933C137.534 233.467 137.934 233.467 139.4 234.933C140.334 235.867 141.8 237.6 142.467 238.8C143.134 240 145.267 243.067 147.267 245.467C151.934 251.467 173.667 281.467 179.934 290.667C182.6 294.667 185.8 298.933 186.734 300C187.8 301.067 190.467 304.8 192.6 308.267C194.734 311.733 197.134 314.667 197.8 314.667C198.467 314.667 199 315.2 199 316C199 317.333 218.6 344.933 223.534 350.4L226.2 353.333L312.2 353.067L398.334 352.667V326.667V300.667H390.334H382.334L378.2 306.933C374.2 313.2 364.6 323.067 359.534 326.267C336.334 341.2 305.134 335.067 288.067 312.267C276.467 296.8 273 286 273.267 264.667C273.267 250.933 273.8 247.333 276.734 239.6C281.4 227.2 285.534 220.533 293.534 212.533C315 191.067 345.667 191.067 368.467 212.4C372.067 215.733 375 218.933 375 219.2C375 219.6 376.067 221.2 377.267 222.667C379.267 224.933 381.267 225.333 389.267 225.333H399V202V178.667H317.667H236.334V234.667C236.334 265.467 235.8 290.667 235.134 290.667C234.6 290.667 232.867 289.067 231.534 287.2C229.134 284 225.8 279.733 223.134 276.533C222.467 275.733 220.467 272.8 218.6 269.867C216.867 267.067 213.4 262.533 211.134 260C208.867 257.467 206.734 254.267 206.2 252.933C205.8 251.733 204.867 250.667 204.2 250.667C203.534 250.667 203 249.733 203 248.667C203 247.6 202.6 246.667 202.067 246.667C201.4 246.667 199.534 244.4 197.667 241.6C195.8 238.933 194.067 236.4 193.667 236C193.267 235.6 189.4 230.533 185 224.667C172.334 207.333 164.467 196.8 163 195.067C162.334 194.133 161.667 192.8 161.667 192C161.667 191.333 161.134 190.667 160.6 190.667C159.934 190.667 157.667 188 155.267 184.667L151 178.667H124.334H97.667V266Z" fill="black"/>
<path d="M404.6 265.6L405 352.667H479.667H554.334V326.667V300.667H545.667C537.934 300.667 536.867 300.933 535.667 303.6C535 305.333 533.934 306.667 533.4 306.667C532.734 306.667 532.334 307.333 532.334 308.133C532.334 310.267 517.534 325.333 515.4 325.333C514.467 325.333 513.667 325.867 513.667 326.4C513.667 328.533 499.8 333.467 491.8 334.267C481.934 335.2 471.8 333.2 462.467 328.533C454.733 324.667 440.867 310.8 437.133 303.2C435.8 300.267 434.2 297.067 433.667 295.867C430.867 290.4 427.933 274.4 427.933 265.333C427.933 255.466 431.667 236.533 433.8 235.2C434.467 234.8 435 233.733 435 232.666C435 229.733 442.867 218.533 449.667 211.866C453 208.533 459.933 203.733 465 201.333C473.267 197.333 475.4 196.8 486.2 196.8C497.267 196.8 499.134 197.066 507.667 201.2C516.2 205.333 525.534 213.2 532.734 222.4C534.867 225.2 536.067 225.466 544.734 225.066L554.334 224.666L554.734 201.6L555 178.666H479.667H404.333L404.6 265.6Z" fill="black"/>
<path d="M329.667 225.867C329.667 228.933 326.733 230 324.867 227.467C323.4 225.333 323.133 225.467 321.133 228.267C318.867 231.467 318.2 241.333 320.333 241.333C321 241.333 322.2 240.133 323 238.667C323.8 237.2 325.667 236 327 236C329.267 236 329.667 236.933 329.667 241.467C329.667 245.733 330.067 246.8 331.533 246.267C333 245.733 333.4 246.667 333.267 250.133C333 254.267 332.733 254.667 329.667 254C327.8 253.6 325.4 253.867 324.333 254.667C322.733 255.733 323.133 256.533 327 259.867C329.533 262.133 331.933 263.867 332.333 264C333.667 264 341.667 256.533 341.667 255.2C341.667 254.267 340.2 254 338.333 254.4C335.8 254.8 335 254.4 335 252.533C335 251.067 336.2 249.2 337.667 248.267C340.2 246.667 340.2 246.4 338.2 242.533C335.8 237.733 336.733 236.133 340.333 238.4C341.8 239.333 343.267 240 343.667 240C345 240 344.333 232.133 342.733 228.667C341 224.667 337.667 224.267 337.667 228C337.667 229.467 336.733 230.667 335.667 230.667C334.467 230.667 333.667 229.467 333.667 227.333C333.667 225.2 332.867 224 331.667 224C330.6 224 329.667 224.8 329.667 225.867Z" fill="black"/>
<path d="M314.467 258.933C315 259.867 316.333 261.733 317.4 262.933C319.133 265.067 319.133 265.6 317.133 268.667C315.133 271.733 315.133 272.4 317 276C319.533 280.8 319.533 284 317.133 284C316.2 284 314.6 284.933 313.667 285.867C312.867 286.933 309.667 288 306.733 288.267C303.4 288.533 300.733 289.6 299.8 290.933C298.2 293.467 298.467 294 302.467 295.2C304.733 295.867 305.533 295.467 306.067 293.2C306.6 291.067 307.533 290.533 309.667 291.067C311.133 291.467 313.267 290.933 314.2 289.867C316.333 287.867 323 287.333 323 289.067C323 289.733 325.267 291.333 328.067 292.533C332.6 294.667 333.4 294.667 337 292.8C340.467 290.933 341 290.933 341.4 292.667C341.667 293.733 342.467 294.667 343.267 294.667C344.067 294.667 344.333 293.333 343.8 291.333C343.133 288.667 343.4 288 345.533 288C350.333 288 350.2 293.333 345.4 295.067C344.067 295.467 343 296.533 343 297.2C343 299.6 345.4 300 347.533 297.867C349.4 296.133 349.667 296.133 349.667 297.867C349.667 299.733 350.6 300.267 357.933 301.867C360.867 302.533 361.4 302.267 360.867 300.667C360.333 299.6 359.133 298.667 357.933 298.667C356.733 298.667 354.467 297.333 352.867 295.867C350.467 293.6 350.2 292.533 351.267 290.667C352.6 288.667 353.133 288.533 356.467 290.267C358.6 291.333 360.333 293.067 360.333 294.133C360.333 295.6 360.867 295.6 362.867 293.733C366.333 290.8 365 288.267 359.4 287.2C356.733 286.667 353.4 285.067 351.933 283.6C350.067 281.733 349 281.333 348.6 282.4C348.333 283.333 347.267 284 346.2 284C344.6 284 344.6 283.467 346.333 280C348.6 275.733 348.867 269.6 347.133 266.8C346.333 265.6 346.6 263.733 347.933 261.733C351.4 256.533 349.4 257.2 341.933 263.733C336.333 268.8 334.867 270.8 335 274C335 276.133 335 278.933 334.867 280C334.867 281.067 335.133 283.2 335.667 284.667C336.6 287.867 333.4 292.8 331.267 291.467C330.2 290.933 329.667 286.533 329.667 280.4V270.133L323 263.733C316.733 257.733 312.333 255.333 314.467 258.933Z" fill="black"/>
<path d="M351.933 262.267C351.4 262.667 351 263.733 351 264.533C351 265.333 351.667 265.2 352.6 264.267C353.4 263.467 353.8 262.4 353.533 262C353.133 261.6 352.333 261.733 351.933 262.267Z" fill="black"/>
<path d="M320.333 294C319.4 295.067 317.8 296 316.867 296C315.8 296 315 296.933 315 298C315 300.667 317.267 300.533 319 297.6C320.067 296 320.733 295.867 321.133 296.933C321.533 297.867 323 298.667 324.467 298.667C325.8 298.667 326.867 299.467 326.733 300.267C326.467 301.2 327.8 302.133 329.533 302.4C333.133 302.933 339.667 301.6 338.6 300.4C338.067 300 338.467 298.4 339.267 296.933C340.467 294.667 340.333 294.4 338.333 295.067C337.133 295.6 335.533 296 334.867 296C334.2 296 333.667 296.933 333.667 298C333.667 299.2 332.867 299.6 331.667 299.2C330.6 298.667 329.667 297.6 329.667 296.533C329.667 294.8 327.933 294 325.133 294.533C324.467 294.667 323.533 294.133 323 293.333C322.333 292.4 321.533 292.533 320.333 294Z" fill="black"/>
<path d="M367 293.467C367 294.133 367.667 294.4 368.333 294C369.133 293.6 369.667 292.933 369.667 292.533C369.667 292.267 369.133 292 368.333 292C367.667 292 367 292.667 367 293.467Z" fill="black"/>
<path d="M307 300.133C307 302.533 307.267 302.667 309 301.333C310.067 300.4 311 299.2 311 298.533C311 297.867 310.067 297.333 309 297.333C307.8 297.333 307 298.533 307 300.133Z" fill="black"/>
<path d="M217 360.933C207 363.2 203.934 364.533 199.8 368.667C191.267 376.933 193.934 387.2 206.067 393.6C213.534 397.6 235.934 397.867 247.134 394.267L254.6 391.867L254.467 386L254.334 380H241.4C233.534 380 228.334 380.533 228.334 381.333C228.334 382.133 231.8 382.667 236.2 382.667C244.467 382.667 246.2 383.867 244.734 389.2C244.334 391.067 242.6 392.267 239.534 392.8C229.8 394.667 213.667 393.2 213.667 390.667C213.667 389.867 212.867 389.333 211.8 389.333C210.867 389.333 209 387.2 207.667 384.667C203.667 376 207.4 368.8 218.067 364.667C225.534 361.867 233.134 362.4 241.267 366.267C246.734 368.933 249.667 368.4 249.667 364.667C249.667 361.733 225.534 358.933 217 360.933Z" fill="black"/>
<path d="M100.733 362.267C99.4 362.667 99 367.6 99 380.133V397.333H104.333H109.667V385.333C109.667 378.667 110.067 373.333 110.733 373.333C111.267 373.333 115 375.6 119 378.4C123.133 381.067 130.2 385.733 134.733 388.667C139.267 391.467 143 394.667 143 395.6C143 396.8 145 397.333 149 397.333H155.133L154.733 379.6L154.333 362H150.333H146.333L145.933 373.6C145.533 385.6 144.2 388 140.333 383.333C139.4 382.267 137.8 381.333 136.867 381.333C135.8 381.333 135 380.933 135 380.267C135 379.733 130.2 376.267 124.333 372.667C118.467 368.933 113.667 365.333 113.667 364.533C113.667 362 105 360.533 100.733 362.267Z" fill="black"/>
<path d="M171.933 362.133C171.4 362.667 171 370.8 171 380.267V397.333H176.333H181.8L181.4 379.6L181 362L177 361.6C174.733 361.333 172.467 361.6 171.933 362.133Z" fill="black"/>
<path d="M271 362.4C270.2 362.667 269.667 369.467 269.667 380.133V397.333H295.134C314.867 397.333 320.467 396.933 319.934 395.6C319.534 394.4 315.8 394.133 306.2 394.4C299 394.533 290.467 394.267 287.4 393.867L281.667 393.067V386.667C281.667 378.933 282.734 378.4 295.934 378.8C301 378.933 305 378.533 305 378C305 377.467 301 377.067 295.934 377.2C283.267 377.6 281.667 376.933 281.667 370.667C281.667 365.6 281.667 365.467 287.934 364.533C291.267 364 299.667 364 306.6 364.4C315.534 364.933 319 364.667 319 363.6C319 362.4 312.6 362 295.667 362C282.867 362 271.8 362.133 271 362.4Z" fill="black"/>
<path d="M335.4 362.267C334.067 362.8 333.667 367.467 333.667 380.133V397.333H339H344.334V391.467C344.334 382.133 345 381.333 353.134 381.333C360.067 381.333 360.467 381.6 368.334 389.467C375.934 397.067 376.6 397.467 382.067 397.067L387.667 396.667L381.4 390.667C377.8 387.467 375 384.133 375 383.333C375 382.667 376.867 381.2 379 380.267C387.4 376.533 389.4 370.8 384.067 365.6C381.267 363.067 379.134 362.8 359 362.267C346.867 362 336.2 362 335.4 362.267ZM369.934 365.333C375.4 366.933 377.267 370.4 375 374.667C373.667 377.067 372.334 377.333 359.8 377.333C344.867 377.333 344.334 377.067 344.334 369.867C344.334 367.733 345.4 366.133 347.4 365.333C351.4 363.733 363.934 363.733 369.934 365.333Z" fill="black"/>
<path d="M403.267 362.4C402.067 363.333 401.667 367.733 401.933 380.133L402.333 396.667L407.267 397.067L412.2 397.467L412.6 380.4C412.867 370.133 412.467 362.933 411.667 362.4C409.933 361.067 405.4 361.067 403.267 362.4Z" fill="black"/>
<path d="M450.067 362.267C449.133 362.533 448.333 363.467 448.333 364.133C448.333 366 437.4 381.333 436.067 381.333C435.533 381.333 435 382 435 382.8C435 383.6 433.267 386.533 431 389.333C425.8 396 425.933 397.333 432.067 397.333C436.333 397.333 437.267 396.667 439 392.933L441 388.667L454.2 388.267C468.2 387.867 472.333 389.333 472.333 394.933C472.333 396.933 473.4 397.333 479 397.333C482.733 397.333 485.667 397.067 485.667 396.8C485.667 396.4 481 390 475.267 382.4C469.533 374.8 463.933 367.067 462.6 364.933C460.867 362.133 459.267 361.333 455.933 361.467C453.667 361.467 450.867 361.867 450.067 362.267ZM459.133 375.067C460.333 376.667 461.667 379.333 462.2 380.933C463 383.333 462.467 383.867 459 384.667C454.333 385.733 447 384.4 447 382.4C447 380 454.2 370.933 455.667 371.6C456.333 371.867 457.933 373.467 459.133 375.067Z" fill="black"/>
<path d="M498.334 362.133C497.534 362.4 497.134 369.333 497.267 379.6L497.4 396.667L502.2 397.067L507 397.467V385.333C507 373.333 507 373.2 510.067 374.133C511.667 374.667 513.267 375.467 513.667 375.867C514.067 376.4 520.2 380.667 527.4 385.333C534.467 390 540.334 394.667 540.334 395.6C540.334 396.933 541.934 397.333 546.467 397.067L552.467 396.667L552.734 379.6C553 364.533 552.734 362.533 550.734 361.867C549.4 361.467 547.134 361.6 545.667 362C543.267 362.8 543 364 543 374.133C543 382.8 542.6 385.333 541.134 385.333C540.2 385.333 538.6 384.4 537.667 383.333C536.734 382.267 535.267 381.333 534.334 381.333C533.267 381.333 532.334 380.8 532.067 380.267C531.934 379.6 527.134 376.133 521.667 372.4C516.067 368.667 510.734 364.667 509.8 363.467C508.2 361.467 501.667 360.667 498.334 362.133Z" fill="black"/>
<path d="M100.734 410.933C92.8669 419.6 92.8669 431.467 100.867 439.467C104.467 442.933 117.667 442.933 121.534 439.467C125.934 435.467 124.867 434.133 119.534 437.2C111.134 442.133 104.734 440 100.867 430.933C98.2002 424.533 100.334 415.867 105.4 412.533C109 410.133 119.267 410.667 120.067 413.2C120.6 414.933 124.334 415.2 124.334 413.6C124.334 410.533 118.467 408 111.267 408C104.867 408 103 408.533 100.734 410.933Z" fill="black"/>
<path d="M136.333 412C129.933 419.733 129.933 429.867 136.333 437.467C139.8 441.6 140.6 442 147.4 441.867C156.2 441.867 159.533 439.467 161.8 431.867C164.067 424.4 162.333 415.733 157.667 411.467C154.467 408.667 152.333 408 146.6 408C140.467 408 139.267 408.533 136.333 412ZM154.333 414C157.133 416.667 157.667 418.533 157.667 425.067C157.667 431.867 157.133 433.467 154.2 436.533C149.4 441.2 144.867 441.067 140.067 435.733C137.133 432.533 136.333 430.267 136.333 425.733C136.333 420.4 139 414 142.333 411.733C145.133 409.6 151.133 410.8 154.333 414Z" fill="black"/>
<path d="M169.933 424.933C170.2 436.933 170.867 442 172.067 442.4C173.133 442.667 173.667 440.933 173.667 435.733C173.667 427.867 174.733 422.667 176.333 422.667C177 422.667 179.133 426.267 181.133 430.667C183.133 435.067 185.4 438.533 186.2 438.267C186.867 438 188.6 435.467 190.067 432.533C194.067 424 194.467 423.467 196.067 422.933C197 422.667 197.667 425.733 197.933 432.267C198.2 440.267 198.733 442 200.733 442.4C202.733 442.8 203 441.333 203 425.467V408H199C196.2 408 195 408.667 195 410.267C195 413.867 188.333 426.667 186.467 426.667C184.6 426.667 182.067 422.133 178.867 412.933C177.4 408.8 176.467 408 173.4 408H169.533L169.933 424.933Z" fill="black"/>
<path d="M212.6 424.933C213 439.067 213.4 442 215 442C216.6 442 217.134 439.867 217.4 432.267C217.667 427.067 218.2 422.667 218.734 422.667C219.267 422.667 221.4 426.267 223.4 430.667C225.4 434.933 227.534 438.8 228.2 439.2C228.734 439.6 231 436 233.134 431.333C238.334 419.6 240.334 420 240.334 432.667C240.334 440.667 240.734 442.667 242.334 442.667C244.067 442.667 244.334 440 244.334 426.667C244.334 417.867 244.334 410.267 244.334 409.6C244.334 409.067 243 408.533 241.4 408.267C238.734 408 237.934 409.067 235.134 416.267C233.4 420.933 231.4 425.333 230.734 426.267C229.267 428.133 225.667 427.067 225.667 424.8C225.667 424 224.867 421.733 223.8 419.733C222.734 417.733 221.534 414.4 221 412.133C220.2 408.667 219.534 408 216.2 408H212.2L212.6 424.933Z" fill="black"/>
<path d="M254.2 410.133C254.6 411.333 255 417.733 255 424.4C255.133 440.533 256.067 442 267.8 442C280.333 442 281.667 440.133 281.667 421.867C281.667 410.4 281.267 408 279.667 408C278.067 408 277.667 410.4 277.667 421.333C277.667 433.2 277.4 434.8 274.733 437.333C273.133 438.8 270.2 440 268.333 440C266.467 440 263.533 438.8 261.933 437.333C259.267 434.8 259 433.2 259 421.333C259 408.667 258.867 408 256.2 408C254.2 408 253.667 408.533 254.2 410.133Z" fill="black"/>
<path d="M291 425.467C291 438.8 291.4 442.8 292.733 442.4C293.8 442 294.467 438.267 294.733 431.867C295 426.4 295.667 421.467 296.2 420.933C297.4 419.733 307.133 430.4 312.733 439.067C313.933 441.067 315.933 442.667 317 442.667C318.6 442.667 319 439.733 319 425.333C319 410.8 318.733 408 317 408C315.4 408 315 410.133 315 418.667C315 425.733 314.467 429.333 313.533 429.333C311.667 429.333 307.667 424.8 300.6 415.067C297.933 411.2 294.6 408 293.4 408C291.267 408 291 409.733 291 425.467Z" fill="black"/>
<path d="M329.667 425.333C329.667 439.867 329.934 442.667 331.667 442.667C333.4 442.667 333.667 439.867 333.667 425.333C333.667 410.8 333.4 408 331.667 408C329.934 408 329.667 410.8 329.667 425.333Z" fill="black"/>
<path d="M347.4 410.933C339.533 419.6 339.533 431.467 347.533 439.467C351.133 442.933 364.333 442.933 368.2 439.467C372.6 435.467 371.533 434.133 366.2 437.2C357.933 442.133 351.4 440 347.533 430.933C345 424.933 346.6 418.133 351.533 413.467C354.333 410.8 355.8 410.4 360.6 411.067C363.667 411.467 366.467 412.533 366.733 413.2C367.4 415.2 371 415.067 371 412.933C371 410.4 364.333 408 357 408C351.533 408 349.533 408.667 347.4 410.933Z" fill="black"/>
<path d="M387.667 414.933C386.334 418.8 384.867 422.533 384.334 423.333C382.467 426.133 377.4 441.467 378.067 442.267C379.534 443.733 383 441.467 383 438.933C383 434.933 385.8 433.333 392.734 433.333C398.734 433.333 399.267 433.6 401.134 438C402.334 441.067 403.934 442.667 405.667 442.667C407.134 442.667 408.334 442.4 408.334 442.133C408.334 441.733 403.267 429.333 399.134 419.333C398.467 417.867 397.267 414.667 396.334 412.267C393.8 405.733 390.6 406.8 387.667 414.933ZM394.6 422.8C396.6 428 395.934 429.333 391.534 429.333C388.334 429.333 388.2 428.933 389 424.933C390.734 417.2 392.334 416.667 394.6 422.8Z" fill="black"/>
<path d="M408.333 409.333C408.333 410 410.733 410.667 413.533 410.667C418.6 410.667 418.733 410.8 419.667 416.133C420.2 419.067 420.333 426.133 420.067 431.733C419.667 440.533 419.933 442 421.933 442.4C424.067 442.8 424.333 441.2 424.6 427.067L425 411.333L430.067 410.933C432.733 410.667 435 410 435 409.2C435 408.533 429.133 408 421.667 408C413.667 408 408.333 408.533 408.333 409.333Z" fill="black"/>
<path d="M441.667 425.333C441.667 439.867 441.934 442.667 443.667 442.667C445.4 442.667 445.667 439.867 445.667 425.333C445.667 410.8 445.4 408 443.667 408C441.934 408 441.667 410.8 441.667 425.333Z" fill="black"/>
<path d="M460.867 410.4C453.533 416.533 451.667 427.333 456.733 434.8C466.467 449.333 485.667 442.8 485.667 424.933C485.667 419.333 484.067 415.6 479.933 410.933C476.467 407.2 465.133 406.8 460.867 410.4ZM477 414C479.8 416.933 480.333 418.667 480.333 425.333C480.333 432.4 479.933 433.467 476.2 436.533C471.133 440.8 468.333 440.933 463.933 436.8C459.8 432.933 458.333 428.267 459.4 421.733C461.133 411.467 470.333 407.467 477 414Z" fill="black"/>
<path d="M493.667 425.333C493.667 439.867 493.934 442.667 495.667 442.667C497.267 442.667 497.667 440.667 497.667 432.133C497.667 420.8 499 418.133 502.734 422.4C508.867 429.733 509.667 430.8 509.667 432C509.667 432.8 510.2 433.333 510.867 433.333C511.534 433.333 513.4 435.467 515 438C516.6 440.533 518.734 442.667 519.8 442.667C521.267 442.667 521.667 439.467 521.667 425.333C521.667 410.8 521.4 408 519.667 408C518.067 408 517.667 410.133 517.667 418.667C517.667 426.4 517.134 429.333 516.067 429.333C515.134 429.2 510.867 424.4 506.6 418.667C501.534 411.733 497.8 408 496.2 408C493.8 408 493.667 409.2 493.667 425.333Z" fill="black"/>
<path d="M532.467 411.467C530.867 413.467 529.667 415.733 529.667 416.533C529.8 419.867 533.667 422.667 540.2 424.133C550.867 426.4 553.267 430 548.2 436.533C545.134 440.533 542.6 440.8 535.934 438C530.867 435.867 528.334 437.2 531.8 440.133C533 441.2 537.267 441.867 541.667 442C551.267 442 555 439.2 555 432C555 426 552.2 423.2 545 422C537.8 420.667 535 419.067 535 416.267C535 410.8 543.534 408.667 549.267 412.667C552.734 415.067 554.867 412.933 551.8 410C550.6 408.667 547.267 408 542.467 408C536.2 408 534.867 408.533 532.467 411.467Z" fill="black"/>
<path d="M108.467 451.6C100.867 454.667 97.2669 459.6 97.1335 467.2C96.8669 481.467 113.534 489.067 131.667 482.933C135.667 481.6 138.467 479.733 138.734 478.4C139.134 476.533 138.067 476.667 132.334 479.6C124.334 483.6 117.534 483.333 111 478.667C102.867 472.8 102.467 462.533 110.2 456.667C115.8 452.4 126.067 452.133 133.534 456C138.067 458.267 138.867 458.267 139.534 456.533C141.534 451.2 118.734 447.6 108.467 451.6Z" fill="black"/>
<path d="M159.667 451.467C152.067 454.133 147 460.533 147 467.333C147 480.4 163.4 488.667 179.667 483.6C186.467 481.467 189.933 478.933 192.067 474.267C199.133 458.133 179.533 444.267 159.667 451.467ZM179.8 455.733C185.8 460.533 187.267 467.733 183.667 474.533C181.8 478.267 174.6 482.667 170.333 482.667C166.067 482.667 158.867 478.267 157 474.533C151.4 463.733 157.933 453.333 170.333 453.333C174.6 453.333 177.933 454.133 179.8 455.733Z" fill="black"/>
<path d="M203.533 451.067C203.267 452 203.133 460 203.267 468.8L203.667 484.667H207C210.2 484.667 210.333 484.4 210.733 474.267C211 468.667 211.667 464 212.333 464C213.8 464 221.667 474.4 221.667 476.267C221.667 476.933 222.867 478.667 224.333 480.267L227 483.2L229.667 480.267C231.133 478.667 232.333 477.2 232.333 476.8C232.333 476.4 234.2 473.467 236.467 470.133C242.6 460.933 244.333 461.867 244.333 474.8V485.467L248.067 485.067L251.667 484.667V467.333V450L246.067 449.6C241.8 449.333 240.333 449.6 240.333 451.067C240.333 453.733 229.4 470.667 227.667 470.667C226.2 470.667 219 459.867 216.2 453.333C214.6 449.867 213.667 449.333 209.267 449.333C206.333 449.333 203.933 450 203.533 451.067Z" fill="black"/>
<path d="M265.667 467.2V485.333H269C272.2 485.333 272.334 485.067 272.334 475.6C272.334 461.067 273.667 460.667 281.134 472.533C284.734 478.133 288.334 482.667 289.134 482.667C290.067 482.667 293.267 478.4 296.334 473.333C302.734 462.8 305.534 461.467 305.8 468.933C305.934 471.733 306.067 476.4 306.2 479.333C306.334 483.333 306.867 484.667 308.867 485.067C310.2 485.333 311.8 485.067 312.467 484.4C313 483.867 313.667 475.867 313.8 466.667L313.934 450L308.867 449.6C303.934 449.333 303.534 449.6 301.134 454.667C299.667 457.6 298.067 460 297.4 460C296.867 460 296.334 460.667 296.334 461.333C296.334 463.2 290.734 470.667 289.4 470.667C288.067 470.667 278.6 456.267 277.667 452.667C277 450.667 275.534 449.867 271.267 449.6L265.667 449.2V467.2Z" fill="black"/>
<path d="M325.667 467.333V485.333H329.667H333.667V467.333V449.333H329.667H325.667V467.333Z" fill="black"/>
<path d="M353 450.933C347.934 452.8 345.667 455.2 345.667 458.533C345.667 462.533 350.467 465.067 361.667 466.8C372.734 468.4 375 469.6 375 473.867C375 480.667 365.534 484 356.334 480.667C348.2 477.733 346.467 477.6 345.934 480.133C345.667 481.6 347.4 482.667 352.334 483.733C360.867 485.733 365.534 485.733 372.867 483.867C379.267 482.267 383.8 476.533 382.334 471.867C380.867 467.467 373.8 464 366.334 464C355.134 464 348.867 458.8 355.134 454.933C358.867 452.533 367.8 452.667 373.8 455.2C376.467 456.267 379 456.8 379.534 456.4C381.667 454.133 379.667 452.267 373.534 450.933C365.4 449.067 358.334 449.067 353 450.933Z" fill="black"/>
<path d="M398.2 450.933C393.533 452.4 390.2 457.333 391.4 460.533C392.467 463.333 397.533 465.2 408.333 466.933C418.067 468.4 420.333 469.733 420.333 473.867C420.333 481.067 407.667 484.533 398.333 479.733C393.933 477.467 391 477.867 391 480.667C391 483.733 408.333 486.133 416.6 484.133C427.533 481.6 431.667 474 425.4 468C421.933 464.8 420.067 464.4 409.267 463.6C404.467 463.333 400.733 462.267 399.4 460.933C397.4 458.933 397.4 458.533 399.667 456C402.6 452.8 414.067 452.267 419.667 455.2C423.533 457.2 427.4 456.667 426.6 454.267C425.933 452.267 414.2 449.333 407.667 449.467C404.733 449.6 400.467 450.267 398.2 450.933Z" fill="black"/>
<path d="M437 450.933C436.6 452 436.467 460 436.6 468.8L437 484.667H440.334H443.667V467.333C443.667 450.4 443.667 450 440.6 449.6C439 449.333 437.4 450 437 450.933Z" fill="black"/>
<path d="M467 451.733C451.267 457.867 451.267 476.8 467 482.933C478.734 487.333 491.4 485.067 497.667 477.467C511.134 461.333 489.534 443.2 467 451.733ZM487.8 455.733C496.6 462.8 495.134 475.733 485.134 480.533C479.267 483.333 477.267 483.2 471.267 480.133C461.267 475.067 460.067 462.8 468.867 455.733C470.734 454.133 474.067 453.333 478.334 453.333C482.6 453.333 485.934 454.133 487.8 455.733Z" fill="black"/>
<path d="M511.533 451.067C511.267 452 511.133 460 511.267 468.8L511.667 484.667H515C518.2 484.667 518.333 484.4 518.333 474.667C518.467 460.667 519.133 460.133 527.4 466.933C531.267 470.133 535.533 474 537.133 475.6C538.733 477.333 540.6 478.667 541.267 478.667C541.933 478.667 543.267 480.133 544.067 482C545.267 484.533 546.6 485.333 549.667 485.333H553.667V467.333V449.333H550.333C547 449.333 547 449.467 547 460.667C547 469.067 546.6 472 545.267 472C543.133 472 536.867 466.933 526.733 456.933C518.867 449.333 513.133 447.067 511.533 451.067Z" fill="black"/>
</svg>