<svg width="31" height="27" viewBox="0 0 31 27" fill="none" xmlns="http://www.w3.org/2000/svg">
<path d="M14.7032 0.657715C14.7498 0.789768 14.8974 0.774232 14.944 0.634412C14.9595 0.580037 14.9051 0.541198 14.8119 0.541198C14.7032 0.541198 14.6643 0.580037 14.7032 0.657715Z" fill="black"/>
<path d="M15.2783 0.7899C15.1928 0.976327 15.1928 1.04624 15.255 1.06954C15.3094 1.08508 15.3482 1.2482 15.3482 1.4424C15.3482 1.75311 15.3637 1.78418 15.5424 1.78418C15.7521 1.78418 15.8065 1.66766 15.6201 1.59775C15.488 1.55115 15.4569 1.12392 15.5812 1.04624C15.6278 1.01517 15.6123 0.914185 15.5424 0.766597C15.4725 0.642312 15.4103 0.54133 15.4026 0.54133C15.3948 0.54133 15.3404 0.650079 15.2783 0.7899Z" fill="black"/>
<path d="M17.5696 0.743169C17.4686 1.1471 17.422 1.86173 17.5075 1.86173C17.6084 1.86173 17.6783 1.67531 17.6783 1.39567C17.6783 1.27138 17.7172 1.1471 17.756 1.12379C17.8026 1.09272 17.8337 1.22477 17.8337 1.45781C17.8337 1.95495 18.0046 2.04816 18.2221 1.68307C18.3075 1.55102 18.3775 1.3879 18.3775 1.33352C18.3775 1.28692 18.4163 1.24031 18.4551 1.24031C18.5017 1.24031 18.5328 1.32575 18.5328 1.42674C18.5328 1.53549 18.5017 1.64424 18.4551 1.66754C18.3153 1.75298 18.3697 2.01709 18.525 2.01709C18.6416 2.01709 18.6726 1.93941 18.7115 1.52772C18.7348 1.26361 18.7814 0.983971 18.8047 0.906293C18.8513 0.797544 18.8202 0.77424 18.6416 0.77424C18.4629 0.77424 18.393 0.828615 18.3075 1.02281C18.2454 1.16263 18.1444 1.32575 18.09 1.38013C18.0046 1.46558 17.9891 1.4112 17.9891 1.06165C17.9891 0.673259 17.9735 0.63442 17.8026 0.603349C17.655 0.572277 17.6007 0.603349 17.5696 0.743169Z" fill="black"/>
<path d="M14.0967 0.906376C14.0811 1.24039 14.1122 1.42682 14.1899 1.5045C14.2287 1.5511 14.2598 1.64432 14.2598 1.722C14.2598 1.82298 14.3219 1.86182 14.454 1.86182C14.6792 1.86182 14.7103 1.7453 14.5239 1.64432C14.4229 1.58994 14.3996 1.49673 14.4384 1.24816C14.4617 1.07727 14.4462 0.929679 14.4074 0.929679C14.3685 0.929679 14.3375 0.875305 14.3375 0.813162C14.3375 0.595663 14.1044 0.688877 14.0967 0.906376Z" fill="black"/>
<path d="M15.8916 0.991656C15.8916 1.10817 15.9227 1.24023 15.9615 1.27907C16.1091 1.43442 16.1402 1.83835 16.0159 1.96263C15.8605 2.11799 15.8605 2.17236 16.0159 2.17236C16.1945 2.17236 16.3499 1.98594 16.4043 1.71406C16.4353 1.58201 16.482 1.47326 16.5208 1.47326C16.5596 1.47326 16.5907 1.38781 16.5907 1.28683C16.5907 1.18585 16.6295 1.08487 16.6839 1.06933C16.7305 1.0538 16.7461 0.999424 16.715 0.945049C16.6451 0.828532 16.4353 0.913978 16.4353 1.0771C16.4353 1.14701 16.3887 1.26353 16.3344 1.33344C16.2412 1.44219 16.2178 1.41889 16.1324 1.11594C16.0159 0.727551 15.8916 0.665408 15.8916 0.991656Z" fill="black"/>
<path d="M14.8047 1.39577C14.8047 1.77639 14.828 1.8463 14.9212 1.81523C15.0455 1.76086 15.061 1.65987 14.9911 1.21711C14.9134 0.774344 14.8047 0.875326 14.8047 1.39577Z" fill="black"/>
<path d="M13.157 1.13933C12.9472 1.1937 13.0094 2.01709 13.2191 2.01709C13.2968 2.01709 13.3123 1.93164 13.2813 1.68307C13.2424 1.40343 13.258 1.33352 13.3745 1.28692C13.5298 1.22477 13.6153 1.33352 13.6852 1.68307C13.7163 1.83843 13.7784 1.93941 13.8483 1.93941C13.9415 1.93941 13.9571 1.87727 13.9182 1.64423C13.8172 1.11602 13.8017 1.08495 13.5376 1.09272C13.3978 1.10049 13.2269 1.11602 13.157 1.13933Z" fill="black"/>
<path d="M11.3481 1.46559C11.387 1.66755 11.3714 1.69086 11.1539 1.7297C10.9442 1.7763 10.9209 1.80737 10.9209 2.09478C10.9209 2.33558 10.9597 2.4288 11.1151 2.52978C11.2938 2.6463 11.3326 2.6463 11.5967 2.53755C11.7754 2.46764 11.8763 2.37442 11.8608 2.31228C11.8453 2.25791 11.8142 2.11809 11.7909 1.9938C11.7754 1.87728 11.7288 1.78407 11.6899 1.78407C11.6511 1.78407 11.62 1.70639 11.62 1.60541C11.62 1.42675 11.4879 1.24032 11.3637 1.24032C11.3248 1.24032 11.3171 1.34131 11.3481 1.46559ZM11.5113 1.97827C11.6666 2.13362 11.62 2.35889 11.418 2.38996C11.2471 2.41326 11.0219 2.09478 11.1073 1.94719C11.185 1.82291 11.3792 1.83844 11.5113 1.97827Z" fill="black"/>
<path d="M19.1776 1.29476C18.9912 1.3569 19.0766 1.46565 19.333 1.48896C19.5893 1.52003 19.5272 1.5744 19.1465 1.65985C18.7426 1.74529 18.7814 2.17252 19.1854 2.17252C19.3252 2.17252 19.4728 2.21136 19.5272 2.26574C19.5971 2.33565 19.6204 2.31234 19.6204 2.15699C19.6204 2.04047 19.6592 1.92395 19.698 1.90065C19.8068 1.83074 19.7913 1.50449 19.6825 1.41905C19.5505 1.31807 19.2941 1.25592 19.1776 1.29476ZM19.465 1.90842C19.465 1.97056 19.3873 2.01717 19.2708 2.01717C19.0611 2.01717 19.0222 1.94726 19.1621 1.80744C19.2708 1.69869 19.465 1.76083 19.465 1.90842Z" fill="black"/>
<path d="M12.0621 1.49669C11.9844 1.58991 11.9378 1.7375 11.9611 1.82294C11.9844 1.90839 12.0077 2.01714 12.0077 2.06374C12.0077 2.11035 12.1087 2.1958 12.233 2.25017C12.4194 2.32785 12.4893 2.32008 12.6602 2.21133C12.7689 2.13365 12.8622 2.0249 12.8622 1.97053C12.8622 1.84624 12.7379 1.82294 12.668 1.93946C12.6447 1.9783 12.5592 2.04821 12.4738 2.09481C12.3728 2.14919 12.3262 2.14142 12.2873 2.05598C12.2563 1.97053 12.334 1.90062 12.5515 1.81517C12.8233 1.70642 12.8466 1.67535 12.7456 1.57437C12.6835 1.51223 12.6291 1.42678 12.6291 1.38794C12.6291 1.24036 12.2019 1.3258 12.0621 1.49669ZM12.4738 1.58991C12.4738 1.65205 12.4039 1.70642 12.3184 1.70642C12.1631 1.70642 12.1165 1.62098 12.2174 1.52776C12.3106 1.42678 12.4738 1.47339 12.4738 1.58991Z" fill="black"/>
<path d="M20.0942 1.68278C19.9 2.16439 19.8611 2.40519 19.9777 2.40519C20.032 2.40519 20.1097 2.31198 20.133 2.18769C20.1641 2.07117 20.234 1.91582 20.2806 1.83814C20.3738 1.71386 20.3893 1.70609 20.4981 1.8226C20.5913 1.91582 20.6068 1.9935 20.5525 2.14109C20.4437 2.42073 20.4593 2.56055 20.5913 2.56055C20.6534 2.56055 20.7078 2.49064 20.7078 2.41296C20.7078 2.32751 20.7467 2.2343 20.7855 2.211C20.8321 2.18769 20.8632 2.06341 20.8632 1.93912C20.8632 1.72162 20.7467 1.62841 20.467 1.62841C20.3893 1.62841 20.3194 1.58957 20.3194 1.55073C20.3194 1.39538 20.1796 1.48082 20.0942 1.68278Z" fill="black"/>
<path d="M10.2753 1.68302C10.1898 1.7607 10.2131 2.01704 10.2986 2.01704C10.3452 2.01704 10.3763 2.10248 10.3763 2.21123C10.3763 2.31998 10.4073 2.40543 10.4462 2.40543C10.485 2.40543 10.5316 2.48311 10.5472 2.56855C10.5705 2.73944 10.7957 2.94141 10.8734 2.86373C10.8967 2.84043 10.8346 2.63846 10.7258 2.42096C10.6171 2.1957 10.5316 1.99373 10.5316 1.96266C10.5239 1.84615 10.3219 1.62865 10.2753 1.68302Z" fill="black"/>
<path d="M21.1736 2.09477C21.1736 2.13361 21.259 2.17245 21.3678 2.17245C21.4765 2.17245 21.562 2.21905 21.562 2.2812C21.562 2.35111 21.4687 2.38218 21.2823 2.37441C20.9328 2.36664 20.7696 2.55307 20.9638 2.74726C21.026 2.81718 21.158 2.87155 21.2357 2.87155C21.3211 2.87155 21.4066 2.91816 21.4299 2.96476C21.4765 3.09682 21.6629 2.85601 21.7872 2.50646C21.8649 2.29673 21.8649 2.22682 21.7639 2.13361C21.6396 2.00155 21.1736 1.97048 21.1736 2.09477ZM21.4377 2.59968C21.4687 2.67735 21.4299 2.71619 21.3289 2.71619C21.2435 2.71619 21.1736 2.66182 21.1736 2.59968C21.1736 2.53753 21.2202 2.48316 21.2823 2.48316C21.3445 2.48316 21.4066 2.53753 21.4377 2.59968Z" fill="black"/>
<path d="M9.29714 2.42084C9.33598 2.55289 9.39036 2.68495 9.4292 2.70825C9.46804 2.73155 9.54571 2.87138 9.60786 3.00343C9.67 3.15102 9.77098 3.25977 9.84866 3.25977C10.0273 3.25977 10.0196 3.24423 9.81759 2.89468C9.72437 2.73155 9.60009 2.50629 9.54571 2.382C9.38259 2.07129 9.20393 2.10236 9.29714 2.42084Z" fill="black"/>
<path d="M22.0672 2.59936C21.8186 2.84016 21.8186 3.12757 22.0672 3.29069C22.176 3.3606 22.2614 3.45382 22.2614 3.49266C22.2614 3.63248 22.0361 3.5781 21.9352 3.41498C21.8031 3.20525 21.7021 3.22078 21.7332 3.43051C21.7643 3.66355 22.1216 3.84221 22.3313 3.73346C22.4168 3.68685 22.5255 3.54703 22.5877 3.41498C22.642 3.29069 22.7119 3.18194 22.743 3.18194C22.7819 3.18194 22.8052 3.11203 22.8052 3.02659C22.8052 2.94114 22.844 2.87123 22.8828 2.87123C22.9294 2.87123 22.9605 2.83239 22.9605 2.79355C22.9605 2.74695 22.9061 2.71588 22.844 2.71588C22.7819 2.71588 22.6576 2.64596 22.5721 2.56052C22.3702 2.35856 22.2925 2.36632 22.0672 2.59936ZM22.5721 2.8557C22.5721 2.94114 22.51 3.05766 22.4323 3.12757C22.2614 3.28293 22.1061 3.17418 22.1061 2.89453C22.1061 2.74695 22.1449 2.71588 22.3391 2.71588C22.51 2.71588 22.5721 2.75471 22.5721 2.8557Z" fill="black"/>
<path d="M8.7685 2.8713C8.66752 2.9179 8.58984 3.01112 8.58984 3.10433C8.58984 3.29076 8.65975 3.30629 8.78404 3.1354C8.83065 3.06549 8.91609 3.01889 8.97047 3.03442C9.03261 3.05772 9.01707 3.12763 8.90056 3.25969C8.81511 3.36067 8.7452 3.51603 8.76074 3.60924C8.79181 3.80343 9.07145 3.85781 9.23457 3.69469C9.30448 3.62477 9.38993 3.5704 9.43653 3.5704C9.60743 3.5704 9.58412 3.42281 9.35886 3.11987C9.11029 2.77808 9.05591 2.75478 8.7685 2.8713ZM9.2268 3.3529C9.25011 3.40728 9.21127 3.50049 9.14913 3.56263C9.06368 3.65585 9.03261 3.65585 8.97823 3.5704C8.94716 3.51603 8.93163 3.42281 8.95493 3.36067C9.00154 3.23638 9.18797 3.22862 9.2268 3.3529Z" fill="black"/>
<path d="M23.1162 3.08104C22.8211 3.19755 22.7045 3.64032 22.9143 3.85005C23.0386 3.97434 23.5046 3.99764 23.5046 3.88112C23.5046 3.83452 23.4192 3.80344 23.3182 3.80344C23.2172 3.80344 23.0929 3.75684 23.0463 3.69469C22.8987 3.51603 23.1551 3.48496 23.357 3.65586C23.5279 3.80344 23.5435 3.80344 23.6367 3.67916C23.7765 3.48496 23.761 3.36068 23.5823 3.18202C23.4269 3.02666 23.326 3.00336 23.1162 3.08104ZM23.5046 3.41505C23.5046 3.60148 23.458 3.60925 23.3027 3.46166C23.1551 3.3063 23.1628 3.2597 23.3493 3.2597C23.4502 3.2597 23.5046 3.31407 23.5046 3.41505Z" fill="black"/>
<path d="M7.89054 3.47709C7.89054 3.50816 7.79733 3.58584 7.68858 3.65575C7.50215 3.7645 7.50215 3.7878 7.6109 3.90432C7.68081 3.96646 7.73519 4.05968 7.73519 4.10628C7.73519 4.15289 7.77402 4.19173 7.81286 4.19173C7.85947 4.19173 7.89054 4.23834 7.89054 4.30048C7.89054 4.39369 8.0459 4.50244 8.17018 4.50244C8.24786 4.50244 8.18572 4.29271 8.0459 4.11405C7.85947 3.88102 7.8517 3.67905 8.00706 3.61691C8.08474 3.59361 8.18572 3.66352 8.30224 3.84218C8.47313 4.11405 8.61295 4.18396 8.70616 4.03637C8.72947 3.98977 8.71393 3.95869 8.67509 3.95869C8.62848 3.95869 8.58964 3.92762 8.58964 3.88102C8.58964 3.72566 8.24786 3.41495 8.0692 3.41495C7.96822 3.41495 7.89054 3.43825 7.89054 3.47709Z" fill="black"/>
<path d="M23.8225 3.85791C23.4108 4.33952 23.5429 4.54148 23.9856 4.08318C24.1643 3.88898 24.2575 3.84238 24.3196 3.91229C24.3973 3.97443 24.3895 4.04434 24.2886 4.19193C24.2264 4.30068 24.141 4.40943 24.1021 4.43273C24.0633 4.4638 24.0478 4.54148 24.0633 4.61916C24.0788 4.73567 24.1254 4.72014 24.3507 4.51041C24.7857 4.10648 25.0187 4.25407 24.6303 4.7046C24.3973 4.97648 24.3895 5.04639 24.5915 5.04639C24.677 5.04639 24.7469 5.00755 24.7469 4.96094C24.7469 4.90657 24.8168 4.80558 24.91 4.72791C25.1275 4.54148 25.0731 4.26184 24.809 4.12979C24.6847 4.07541 24.5915 3.97443 24.5915 3.91229C24.5915 3.85791 24.5449 3.80354 24.4828 3.80354C24.4284 3.80354 24.3352 3.74916 24.2808 3.68702C24.141 3.5239 24.0944 3.53943 23.8225 3.85791Z" fill="black"/>
<path d="M15.9694 3.88118C15.8761 3.93556 15.8761 3.95886 15.9616 3.95886C16.016 3.95886 16.047 4.00547 16.016 4.07538C15.9927 4.13752 16.0082 4.19189 16.047 4.19189C16.0936 4.19189 16.1247 4.10645 16.1247 3.9977C16.1247 3.7802 16.1247 3.7802 15.9694 3.88118Z" fill="black"/>
<path d="M15.2007 4.18457C15.0687 4.49528 15.1153 5.00019 15.2784 5.03126C15.3483 5.04679 15.426 5.00019 15.457 4.92251C15.4881 4.82929 15.4726 4.80599 15.3871 4.83706C15.2473 4.89144 15.1386 4.73608 15.2629 4.6584C15.3172 4.62733 15.3483 4.57296 15.3328 4.53412C15.3172 4.49528 15.3483 4.45644 15.3871 4.44867C15.4337 4.4409 15.457 4.48751 15.4415 4.54965C15.426 4.62733 15.4881 4.6584 15.659 4.6584C15.8843 4.6584 15.9309 4.72054 15.892 4.96135C15.8765 5.08563 16.0241 5.20215 16.2028 5.20215C16.296 5.20215 16.3193 5.14001 16.296 4.93028C16.2727 4.72054 16.2882 4.6584 16.3892 4.6584C16.4513 4.6584 16.529 4.74385 16.5601 4.8526C16.5834 4.96135 16.6533 5.04679 16.7154 5.04679C16.7776 5.04679 16.8242 5.07786 16.8242 5.12447C16.8242 5.16331 16.863 5.20215 16.9019 5.20215C16.9485 5.20215 16.9795 5.13224 16.9795 5.03902C16.9795 4.94581 16.9407 4.89144 16.8863 4.90697C16.762 4.95358 16.5523 4.75162 16.63 4.67394C16.6611 4.64287 16.7077 4.66617 16.7232 4.71278C16.7465 4.76715 16.7931 4.81376 16.8397 4.81376C16.9407 4.81376 16.832 4.19233 16.7077 4.06028C16.5678 3.92823 16.4358 3.92823 16.4358 4.07582C16.4358 4.1768 16.0241 4.6584 15.9309 4.6584C15.9076 4.6584 15.892 4.59626 15.892 4.51858C15.892 4.44867 15.8144 4.34769 15.7212 4.30885C15.6124 4.26224 15.5503 4.1768 15.5658 4.09135C15.6046 3.85832 15.3017 3.936 15.2007 4.18457ZM16.2028 4.84483C16.2028 4.86813 16.1717 4.90697 16.1251 4.93028C16.0862 4.95358 16.0474 4.93804 16.0474 4.8992C16.0474 4.8526 16.0862 4.81376 16.1251 4.81376C16.1717 4.81376 16.2028 4.82929 16.2028 4.84483Z" fill="black"/>
<path d="M6.91942 4.26965C6.76406 4.44831 6.74076 4.75903 6.88058 4.92992C7.01263 5.09304 7.44763 5.07751 7.60299 4.90661C7.78941 4.70465 7.76611 4.52599 7.54084 4.30849C7.31558 4.07546 7.10585 4.05992 6.91942 4.26965ZM7.39326 4.45608C7.53308 4.60367 7.53308 4.78233 7.38549 4.84447C7.22236 4.90661 7.05147 4.82117 6.9971 4.65028C6.90388 4.36287 7.16799 4.23858 7.39326 4.45608Z" fill="black"/>
<path d="M6.04981 4.61952C5.97213 4.6972 5.9799 4.72827 6.06534 4.76711C6.1974 4.81372 6.30615 4.6739 6.21293 4.58068C6.17409 4.54184 6.10418 4.56515 6.04981 4.61952Z" fill="black"/>
<path d="M25.1122 4.89891C24.8403 5.10865 24.8325 5.45043 25.0966 5.62132C25.1976 5.69123 25.3219 5.74561 25.3685 5.74561C25.5161 5.74561 25.4462 5.55141 25.2753 5.47373C25.0733 5.38052 24.9957 5.20186 25.1665 5.20186C25.2365 5.20186 25.2908 5.22516 25.2908 5.264C25.2908 5.29507 25.3607 5.36498 25.454 5.41936C25.7491 5.60578 25.9899 5.18632 25.7336 4.93775C25.5394 4.74356 25.3219 4.72802 25.1122 4.89891ZM25.586 5.10088C25.6015 5.16302 25.5472 5.20186 25.454 5.20186C25.3607 5.20186 25.2908 5.15525 25.2908 5.07757C25.2908 4.93775 25.5316 4.96106 25.586 5.10088Z" fill="black"/>
<path d="M6.25977 4.89125C6.25977 4.93009 6.39959 5.10874 6.56271 5.27187C6.78021 5.48937 6.88896 5.55151 6.9511 5.48937C7.01324 5.42723 6.95887 5.32624 6.74914 5.10874C6.4695 4.82134 6.25977 4.72812 6.25977 4.89125Z" fill="black"/>
<path d="M5.67681 5.13187C5.61467 5.21731 5.86324 5.59017 5.97976 5.59017C6.02636 5.59017 6.11958 5.66008 6.18172 5.74552C6.24386 5.83097 6.36815 5.90088 6.46136 5.90088C6.66332 5.90088 6.78761 5.66784 6.58565 5.66784C6.44583 5.66008 6.10404 5.41151 6.10404 5.30276C6.10404 5.20954 5.72342 5.05419 5.67681 5.13187Z" fill="black"/>
<path d="M15.0371 5.12447C15.0371 5.16331 15.0759 5.20215 15.1148 5.20215C15.1614 5.20215 15.1925 5.16331 15.1925 5.12447C15.1925 5.07786 15.1614 5.04679 15.1148 5.04679C15.0759 5.04679 15.0371 5.07786 15.0371 5.12447Z" fill="black"/>
<path d="M25.8497 5.6677C25.7099 5.79199 25.5701 5.90074 25.5235 5.90074C25.4846 5.90074 25.4691 5.95511 25.4924 6.01725C25.5545 6.18038 25.64 6.16484 25.8652 5.93958C26.0905 5.71431 26.2847 5.69101 26.3546 5.86967C26.3857 5.96288 26.308 6.08716 26.1138 6.25806C25.8808 6.46779 25.8419 6.52993 25.9352 6.56877C26.0051 6.59207 26.1371 6.54547 26.2303 6.45225C26.3313 6.35904 26.4323 6.28913 26.4634 6.28913C26.4944 6.28913 26.5333 6.20368 26.5488 6.09493C26.5799 5.96288 26.5255 5.83083 26.3779 5.6677C26.2614 5.54342 26.1527 5.43467 26.1294 5.43467C26.1061 5.43467 25.9818 5.53565 25.8497 5.6677Z" fill="black"/>
<path d="M5.35066 5.86198C5.23414 5.99403 5.21861 6.28921 5.32736 6.28921C5.37396 6.28921 5.40503 6.2193 5.40503 6.14162C5.40503 6.06394 5.45941 5.9785 5.52155 5.95519C5.607 5.91635 5.6303 5.98626 5.61476 6.31251C5.59923 6.63876 5.62253 6.71644 5.73128 6.73974C5.89441 6.77081 6.10414 6.58439 6.10414 6.42126C6.10414 6.35135 6.15074 6.28144 6.20512 6.26591C6.33717 6.20376 5.80119 5.75323 5.59923 5.75323C5.51378 5.75323 5.39727 5.79984 5.35066 5.86198ZM5.94878 6.32028C5.94878 6.38242 5.89441 6.44456 5.83226 6.47564C5.75458 6.50671 5.71575 6.46787 5.71575 6.36689C5.71575 6.28144 5.77012 6.21153 5.83226 6.21153C5.89441 6.21153 5.94878 6.25814 5.94878 6.32028Z" fill="black"/>
<path d="M15.3477 5.79999C15.3477 5.85436 15.5263 6.00972 15.7594 6.15731C15.9613 6.28936 15.9768 6.28936 16.1866 6.15731C16.4041 6.01749 16.5905 5.85436 16.5905 5.80776C16.5905 5.79222 16.3109 5.77669 15.9691 5.77669C15.6273 5.77669 15.3477 5.78445 15.3477 5.79999Z" fill="black"/>
<path d="M15.1617 6.47584C15.1074 6.76325 15.1617 7.12057 15.286 7.27592C15.3792 7.39244 15.2006 7.84297 15.0685 7.84297C15.0141 7.84297 14.952 7.76529 14.9209 7.66431C14.8899 7.56333 14.8588 7.53226 14.8277 7.58663C14.8122 7.64101 14.7267 7.68762 14.6413 7.68762C14.5636 7.68762 14.4937 7.71869 14.4937 7.76529C14.4937 7.80413 14.5325 7.84297 14.5714 7.84297C14.618 7.84297 14.649 7.92842 14.649 8.03717C14.649 8.16145 14.6024 8.23136 14.5325 8.23136C14.4704 8.23136 14.416 8.26243 14.416 8.30904C14.416 8.34788 14.5015 8.38672 14.6102 8.38672C14.719 8.38672 14.8044 8.35565 14.8044 8.31681C14.8044 8.27797 14.8976 8.23136 15.0219 8.21583C15.1462 8.20029 15.2627 8.12261 15.3093 8.01386C15.4103 7.7886 15.5501 7.79637 15.6123 8.03717C15.6511 8.20029 15.7055 8.23136 15.9618 8.23136C16.2181 8.23136 16.2725 8.20029 16.3114 8.03717C16.3424 7.92842 16.4123 7.84297 16.4745 7.84297C16.5444 7.84297 16.591 7.92065 16.591 8.03717C16.591 8.20806 16.6221 8.23136 16.8629 8.23136C17.0105 8.23136 17.1347 8.26243 17.1347 8.30904C17.1347 8.34788 17.2202 8.38672 17.3289 8.38672C17.4377 8.38672 17.5231 8.34788 17.5231 8.30904C17.5231 8.26243 17.4765 8.23136 17.4144 8.23136C17.2901 8.23136 17.2202 8.08377 17.2668 7.93619C17.2979 7.85851 17.3289 7.85851 17.4144 7.92842C17.4998 7.99833 17.5231 7.98279 17.5076 7.8119C17.4921 7.64101 17.461 7.60994 17.3212 7.64101C17.2202 7.67208 17.1347 7.64878 17.1114 7.58663C17.0804 7.53226 17.0493 7.56333 17.0182 7.66431C16.9406 7.91288 16.8007 7.88958 16.6764 7.60994C16.591 7.41574 16.591 7.3536 16.6764 7.25262C16.7852 7.12057 16.824 6.33602 16.7231 6.2428C16.692 6.21173 16.6065 6.2428 16.5289 6.31271C16.4512 6.39039 16.3424 6.44477 16.2958 6.44477C16.1715 6.44477 16.1327 6.66227 16.156 7.26039C16.1793 7.71869 16.1249 7.99833 16.0006 8.14592C15.9851 8.16145 15.9307 8.12261 15.8764 8.06824C15.8065 7.99056 15.7754 7.74199 15.7832 7.29923C15.7832 6.56128 15.7676 6.44477 15.62 6.44477C15.5657 6.44477 15.4802 6.39039 15.4258 6.32825C15.2782 6.14959 15.2161 6.18843 15.1617 6.47584Z" fill="black"/>
<path d="M26.8834 6.28955C26.6115 6.3983 26.2153 6.87214 26.2697 7.01196C26.3318 7.18285 26.5338 7.18285 26.5338 7.01972C26.5338 6.8333 26.8601 6.59249 26.9843 6.69348C27.0543 6.75562 27.0776 6.73232 27.0776 6.6158C27.0776 6.53035 27.1164 6.44491 27.1708 6.42937C27.2174 6.41384 27.2329 6.35169 27.2018 6.30509C27.1397 6.19634 27.1009 6.19634 26.8834 6.28955Z" fill="black"/>
<path d="M4.55058 6.4367C4.55058 6.52215 4.61273 6.6076 4.69817 6.63867C4.77585 6.66197 4.90013 6.74742 4.97781 6.83286C5.11763 6.98822 5.10986 6.98822 4.56612 6.98822C4.25541 6.98822 4.00684 7.01152 4.00684 7.03483C4.00684 7.1125 4.41853 7.44652 4.57389 7.50089C4.6438 7.5242 4.70594 7.57857 4.70594 7.61741C4.70594 7.65625 4.75255 7.68732 4.81469 7.68732C4.87683 7.68732 4.93897 7.72616 4.95451 7.78054C4.98558 7.87375 5.17201 7.80384 5.17201 7.68732C5.17201 7.64848 5.07103 7.55527 4.93897 7.48536C4.81469 7.40768 4.6904 7.29893 4.6671 7.23679C4.63603 7.14358 4.69817 7.12804 5.03219 7.15911C5.7779 7.23679 5.8245 7.10474 5.19531 6.70081C4.94674 6.54545 4.73701 6.3901 4.72147 6.35126C4.6671 6.22697 4.55058 6.28912 4.55058 6.4367Z" fill="black"/>
<path d="M14.1979 7.81203C14.1435 7.87418 14.1047 7.96739 14.128 8.02176C14.1435 8.07614 14.1979 8.0373 14.2523 7.93632C14.3688 7.71882 14.3377 7.65668 14.1979 7.81203Z" fill="black"/>
<path d="M17.717 7.92086C17.7403 7.9597 17.7791 7.99854 17.8024 7.99854C17.818 7.99854 17.8335 7.9597 17.8335 7.92086C17.8335 7.87425 17.7947 7.84318 17.7481 7.84318C17.7092 7.84318 17.6937 7.87425 17.717 7.92086Z" fill="black"/>
<path d="M16.7304 8.44101C16.7848 8.46431 16.8547 8.45654 16.878 8.43324C16.9091 8.40994 16.8625 8.38663 16.777 8.3944C16.6916 8.3944 16.6683 8.4177 16.7304 8.44101Z" fill="black"/>
<path d="M15.6583 8.69762C15.5185 8.74423 15.6039 8.75977 15.969 8.75977C16.3341 8.75977 16.4195 8.74423 16.2797 8.69762C16.171 8.66655 16.0311 8.63548 15.969 8.63548C15.9068 8.63548 15.767 8.66655 15.6583 8.69762Z" fill="black"/>
<path d="M3.33109 10.6936C3.48644 10.7092 3.6185 10.7558 3.6185 10.8024C3.6185 10.8412 3.67287 10.8723 3.74278 10.8723C4.04573 10.8723 4.46519 11.5481 4.24769 11.6802C4.21662 11.7035 4.16224 11.8744 4.13117 12.053C4.0768 12.4181 3.95251 12.8531 3.84376 13.0628C3.80492 13.1405 3.77385 13.2881 3.77385 13.3968C3.77385 13.5056 3.74278 13.591 3.69618 13.591C3.65734 13.591 3.6185 13.692 3.6185 13.8163C3.6185 13.9484 3.58743 14.0649 3.54859 14.0882C3.50975 14.1115 3.45537 14.329 3.4243 14.562C3.401 14.7951 3.33886 14.9892 3.30002 14.9892C3.26118 14.9892 3.23011 15.0902 3.23011 15.2223C3.23011 15.3466 3.19904 15.4553 3.15243 15.4553C3.11359 15.4553 3.07475 15.5796 3.07475 15.7272C3.07475 15.8748 3.04368 15.9991 3.00484 15.9991C2.966 15.9991 2.91939 16.1467 2.88832 16.3253C2.83395 16.6904 2.70966 17.1254 2.60091 17.3351C2.56207 17.4128 2.531 17.5449 2.531 17.6303C2.531 17.7157 2.49993 17.7857 2.45333 17.7857C2.41449 17.7857 2.37565 17.8711 2.37565 17.9721C2.37565 18.4692 1.76199 19.1528 1.23378 19.2305C0.511373 19.3392 0.969674 19.4169 2.32127 19.4169C3.57966 19.4091 3.71948 19.4014 3.58743 19.3004C3.50198 19.2382 3.36993 19.1839 3.29225 19.1839C3.2068 19.1839 3.05921 19.0984 2.95823 18.9897C2.79511 18.8343 2.76404 18.7256 2.76404 18.3294C2.76404 18.0731 2.79511 17.8633 2.83395 17.8633C2.86502 17.8633 2.91939 17.6847 2.9427 17.4594C2.97377 17.2419 3.02814 17.0244 3.07475 16.9778C3.11359 16.939 3.15243 16.7836 3.15243 16.6438C3.15243 16.504 3.19127 16.3875 3.23011 16.3875C3.27671 16.3875 3.30778 16.302 3.30778 16.201C3.30778 16.0923 3.34662 15.9835 3.38546 15.9602C3.43207 15.9369 3.46314 15.8126 3.46314 15.6884C3.46314 15.5641 3.49421 15.4475 3.53305 15.4242C3.57189 15.3932 3.62626 15.199 3.65734 14.9892C3.68841 14.7795 3.74278 14.5853 3.78162 14.5543C3.82046 14.5309 3.85153 14.4144 3.85153 14.2824C3.85153 14.1581 3.89037 14.0571 3.92921 14.0571C3.97582 14.0571 4.00689 13.9484 4.00689 13.8241C4.00689 13.692 4.04573 13.591 4.08457 13.591C4.13117 13.591 4.16224 13.4823 4.16224 13.358C4.16224 13.226 4.21662 12.9929 4.27876 12.8376C4.3409 12.69 4.39528 12.488 4.39528 12.3948C4.39528 12.3094 4.44965 12.1695 4.5118 12.0841C4.61278 11.952 4.62831 11.952 4.73706 12.0608C4.80697 12.1307 4.86135 12.255 4.86135 12.3404C4.86135 12.4336 4.90019 12.5035 4.93902 12.5035C4.98563 12.5035 5.0167 12.5579 5.0167 12.6201C5.0167 12.6822 5.05554 12.7366 5.09438 12.7366C5.14099 12.7366 5.17206 12.8065 5.17206 12.8842C5.17206 12.9696 5.20313 13.0551 5.24197 13.0861C5.28081 13.1094 5.33518 13.2337 5.36625 13.358C5.39733 13.4901 5.4517 13.591 5.49054 13.591C5.52938 13.591 5.56045 13.661 5.56045 13.7386C5.56045 13.8241 5.59152 13.9018 5.62259 13.9173C5.70027 13.9484 6.1042 14.8883 6.1042 15.0359C6.1042 15.098 6.14304 15.1446 6.18187 15.1446C6.22848 15.1446 6.25955 15.199 6.25955 15.2611C6.25955 15.3233 6.29839 15.3776 6.33723 15.3776C6.38384 15.3776 6.41491 15.4398 6.41491 15.5175C6.41491 15.5951 6.46928 15.7272 6.53143 15.8126C6.59357 15.8903 6.64794 16.0224 6.64794 16.0923C6.64794 16.17 6.68678 16.2321 6.72562 16.2321C6.77223 16.2321 6.8033 16.302 6.8033 16.3875C6.8033 16.4729 6.83437 16.5428 6.86544 16.5428C6.89651 16.5428 6.97419 16.6749 7.02857 16.8302C7.19169 17.2808 7.52571 17.9799 7.59562 18.0032C7.62669 18.0187 7.65776 18.0886 7.65776 18.1663C7.65776 18.2362 7.71213 18.3682 7.77428 18.4537C7.83642 18.5314 7.89079 18.6634 7.89079 18.7333C7.89079 18.811 7.92963 18.8732 7.96847 18.8732C8.01508 18.8732 8.04615 18.9353 8.04615 19.013C8.04615 19.0907 8.12383 19.2382 8.21704 19.3392C8.38793 19.5179 8.3957 19.5179 8.42677 19.3781C8.44231 19.2926 8.48115 19.1839 8.51222 19.145C8.55106 19.0984 8.59766 18.9042 8.62873 18.6945C8.65981 18.4925 8.71418 18.3061 8.75302 18.2828C8.79186 18.2595 8.82293 18.143 8.82293 18.0109C8.82293 17.8866 8.86177 17.7857 8.90061 17.7857C8.94721 17.7857 8.97829 17.6769 8.97829 17.5526C8.97829 17.4206 9.01712 17.3196 9.05596 17.3196C9.10257 17.3196 9.13364 17.2108 9.13364 17.0866C9.13364 16.9545 9.18802 16.7215 9.25016 16.5661C9.3123 16.4185 9.36668 16.2088 9.36668 16.1078C9.36668 16.0068 9.40552 15.9214 9.44435 15.9214C9.49096 15.9214 9.52203 15.8204 9.52203 15.6961C9.52203 15.5641 9.56087 15.4398 9.59971 15.4165C9.63855 15.3932 9.67739 15.2844 9.67739 15.1834C9.67739 15.0825 9.70846 14.9815 9.7473 14.9582C9.78614 14.9349 9.84051 14.7174 9.87158 14.4843C9.89489 14.2513 9.95703 14.0571 9.99587 14.0571C10.0347 14.0571 10.0658 13.9484 10.0658 13.8241C10.0658 13.692 10.1046 13.591 10.1435 13.591C10.1901 13.591 10.2211 13.4901 10.2211 13.3658C10.2211 13.2337 10.2522 13.1172 10.291 13.0939C10.3299 13.0628 10.3843 12.8686 10.4153 12.6589C10.4464 12.4492 10.5008 12.255 10.5396 12.2239C10.5785 12.2006 10.6095 12.0996 10.6095 11.9909C10.6095 11.8899 10.6484 11.8044 10.6872 11.8044C10.7338 11.8044 10.7649 11.7345 10.7649 11.6491C10.7649 11.4549 11.3009 10.8723 11.4795 10.8723C11.5572 10.8723 11.6193 10.8412 11.6193 10.8024C11.6193 10.7558 11.7514 10.7092 11.9145 10.6936C12.0699 10.6781 11.5727 10.6626 10.8037 10.6626C10.0347 10.6548 9.47543 10.6781 9.56087 10.7092C10.1435 10.9111 10.3454 11.1908 10.2677 11.7035C10.1668 12.387 10.1202 12.5812 10.058 12.6278C10.0192 12.6511 9.9881 12.7521 9.9881 12.8531C9.9881 12.9541 9.94926 13.0628 9.91042 13.0861C9.87158 13.1094 9.83274 13.2337 9.83274 13.358C9.83274 13.4823 9.80167 13.5988 9.76283 13.6221C9.724 13.6532 9.66962 13.8474 9.63855 14.0571C9.60748 14.2668 9.5531 14.461 9.51426 14.4921C9.47543 14.5154 9.44435 14.6319 9.44435 14.764C9.44435 14.8883 9.41328 14.9892 9.36668 14.9892C9.32784 14.9892 9.289 15.0902 9.289 15.2223C9.289 15.3466 9.25793 15.4553 9.21132 15.4553C9.17248 15.4553 9.13364 15.5563 9.13364 15.6806C9.13364 16.3175 8.72972 16.6671 8.62097 16.1156C8.59766 15.968 8.54329 15.8437 8.50445 15.8437C8.46561 15.8437 8.43454 15.7738 8.43454 15.6884C8.43454 15.6029 8.40347 15.533 8.35686 15.533C8.31802 15.533 8.27918 15.4786 8.27918 15.4165C8.27918 15.3543 8.25588 15.3 8.21704 15.3C8.16267 15.3 8.00731 14.9038 7.9141 14.5387C7.89079 14.4455 7.84419 14.3678 7.80535 14.3678C7.76651 14.3678 7.73544 14.2979 7.73544 14.2125C7.73544 14.127 7.70436 14.0571 7.65776 14.0571C7.61892 14.0571 7.58008 13.9872 7.58008 13.9018C7.58008 13.8163 7.54901 13.7464 7.51017 13.7464C7.47133 13.7464 7.41696 13.6454 7.38588 13.5134C7.35481 13.3891 7.30044 13.2648 7.2616 13.2415C7.22276 13.2104 7.19169 13.125 7.19169 13.0395C7.19169 12.9618 7.16839 12.8919 7.12955 12.8919C7.09848 12.8919 7.02857 12.7754 6.96642 12.6356C6.91205 12.5035 6.81883 12.2783 6.75669 12.1385C6.69455 12.0064 6.64794 11.8588 6.64794 11.8122C6.64794 11.7656 6.61687 11.7268 6.57026 11.7268C6.53143 11.7268 6.49259 11.6569 6.49259 11.5714C6.49259 11.486 6.46928 11.4161 6.43044 11.4161C6.3683 11.4161 6.1042 10.849 6.1042 10.717C6.1042 10.6703 5.54491 10.647 4.57394 10.6548C3.72725 10.6626 3.16796 10.6781 3.33109 10.6936Z" fill="black"/>
<path d="M13.8717 13.4357C13.8717 13.4745 13.7008 13.5134 13.4911 13.5134C13.2736 13.5134 13.0794 13.5444 13.0561 13.591C13.0327 13.6299 12.823 13.6687 12.6055 13.6687C12.1705 13.6765 11.5413 13.8862 11.9297 13.894C12.287 13.9095 12.4735 14.1037 12.4735 14.4843C12.4735 14.6708 12.4424 14.8494 12.3958 14.8727C12.3569 14.896 12.3181 15.0203 12.3181 15.1446C12.3181 15.2689 12.287 15.3854 12.2482 15.4087C12.2171 15.432 12.1628 15.6029 12.1317 15.7816C12.0773 16.1467 11.953 16.5816 11.8443 16.7914C11.8054 16.8691 11.7744 17.0011 11.7744 17.0866C11.7744 17.172 11.7433 17.2419 11.7045 17.2419C11.6734 17.2419 11.619 17.4206 11.5957 17.6458C11.5646 17.8633 11.5103 18.0808 11.4637 18.1274C11.3549 18.2362 11.3627 18.9741 11.4792 19.2227C11.5258 19.3315 11.6112 19.4169 11.6734 19.4169C11.7278 19.4169 11.7744 19.448 11.7744 19.4946C11.7744 19.5956 12.6055 19.5956 12.6677 19.4946C12.691 19.448 12.7686 19.4169 12.823 19.4169C12.9551 19.4169 13.1803 19.246 13.5144 18.8809C13.6464 18.7411 13.8251 18.5391 13.9183 18.4459C14.0969 18.2517 14.2057 17.941 14.0969 17.941C14.0581 17.941 14.027 17.9721 14.027 18.0109C14.027 18.0498 13.8484 18.2595 13.6386 18.477C13.3124 18.811 13.2192 18.8654 13.1027 18.8032C12.9007 18.6867 12.8619 18.5469 12.9551 18.2051C12.9939 18.0342 13.0483 17.809 13.0716 17.6847C13.0949 17.5682 13.1415 17.4516 13.1803 17.4283C13.2192 17.405 13.2502 17.2885 13.2502 17.1565C13.2502 17.0322 13.2891 16.9312 13.3279 16.9312C13.3745 16.9312 13.4056 16.8302 13.4056 16.7059C13.4056 16.5739 13.4367 16.4574 13.4755 16.4263C13.5144 16.403 13.5765 16.1933 13.5998 15.9602C13.6309 15.7272 13.6852 15.533 13.7163 15.533C13.7474 15.533 13.8018 15.4165 13.8251 15.2767C13.9494 14.6708 13.9727 14.6009 14.0348 14.6009C14.0736 14.6009 14.1047 14.4843 14.1047 14.3445C14.1125 14.2125 14.1591 13.9561 14.2212 13.7852C14.3766 13.3658 14.3688 13.358 14.1047 13.358C13.9804 13.358 13.8717 13.3891 13.8717 13.4357Z" fill="black"/>
<path d="M17.7952 13.4358C17.7719 13.4746 17.5777 13.5135 17.3602 13.5135C17.1505 13.5135 16.9796 13.5445 16.9796 13.5834C16.9796 13.6144 16.731 13.6688 16.4203 13.6921C16.1174 13.7154 15.83 13.7776 15.7833 13.8242C15.729 13.8785 15.7445 13.9018 15.8377 13.9018C15.9076 13.9018 16.0552 13.9407 16.164 13.9951C16.3349 14.0727 16.3582 14.1271 16.3582 14.4922C16.3582 14.7175 16.3271 14.9272 16.2805 14.9505C16.2416 14.9738 16.2028 15.067 16.2028 15.1525C16.2028 15.2301 16.1717 15.3622 16.1329 15.4399C16.0242 15.6496 15.8999 16.0846 15.8455 16.4497C15.8144 16.6283 15.76 16.7992 15.729 16.8225C15.6901 16.8458 15.6591 16.9468 15.6591 17.0478C15.6591 17.1488 15.628 17.2575 15.5814 17.2808C15.5425 17.3041 15.5037 17.4284 15.5037 17.5605C15.5037 17.6848 15.4726 17.7858 15.426 17.7858C15.3872 17.7858 15.3484 17.8945 15.3484 18.0188C15.3484 18.1508 15.294 18.3839 15.2318 18.5392C15.1697 18.6868 15.1153 18.8965 15.1153 18.9975C15.1153 19.0985 15.0842 19.184 15.0376 19.184C14.9988 19.184 14.96 19.2383 14.96 19.3005C14.96 19.3937 15.0998 19.417 15.7756 19.417H16.5912V19.1607C16.599 19.0286 16.6456 18.7723 16.7077 18.6014C16.7699 18.4305 16.8242 18.213 16.8242 18.1198C16.8242 18.0266 16.8631 17.9256 16.9019 17.9023C16.9485 17.879 16.9796 17.7702 16.9796 17.6615C16.9796 17.5605 17.0184 17.475 17.0573 17.475C17.1039 17.475 17.1349 17.4051 17.1349 17.3197C17.1349 17.2342 17.166 17.1643 17.2049 17.1643C17.2437 17.1643 17.2981 17.0711 17.3291 16.9546C17.3757 16.7604 17.6399 16.3254 17.7641 16.2322C17.7874 16.2089 17.8341 16.1157 17.8651 16.0147C17.8962 15.9215 17.9583 15.8438 17.9972 15.8438C18.036 15.8438 18.0671 15.7972 18.0671 15.7428C18.0671 15.6962 18.1448 15.5564 18.2457 15.4476C18.339 15.3311 18.5176 15.1136 18.6341 14.9583C19.0303 14.4689 19.543 14.3446 19.543 14.7408C19.543 14.8806 19.4031 15.3544 19.3022 15.5486C19.2633 15.6263 19.2323 15.7584 19.2323 15.8438C19.2323 15.9292 19.2012 15.9992 19.1546 15.9992C19.1157 15.9992 19.0769 16.1157 19.0769 16.2477C19.0691 16.3875 19.0225 16.6439 18.9604 16.8148C18.8982 16.9857 18.8439 17.2032 18.8439 17.2964C18.8439 17.3974 18.8128 17.475 18.7662 17.475C18.7273 17.475 18.6885 17.576 18.6885 17.7081C18.6885 17.8324 18.6574 17.9411 18.6108 17.9411C18.572 17.9411 18.5332 18.0654 18.5332 18.213C18.5332 18.3606 18.5021 18.4849 18.4632 18.4849C18.4322 18.4849 18.3623 18.6946 18.3234 18.9509L18.2457 19.417H19.007H19.7682L19.8226 19.0674C19.8459 18.8732 19.9003 18.7179 19.9391 18.7179C19.978 18.7179 20.009 18.6169 20.009 18.4926C20.009 18.3606 20.0479 18.2363 20.0867 18.213C20.1333 18.1897 20.1644 18.0809 20.1644 17.9722C20.1644 17.8712 20.1955 17.7858 20.2343 17.7858C20.2654 17.7858 20.3197 17.6382 20.3431 17.4595C20.3664 17.2731 20.4285 17.1177 20.4673 17.1022C20.5139 17.0866 20.5528 17.009 20.5528 16.9235C20.5528 16.8458 20.5916 16.7759 20.6305 16.7759C20.6771 16.7759 20.7081 16.7216 20.7081 16.6594C20.7081 16.5973 20.7314 16.5429 20.7703 16.5429C20.8014 16.5429 20.8946 16.4031 20.9722 16.2244C21.0577 16.0535 21.2208 15.8127 21.3451 15.6884C21.4616 15.5564 21.5626 15.4243 21.5626 15.3777C21.5626 15.3311 21.7413 15.1214 21.9665 14.9039C22.4637 14.4145 22.6967 14.4068 22.6812 14.8728C22.6734 15.0437 22.6268 15.3234 22.5724 15.4942C22.5258 15.6651 22.4637 15.8982 22.4404 16.0147C22.4171 16.139 22.3705 16.2322 22.3316 16.2322C22.2928 16.2322 22.2617 16.3487 22.2617 16.4963C22.2617 16.6439 22.2306 16.7837 22.1918 16.807C22.153 16.8381 22.0986 17.0323 22.0675 17.242C22.0364 17.4595 21.9821 17.6304 21.9432 17.6304C21.9044 17.6304 21.8733 17.7547 21.8733 17.9023C21.8733 18.0499 21.8422 18.1741 21.7956 18.1741C21.7568 18.1741 21.718 18.3683 21.718 18.6014C21.718 18.9587 21.749 19.0674 21.9122 19.2228C22.0675 19.3859 22.1763 19.417 22.5724 19.417C22.8288 19.417 23.0385 19.3859 23.0385 19.3393C23.0385 19.2927 23.1006 19.2616 23.1705 19.2616C23.3026 19.2616 24.2037 18.3839 24.2037 18.2518C24.2037 18.213 24.258 18.1275 24.3279 18.0654C24.3901 17.9955 24.4056 17.9411 24.359 17.9411C24.3124 17.9411 24.126 18.0965 23.9395 18.2907C23.4812 18.7567 23.3492 18.749 23.3492 18.2596C23.3492 18.0421 23.3803 17.8557 23.4191 17.8324C23.4579 17.8013 23.5123 17.6071 23.5434 17.3974C23.5745 17.1876 23.6288 16.9934 23.6677 16.9624C23.7065 16.9391 23.7376 16.8381 23.7376 16.7371C23.7376 16.6361 23.7764 16.5274 23.8153 16.5041C23.8619 16.4808 23.8929 16.3565 23.8929 16.2244C23.8929 16.1001 23.924 15.9992 23.9629 15.9992C23.9939 15.9992 24.0483 15.836 24.0794 15.6418C24.1027 15.4399 24.157 15.2379 24.1959 15.1913C24.2503 15.1214 24.3357 14.6631 24.359 14.2514C24.3823 13.9407 24.157 13.5135 23.9784 13.5135C23.9318 13.5135 23.8929 13.4746 23.8929 13.4358C23.8929 13.3892 23.7687 13.3581 23.6211 13.3581C23.4735 13.3581 23.3492 13.3892 23.3492 13.4358C23.3492 13.4746 23.2948 13.5135 23.2171 13.5135C23.0618 13.5135 22.6035 13.8552 22.3005 14.2048C22.1763 14.3446 21.9898 14.5466 21.8966 14.6476C21.7956 14.7485 21.718 14.8495 21.718 14.8728C21.718 14.8961 21.6869 14.9583 21.6403 15.0126C21.4305 15.269 21.0189 15.8516 21.0189 15.8904C21.0189 15.9448 20.8091 16.1545 20.7547 16.1545C20.7314 16.1545 20.7081 16.0846 20.7081 15.9992C20.7081 15.9137 20.747 15.8438 20.7858 15.8438C20.8324 15.8438 20.8635 15.7273 20.8635 15.5875C20.8635 15.4476 20.9023 15.2923 20.9489 15.2457C20.9955 15.1991 21.0499 14.8806 21.0732 14.531C21.1198 13.8708 21.0266 13.5135 20.8091 13.5135C20.7547 13.5135 20.7081 13.4746 20.7081 13.4358C20.7081 13.3892 20.5839 13.3581 20.4363 13.3581C20.2887 13.3581 20.1644 13.3892 20.1644 13.4358C20.1644 13.4746 20.0789 13.5135 19.9702 13.5135C19.8614 13.5135 19.776 13.5445 19.776 13.5911C19.776 13.63 19.7294 13.6688 19.675 13.6688C19.5274 13.6688 18.5332 14.6553 18.5332 14.7951C18.5332 14.8573 18.5099 14.9117 18.4788 14.9117C18.4399 14.9117 18.3312 15.0437 18.2224 15.1991C18.1137 15.3544 17.9972 15.5253 17.9506 15.5719C17.9117 15.6185 17.8185 15.7584 17.7564 15.8826C17.5855 16.2089 17.4379 16.2244 17.4923 15.9059C17.5233 15.7661 17.5777 15.6185 17.6088 15.5719C17.6476 15.5331 17.6787 15.4243 17.6787 15.3234C17.6787 15.2224 17.7175 15.1447 17.7564 15.1447C17.803 15.1447 17.8341 15.0437 17.8341 14.9194C17.8341 14.6864 18.0282 13.9718 18.1525 13.731C18.2768 13.4902 18.2302 13.3581 18.036 13.3581C17.9273 13.3581 17.8185 13.3892 17.7952 13.4358Z" fill="black"/>
<path d="M29.2137 13.4357C29.1904 13.4745 29.0428 13.5134 28.8953 13.5134C28.7477 13.5134 28.6311 13.5444 28.6311 13.591C28.6311 13.6299 28.569 13.6687 28.4913 13.6687C28.4137 13.6687 28.2816 13.7231 28.1962 13.7852C28.1185 13.8474 28.002 13.9018 27.9553 13.9018C27.8233 13.9018 27.6136 14.0726 27.0465 14.6397C26.5649 15.1213 26.4096 15.3155 26.3319 15.5485C26.3008 15.6262 26.2542 15.6883 26.2154 15.6883C26.1765 15.6883 26.1454 15.7583 26.1454 15.8437C26.1454 15.9292 26.1144 15.9991 26.0678 15.9991C26.0289 15.9991 25.9901 16.0612 25.9901 16.1389C25.9901 16.2166 25.9435 16.3253 25.8969 16.3719C25.827 16.4418 25.7959 16.7991 25.7959 17.5682C25.7959 18.376 25.8192 18.6712 25.8969 18.6945C25.9435 18.7178 25.9901 18.7644 25.9901 18.8032C25.9901 18.9042 26.3474 19.2615 26.4562 19.2615C26.495 19.2615 26.5338 19.2926 26.5338 19.3392C26.5338 19.3781 26.6193 19.4169 26.7203 19.4169C26.829 19.4169 26.9378 19.448 26.9611 19.4946C27.0232 19.5956 28.2195 19.5956 28.2816 19.4946C28.3049 19.448 28.4137 19.4169 28.5224 19.4169C28.6234 19.4169 28.7088 19.3781 28.7088 19.3392C28.7088 19.2926 28.7787 19.2615 28.8642 19.2615C28.9496 19.2615 29.0195 19.2305 29.0195 19.1994C29.0195 19.1683 29.1361 19.0984 29.2836 19.044C29.5711 18.9353 30.3401 18.2129 30.3401 18.042C30.3401 17.9721 30.2702 18.0032 30.1303 18.1352C30.0138 18.244 29.874 18.3294 29.8196 18.3294C29.773 18.3294 29.7186 18.3605 29.7031 18.3915C29.6953 18.4226 29.5167 18.5314 29.3147 18.6246C28.903 18.811 28.2661 18.8498 27.9864 18.7023C27.6369 18.5236 27.3184 18.0808 27.264 17.7235C27.1708 17.1021 27.3495 15.8515 27.567 15.6417C27.598 15.6107 27.6213 15.5175 27.6213 15.4398C27.6213 15.3621 27.6524 15.3 27.6912 15.3C27.7301 15.3 27.7767 15.2067 27.8 15.0825C27.8233 14.9659 27.9631 14.7484 28.1029 14.5853C28.2428 14.43 28.4137 14.2435 28.4836 14.1581C28.6933 13.9251 28.9341 13.7464 29.0584 13.7464C29.1205 13.7464 29.1749 13.7076 29.1749 13.6687C29.1749 13.6221 29.3613 13.591 29.5866 13.591C29.9439 13.591 30.0138 13.6143 30.0993 13.7775C30.2235 13.995 30.1148 14.2513 29.874 14.329C29.7886 14.3523 29.7186 14.43 29.7186 14.4921C29.7186 14.5542 29.6876 14.6009 29.641 14.6009C29.6021 14.6009 29.5633 14.7251 29.5633 14.8727C29.5633 15.0203 29.6021 15.1446 29.641 15.1446C29.6876 15.1446 29.7186 15.199 29.7186 15.2611C29.7186 15.3233 29.7808 15.3776 29.8585 15.3776C29.9361 15.3776 30.0371 15.4165 30.0915 15.4709C30.1614 15.5408 30.208 15.5408 30.2779 15.4709C30.3323 15.4165 30.4255 15.3776 30.4877 15.3776C30.5576 15.3699 30.6974 15.3 30.8061 15.2145C30.977 15.0669 31.0003 14.9892 31.0003 14.5232C31.0003 14.0493 30.977 13.9717 30.8061 13.8318C30.6974 13.7464 30.5731 13.6376 30.5187 13.591C30.4644 13.5522 30.3556 13.5134 30.2702 13.5134C30.1847 13.5134 30.0915 13.4745 30.0682 13.4357C30.0449 13.3891 29.8507 13.358 29.641 13.358C29.4312 13.358 29.237 13.3891 29.2137 13.4357Z" fill="black"/>
<path d="M10.8737 23.9533C10.4309 24.4504 10.5785 25.0874 11.1222 25.0874C11.4329 25.0874 11.697 24.901 11.5029 24.8233C11.4407 24.8 11.3708 24.8155 11.3475 24.8544C11.2621 24.9864 11.0057 24.9398 10.9203 24.7767C10.8271 24.6058 10.897 24.2485 11.0446 24.1009C11.1999 23.9378 11.4329 23.9844 11.5417 24.1941C11.5961 24.3029 11.6737 24.3883 11.7126 24.3883C11.8136 24.3883 11.7825 24.0776 11.666 23.9533C11.5262 23.8212 10.9902 23.8135 10.8737 23.9533Z" fill="black"/>
<path d="M20.5915 24.2174C20.4672 24.2951 20.3507 24.3495 20.3429 24.3572C20.273 24.3728 20.6847 25.0874 20.7624 25.0874C20.8867 25.0874 20.8944 24.9165 20.7779 24.8C20.6614 24.6835 20.7235 24.3572 20.8634 24.3262C20.9333 24.3184 21.0343 24.4271 21.1119 24.6213C21.2673 24.9631 21.4071 25.033 21.4071 24.7534C21.4071 24.5048 21.1197 24.0776 20.9643 24.0854C20.8867 24.0854 20.7235 24.1475 20.5915 24.2174Z" fill="black"/>
<path d="M18.7656 24.4969C18.7656 24.5591 18.8045 24.6367 18.8433 24.66C18.8899 24.6833 18.921 24.6367 18.921 24.5513C18.921 24.4581 18.8899 24.3882 18.8433 24.3882C18.8045 24.3882 18.7656 24.4348 18.7656 24.4969Z" fill="black"/>
<path d="M12.0238 24.699C11.6509 25.0485 11.9461 25.6311 12.4355 25.5068C12.8239 25.4136 12.8782 24.8 12.5054 24.6291C12.249 24.5126 12.218 24.5203 12.0238 24.699ZM12.4743 24.8932C12.5831 25.0252 12.5054 25.3204 12.3578 25.3204C12.1869 25.3204 12.0082 25.235 12.0082 25.1417C12.0082 25.0485 12.2413 24.7767 12.3189 24.7767C12.35 24.7767 12.4199 24.831 12.4743 24.8932Z" fill="black"/>
<path d="M19.4181 24.7376C19.286 24.9396 19.3171 25.1648 19.5113 25.359C19.7754 25.6231 20.3191 25.3746 20.3191 24.994C20.3191 24.559 19.6589 24.3648 19.4181 24.7376ZM20.024 24.9007C20.1016 25.0716 20.1016 25.1182 19.9773 25.2037C19.7676 25.359 19.62 25.2581 19.62 24.9629C19.62 24.7532 19.6511 24.6988 19.7754 24.6988C19.8686 24.6988 19.9696 24.7765 20.024 24.9007Z" fill="black"/>
<path d="M16.3186 24.8542C16.2565 24.9552 16.3886 25.0096 16.5051 24.9397C16.5827 24.8931 16.575 24.862 16.4818 24.8309C16.4196 24.8076 16.3419 24.8154 16.3186 24.8542Z" fill="black"/>
<path d="M18.8898 25.142C18.9519 25.5847 18.9752 25.6313 19.1228 25.6313C19.2471 25.6313 19.2704 25.3517 19.1539 25.2818C19.115 25.2585 19.0762 25.1342 19.0762 25.0022C19.0762 24.8468 19.0373 24.7769 18.9519 24.7769C18.8509 24.7769 18.8431 24.839 18.8898 25.142Z" fill="black"/>
<path d="M13.0016 25.1885C12.9783 25.3671 12.955 25.5691 12.9317 25.6312C12.9161 25.6934 12.9472 25.7477 13.0171 25.7477C13.087 25.7477 13.1492 25.6235 13.1958 25.4137C13.2424 25.1652 13.2967 25.0875 13.4133 25.0875C13.5375 25.0875 13.5608 25.1418 13.5608 25.5225C13.5608 25.7866 13.5919 25.9342 13.6385 25.9031C13.6851 25.8798 13.7162 25.7788 13.7162 25.6856C13.7162 25.4914 13.9182 25.1652 14.0347 25.1652C14.0735 25.1652 14.1046 25.3593 14.1046 25.6079C14.1046 25.8487 14.1279 26.0196 14.159 25.9885C14.26 25.8953 14.4075 25.3127 14.3609 25.1962C14.3143 25.0719 14.058 24.9787 13.9492 25.0486C13.9026 25.0797 13.825 25.0642 13.7706 25.0253C13.7162 24.9865 13.5298 24.9321 13.3589 24.901L13.0326 24.8544L13.0016 25.1885Z" fill="black"/>
<path d="M17.9272 25.0251C17.8728 25.0795 17.834 25.196 17.834 25.297C17.834 25.4446 17.8728 25.4756 18.0903 25.4756C18.3855 25.4756 18.4632 25.5222 18.401 25.6776C18.3544 25.8019 18.1447 25.8252 18.1447 25.7087C18.1447 25.6621 18.0748 25.631 17.9893 25.631C17.7796 25.631 17.7951 25.7397 18.0204 25.864C18.3001 26.0116 18.704 25.8252 18.6729 25.5533C18.6574 25.429 18.5952 25.3514 18.4942 25.3358C18.1292 25.2814 17.9893 25.2348 17.9893 25.1649C17.9893 25.1183 18.1136 25.0872 18.2612 25.0872C18.4088 25.0872 18.5331 25.0484 18.5331 25.0096C18.5331 24.9008 18.0359 24.9164 17.9272 25.0251Z" fill="black"/>
<path d="M14.6484 25.5532C14.6484 25.8095 14.6795 26.0193 14.7261 26.0193C14.7727 26.0193 14.8038 25.9261 14.8038 25.8173C14.8038 25.561 14.9358 25.3202 15.0757 25.3202C15.1533 25.3202 15.1922 25.4367 15.2077 25.6853C15.2388 26.1358 15.3553 26.1436 15.4641 25.7008C15.5728 25.2347 15.7204 25.2269 15.7515 25.6853C15.767 25.9571 15.8058 26.0581 15.8913 26.0581C15.9767 26.0581 16.0156 25.9571 16.0311 25.6697C16.0466 25.3512 16.0233 25.2658 15.8913 25.1803C15.767 25.1027 15.7049 25.1027 15.5728 25.1803C15.4408 25.258 15.3941 25.258 15.3708 25.1803C15.3242 25.0638 15.0368 25.0561 15.0368 25.1648C15.0368 25.2192 14.9902 25.2192 14.8892 25.1648C14.6562 25.0405 14.6484 25.0561 14.6484 25.5532Z" fill="black"/>
<path d="M16.4355 25.5457C16.4355 25.8021 16.4744 26.0351 16.5132 26.0584C16.5598 26.0895 16.5909 25.9186 16.5909 25.6001C16.5909 25.3127 16.5598 25.0874 16.5132 25.0874C16.4666 25.0874 16.4355 25.2894 16.4355 25.5457Z" fill="black"/>
<path d="M16.8314 25.2194C16.676 25.3902 16.8158 25.5844 17.1266 25.6155C17.2741 25.6311 17.3674 25.6777 17.3441 25.732C17.3285 25.7864 17.2042 25.8175 17.0566 25.8019C16.878 25.7786 16.8158 25.8019 16.8391 25.8796C16.9013 26.0505 17.3984 26.0505 17.5538 25.8719C17.6703 25.7398 17.6781 25.6932 17.6004 25.5922C17.546 25.5301 17.4217 25.4757 17.3285 25.4757C17.2353 25.4757 17.1033 25.4136 17.0489 25.3436C16.9479 25.2271 16.9634 25.2194 17.1965 25.266C17.3829 25.3048 17.445 25.2893 17.445 25.2038C17.445 25.0407 16.9712 25.0562 16.8314 25.2194Z" fill="black"/>
</svg>