<svg width="37" height="9" viewBox="0 0 37 9" fill="none" xmlns="http://www.w3.org/2000/svg">
<path d="M0 4.52419V9H4.47581H8.95161V4.52419V0.0483866H4.47581H0V4.52419ZM5.93194 2.19677C6.63613 2.62645 6.71968 2.88903 6.77936 4.7629L6.8271 6.46968L7.17323 6.54129C7.42387 6.58903 7.51936 6.67258 7.51936 6.85161C7.51936 7.07839 7.44774 7.09032 6.32581 7.09032C5.20387 7.09032 5.13226 7.07839 5.13226 6.85161C5.13226 6.67258 5.23968 6.58903 5.49032 6.52935L5.84839 6.45774V4.85839C5.84839 3.31871 5.83645 3.2471 5.55 2.97258C5.08452 2.49516 4.07 2.62645 3.67613 3.19935C3.62839 3.27097 3.58065 4.03484 3.58065 4.89419V6.45774L3.93871 6.52935C4.18936 6.58903 4.29677 6.67258 4.29677 6.85161C4.29677 7.07839 4.22516 7.09032 3.09129 7.09032C1.92161 7.09032 1.89774 7.09032 1.93355 6.81581C1.95742 6.62484 2.06484 6.54129 2.30355 6.51742L2.62581 6.48161V4.57194V2.67419H2.26774C1.96935 2.67419 1.90968 2.62645 1.90968 2.37581C1.90968 2.08935 1.93355 2.07742 2.68548 2.07742H3.46129V2.45935V2.84129L3.79548 2.53097C3.97452 2.36387 4.22516 2.1729 4.35645 2.10129C4.73839 1.88645 5.51419 1.93419 5.93194 2.19677Z" fill="black"/>
<path d="M13.1892 2.8173C13.0579 2.88891 12.8789 3.03214 12.8073 3.12762C12.676 3.29472 12.6521 3.28279 12.6521 3.05601C12.6521 2.82924 12.5805 2.79343 12.1747 2.79343C11.6734 2.79343 11.5302 2.96053 11.936 3.09182C12.1627 3.16343 12.1747 3.27085 12.1747 4.59569C12.1747 5.93246 12.1627 6.01601 11.936 6.01601C11.8047 6.01601 11.6973 6.09956 11.6973 6.19504C11.6973 6.35021 11.8286 6.37408 12.4373 6.35021C13.1653 6.3144 13.5353 6.07569 12.9863 5.99214C12.7237 5.95633 12.7118 5.92053 12.7118 4.78666C12.7118 3.64085 12.7237 3.59311 13.046 3.31859C13.4518 2.97246 13.8457 2.94859 14.2157 3.25891C14.4782 3.47375 14.5021 3.56924 14.5021 4.72698C14.5021 5.90859 14.4902 5.95633 14.2395 5.99214C13.6547 6.07569 14.0008 6.25472 14.7408 6.25472C15.5286 6.25472 15.7673 6.1115 15.2182 5.96827C14.9198 5.89666 14.9198 5.87279 14.9198 4.6315C14.9198 3.40214 14.9079 3.36633 14.5737 3.02021C14.1918 2.65021 13.6427 2.56666 13.1892 2.8173Z" fill="black"/>
<path d="M16.9962 2.84136C15.4565 3.53362 15.9101 6.37427 17.5572 6.37427C18.2494 6.37427 18.7149 6.08782 18.9894 5.50298C19.7056 3.90362 18.4285 2.19685 16.9962 2.84136ZM18.1301 3.19943C18.5359 3.41427 18.7388 3.84395 18.7388 4.5362C18.7388 5.47911 18.3091 6.0162 17.5452 6.0162C16.483 6.0162 16.0652 4.15427 16.9485 3.35459C17.3543 2.99653 17.6407 2.94878 18.1301 3.19943Z" fill="black"/>
<path d="M21.0182 2.98459C20.6601 3.28298 20.6482 3.28298 20.6482 3.04427C20.6482 2.82943 20.5766 2.79362 20.1708 2.79362C19.6337 2.79362 19.5263 2.98459 19.9917 3.10394L20.3021 3.17556L20.2663 4.57201C20.2305 5.90878 20.2185 5.95653 19.9679 5.99233C19.8127 6.0162 19.6934 6.11169 19.6934 6.20717C19.6934 6.33846 19.8724 6.37427 20.4692 6.37427C21.0659 6.37427 21.245 6.33846 21.245 6.20717C21.245 6.11169 21.1256 6.0162 20.9824 5.99233C20.7198 5.95653 20.7079 5.89685 20.6721 4.94201C20.6482 4.10653 20.684 3.85588 20.875 3.54556C21.2808 2.88911 22.1879 2.91298 22.4385 3.58136C22.5101 3.74846 22.5579 4.34524 22.5579 4.9062C22.5579 5.8133 22.534 5.92072 22.3192 5.9804C22.1879 6.0162 22.0805 6.12362 22.0805 6.20717C22.0805 6.32653 22.2714 6.37427 22.7966 6.37427C23.3337 6.37427 23.5127 6.33846 23.5127 6.20717C23.5127 6.11169 23.3934 6.0162 23.2501 5.99233C22.9876 5.95653 22.9756 5.89685 22.9756 4.94201C22.9637 3.47394 22.9517 3.40233 22.5698 3.0204C22.1043 2.56685 21.5314 2.55491 21.0182 2.98459Z" fill="black"/>
<path d="M24.7061 2.87716C24.372 3.04425 24.2765 3.17554 24.2526 3.47393C24.2168 3.80812 24.2526 3.8678 24.4555 3.8678C24.6345 3.8678 24.7061 3.79619 24.7061 3.59329C24.7061 3.2949 25.1 3.03232 25.5536 3.03232C25.8878 3.03232 26.3771 3.55748 26.3771 3.90361C26.3771 4.17812 26.3174 4.202 25.6013 4.28554C24.5749 4.39296 24.1094 4.75103 24.1094 5.41941C24.1094 6.27877 25.112 6.66071 25.9594 6.13554L26.3532 5.89683L26.4129 6.13554C26.4607 6.31458 26.5681 6.37425 26.8426 6.37425C27.2603 6.37425 27.3558 6.0878 26.9739 5.98038C26.7591 5.9207 26.7352 5.81329 26.7352 4.61974C26.7352 3.39038 26.7232 3.2949 26.4487 3.04425C26.0429 2.66232 25.2552 2.5907 24.7061 2.87716ZM26.3771 4.9778C26.3771 5.84909 24.9807 6.38619 24.5987 5.67006C24.2884 5.10909 24.8613 4.59587 25.8161 4.58393C26.3771 4.58393 26.3771 4.58393 26.3771 4.9778Z" fill="black"/>
<path d="M29.0391 2.90098C28.7169 3.10388 28.6453 3.11582 28.6453 2.97259C28.6453 2.8413 28.514 2.79356 28.1678 2.79356C27.6546 2.79356 27.5233 2.98453 27.9649 3.09195C28.2156 3.16356 28.2275 3.19937 28.2037 4.56001C28.1917 5.87291 28.1678 5.95646 27.9411 5.99227C27.7978 6.01614 27.6904 6.11162 27.6904 6.20711C27.6904 6.35033 27.8456 6.3742 28.4304 6.35033C29.1585 6.31453 29.5285 6.07582 28.9795 5.99227C28.7169 5.95646 28.7049 5.89679 28.6691 4.87033C28.6453 3.93937 28.6691 3.7484 28.872 3.48582C29.1704 3.11582 29.5882 2.98453 30.0059 3.15162C30.3998 3.29485 30.5788 3.96324 30.5311 5.09711C30.4953 5.88485 30.4714 5.95646 30.2327 5.99227C30.0775 6.01614 29.9582 6.11162 29.9582 6.20711C29.9582 6.35033 30.1133 6.3742 30.6982 6.35033C31.4262 6.31453 31.7962 6.07582 31.2472 5.99227C30.9846 5.95646 30.9727 5.92066 30.9727 4.78679C30.9727 3.62904 30.9846 3.60517 31.3188 3.30679C31.5933 3.08001 31.7485 3.02033 32.0349 3.08001C32.6078 3.19937 32.7033 3.42614 32.7033 4.73904C32.7033 5.81324 32.6795 5.92066 32.4646 5.98033C31.9872 6.11162 32.2498 6.25485 32.942 6.25485C33.6462 6.25485 33.8849 6.09969 33.4195 5.95646C33.2046 5.88485 33.1808 5.77743 33.1808 4.72711C33.1808 3.0442 32.7869 2.51904 31.6888 2.72195C31.462 2.76969 31.1756 2.92485 31.0682 3.09195L30.8533 3.36646L30.6146 3.08001C30.2804 2.66227 29.5524 2.57872 29.0391 2.90098Z" fill="black"/>
<path d="M35.0071 2.86503C33.9448 3.39019 33.8493 5.43116 34.8519 6.11148C35.1981 6.35019 35.3771 6.386 35.9022 6.35019C36.5468 6.29052 36.9764 6.02793 36.8332 5.78922C36.7735 5.69374 36.6661 5.70568 36.4871 5.83697C35.8068 6.31439 34.7922 5.87277 34.649 5.02535L34.5774 4.58374H35.7948H37.0003V4.17793C37.0003 3.55729 36.8093 3.17535 36.3797 2.91277C35.9022 2.62632 35.5203 2.61439 35.0071 2.86503ZM36.2126 3.29471C36.3797 3.44987 36.5348 3.70052 36.5468 3.86761C36.5826 4.166 36.5706 4.166 35.6039 4.20181C34.5297 4.23761 34.4939 4.21374 34.8042 3.61697C35.1145 3.00826 35.7352 2.87697 36.2126 3.29471Z" fill="black"/>
</svg>

