<svg width="35" height="41" viewBox="0 0 35 41" fill="none" xmlns="http://www.w3.org/2000/svg">
<path d="M14.9998 1.033C14.9998 1.08402 14.51 1.15545 13.908 1.19626C13.2957 1.22688 12.7957 1.30851 12.7753 1.35953C12.7549 1.42075 12.4896 1.46157 12.1835 1.46157C11.8774 1.46157 11.6325 1.50239 11.6325 1.56361C11.6325 1.61463 11.4488 1.69626 11.2243 1.72688C10.9998 1.76769 10.8162 1.82892 10.8162 1.87994C10.8162 1.93096 10.7039 1.97177 10.5713 1.97177C10.4284 1.97177 10.2549 2.0432 10.1631 2.12484C10.0815 2.20647 9.9182 2.2779 9.79575 2.2779C9.6733 2.2779 9.51004 2.34932 9.42841 2.43096C9.33657 2.51259 9.18351 2.58402 9.07126 2.58402C8.96922 2.58402 8.87739 2.62483 8.87739 2.68606C8.87739 2.73708 8.78555 2.7881 8.6733 2.7881C8.56106 2.7881 8.43861 2.85953 8.408 2.94116C8.36718 3.02279 8.23453 3.09422 8.10188 3.09422C7.96922 3.09422 7.85698 3.13504 7.85698 3.19626C7.85698 3.24728 7.74473 3.31871 7.60188 3.35953C7.45902 3.39014 7.34677 3.46157 7.34677 3.51259C7.34677 3.56361 7.27535 3.60443 7.19371 3.60443C7.11208 3.60443 7.04065 3.67585 7.04065 3.75749C7.04065 3.84932 6.94882 3.91055 6.78555 3.91055C6.62228 3.91055 6.53045 3.97177 6.53045 4.06361C6.53045 4.14524 6.45902 4.21667 6.37739 4.21667C6.29575 4.21667 6.22433 4.26769 6.22433 4.32892C6.22433 4.44116 5.96922 4.72687 5.86718 4.72687C5.83657 4.72687 5.70392 4.83912 5.57127 4.98198C5.43861 5.12483 5.28555 5.23708 5.21412 5.23708C5.1529 5.23708 5.10188 5.30851 5.10188 5.39014C5.10188 5.48198 5.01004 5.5432 4.84678 5.5432C4.70392 5.5432 4.59167 5.59422 4.59167 5.65545C4.59167 5.7983 4.03045 6.35953 3.88759 6.35953C3.82637 6.35953 3.77535 6.43095 3.77535 6.51259C3.77535 6.59422 3.73453 6.66565 3.68351 6.66565C3.63249 6.66565 3.55086 6.76769 3.51004 6.89014C3.46923 7.02279 3.33657 7.22687 3.20392 7.34932C3.07127 7.47177 2.95902 7.62483 2.95902 7.68606C2.95902 7.73708 2.91821 7.7881 2.85698 7.7881C2.80596 7.7881 2.73453 7.90034 2.69372 8.0432C2.6631 8.18606 2.59168 8.2983 2.54066 8.2983C2.48963 8.2983 2.44882 8.36973 2.44882 8.45136C2.44882 8.53299 2.37739 8.60442 2.29576 8.60442C2.20392 8.60442 2.1427 8.69626 2.1427 8.85952C2.1427 9.00238 2.10188 9.11463 2.04066 9.11463C1.98964 9.11463 1.91821 9.22687 1.87739 9.36973C1.84678 9.51259 1.77535 9.62483 1.72433 9.62483C1.67331 9.62483 1.63249 9.73708 1.63249 9.87993C1.63249 10.0228 1.56106 10.1656 1.47943 10.1963C1.38759 10.2371 1.32637 10.3901 1.32637 10.6044C1.32637 10.7983 1.28555 10.9514 1.22433 10.9514C1.17331 10.9514 1.09168 11.135 1.06106 11.3595C1.02025 11.584 0.959024 11.7677 0.908003 11.7677C0.856983 11.7677 0.816167 11.9003 0.816167 12.0636C0.816167 12.2269 0.744738 12.4309 0.663106 12.5228C0.571269 12.6146 0.510044 12.8595 0.510044 13.1758C0.510044 13.4922 0.459024 13.7065 0.387596 13.7269C0.193718 13.7983 0.193718 19.1248 0.387596 19.186C0.469228 19.2167 0.510044 19.4514 0.510044 19.8493C0.510044 20.2473 0.561065 20.5024 0.663106 20.6044C0.744738 20.6963 0.816167 20.9003 0.816167 21.0636C0.816167 21.2269 0.867187 21.3595 0.918207 21.3595C0.979432 21.3595 1.02025 21.4718 1.02025 21.6044C1.02025 21.7473 1.09168 21.9207 1.17331 22.0126C1.25494 22.0942 1.32637 22.2575 1.32637 22.3799C1.32637 22.5024 1.3978 22.6656 1.47943 22.7473C1.56106 22.8391 1.63249 22.9922 1.63249 23.1044C1.63249 23.2065 1.68351 23.2983 1.73453 23.2983C1.79576 23.2983 1.83657 23.3901 1.83657 23.5024C1.83657 23.6146 1.908 23.7371 1.98964 23.7677C2.07127 23.8085 2.1427 23.9411 2.1427 24.0738C2.1427 24.2065 2.18351 24.3187 2.24474 24.3187C2.29576 24.3187 2.36719 24.4309 2.408 24.5738C2.43861 24.7167 2.51004 24.8289 2.56106 24.8289C2.61208 24.8289 2.6529 24.9003 2.6529 24.982C2.6529 25.0636 2.72433 25.135 2.80596 25.135C2.8978 25.135 2.95902 25.2269 2.95902 25.3901C2.95902 25.5534 3.02025 25.6452 3.11208 25.6452C3.19372 25.6452 3.26514 25.6962 3.26514 25.7575C3.26514 25.8289 3.37739 25.982 3.52025 26.1146C3.6631 26.2473 3.77535 26.3799 3.77535 26.4105C3.77535 26.5126 4.06106 26.7677 4.1631 26.7677C4.21412 26.7677 4.29576 26.8799 4.32637 27.0228C4.36718 27.1656 4.43861 27.2779 4.48963 27.2779C4.55086 27.2779 4.59167 27.3493 4.59167 27.4309C4.59167 27.5228 4.68351 27.584 4.84678 27.584C5.01004 27.584 5.10188 27.6452 5.10188 27.7371C5.10188 27.8187 5.1529 27.8901 5.21412 27.8901C5.28555 27.8901 5.43861 28.0024 5.57127 28.1452C5.70392 28.2881 5.83657 28.4003 5.86718 28.4003C5.908 28.4003 5.99984 28.4616 6.07126 28.533C6.408 28.8289 6.53045 28.9105 6.63249 28.9105C6.68351 28.9105 6.73453 28.982 6.73453 29.0636C6.73453 29.1452 6.80596 29.2167 6.88759 29.2167C6.96922 29.2167 7.04065 29.2575 7.04065 29.3085C7.04065 29.3595 7.1529 29.4309 7.29575 29.4616C7.43861 29.5024 7.55086 29.5738 7.55086 29.6248C7.55086 29.686 7.62228 29.7269 7.70392 29.7269C7.78555 29.7269 7.85698 29.7983 7.85698 29.8799C7.85698 29.982 7.95902 30.033 8.1631 30.033C8.33657 30.033 8.46922 30.0738 8.46922 30.135C8.46922 30.186 8.58147 30.2575 8.72432 30.2983C8.86718 30.3289 8.97943 30.4003 8.97943 30.4513C8.97943 30.5024 9.09167 30.5432 9.22432 30.5432C9.36718 30.5432 9.54065 30.6146 9.63249 30.6962C9.71412 30.7779 9.89779 30.8493 10.0406 30.8493C10.1835 30.8493 10.306 30.8901 10.306 30.9513C10.306 31.0024 10.4896 31.084 10.7141 31.1146C10.9386 31.1554 11.1223 31.2167 11.1223 31.2677C11.1223 31.3187 11.306 31.3595 11.5202 31.3595C11.7447 31.3595 11.9896 31.4309 12.0815 31.5126C12.1835 31.6146 12.4386 31.6656 12.8876 31.6656C13.3264 31.6656 13.5713 31.7064 13.6019 31.7881C13.6631 31.982 17.8774 31.9718 17.9386 31.7881C17.959 31.7064 18.2141 31.6656 18.7243 31.6656C19.2957 31.6656 19.4794 31.6248 19.5304 31.5126C19.5611 31.4105 19.7243 31.3595 19.9998 31.3595C20.2243 31.3595 20.408 31.3187 20.408 31.2677C20.408 31.2167 20.5917 31.1554 20.8162 31.1146C21.0406 31.084 21.2243 31.0024 21.2243 30.9513C21.2243 30.8901 21.3366 30.8493 21.4794 30.8493C21.6223 30.8493 21.7345 30.8085 21.7345 30.7473C21.7345 30.6962 21.9182 30.6146 22.1427 30.584C22.3672 30.5432 22.5508 30.482 22.5508 30.4411C22.5508 30.4003 22.6631 30.3289 22.8059 30.2983C22.9488 30.2575 23.061 30.186 23.061 30.135C23.061 30.0738 23.1733 30.033 23.3161 30.033C23.459 30.033 23.5713 29.982 23.5713 29.9309C23.5713 29.8697 23.6529 29.7881 23.7549 29.7575C23.8468 29.7167 23.9794 29.635 24.0508 29.584C24.3978 29.2779 24.4896 29.2167 24.5917 29.2167C24.6529 29.2167 24.7753 29.1554 24.8468 29.0942C25.1835 28.7881 25.3059 28.7064 25.408 28.7064C25.459 28.7064 25.51 28.635 25.51 28.5534C25.51 28.4718 25.561 28.4003 25.6223 28.4003C25.6835 28.4003 25.8672 28.2677 26.0406 28.0942C26.2039 27.9309 26.3876 27.7881 26.4386 27.7881C26.561 27.7881 27.1427 27.1962 27.1427 27.0738C27.1427 27.0126 27.2141 26.9718 27.2957 26.9718C27.3774 26.9718 27.4488 26.9003 27.4488 26.8187C27.4488 26.7269 27.561 26.5534 27.7039 26.4207C27.8468 26.2881 27.959 26.135 27.959 26.0636C27.959 26.0024 28.0304 25.9513 28.1121 25.9513C28.1937 25.9513 28.2651 25.8799 28.2651 25.7983C28.2651 25.7167 28.3059 25.6452 28.357 25.6452C28.408 25.6452 28.4896 25.5432 28.5304 25.4105C28.5712 25.2881 28.7039 25.084 28.8366 24.9616C28.9692 24.8391 29.0815 24.6452 29.0815 24.5228C29.0815 24.4105 29.1529 24.3187 29.2345 24.3187C29.3161 24.3187 29.3876 24.2473 29.3876 24.1656C29.3876 24.084 29.4386 24.0126 29.4896 24.0126C29.5508 24.0126 29.5917 23.9003 29.5917 23.7575C29.5917 23.5942 29.6529 23.5024 29.7447 23.5024C29.857 23.5024 29.8978 23.3901 29.8978 23.0942C29.8978 22.7983 29.9386 22.686 30.0508 22.686C30.1427 22.686 30.2039 22.5942 30.2039 22.4309C30.2039 22.2881 30.2549 22.1758 30.3059 22.1758C30.3672 22.1758 30.408 22.0636 30.408 21.9207C30.408 21.7779 30.4794 21.635 30.561 21.6044C30.6631 21.5636 30.7141 21.3901 30.7141 21.0534C30.7141 20.7779 30.7651 20.5432 30.8263 20.5228C30.8876 20.5024 30.959 20.2575 30.9896 19.982C31.0202 19.6963 31.1019 19.4411 31.1631 19.4003C31.3161 19.2983 31.3161 13.8289 31.1631 13.7269C31.1019 13.6861 31.0202 13.3799 30.9794 13.0432C30.9386 12.7065 30.8672 12.4105 30.8161 12.4003C30.7549 12.3799 30.7141 12.1861 30.7141 11.9616C30.7141 11.7473 30.6733 11.5636 30.6121 11.5636C30.561 11.5636 30.4794 11.3799 30.4488 11.1554C30.408 10.931 30.3468 10.7473 30.3059 10.7473C30.2549 10.7473 30.1937 10.6044 30.1529 10.4412C30.1121 10.2677 30.0406 10.135 29.9896 10.135C29.9386 10.135 29.8978 10.0228 29.8978 9.87993C29.8978 9.73708 29.857 9.62483 29.7957 9.62483C29.7447 9.62483 29.6733 9.51259 29.6325 9.36973C29.6019 9.22687 29.5304 9.11463 29.4896 9.11463C29.4488 9.11463 29.3774 9.00238 29.3468 8.85952C29.3059 8.71667 29.2345 8.60442 29.1835 8.60442C29.1223 8.60442 29.0815 8.53299 29.0815 8.44116C29.0815 8.35953 29.0202 8.21667 28.959 8.14524C28.6529 7.80851 28.5712 7.68606 28.5712 7.58402C28.5712 7.533 28.4998 7.48197 28.4182 7.48197C28.3366 7.48197 28.2651 7.43095 28.2651 7.36973C28.2651 7.30851 28.1325 7.12483 27.959 6.95136C27.7957 6.7881 27.6529 6.60442 27.6529 6.5534C27.6529 6.50238 27.4284 6.23708 27.1427 5.96157C26.8672 5.68606 26.6325 5.41055 26.6325 5.34932C26.6325 5.2881 26.5815 5.23708 26.5202 5.23708C26.4488 5.23708 26.2549 5.08402 26.0815 4.89014C25.8978 4.70647 25.6529 4.51259 25.5304 4.48198C25.408 4.44116 25.3059 4.35953 25.3059 4.30851C25.3059 4.25749 25.2345 4.21667 25.1529 4.21667C25.0713 4.21667 24.9998 4.14524 24.9998 4.06361C24.9998 3.98198 24.9284 3.91055 24.8468 3.91055C24.7651 3.91055 24.6937 3.86973 24.6937 3.80851C24.6937 3.75749 24.5815 3.68606 24.4386 3.64524C24.2957 3.61463 24.1835 3.5432 24.1835 3.50239C24.1835 3.46157 24.0713 3.39014 23.9284 3.35953C23.7855 3.31871 23.6733 3.24728 23.6733 3.19626C23.6733 3.13504 23.6019 3.09422 23.5202 3.09422C23.4386 3.09422 23.3672 3.05341 23.3672 3.00239C23.3672 2.95137 23.2345 2.87994 23.061 2.83912C22.8978 2.7983 22.7549 2.72688 22.7549 2.67586C22.7549 2.62483 22.6631 2.58402 22.5508 2.58402C22.4386 2.58402 22.3162 2.51259 22.2855 2.43096C22.2447 2.33912 22.0917 2.2779 21.8774 2.2779C21.6835 2.2779 21.5304 2.23708 21.5304 2.17586C21.5304 2.12484 21.3468 2.0432 21.1223 2.01259C20.8978 1.97177 20.7141 1.91055 20.7141 1.86973C20.7141 1.82892 20.5202 1.76769 20.2855 1.73708C20.0406 1.70647 19.8366 1.62484 19.8162 1.57382C19.7957 1.51259 19.5611 1.46157 19.2855 1.46157C19.01 1.46157 18.7753 1.41055 18.7549 1.35953C18.7345 1.29831 18.1835 1.22688 17.4692 1.18606C16.7855 1.15545 16.2243 1.08402 16.2243 1.033C16.2243 0.992183 15.9488 0.951367 15.6121 0.951367C15.2753 0.951367 14.9998 0.992183 14.9998 1.033ZM17.857 2.17586C17.857 2.22688 18.1121 2.2779 18.4182 2.2779C18.7243 2.2779 18.9794 2.31871 18.9794 2.36973C18.9794 2.42075 19.2345 2.50239 19.5406 2.533C19.8468 2.57381 20.1019 2.64524 20.1019 2.68606C20.1019 2.72688 20.2855 2.7881 20.51 2.82892C20.7345 2.85953 20.9182 2.94116 20.9182 2.99218C20.9182 3.05341 21.0304 3.09422 21.1733 3.09422C21.3162 3.09422 21.4284 3.13504 21.4284 3.18606C21.4284 3.23708 21.5713 3.30851 21.7345 3.34932C21.908 3.39014 22.0406 3.46157 22.0406 3.51259C22.0406 3.56361 22.1529 3.60443 22.2957 3.60443C22.459 3.60443 22.5508 3.66565 22.5508 3.75749C22.5508 3.85953 22.6529 3.91055 22.857 3.91055C23.0304 3.91055 23.1631 3.95136 23.1631 4.00239C23.1631 4.05341 23.2651 4.13504 23.3978 4.17585C23.5202 4.21667 23.7243 4.34932 23.8468 4.48198C23.9692 4.61463 24.1427 4.72687 24.2345 4.72687C24.3161 4.72687 24.3876 4.7983 24.3876 4.87994C24.3876 4.96157 24.2957 5.033 24.1835 5.033C24.0713 5.033 23.9488 4.96157 23.9182 4.87994C23.8774 4.7881 23.7243 4.72687 23.51 4.72687C23.3161 4.72687 23.1631 4.68606 23.1631 4.63504C23.1631 4.58402 23.0304 4.51259 22.857 4.47177C22.6937 4.43096 22.5508 4.36973 22.5508 4.31871C22.5508 4.2779 22.3672 4.21667 22.1427 4.17585C21.9182 4.14524 21.7345 4.06361 21.7345 4.01259C21.7345 3.95136 21.6121 3.91055 21.4692 3.91055C21.3264 3.91055 21.1427 3.83912 21.061 3.75749C20.9692 3.67585 20.7957 3.60443 20.6529 3.60443C20.5202 3.60443 20.408 3.55341 20.408 3.50239C20.408 3.44116 20.2957 3.40034 20.1529 3.40034C20.01 3.40034 19.8672 3.32892 19.8366 3.24728C19.7957 3.14524 19.6325 3.09422 19.3774 3.09422C19.1631 3.09422 18.9794 3.05341 18.9794 2.99218C18.9794 2.94116 18.8162 2.86973 18.6223 2.82892C18.4284 2.7983 18.2651 2.72688 18.2651 2.67586C18.2651 2.62483 18.1529 2.58402 18.0202 2.58402C17.6427 2.58402 17.4488 2.48198 17.4488 2.26769C17.4488 2.14524 17.5202 2.07381 17.6529 2.07381C17.7651 2.07381 17.857 2.11463 17.857 2.17586ZM13.5713 2.37994C13.5713 2.43096 13.3876 2.51259 13.1631 2.5432C12.9386 2.58402 12.7549 2.64524 12.7549 2.68606C12.7549 2.73708 12.6223 2.7983 12.4488 2.83912C12.2855 2.87994 12.1427 2.95137 12.1427 3.00239C12.1427 3.05341 11.9896 3.09422 11.7958 3.09422C11.5815 3.09422 11.4284 3.15545 11.3876 3.24728C11.357 3.32892 11.2141 3.40034 11.0713 3.40034C10.9284 3.40034 10.8162 3.44116 10.8162 3.50239C10.8162 3.55341 10.7039 3.60443 10.5713 3.60443C10.4284 3.60443 10.2549 3.67585 10.1631 3.75749C10.0815 3.83912 9.89779 3.91055 9.75494 3.91055C9.59167 3.91055 9.48963 3.97177 9.48963 4.06361C9.48963 4.16565 9.38759 4.21667 9.18351 4.21667C9.02024 4.21667 8.87739 4.25749 8.87739 4.30851C8.87739 4.35953 8.71412 4.43096 8.52024 4.46157C8.32637 4.50238 8.1631 4.57381 8.1631 4.62483C8.1631 4.68606 8.05086 4.72687 7.9182 4.72687C7.78555 4.72687 7.6529 4.7983 7.61208 4.87994C7.58147 4.96157 7.43861 5.033 7.29575 5.033C7.1529 5.033 7.04065 5.07381 7.04065 5.13504C7.04065 5.18606 6.99984 5.23708 6.93861 5.23708C6.88759 5.23708 6.83657 5.18606 6.83657 5.12483C6.83657 4.98198 7.09167 4.72687 7.23453 4.72687C7.29575 4.72687 7.34677 4.65545 7.34677 4.57381C7.34677 4.48198 7.43861 4.42075 7.60188 4.42075C7.74473 4.42075 7.85698 4.37994 7.85698 4.31871C7.85698 4.26769 7.96922 4.19626 8.11208 4.15545C8.25494 4.12483 8.36718 4.05341 8.36718 4.00239C8.36718 3.95136 8.43861 3.91055 8.52024 3.91055C8.60188 3.91055 8.6733 3.86973 8.6733 3.80851C8.6733 3.75749 8.79575 3.67585 8.94881 3.64524C9.10187 3.60443 9.29575 3.51259 9.36718 3.43096C9.43861 3.35953 9.57126 3.2983 9.65289 3.2983C9.73453 3.2983 9.79575 3.24728 9.79575 3.19626C9.79575 3.13504 9.95902 3.09422 10.1529 3.09422C10.3468 3.09422 10.51 3.05341 10.51 2.99218C10.51 2.94116 10.6937 2.85953 10.9182 2.82892C11.1427 2.7881 11.3264 2.72688 11.3264 2.68606C11.3264 2.64524 11.5202 2.58402 11.7549 2.55341C11.9998 2.52279 12.2039 2.44116 12.2243 2.39014C12.2753 2.24728 13.5713 2.23708 13.5713 2.37994ZM22.3468 6.86973V8.50238H16.908H11.459L11.3876 9.84932C11.357 10.5942 11.2753 11.2167 11.2243 11.2371C11.1631 11.2575 11.1223 11.8391 11.1223 12.6554V14.033L11.6631 13.9616C11.9488 13.9207 12.2141 13.8493 12.2243 13.7983C12.2753 13.6758 17.6529 13.6758 17.6529 13.7983C17.6529 13.8493 17.908 13.9309 18.2141 13.9616C18.5202 14.0024 18.7753 14.0738 18.7753 14.1146C18.7753 14.1554 18.959 14.2167 19.1835 14.2575C19.408 14.2881 19.5917 14.3697 19.5917 14.4207C19.5917 14.482 19.7039 14.5228 19.8468 14.5228C19.9896 14.5228 20.1019 14.5636 20.1019 14.6146C20.1019 14.6656 20.2141 14.7371 20.357 14.7677C20.4998 14.8085 20.6121 14.8799 20.6121 14.9309C20.6121 14.9922 20.6835 15.033 20.7651 15.033C20.8468 15.033 20.9182 15.1044 20.9182 15.186C20.9182 15.2677 21.01 15.3391 21.1223 15.3391C21.2957 15.3391 22.5508 16.4616 22.5508 16.6146C22.5508 16.6758 22.6631 16.8187 22.9284 17.1146C22.9998 17.1963 23.0815 17.3697 23.1223 17.5228C23.1529 17.6656 23.2243 17.7881 23.2753 17.7881C23.3264 17.7881 23.3672 17.9105 23.3672 18.0534C23.3672 18.1963 23.4386 18.3799 23.5202 18.4616C23.6019 18.5534 23.6733 18.7983 23.6733 19.0228C23.6733 19.2371 23.7243 19.4207 23.7753 19.4207C23.8366 19.4207 23.8774 19.982 23.8774 20.9003C23.8774 21.8187 23.8366 22.3799 23.7753 22.3799C23.7243 22.3799 23.6733 22.5126 23.6733 22.6758C23.6733 22.8391 23.6019 23.0432 23.5202 23.135C23.4386 23.2167 23.3672 23.4003 23.3672 23.5432C23.3672 23.686 23.3264 23.8085 23.2651 23.8085C23.2141 23.8085 23.1631 23.8697 23.1631 23.9514C23.1631 24.033 23.1019 24.1656 23.0202 24.2371C22.9488 24.3187 22.8468 24.482 22.8162 24.6044C22.7753 24.7269 22.6937 24.8289 22.6427 24.8289C22.5917 24.8289 22.5508 24.8799 22.5508 24.9411C22.5508 25.0126 22.4386 25.1656 22.3059 25.2881C22.1733 25.4105 22.0304 25.6146 21.9896 25.7269C21.959 25.8595 21.8366 25.9513 21.7243 25.9513C21.6223 25.9513 21.5304 26.0228 21.5304 26.1044C21.5304 26.186 21.459 26.2575 21.3774 26.2575C21.2957 26.2575 21.2243 26.2983 21.2243 26.3595C21.2243 26.4105 21.1529 26.4616 21.0713 26.4616C20.9896 26.4616 20.9182 26.533 20.9182 26.6146C20.9182 26.7065 20.8264 26.7677 20.6631 26.7677C20.4998 26.7677 20.408 26.8289 20.408 26.9207C20.408 27.0024 20.3366 27.0738 20.2549 27.0738C20.1733 27.0738 20.1019 27.1146 20.1019 27.1656C20.1019 27.2167 19.9896 27.2881 19.8468 27.3187C19.7039 27.3595 19.5917 27.4309 19.5917 27.482C19.5917 27.5432 19.4692 27.584 19.3264 27.584C19.1835 27.584 18.9998 27.6554 18.9182 27.7371C18.8264 27.8187 18.5815 27.8901 18.3672 27.8901C18.1529 27.8901 17.959 27.9411 17.9386 28.0024C17.9182 28.0738 17.459 28.135 16.806 28.1656C16.2039 28.1962 15.7141 28.2677 15.7141 28.3085C15.7141 28.3595 15.6427 28.4003 15.5611 28.4003C15.4794 28.4003 15.408 28.3595 15.408 28.3085C15.408 28.2677 14.9386 28.1962 14.3672 28.1656C13.7549 28.135 13.306 28.0636 13.2855 28.0024C13.2651 27.9411 13.0713 27.8901 12.857 27.8901C12.6427 27.8901 12.3978 27.8187 12.306 27.7371C12.2243 27.6554 11.9896 27.584 11.7958 27.584C11.5917 27.584 11.4284 27.5432 11.4284 27.4922C11.4284 27.4411 11.2958 27.3697 11.1223 27.3289C10.959 27.2881 10.8162 27.2269 10.8162 27.1758C10.8162 27.135 10.7039 27.0636 10.5611 27.033C10.4182 26.9922 10.306 26.9207 10.306 26.8697C10.306 26.8085 10.2549 26.7677 10.1937 26.7677C10.0509 26.7677 9.48963 26.2065 9.48963 26.0636C9.48963 26.0024 9.43861 25.9513 9.37738 25.9513C9.23453 25.9513 8.97943 25.6962 8.97943 25.5534C8.97943 25.4922 8.908 25.4411 8.82636 25.4411C8.74473 25.4411 8.6733 25.3901 8.6733 25.3289C8.6733 25.2677 8.60188 25.1554 8.52024 25.0738C8.43861 24.982 8.36718 24.8289 8.36718 24.7167C8.36718 24.6146 8.32637 24.5228 8.27534 24.5228C8.22432 24.5228 8.1529 24.3595 8.12228 24.1656C8.08147 23.9718 8.01004 23.8085 7.95902 23.8085C7.89779 23.8085 7.85698 23.6248 7.85698 23.4003C7.85698 23.1758 7.89779 22.9922 7.94881 22.9922C7.99983 22.9922 8.07126 22.8697 8.10188 22.7269C8.18351 22.4309 8.39779 22.1758 8.56106 22.1758C8.62228 22.1758 8.6733 22.1044 8.6733 22.0228C8.6733 21.9003 8.81616 21.8697 9.33657 21.8697C9.71412 21.8697 9.99983 21.9105 9.99983 21.9718C9.99983 22.0228 10.0713 22.0738 10.1529 22.0738C10.2345 22.0738 10.306 22.1452 10.306 22.2269C10.306 22.3085 10.3774 22.3799 10.459 22.3799C10.5406 22.3799 10.6121 22.4309 10.6121 22.4922C10.6121 22.5636 10.7243 22.7167 10.8672 22.8493C11.0304 23.0024 11.1223 23.1962 11.1223 23.4003C11.1223 23.5738 11.1937 23.7881 11.2753 23.8697C11.357 23.9616 11.4284 24.135 11.4284 24.2779C11.4284 24.4105 11.4794 24.5228 11.5304 24.5228C11.5917 24.5228 11.6325 24.5942 11.6325 24.6758C11.6325 24.7677 11.7039 24.8595 11.7855 24.8901C11.8672 24.9309 11.9386 25.0126 11.9386 25.084C11.9386 25.2983 12.8162 26.1452 13.1121 26.2167C13.2549 26.2473 13.3672 26.3187 13.3672 26.3697C13.3672 26.4207 13.4794 26.4616 13.6121 26.4616C13.7549 26.4616 13.9284 26.533 14.0202 26.6146C14.2345 26.8391 16.9896 26.8391 17.2039 26.6146C17.2957 26.533 17.4692 26.4616 17.6121 26.4616C17.7447 26.4616 17.857 26.4207 17.857 26.3697C17.857 26.3187 17.9998 26.2473 18.1631 26.2065C18.3366 26.1656 18.4692 26.0942 18.4692 26.0432C18.4692 25.9922 18.5406 25.9513 18.6223 25.9513C18.7039 25.9513 18.7753 25.9105 18.7753 25.8493C18.7753 25.7983 18.8876 25.7269 19.0304 25.686C19.1733 25.6554 19.2855 25.5738 19.2855 25.5228C19.2855 25.4003 19.5508 25.135 19.6733 25.135C19.7243 25.135 19.8059 25.0228 19.8366 24.8799C19.8774 24.7371 19.9488 24.6248 19.9998 24.6248C20.0611 24.6248 20.1019 24.5534 20.1019 24.4718C20.1019 24.3901 20.1427 24.3187 20.2039 24.3187C20.2549 24.3187 20.3264 24.2065 20.3672 24.0636C20.3978 23.9207 20.4692 23.8085 20.5202 23.8085C20.5713 23.8085 20.6121 23.6758 20.6121 23.5126C20.6121 23.3493 20.6835 23.1452 20.7651 23.0534C20.857 22.9616 20.9182 22.7065 20.9182 22.3901C20.9182 22.1044 20.9692 21.8697 21.0202 21.8697C21.0815 21.8697 21.1223 21.7983 21.1223 21.7167C21.1223 21.635 21.0815 21.5636 21.0202 21.5636C20.959 21.5636 20.9182 21.186 20.9182 20.635C20.9182 19.9514 20.8774 19.6758 20.7651 19.5636C20.6835 19.4718 20.6121 19.2677 20.6121 19.1044C20.6121 18.9411 20.5713 18.8085 20.51 18.8085C20.459 18.8085 20.3876 18.6963 20.3468 18.5534C20.3162 18.4105 20.2447 18.2983 20.1937 18.2983C20.1427 18.2983 20.1019 18.2473 20.1019 18.1963C20.1019 18.0738 19.9998 17.9412 19.5713 17.482C19.408 17.3289 19.2855 17.1452 19.2855 17.084C19.2855 17.0228 19.1937 16.9718 19.0815 16.9718C18.959 16.9718 18.7651 16.8595 18.6325 16.7167C18.4998 16.5738 18.2957 16.4616 18.1733 16.4616C18.0508 16.4616 17.959 16.4003 17.959 16.3085C17.959 16.1963 17.8468 16.1554 17.5611 16.1554C17.3366 16.1554 17.1427 16.1044 17.1223 16.0432C17.1019 15.982 16.8468 15.9003 16.5508 15.8697C16.2549 15.8493 16.0202 15.7881 16.0202 15.7371C16.0202 15.686 15.357 15.6452 14.5406 15.6452C13.7243 15.6452 13.0611 15.686 13.0611 15.7371C13.0611 15.7779 12.6835 15.8493 12.2243 15.8799C11.7549 15.9207 11.3672 15.9922 11.3468 16.0534C11.3264 16.1044 11.1019 16.1554 10.8468 16.1554C10.5815 16.1554 10.3264 16.2167 10.2447 16.3085C10.0611 16.482 9.61208 16.5126 9.38759 16.3493C9.27534 16.2677 9.26514 16.2269 9.36718 16.186C9.45902 16.1554 9.48963 15.6554 9.48963 14.2167C9.48963 13.1248 9.53045 12.2779 9.58147 12.2575C9.63249 12.2371 9.71412 11.033 9.75494 9.5432C9.79575 8.07381 9.86718 6.86973 9.908 6.86973C9.95902 6.86973 9.99983 6.68606 9.99983 6.46157V6.0534H15.306C18.3468 6.0534 20.6121 6.01259 20.6121 5.96157C20.6121 5.91055 20.7243 5.83912 20.8672 5.80851C21.0202 5.76769 21.1427 5.64524 21.1835 5.49218C21.2447 5.25749 21.2957 5.23708 21.7957 5.23708H22.3468V6.86973ZM27.1427 7.58402C27.1427 7.63504 27.2141 7.68606 27.2957 7.68606C27.3774 7.68606 27.4488 7.75748 27.4488 7.83912C27.4488 7.92075 27.4896 7.99218 27.5508 7.99218C27.6019 7.99218 27.6733 8.10442 27.7141 8.24728C27.7447 8.39014 27.8161 8.50238 27.857 8.50238C27.8978 8.50238 27.9692 8.61463 27.9998 8.75748C28.0406 8.90034 28.1121 9.01259 28.1631 9.01259C28.2243 9.01259 28.2651 9.10442 28.2651 9.21667C28.2651 9.32891 28.3059 9.42075 28.3672 9.42075C28.4182 9.42075 28.4896 9.53299 28.5304 9.67585C28.561 9.81871 28.6325 9.93095 28.6733 9.93095C28.7141 9.93095 28.7855 10.0432 28.8161 10.1861C28.857 10.3289 28.9284 10.4412 28.9794 10.4412C29.0406 10.4412 29.0815 10.6248 29.0815 10.8493C29.0815 11.1452 29.1223 11.2575 29.2345 11.2575C29.3366 11.2575 29.3876 11.3595 29.3876 11.5636C29.3876 11.7269 29.4284 11.8697 29.4794 11.8697C29.5304 11.8697 29.5917 12.0534 29.6325 12.2779C29.6631 12.5024 29.7447 12.6861 29.7957 12.6861C29.857 12.6861 29.8978 12.982 29.8978 13.3493C29.8978 13.7269 29.9386 14.0126 29.9998 14.0126C30.061 14.0126 30.1019 14.0534 30.1019 14.1146C30.1019 14.1656 30.01 14.2167 29.908 14.2167C29.7039 14.2167 29.5917 14.033 29.5917 13.6963C29.5917 13.5942 29.5508 13.5024 29.4896 13.5024C29.4386 13.5024 29.3876 13.4105 29.3876 13.3085C29.3876 13.1963 29.3161 13.0432 29.2345 12.9514C29.1529 12.8697 29.0815 12.635 29.0815 12.4412C29.0815 12.1861 29.0406 12.0738 28.9284 12.0738C28.8366 12.0738 28.7753 11.982 28.7753 11.8187C28.7753 11.6758 28.7345 11.5636 28.6835 11.5636C28.6325 11.5636 28.561 11.4207 28.5202 11.2575C28.4794 11.084 28.408 10.9514 28.357 10.9514C28.3059 10.9514 28.2651 10.7983 28.2651 10.6044C28.2651 10.3901 28.2039 10.2371 28.1121 10.1963C28.0304 10.1656 27.959 10.0228 27.959 9.87993C27.959 9.73708 27.9182 9.62483 27.8672 9.62483C27.8161 9.62483 27.7447 9.51259 27.7141 9.36973C27.6733 9.22687 27.6019 9.11463 27.5508 9.11463C27.4896 9.11463 27.4488 8.97177 27.4488 8.8085C27.4488 8.63504 27.408 8.50238 27.3468 8.50238C27.2957 8.50238 27.2243 8.39014 27.1835 8.24728C27.1529 8.10442 27.0815 7.99218 27.0304 7.99218C26.9794 7.99218 26.9386 7.87993 26.9386 7.73708C26.9386 7.59422 26.9896 7.48197 27.0406 7.48197C27.1019 7.48197 27.1427 7.52279 27.1427 7.58402ZM3.97943 8.24728C3.97943 8.39014 3.93861 8.50238 3.87739 8.50238C3.82637 8.50238 3.77535 8.61463 3.77535 8.75748C3.77535 8.90034 3.73453 9.01259 3.68351 9.01259C3.63249 9.01259 3.56106 9.14524 3.52025 9.31871C3.47943 9.48197 3.408 9.62483 3.35698 9.62483C3.30596 9.62483 3.26514 9.73708 3.26514 9.87993C3.26514 10.0228 3.19372 10.1656 3.11208 10.1963C3.02025 10.2371 2.95902 10.3901 2.95902 10.6044C2.95902 10.7983 2.91821 10.9514 2.85698 10.9514C2.80596 10.9514 2.72433 11.135 2.69372 11.3595C2.6529 11.584 2.59168 11.7677 2.54066 11.7677C2.48963 11.7677 2.44882 11.8799 2.44882 12.0228C2.44882 12.1656 2.37739 12.3085 2.29576 12.3391C2.20392 12.3799 2.1427 12.533 2.1427 12.7473C2.1427 12.9412 2.10188 13.0942 2.05086 13.0942C1.99984 13.0942 1.92841 13.2269 1.88759 13.4003C1.84678 13.5636 1.77535 13.7065 1.72433 13.7065C1.67331 13.7065 1.63249 13.8187 1.63249 13.9514C1.63249 14.3289 1.53045 14.5228 1.31617 14.5228C1.21413 14.5228 1.12229 14.4718 1.12229 14.4207C1.12229 14.3595 1.17331 14.3187 1.22433 14.3187C1.28555 14.3187 1.32637 14.0738 1.32637 13.7677C1.32637 13.4616 1.37739 13.1963 1.43862 13.1758C1.48964 13.1554 1.57127 12.9514 1.60188 12.7065C1.63249 12.4718 1.70392 12.2779 1.74474 12.2779C1.79576 12.2779 1.83657 12.1146 1.83657 11.9207C1.83657 11.6963 1.8978 11.533 1.98964 11.5024C2.07127 11.4616 2.1427 11.3289 2.1427 11.1963C2.1427 11.0636 2.18351 10.9514 2.24474 10.9514C2.29576 10.9514 2.36719 10.7881 2.408 10.5942C2.43861 10.4003 2.51004 10.2371 2.56106 10.2371C2.61208 10.2371 2.6529 10.1452 2.6529 10.0432C2.6529 9.93095 2.72433 9.77789 2.80596 9.68605C2.88759 9.60442 2.95902 9.46157 2.95902 9.36973C2.95902 9.27789 3.07127 9.10442 3.21412 8.97177C3.35698 8.83912 3.46923 8.63504 3.46923 8.51259C3.46923 8.39014 3.53045 8.2983 3.62229 8.2983C3.70392 8.2983 3.77535 8.22687 3.77535 8.14524C3.77535 8.06361 3.82637 7.99218 3.87739 7.99218C3.93861 7.99218 3.97943 8.10442 3.97943 8.24728ZM30.2039 18.4514C30.2039 18.6758 30.1427 18.8391 30.0508 18.8697C29.9386 18.9207 29.8978 19.084 29.8978 19.482C29.8978 19.7881 29.857 20.033 29.7957 20.033C29.7447 20.033 29.6733 20.2575 29.6325 20.5432C29.5917 20.8187 29.5304 21.0534 29.4794 21.0534C29.4284 21.0534 29.3876 21.1656 29.3876 21.3085C29.3876 21.4514 29.3161 21.5942 29.2345 21.6248C29.1427 21.6656 29.0815 21.8187 29.0815 22.033C29.0815 22.2269 29.0406 22.3799 28.9896 22.3799C28.9386 22.3799 28.8672 22.5126 28.8263 22.686C28.7855 22.8493 28.7243 22.9922 28.6733 22.9922C28.6325 22.9922 28.561 23.1044 28.5304 23.2473C28.4896 23.3901 28.4182 23.5024 28.3672 23.5024C28.3059 23.5024 28.2651 23.5942 28.2651 23.7065C28.2651 23.8289 28.1529 24.0228 28.0202 24.1452C27.8876 24.2677 27.7549 24.4718 27.7141 24.5942C27.6733 24.7269 27.5917 24.8289 27.5406 24.8289C27.4896 24.8289 27.4488 24.9003 27.4488 24.982C27.4488 25.2167 27.2651 25.1656 27.1835 24.9105C27.1427 24.7677 27.1733 24.6554 27.2855 24.5738C27.3774 24.5024 27.4488 24.3493 27.4488 24.2269C27.4488 24.1146 27.4896 24.0126 27.5508 24.0126C27.6019 24.0126 27.6733 23.8493 27.7141 23.6554C27.7447 23.4616 27.8161 23.2983 27.8672 23.2983C27.9182 23.2983 27.959 23.1554 27.959 22.9922C27.959 22.7881 28.01 22.686 28.1121 22.686C28.2243 22.686 28.2651 22.5738 28.2651 22.2779C28.2651 22.0534 28.3059 21.8697 28.3672 21.8697C28.4182 21.8697 28.4896 21.7575 28.5304 21.6146C28.561 21.4718 28.6325 21.3595 28.6835 21.3595C28.7345 21.3595 28.7753 21.2269 28.7753 21.0636C28.7753 20.9003 28.8468 20.6963 28.9284 20.6044C29.01 20.5228 29.0815 20.3391 29.0815 20.1963C29.0815 20.0534 29.1223 19.9309 29.1835 19.9309C29.2345 19.9309 29.3059 19.7677 29.3468 19.5738C29.3774 19.3799 29.4488 19.2167 29.4998 19.2167C29.5508 19.2167 29.5917 19.084 29.5917 18.9207C29.5917 18.7575 29.6631 18.5534 29.7447 18.4616C29.8263 18.3799 29.8978 18.2677 29.8978 18.2065C29.8978 18.1452 29.9692 18.0942 30.0508 18.0942C30.1631 18.0942 30.2039 18.2065 30.2039 18.4514ZM1.60188 19.0126C1.63249 19.1248 1.69372 19.2167 1.74474 19.2167C1.79576 19.2167 1.83657 19.3289 1.83657 19.4616C1.83657 19.6044 1.908 19.7779 1.98964 19.8697C2.07127 19.9514 2.1427 20.1146 2.1427 20.2371C2.1427 20.3595 2.21412 20.5228 2.29576 20.6044C2.37739 20.6963 2.44882 20.8697 2.44882 21.0126C2.44882 21.1452 2.48963 21.2575 2.54066 21.2575C2.59168 21.2575 2.6631 21.3901 2.70392 21.5636C2.74474 21.7269 2.81617 21.8697 2.86719 21.8697C2.91821 21.8697 2.95902 21.9922 2.95902 22.135C2.95902 22.2779 3.03045 22.4616 3.11208 22.5432C3.19372 22.635 3.26514 22.8085 3.26514 22.9514C3.26514 23.084 3.30596 23.1962 3.35698 23.1962C3.408 23.1962 3.47943 23.3085 3.51004 23.4514C3.55086 23.5942 3.62229 23.7065 3.67331 23.7065C3.73453 23.7065 3.77535 23.8391 3.77535 24.0126C3.77535 24.2167 3.82637 24.3187 3.92841 24.3187C4.02025 24.3187 4.08147 24.4105 4.08147 24.5738C4.08147 24.7167 4.13249 24.8289 4.18351 24.8289C4.24474 24.8289 4.28555 24.9003 4.28555 24.982C4.28555 25.0636 4.24474 25.135 4.18351 25.135C4.13249 25.135 4.08147 25.084 4.08147 25.033C4.08147 24.9718 4.01004 24.9309 3.92841 24.9309C3.84678 24.9309 3.77535 24.8697 3.77535 24.7881C3.77535 24.7065 3.70392 24.6248 3.62229 24.584C3.54065 24.5534 3.46923 24.4309 3.46923 24.3187C3.46923 24.2065 3.42841 24.1146 3.36719 24.1146C3.31616 24.1146 3.26514 24.0432 3.26514 23.9616C3.26514 23.8697 3.19372 23.7779 3.11208 23.7473C3.03045 23.7065 2.95902 23.5738 2.95902 23.4411C2.95902 23.2881 2.8978 23.1962 2.80596 23.1962C2.71412 23.1962 2.6529 23.1044 2.6529 22.9411C2.6529 22.7983 2.61208 22.686 2.56106 22.686C2.51004 22.686 2.43861 22.5432 2.3978 22.3799C2.35698 22.2065 2.28555 22.0738 2.23453 22.0738C2.18351 22.0738 2.1427 21.9207 2.1427 21.7269C2.1427 21.5126 2.08147 21.3595 1.98964 21.3187C1.8978 21.2881 1.83657 21.1248 1.83657 20.9003C1.83657 20.7065 1.79576 20.5432 1.74474 20.5432C1.69372 20.5432 1.63249 20.3595 1.59168 20.135C1.56106 19.9105 1.47943 19.7269 1.42841 19.7269C1.36719 19.7269 1.32637 19.5228 1.32637 19.2677C1.32637 18.7983 1.49984 18.635 1.60188 19.0126ZM24.6937 27.686C24.6937 27.7371 24.6529 27.7881 24.5917 27.7881C24.5406 27.7881 24.4896 27.8493 24.4896 27.9309C24.4896 28.0126 24.3774 28.1044 24.2345 28.135C24.0917 28.1758 23.9794 28.2473 23.9794 28.2983C23.9794 28.3595 23.8876 28.4003 23.7753 28.4003C23.6631 28.4003 23.5713 28.4411 23.5713 28.4922C23.5713 28.5432 23.4692 28.6248 23.3468 28.6656C23.2243 28.6962 23.061 28.7983 22.9794 28.8697C22.908 28.9513 22.7753 29.0126 22.6937 29.0126C22.6121 29.0126 22.5508 29.0534 22.5508 29.1146C22.5508 29.1656 22.4386 29.2167 22.3059 29.2167C22.1733 29.2167 22.0406 29.2881 21.9998 29.3697C21.9692 29.4513 21.8468 29.5228 21.7345 29.5228C21.6223 29.5228 21.5304 29.5636 21.5304 29.6248C21.5304 29.6758 21.4386 29.7269 21.3366 29.7269C21.2243 29.7269 21.0713 29.7983 20.9794 29.8799C20.8978 29.9616 20.6733 30.033 20.4794 30.033C20.2753 30.033 20.1019 30.084 20.0815 30.1452C20.0611 30.2064 19.8059 30.2881 19.51 30.3187C19.2141 30.3391 18.9794 30.4003 18.9794 30.4513C18.9794 30.5024 18.7549 30.5432 18.4692 30.5432C18.1937 30.5432 17.959 30.4922 17.959 30.4411C17.959 30.3799 18.0713 30.3391 18.2141 30.3391C18.3774 30.3391 18.4692 30.2779 18.4692 30.186C18.4692 30.0738 18.5815 30.033 18.8774 30.033C19.1733 30.033 19.2855 29.9922 19.2855 29.8799C19.2855 29.7779 19.3876 29.7269 19.5917 29.7269C19.7651 29.7269 19.8978 29.686 19.8978 29.635C19.8978 29.584 20.0611 29.5126 20.2549 29.482C20.4488 29.4411 20.6121 29.3697 20.6121 29.3187C20.6121 29.2575 20.7549 29.2167 20.9182 29.2167C21.0917 29.2167 21.2243 29.1758 21.2243 29.1146C21.2243 29.0636 21.3366 28.9922 21.4794 28.9513C21.6223 28.9207 21.7345 28.8493 21.7345 28.8085C21.7345 28.7677 21.9182 28.7064 22.1427 28.6656C22.3672 28.635 22.5508 28.5534 22.5508 28.5024C22.5508 28.4411 22.6631 28.4003 22.7957 28.4003C22.9284 28.4003 23.061 28.3289 23.1019 28.2473C23.1325 28.1656 23.2753 28.0942 23.4182 28.0942C23.561 28.0942 23.6733 28.0432 23.6733 27.9922C23.6733 27.9309 23.7855 27.8901 23.9284 27.8901C24.0917 27.8901 24.1835 27.8289 24.1835 27.7371C24.1835 27.6452 24.2753 27.584 24.4386 27.584C24.5815 27.584 24.6937 27.6248 24.6937 27.686ZM7.55086 27.982C7.55086 28.033 7.6631 28.1044 7.80596 28.135C7.94881 28.1758 8.06106 28.2473 8.06106 28.2983C8.06106 28.3595 8.20392 28.4003 8.36718 28.4003C8.54065 28.4003 8.6733 28.4411 8.6733 28.5024C8.6733 28.5534 8.85698 28.635 9.08147 28.6656C9.30596 28.7064 9.48963 28.7677 9.48963 28.8187C9.48963 28.8697 9.60187 28.9105 9.74473 28.9105C9.908 28.9105 9.99983 28.9718 9.99983 29.0636C9.99983 29.1758 10.1121 29.2167 10.408 29.2167C10.6325 29.2167 10.8162 29.2575 10.8162 29.3085C10.8162 29.3595 10.959 29.4309 11.1223 29.4718C11.2958 29.5126 11.4284 29.5738 11.4284 29.6248C11.4284 29.6656 11.6121 29.7269 11.8366 29.7677C12.0611 29.7983 12.2447 29.8799 12.2447 29.9309C12.2447 29.9922 12.3978 30.033 12.5917 30.033C12.806 30.033 12.959 30.0942 12.9998 30.186C13.0304 30.2677 13.1733 30.3391 13.3162 30.3391C13.4692 30.3391 13.5713 30.4003 13.5713 30.4922C13.5713 30.6044 13.4692 30.6248 13.0406 30.5738C12.7447 30.5432 12.4794 30.482 12.4488 30.4411C12.4182 30.4003 12.1733 30.3391 11.8876 30.3085C11.6121 30.2779 11.3672 30.2064 11.3468 30.1452C11.3264 30.084 11.1529 30.033 10.959 30.033C10.7651 30.033 10.6121 29.9922 10.6121 29.9309C10.6121 29.8799 10.4284 29.7983 10.2039 29.7677C9.97943 29.7269 9.79575 29.6656 9.79575 29.6248C9.79575 29.584 9.68351 29.5126 9.54065 29.482C9.39779 29.4411 9.28555 29.3697 9.28555 29.3187C9.28555 29.2575 9.1529 29.2167 8.97943 29.2167C8.81616 29.2167 8.6733 29.1758 8.6733 29.1146C8.6733 29.0636 8.56106 28.9922 8.4182 28.9513C8.27534 28.9207 8.1631 28.8493 8.1631 28.7983C8.1631 28.7473 8.09167 28.7064 8.01004 28.7064C7.92841 28.7064 7.85698 28.635 7.85698 28.5534C7.85698 28.4616 7.76514 28.4003 7.60188 28.4003C7.39779 28.4003 7.34677 28.3493 7.34677 28.1452C7.34677 28.0024 7.39779 27.8901 7.44881 27.8901C7.51004 27.8901 7.55086 27.9309 7.55086 27.982Z" fill="black"/>
<path d="M32.857 29.9315C32.857 29.9826 32.7142 30.0336 32.5509 30.0336C32.3468 30.0336 32.1529 30.1254 31.9999 30.2887C31.8672 30.4315 31.7142 30.5438 31.6427 30.5438C31.5815 30.5438 31.5305 30.656 31.5305 30.7887C31.5305 30.9213 31.4693 31.054 31.408 31.0744C31.3162 31.105 31.2754 31.3397 31.2754 31.7683C31.2754 32.1968 31.3162 32.4315 31.408 32.4519C31.4693 32.4826 31.5305 32.6152 31.5305 32.7479C31.5305 32.9009 31.5917 32.9928 31.6836 32.9928C31.7652 32.9928 31.8366 33.0642 31.8366 33.1458C31.8366 33.2274 31.8876 33.2989 31.9489 33.2989C32.0101 33.2989 32.1223 33.3703 32.204 33.4519C32.2958 33.5336 32.4693 33.605 32.6121 33.605C32.7448 33.605 32.857 33.6458 32.857 33.707C32.857 33.7581 32.9999 33.8091 33.1631 33.8091C33.3366 33.8091 33.4693 33.7581 33.4693 33.707C33.4693 33.6458 33.5815 33.605 33.7142 33.605C33.857 33.605 34.0305 33.5336 34.1223 33.4519C34.204 33.3703 34.2958 33.2989 34.3264 33.2989C34.4693 33.2989 34.7958 32.8703 34.7958 32.6866C34.7958 32.5744 34.8468 32.4826 34.8978 32.4826C34.9591 32.4826 34.9999 32.1458 34.9999 31.6662C34.9999 31.1866 34.9591 30.8499 34.8978 30.8499C34.8468 30.8499 34.7958 30.7785 34.7958 30.6968C34.7958 30.6152 34.7448 30.5438 34.6836 30.5438C34.6121 30.5438 34.4591 30.4315 34.3264 30.2887C34.1733 30.1254 33.9795 30.0336 33.7754 30.0336C33.6121 30.0336 33.4693 29.9826 33.4693 29.9315C33.4693 29.8703 33.3366 29.8295 33.1631 29.8295C32.9999 29.8295 32.857 29.8703 32.857 29.9315ZM33.3672 30.1356C33.3672 30.1866 33.4591 30.2377 33.5611 30.2377C33.6733 30.2377 33.8264 30.2989 33.8978 30.3805C33.9795 30.4519 34.1427 30.554 34.2652 30.5846C34.3876 30.6254 34.5203 30.7683 34.5509 30.9111C34.5815 31.0438 34.6529 31.156 34.704 31.156C34.755 31.156 34.7958 31.4519 34.7958 31.8193C34.7958 32.1866 34.755 32.4826 34.6938 32.4826C34.6427 32.4826 34.5713 32.5948 34.5305 32.7377C34.4897 32.8907 34.3672 33.0234 34.2244 33.054C34.0917 33.0846 33.9795 33.156 33.9795 33.207C33.9795 33.2581 33.6325 33.2989 33.204 33.2989C32.4897 33.2989 32.408 33.2785 32.1325 33.003C31.9693 32.8397 31.8366 32.656 31.8366 32.5948C31.8366 32.5336 31.7652 32.4826 31.6836 32.4826C31.5611 32.4826 31.5305 32.3499 31.5305 31.8703C31.5305 31.3397 31.5713 31.2172 31.7856 31.0132C31.9285 30.8805 32.0407 30.7275 32.0407 30.656C32.0407 30.5948 32.0917 30.5438 32.1529 30.5438C32.2142 30.5438 32.3264 30.4723 32.408 30.3907C32.4999 30.3091 32.704 30.2377 32.8672 30.2377C33.0305 30.2377 33.1631 30.1866 33.1631 30.1356C33.1631 30.0744 33.2142 30.0336 33.2652 30.0336C33.3264 30.0336 33.3672 30.0744 33.3672 30.1356Z" fill="black"/>
<path d="M32.6533 31.7677C32.6533 32.2677 32.6941 32.686 32.7452 32.686C32.8574 32.686 32.9288 31.9411 32.8778 31.3085C32.8064 30.4922 32.6533 30.8187 32.6533 31.7677Z" fill="black"/>
<path d="M33.4688 30.9517C33.4688 31.0027 33.5198 31.0537 33.5708 31.0537C33.632 31.0537 33.6728 31.0027 33.6728 30.9517C33.6728 30.8904 33.632 30.8496 33.5708 30.8496C33.5198 30.8496 33.4688 30.8904 33.4688 30.9517Z" fill="black"/>
<path d="M33.6738 31.4109C33.6738 31.5742 33.7351 31.666 33.8269 31.666C33.9187 31.666 33.98 31.5742 33.98 31.4109C33.98 31.2476 33.9187 31.1558 33.8269 31.1558C33.7351 31.1558 33.6738 31.2476 33.6738 31.4109Z" fill="black"/>
<path d="M33.1631 31.9214C33.1631 32.0847 33.2243 32.1765 33.3161 32.1765C33.3978 32.1765 33.4692 32.2479 33.4692 32.3296C33.4692 32.4112 33.5304 32.4826 33.6121 32.4826C33.6937 32.4826 33.7753 32.5438 33.8059 32.6051C33.8264 32.6765 33.8876 32.7071 33.9284 32.6663C33.9794 32.6255 33.8876 32.4724 33.7447 32.3398C33.5917 32.1969 33.4692 31.9928 33.4692 31.8704C33.4692 31.7581 33.3978 31.6663 33.3161 31.6663C33.2243 31.6663 33.1631 31.7581 33.1631 31.9214Z" fill="black"/>
<path d="M30.5919 32.7578C30.4899 32.7782 30.4082 32.8496 30.4082 32.9006C30.4082 32.9516 29.6123 32.9925 28.5205 32.9925H26.6327V34.0639C26.6327 34.7067 26.5919 35.1353 26.5307 35.1353C26.4695 35.1353 26.4287 35.4414 26.4287 35.8496C26.4287 36.5027 26.4491 36.5639 26.6429 36.5639C26.7552 36.5639 26.9184 36.4924 27.0001 36.4108C27.2246 36.1965 29.0001 36.1965 29.2246 36.4108C29.3062 36.4924 29.4286 36.5639 29.4899 36.5639C29.6327 36.5639 29.898 36.819 29.898 36.9618C29.898 37.0231 29.9695 37.0741 30.0511 37.0741C30.1327 37.0741 30.2042 37.1353 30.2042 37.2169C30.2042 37.2986 30.2552 37.3802 30.3164 37.4006C30.4899 37.4618 30.4899 38.9312 30.3266 38.9924C30.2552 39.0129 30.2042 39.1353 30.2042 39.2578C30.2042 39.472 29.8878 39.8292 29.694 39.8292C29.6327 39.8292 29.5919 39.9006 29.5919 39.9822C29.5919 40.0945 29.4797 40.1353 29.1838 40.1353C28.9593 40.1353 28.7756 40.1761 28.7756 40.2373C28.7756 40.2884 28.6633 40.3394 28.5205 40.3394C28.3776 40.3394 28.2654 40.2986 28.2654 40.2475C28.2654 40.2067 28.1021 40.1353 27.898 40.1047C27.5001 40.0333 27.1429 39.7067 27.1429 39.4006C27.1429 39.2986 27.1021 39.2169 27.0409 39.2169C26.9899 39.2169 26.9389 39.1353 26.9389 39.0333C26.9389 38.8292 26.6021 38.5027 26.3776 38.5027C26.1838 38.5027 25.8164 38.8598 25.8164 39.0537C25.8164 39.1353 25.8878 39.2169 25.9695 39.2578C26.0511 39.2884 26.1225 39.4312 26.1225 39.5741C26.1225 39.7169 26.1735 39.8292 26.2348 39.8292C26.296 39.8292 26.4082 39.8904 26.4797 39.9516C26.8266 40.268 26.9389 40.3394 27.1838 40.4006C27.3266 40.4312 27.4491 40.5027 27.4491 40.5537C27.4491 40.6047 27.9593 40.6455 28.5715 40.6455C29.2348 40.6455 29.694 40.6047 29.694 40.5435C29.694 40.4924 29.8062 40.421 29.9491 40.3802C30.0919 40.3496 30.2042 40.2782 30.2042 40.2373C30.2042 40.1863 30.3062 40.1149 30.4286 40.0741C30.7144 39.9822 30.8674 39.8292 30.9593 39.5435C31.0001 39.421 31.0817 39.319 31.1327 39.319C31.1837 39.319 31.2246 39.2067 31.2246 39.0639C31.2246 38.921 31.296 38.7782 31.3776 38.7475C31.4899 38.7067 31.5307 38.5333 31.5307 38.1761C31.5307 37.8598 31.4695 37.6149 31.3776 37.5231C31.296 37.4312 31.2246 37.2578 31.2246 37.1149C31.2246 36.9822 31.1837 36.87 31.1225 36.87C31.0715 36.87 31.0205 36.7986 31.0205 36.7169C31.0205 36.6353 30.9491 36.5639 30.8674 36.5639C30.7858 36.5639 30.7144 36.4924 30.7144 36.4108C30.7144 36.3292 30.6429 36.2578 30.5613 36.2578C30.4797 36.2578 30.4082 36.2169 30.4082 36.1659C30.4082 36.1149 30.296 36.0435 30.1531 36.0129C30.0103 35.972 29.898 35.9006 29.898 35.8496C29.898 35.7884 29.6021 35.7476 29.2348 35.7476C28.8572 35.7476 28.5715 35.7067 28.5715 35.6455C28.5715 35.5843 28.5001 35.5435 28.4184 35.5435C28.3368 35.5435 28.2654 35.5843 28.2654 35.6455C28.2654 35.7067 27.9797 35.7476 27.6021 35.7476H26.9389V34.9312C26.9389 34.4516 26.9797 34.1149 27.0409 34.1149C27.1021 34.1149 27.1429 34.0435 27.1429 33.9618C27.1429 33.8292 27.4184 33.8088 29.0307 33.8088H30.9184V33.2476C30.9184 32.9414 30.8878 32.6965 30.847 32.6965C30.796 32.7067 30.6837 32.7271 30.5919 32.7578Z" fill="black"/>
<path d="M3.2653 32.8904C3.2653 32.9414 3.13265 32.9925 2.96939 32.9925C2.80612 32.9925 2.60204 33.0639 2.5102 33.1455C2.42857 33.2271 2.2449 33.2986 2.10204 33.2986C1.93877 33.2986 1.83673 33.3598 1.83673 33.4516C1.83673 33.5333 1.78571 33.6047 1.73469 33.6047C1.62245 33.6047 1.41837 33.7578 1.19388 33.9925C0.877551 34.3292 0.816326 34.4108 0.816326 34.5129C0.816326 34.5741 0.744898 34.6251 0.663265 34.6251C0.571428 34.6251 0.510204 34.7271 0.510204 34.8904C0.510204 35.0333 0.438775 35.2169 0.357143 35.2986C0.265306 35.3904 0.204082 35.6455 0.204082 35.9108C0.204082 36.1557 0.163265 36.3598 0.102041 36.3598C0.0510204 36.3598 0 36.5435 0 36.768C0 36.9924 0.0510204 37.1761 0.102041 37.1761C0.163265 37.1761 0.204082 37.4006 0.204082 37.6761C0.204082 37.9924 0.265306 38.2373 0.357143 38.3394C0.438775 38.421 0.510204 38.6047 0.510204 38.7475C0.510204 38.9108 0.571428 39.0129 0.663265 39.0129C0.744898 39.0129 0.816326 39.0639 0.816326 39.1251C0.816326 39.268 1.07143 39.5231 1.21429 39.5231C1.27551 39.5231 1.32653 39.5945 1.32653 39.6761C1.32653 39.7578 1.39796 39.8292 1.47959 39.8292C1.56122 39.8292 1.63265 39.87 1.63265 39.9312C1.63265 39.9822 1.7449 40.0537 1.88775 40.0945C2.03061 40.1251 2.14286 40.1965 2.14286 40.2373C2.14286 40.2782 2.2551 40.3496 2.39796 40.3802C2.54081 40.421 2.65306 40.4924 2.65306 40.5435C2.65306 40.6047 3.19388 40.6455 4.03061 40.6455C5.18367 40.6455 5.40816 40.6251 5.40816 40.4924C5.40816 40.4006 5.5 40.3394 5.66326 40.3394C5.80612 40.3394 5.91836 40.2986 5.91836 40.2475C5.91836 40.1965 6.03061 40.1251 6.17347 40.0945C6.31632 40.0537 6.42857 39.9822 6.42857 39.9312C6.42857 39.87 6.5 39.8292 6.58163 39.8292C6.66326 39.8292 6.73469 39.7578 6.73469 39.6761C6.73469 39.5945 6.80612 39.5231 6.88775 39.5231C6.96938 39.5231 7.04081 39.4516 7.04081 39.37C7.04081 39.2884 7.08163 39.2169 7.14285 39.2169C7.19387 39.2169 7.2653 39.1047 7.30612 38.9618C7.33673 38.819 7.40816 38.7067 7.45918 38.7067C7.5102 38.7067 7.55102 38.5945 7.55102 38.4618C7.55102 38.319 7.62244 38.1455 7.70408 38.0537C7.82653 37.9414 7.85714 37.6353 7.85714 36.7169C7.85714 35.7986 7.82653 35.4924 7.70408 35.3802C7.62244 35.2884 7.55102 35.1149 7.55102 34.972C7.55102 34.8394 7.5102 34.7271 7.44898 34.7271C7.39795 34.7271 7.34693 34.6557 7.34693 34.5741C7.34693 34.4925 7.27551 34.421 7.19387 34.421C7.11224 34.421 7.04081 34.37 7.04081 34.3088C7.04081 34.1659 6.47959 33.6047 6.33673 33.6047C6.27551 33.6047 6.22449 33.5333 6.22449 33.4516C6.22449 33.3598 6.13265 33.2986 5.96938 33.2986C5.82653 33.2986 5.71428 33.2578 5.71428 33.1965C5.71428 33.1455 5.53061 33.0639 5.30612 33.0333C5.08163 32.9925 4.89796 32.9312 4.89796 32.8802C4.89796 32.8292 4.53061 32.7884 4.08163 32.7884C3.60204 32.7884 3.2653 32.8292 3.2653 32.8904ZM4.79592 33.3904C4.79592 33.4414 4.93877 33.5129 5.10204 33.5537C5.27551 33.5945 5.40816 33.6659 5.40816 33.7169C5.40816 33.768 5.47959 33.8088 5.56122 33.8088C5.64285 33.8088 5.71428 33.8802 5.71428 33.9618C5.71428 34.0435 5.7653 34.1149 5.82653 34.1149C5.96938 34.1149 6.22449 34.3802 6.22449 34.5231C6.22449 34.5843 6.29591 34.7067 6.37755 34.7884C6.45918 34.8802 6.53061 35.0843 6.53061 35.2476C6.53061 35.4108 6.58163 35.5435 6.63265 35.5435C6.69387 35.5435 6.73469 36.0027 6.73469 36.7169C6.73469 37.4312 6.69387 37.8904 6.63265 37.8904C6.58163 37.8904 6.53061 38.0231 6.53061 38.1863C6.53061 38.3496 6.45918 38.5537 6.37755 38.6455C6.29591 38.7271 6.22449 38.8394 6.22449 38.9006C6.22449 38.9618 6.18367 39.0129 6.12245 39.0129C6.07143 39.0129 6.0204 39.0741 6.0204 39.1557C6.0204 39.3496 5.55102 39.8292 5.35714 39.8292C5.2653 39.8292 5.12245 39.9006 5.04081 39.9822C4.81632 40.2067 2.95918 40.2067 2.95918 39.9822C2.95918 39.9006 2.86735 39.8292 2.7551 39.8292C2.42857 39.8292 1.67347 39.0129 1.59184 38.5741C1.55102 38.37 1.47959 38.1965 1.42857 38.1965C1.36735 38.1965 1.32653 37.5843 1.32653 36.7169C1.32653 35.9006 1.36735 35.2373 1.41837 35.2373C1.46939 35.2373 1.54082 35.1251 1.57143 34.9822C1.61224 34.8394 1.68367 34.7271 1.73469 34.7271C1.79592 34.7271 1.83673 34.6761 1.83673 34.6149C1.83673 34.37 2.7551 33.5945 3.11224 33.5333C3.30612 33.5027 3.46939 33.4312 3.46939 33.3904C3.46939 33.3394 3.7653 33.2986 4.13265 33.2986C4.5 33.2986 4.79592 33.3394 4.79592 33.3904Z" fill="black"/>
<path d="M16.276 33.7986C16.2352 33.972 16.1637 34.1149 16.1127 34.1149C16.0617 34.1149 16.0209 34.2271 16.0209 34.37C16.0209 34.5129 15.98 34.6251 15.9188 34.6251C15.8678 34.6251 15.8168 34.6965 15.8168 34.7782C15.8168 34.8598 15.7556 34.9312 15.6739 34.9312C15.5923 34.9312 15.5107 35.0027 15.4698 35.0843C15.4392 35.1659 15.3474 35.2373 15.2556 35.2373C15.1127 35.2373 14.6943 35.5843 14.6943 35.6965C14.6943 35.7271 14.929 35.7476 15.2045 35.7476C15.5413 35.7476 15.7147 35.7884 15.7147 35.87C15.7147 35.9414 15.7352 36.8904 15.7454 37.9822C15.7556 39.4618 15.7964 39.972 15.8984 40.0129C15.9596 40.0333 16.0209 40.0945 16.0209 40.1455C16.0209 40.1965 16.1127 40.3292 16.2249 40.4414C16.3882 40.6047 16.5617 40.6455 17.1943 40.6455C17.6229 40.6455 17.9596 40.6047 17.9596 40.5435C17.9596 40.4924 18.0719 40.421 18.2147 40.3802C18.3984 40.3394 18.4698 40.2475 18.4698 40.0741C18.4698 39.921 18.4086 39.8292 18.3168 39.8292C18.2352 39.8292 18.1637 39.9006 18.1637 39.9822C18.1637 40.1047 18.0209 40.1353 17.5005 40.1353C17.0005 40.1353 16.8372 40.1047 16.8372 39.9924C16.8372 39.9108 16.776 39.8292 16.7147 39.8088C16.5719 39.7578 16.4596 36.7067 16.5821 36.0843L16.6433 35.7476H17.4494C18.0413 35.7476 18.2658 35.7067 18.2658 35.6149C18.2556 35.3292 18.0821 35.2476 17.3474 35.2169L16.5821 35.1863V34.3802C16.5821 33.5333 16.4086 33.2067 16.276 33.7986Z" fill="black"/>
<path d="M10.8162 35.3394C10.8162 35.3904 10.704 35.4414 10.5611 35.4414C10.3979 35.4414 10.306 35.5027 10.306 35.5945C10.306 35.6863 10.2142 35.7476 10.0509 35.7476C9.88765 35.7476 9.79582 35.8088 9.79582 35.9006C9.79582 35.9822 9.72439 36.0537 9.64276 36.0537C9.55092 36.0537 9.4897 36.1455 9.4897 36.268C9.4897 36.3802 9.41827 36.5435 9.33663 36.6251C9.255 36.7169 9.18357 36.921 9.18357 37.0843C9.18357 37.2476 9.14276 37.3802 9.08153 37.3802C9.03051 37.3802 8.97949 37.6353 8.97949 37.9414C8.97949 38.2476 9.02031 38.5027 9.07133 38.5027C9.12235 38.5027 9.18357 38.6863 9.22439 38.9108C9.255 39.1353 9.33663 39.319 9.38766 39.319C9.44888 39.319 9.4897 39.4312 9.4897 39.5741C9.4897 39.7373 9.55092 39.8292 9.64276 39.8292C9.72439 39.8292 9.79582 39.87 9.79582 39.921C9.79582 39.972 9.89786 40.0537 10.0305 40.0945C10.153 40.1353 10.357 40.268 10.4795 40.4006C10.6836 40.6251 10.7856 40.6455 11.7346 40.6455C12.5713 40.6455 12.755 40.6149 12.755 40.4924C12.755 40.4006 12.8468 40.3394 13.0101 40.3394C13.153 40.3394 13.2652 40.2884 13.2652 40.2373C13.2652 40.1761 13.3366 40.1353 13.4183 40.1353C13.4999 40.1353 13.5713 40.0639 13.5713 39.9822C13.5713 39.9006 13.6428 39.8292 13.7244 39.8292C13.806 39.8292 13.8774 39.7578 13.8774 39.6761C13.8774 39.5945 13.9285 39.5231 13.9795 39.5231C14.0407 39.5231 14.0815 39.4516 14.0815 39.37C14.0815 39.2782 13.9897 39.2169 13.8264 39.2169C13.6836 39.2169 13.5713 39.2578 13.5713 39.319C13.5713 39.4822 13.1836 39.8292 12.9999 39.8292C12.9183 39.8292 12.7754 39.9006 12.6938 39.9822C12.5815 40.0843 12.3264 40.1353 11.8264 40.1353C11.2652 40.1353 11.1223 40.1047 11.1223 39.9822C11.1223 39.9006 11.0713 39.8292 11.0101 39.8292C10.8264 39.8292 10.306 39.2475 10.306 39.0333C10.306 38.921 10.2448 38.8088 10.1836 38.7782C9.9999 38.7271 9.9999 36.9516 10.1836 36.8904C10.2448 36.87 10.306 36.768 10.306 36.6557C10.306 36.5537 10.4693 36.3088 10.6632 36.1047C10.9387 35.8394 11.1121 35.7476 11.3775 35.7476C11.5611 35.7476 11.7448 35.6863 11.7754 35.6149C11.8264 35.5129 11.8468 35.5129 11.8979 35.6149C11.9285 35.6863 12.0713 35.7476 12.2142 35.7476C12.4693 35.7476 12.755 35.9516 12.755 36.1353C12.755 36.1965 12.8264 36.2578 12.9081 36.2986C12.9897 36.3292 13.0611 36.421 13.0611 36.5129C13.0611 36.6863 13.4183 37.0741 13.5713 37.0741C13.7448 37.0741 14.0815 36.6761 14.0815 36.4618C14.0815 36.3496 14.0407 36.2578 13.9795 36.2578C13.9285 36.2578 13.857 36.1455 13.8162 36.0027C13.7754 35.8496 13.6836 35.7476 13.5713 35.7476C13.4693 35.7476 13.3672 35.6761 13.3264 35.5945C13.2958 35.5129 13.153 35.4414 13.0101 35.4414C12.8672 35.4414 12.755 35.3904 12.755 35.3394C12.755 35.2782 12.3672 35.2373 11.7856 35.2373C11.204 35.2373 10.8162 35.2782 10.8162 35.3394Z" fill="black"/>
<path d="M20.9178 35.3292C20.9178 35.3802 20.8056 35.4516 20.6627 35.4822C20.5198 35.5231 20.4076 35.5945 20.4076 35.6455C20.4076 35.7067 20.3566 35.7476 20.2954 35.7476C20.1321 35.7476 19.6321 36.2782 19.5505 36.5435C19.5096 36.6659 19.428 36.768 19.377 36.768C19.326 36.768 19.2852 37.2986 19.2852 37.9924C19.2852 38.768 19.326 39.2169 19.3872 39.2169C19.4484 39.2169 19.5301 39.2986 19.5607 39.3904C19.6627 39.6455 19.8158 39.8292 20.2341 40.1965C20.3056 40.2475 20.4382 40.3292 20.5403 40.37C20.6321 40.4006 20.7137 40.4822 20.7137 40.5435C20.7137 40.6047 21.1321 40.6455 21.8362 40.6455C22.8974 40.6455 22.979 40.6251 23.1933 40.4006C23.3158 40.268 23.5198 40.1353 23.6423 40.0945C23.7647 40.0537 23.8974 39.9312 23.928 39.819C23.9688 39.7169 24.0403 39.6251 24.0913 39.6251C24.1423 39.6251 24.1831 39.5537 24.1831 39.4618C24.1831 39.3802 24.2545 39.2271 24.3464 39.1455C24.479 39.0129 24.4994 38.7782 24.4688 37.8088C24.4484 36.9822 24.3974 36.6149 24.3158 36.5843C24.2443 36.5639 24.1831 36.4312 24.1831 36.2986C24.1831 36.1455 24.1219 36.0537 24.0301 36.0537C23.9484 36.0537 23.877 35.9822 23.877 35.9006C23.877 35.8088 23.7852 35.7476 23.6219 35.7476C23.4586 35.7476 23.3668 35.6863 23.3668 35.5945C23.3668 35.5027 23.2749 35.4414 23.1117 35.4414C22.9688 35.4414 22.8566 35.3904 22.8566 35.3394C22.8566 35.2782 22.4688 35.2373 21.8872 35.2373C21.3566 35.2373 20.9178 35.2782 20.9178 35.3292ZM22.9076 36.0129C23.0505 36.1659 23.1627 36.3496 23.1627 36.421C23.1627 36.5027 23.2137 36.5639 23.2647 36.5639C23.326 36.5639 23.3668 36.6965 23.3668 36.8598C23.3668 37.0231 23.4178 37.1761 23.4892 37.1965C23.6321 37.2476 23.6219 38.6353 23.4688 38.6863C23.4178 38.7067 23.3668 38.8598 23.3668 39.0231C23.3668 39.1863 23.326 39.319 23.2749 39.319C23.2239 39.319 23.1525 39.4312 23.1219 39.5741C23.0811 39.7169 23.0096 39.8292 22.9484 39.8292C22.8872 39.8292 22.7749 39.9006 22.6933 39.9822C22.6015 40.0639 22.4076 40.1353 22.2443 40.1353C22.0811 40.1353 21.928 40.1965 21.8974 40.2578C21.8464 40.37 21.826 40.37 21.775 40.2578C21.7443 40.1965 21.5403 40.1353 21.3158 40.1353C21.0301 40.1353 20.9178 40.0945 20.9178 39.9822C20.9178 39.9006 20.8464 39.8292 20.7647 39.8292C20.6729 39.8292 20.6117 39.7373 20.6117 39.5843C20.6117 39.4516 20.5607 39.319 20.4994 39.2986C20.4484 39.2782 20.3668 39.0741 20.3362 38.8292C20.3056 38.5945 20.2341 38.4006 20.1933 38.4006C20.1423 38.4006 20.1015 38.1659 20.1015 37.8904C20.1015 37.6047 20.1423 37.3802 20.2035 37.3802C20.2545 37.3802 20.3362 37.1965 20.3668 36.972C20.4076 36.7476 20.4688 36.5639 20.5096 36.5639C20.5505 36.5639 20.6219 36.4516 20.6525 36.319C20.6831 36.1761 20.8056 36.0333 20.9178 36.0027C21.0301 35.972 21.1219 35.8904 21.1219 35.8394C21.1219 35.7884 21.4688 35.7476 21.8872 35.7476C22.5913 35.7476 22.6831 35.768 22.9076 36.0129Z" fill="black"/>
</svg>