<svg width="40" height="39" viewBox="0 0 40 39" fill="none" xmlns="http://www.w3.org/2000/svg">
<path d="M17.9623 0.0549641C16.371 0.226488 15.7516 0.312249 15.1989 0.445656C14.3508 0.655296 12.9405 1.16034 12.3116 1.4748C12.0162 1.62726 11.7113 1.75114 11.6541 1.75114C11.5874 1.75114 11.5302 1.78926 11.5302 1.84643C11.5302 1.89408 11.473 1.94172 11.4063 1.94172C11.3301 1.94172 11.1872 2.01795 11.0728 2.11324C10.968 2.20854 10.7107 2.37053 10.5106 2.47535C10.3105 2.57064 10.1104 2.70405 10.0532 2.76122C10.0056 2.80887 9.71017 3.03756 9.41477 3.26626C8.76679 3.75225 7.6233 4.85762 7.0992 5.51512C6.88956 5.78194 6.67992 6.03922 6.62275 6.10593C6.5751 6.17263 6.47028 6.28698 6.41311 6.36321C6.3464 6.43944 6.28923 6.52521 6.28923 6.55379C6.28923 6.58238 6.16535 6.78249 6.01289 7.01119C5.70796 7.46858 5.17433 8.39291 5.08857 8.61207C5.04092 8.75501 4.9361 9.00277 4.63117 9.68886C4.54541 9.88897 4.47871 10.0986 4.47871 10.1653C4.47871 10.232 4.42153 10.394 4.3453 10.5369C4.26907 10.6704 4.1833 10.9753 4.14519 11.1945C4.10707 11.4232 4.04037 11.6709 4.00225 11.7567C3.65921 12.3951 3.55439 16.2258 3.83073 17.7123C4.05943 18.9607 4.19283 19.4848 4.3453 19.8278C4.42153 19.9898 4.47871 20.1708 4.47871 20.228C4.47871 20.5139 5.53643 22.6484 6.12724 23.5441C6.88956 24.7162 8.02352 25.9741 9.15748 26.927C9.84358 27.4987 11.4159 28.5088 12.102 28.8137C13.274 29.3473 13.5409 29.4522 13.8172 29.5284C13.9506 29.557 14.1412 29.6237 14.246 29.6713C14.5319 29.7857 15.1894 29.9572 16.1042 30.1287C17.2286 30.3384 20.316 30.3479 21.4405 30.1287C22.3838 29.9477 23.0509 29.7857 23.251 29.6809C23.3367 29.6332 23.5369 29.5665 23.7179 29.5284C23.8894 29.4903 24.1372 29.4045 24.2801 29.3283C24.4231 29.2521 24.6136 29.1949 24.7089 29.1949C24.7947 29.1949 24.8709 29.1472 24.8709 29.0996C24.8709 29.0424 24.9186 29.0043 24.9757 29.0043C25.0996 29.0043 25.9572 28.585 26.3479 28.3373C26.5099 28.2324 26.7005 28.1181 26.7767 28.08C26.9959 27.9847 27.4914 27.6321 27.52 27.5463C27.5391 27.5082 27.6153 27.4796 27.682 27.4796C27.7582 27.4796 27.8535 27.4225 27.8916 27.3558C27.9298 27.2891 28.0727 27.1652 28.2061 27.089C28.5396 26.8698 30.0929 25.3356 30.5407 24.7639C30.9314 24.2779 31.0172 24.1635 31.2363 23.9158C31.2935 23.8395 31.3507 23.7442 31.3507 23.7157C31.3507 23.6871 31.5032 23.4393 31.6842 23.163C31.8653 22.8962 32.0177 22.6198 32.0177 22.5531C32.0177 22.4864 32.0654 22.4292 32.113 22.4292C32.1702 22.4292 32.2083 22.3816 32.2083 22.3339C32.2083 22.2768 32.3513 21.9337 32.5323 21.5811C32.7134 21.219 32.8849 20.7902 32.923 20.6282C32.9611 20.4662 33.0183 20.3328 33.0659 20.3328C33.104 20.3328 33.1612 20.1613 33.1993 19.9517C33.2279 19.7325 33.2946 19.4848 33.3423 19.399C33.5043 19.1036 33.733 17.922 33.8283 16.9024C33.8759 16.3497 33.9521 15.7779 33.9807 15.6255C34.0951 15.0918 33.5805 11.2421 33.3518 10.9467C33.3137 10.8895 33.247 10.7085 33.2089 10.5369C33.1708 10.3654 33.085 10.1081 33.0088 9.9652C32.9325 9.82227 32.8754 9.64121 32.8754 9.55545C32.8754 9.47922 32.8372 9.3744 32.7896 9.31723C32.7419 9.26958 32.5895 8.95512 32.437 8.61207C32.2941 8.26903 32.0082 7.74493 31.8081 7.44C31.608 7.13507 31.446 6.85872 31.446 6.83014C31.446 6.78249 31.3698 6.6872 30.8457 6.00111C30.2739 5.24831 29.3019 4.21917 28.7302 3.75225C28.3776 3.46637 28.006 3.15191 27.9107 3.05662C27.8154 2.97086 27.6915 2.89463 27.6534 2.89463C27.6058 2.89463 27.4914 2.80887 27.3961 2.70405C27.3008 2.59923 27.1674 2.51347 27.0912 2.51347C27.0245 2.51347 26.9673 2.48488 26.9673 2.43723C26.9673 2.37053 26.7577 2.23712 26.2812 2.01795C26.1288 1.95125 26.0144 1.86549 26.0144 1.82737C26.0144 1.78926 25.9572 1.75114 25.9001 1.75114C25.8334 1.75114 25.5189 1.61773 25.2044 1.45574C24.5946 1.14128 23.27 0.674354 22.3457 0.445656C21.8597 0.321778 20.8306 0.188371 19.1058 0.00731877C18.8962 -0.0117394 18.3816 0.00731877 17.9623 0.0549641ZM21.0117 0.417069C21.1736 0.464714 21.5358 0.540947 21.8216 0.598121C23.3272 0.864936 25.376 1.65585 26.4242 2.361C26.6243 2.49441 26.8053 2.60876 26.8339 2.60876C26.8816 2.60876 27.4438 2.98992 27.5391 3.08521C27.5677 3.1138 27.8916 3.37108 28.2537 3.66648C28.6254 3.96189 29.1495 4.42881 29.4258 4.71468C29.9499 5.23878 31.3507 7.02072 31.3507 7.1446C31.3507 7.18271 31.4079 7.28753 31.4841 7.36377C31.6747 7.5734 32.3036 8.80266 32.3036 8.95512C32.3036 9.03135 32.3513 9.08853 32.3989 9.08853C32.4561 9.08853 32.4942 9.1457 32.4942 9.20288C32.5037 9.26958 32.5799 9.49828 32.6848 9.70792C32.7896 9.91756 32.8658 10.1558 32.8754 10.2415C32.8754 10.3273 32.9421 10.5274 33.0183 10.6704C33.0945 10.8228 33.1612 11.0515 33.1612 11.1849C33.1612 11.3279 33.1993 11.4708 33.247 11.5184C33.3613 11.6423 33.5329 12.6619 33.6567 14.0627C33.733 14.8727 33.733 15.5016 33.6567 16.302C33.5329 17.7123 33.3613 18.732 33.247 18.8463C33.1993 18.9035 33.1612 19.0274 33.1612 19.1417C33.1612 19.7706 31.951 22.4197 31.1506 23.5441C30.8933 23.8967 30.636 24.2779 30.5693 24.3732C30.4454 24.5542 29.5306 25.5738 29.2448 25.8502C28.5968 26.4696 27.4914 27.3844 27.3961 27.3844C27.358 27.3844 27.1674 27.4987 26.9769 27.6416C26.5099 28.0037 26.367 28.0895 25.4903 28.5183C24.4516 29.0234 24.0514 29.1949 23.899 29.1949C23.8227 29.1949 23.7274 29.233 23.6798 29.2806C23.575 29.3855 23.2415 29.4712 21.6787 29.8238C20.7544 30.0334 20.4113 30.062 18.7723 30.062C16.9904 30.062 16.6664 30.0334 15.3895 29.7285C14.2365 29.4522 13.9601 29.3759 13.8648 29.2806C13.8172 29.233 13.7219 29.1949 13.6457 29.1949C13.1502 29.1949 10.2914 27.6035 9.38618 26.8221C8.93831 26.4219 7.41366 24.8877 7.11826 24.5256C6.24158 23.4488 4.76458 20.7998 4.76458 20.2947C4.76458 20.2185 4.72646 20.1327 4.67882 20.0946C4.62164 20.066 4.55494 19.8469 4.51682 19.6182C4.48823 19.3799 4.42153 19.1608 4.38342 19.1417C4.33577 19.1131 4.26907 18.8463 4.23095 18.5414C4.20236 18.246 4.12613 17.941 4.06896 17.8648C3.91649 17.6838 3.85932 13.7673 4.00225 13.0431C4.05943 12.7286 4.15472 12.2141 4.20236 11.8996C4.25954 11.5851 4.33577 11.2802 4.38342 11.2326C4.42153 11.1754 4.48823 10.9658 4.52635 10.7561C4.56447 10.5465 4.62164 10.3273 4.65976 10.2797C4.69787 10.2225 4.83128 9.90803 4.96469 9.56498C5.25056 8.77407 5.70796 7.90692 6.33688 6.94449C7.00391 5.94393 7.22308 5.67712 8.24269 4.65751C9.24324 3.65695 9.80546 3.1805 9.97698 3.1805C10.0437 3.1805 10.1009 3.14238 10.1009 3.09474C10.1009 2.96133 11.473 2.11324 12.2925 1.74161C13.9983 0.950697 15.4181 0.540947 17.2 0.321778C17.9814 0.226488 20.6019 0.293191 21.0117 0.417069Z" fill="black"/>
<path d="M17.0953 1.72245C16.9142 1.76057 16.8952 1.80822 16.9333 2.20844C17 2.89453 17 2.89453 17.5813 2.89453C17.991 2.89453 18.1054 2.86594 18.1054 2.74207C18.1054 2.63725 18.0196 2.59913 17.8004 2.60866C17.2573 2.63725 17.2096 2.62772 17.3431 2.46572C17.4098 2.38949 17.5622 2.32279 17.6861 2.32279C17.81 2.32279 17.9148 2.27514 17.9148 2.2275C17.9148 2.17032 17.7719 2.14173 17.6099 2.15126C17.2287 2.18938 17.162 1.91304 17.5336 1.86539C17.9243 1.80822 17.991 1.65575 17.6289 1.66528C17.4479 1.67481 17.2001 1.7034 17.0953 1.72245Z" fill="black"/>
<path d="M18.3916 2.27514C18.3916 2.7516 18.4202 2.89453 18.525 2.89453C18.6203 2.89453 18.6775 2.77065 18.6965 2.53243L18.7251 2.17985L18.9633 2.53243C19.0968 2.73254 19.2778 2.89453 19.3731 2.89453C19.5065 2.89453 19.5351 2.79924 19.5351 2.27514C19.5351 1.78916 19.5065 1.65575 19.3922 1.65575C19.2969 1.65575 19.2492 1.75104 19.2492 1.94162C19.2492 2.09409 19.2111 2.2275 19.173 2.2275C19.1253 2.2275 19.0015 2.09409 18.8871 1.94162C18.5345 1.46517 18.3916 1.56046 18.3916 2.27514Z" fill="black"/>
<path d="M19.9734 1.76072C19.9543 1.83695 19.9067 2.12283 19.8781 2.38964C19.8304 2.86609 19.84 2.89468 20.0496 2.89468C20.1735 2.89468 20.4117 2.92327 20.5737 2.95186C20.7643 2.98997 20.8691 2.98044 20.8691 2.90421C20.8691 2.84704 20.7738 2.79939 20.6595 2.79939C20.3545 2.79939 20.164 2.65645 20.2307 2.4754C20.2783 2.36105 20.3641 2.342 20.5832 2.38011C20.7548 2.41823 20.8691 2.39917 20.8691 2.342C20.8691 2.28482 20.7548 2.22765 20.6118 2.20859C20.4498 2.18953 20.345 2.12283 20.345 2.03706C20.345 1.93225 20.4308 1.90366 20.6595 1.92272C20.831 1.94177 20.9644 1.91319 20.9644 1.85601C20.9644 1.79884 20.8882 1.75119 20.7833 1.75119C20.688 1.75119 20.4784 1.72261 20.3069 1.69402C20.1068 1.64637 20.002 1.67496 19.9734 1.76072Z" fill="black"/>
<path d="M21.2978 2.37065C21.2216 2.99957 21.3169 3.21874 21.5074 2.85664C21.679 2.53265 21.7933 2.54218 21.8695 2.88522C21.8981 3.03769 21.9934 3.19015 22.0792 3.21874C22.2888 3.3045 22.3079 3.25686 22.2126 2.91381C22.1554 2.73276 22.1554 2.60888 22.2031 2.60888C22.2507 2.60888 22.3365 2.52312 22.3936 2.4183C22.4699 2.26583 22.4508 2.20866 22.2793 2.09431C22.1554 2.02761 21.9077 1.93232 21.7171 1.90373L21.3645 1.84655L21.2978 2.37065ZM22.0411 2.38018C22.0125 2.45642 21.9267 2.51359 21.86 2.51359C21.6694 2.51359 21.5741 2.22772 21.7361 2.13243C21.8981 2.02761 22.1173 2.19913 22.0411 2.38018Z" fill="black"/>
<path d="M15.8755 2.0084C15.5611 2.09417 15.3991 2.33239 15.4086 2.68497C15.4181 3.13283 15.6564 3.30436 16.1423 3.24718C16.5235 3.19001 16.676 3.06613 16.676 2.77073C16.676 2.57062 16.4568 2.4658 16.2281 2.56109C16.0661 2.63732 16.0661 2.63732 16.2281 2.67544C16.3424 2.70403 16.3806 2.77073 16.352 2.86602C16.3234 2.94225 16.2948 3.02801 16.2948 3.04707C16.2948 3.06613 16.2186 3.08519 16.1138 3.08519C15.866 3.08519 15.704 2.85649 15.7421 2.54203C15.7612 2.32286 15.8184 2.27522 16.028 2.27522C16.3424 2.27522 16.4759 2.15134 16.2948 2.03699C16.2186 1.97982 16.1328 1.95123 16.1042 1.95123C16.0756 1.96076 15.9708 1.98935 15.8755 2.0084Z" fill="black"/>
<path d="M23.0314 2.66584C22.9171 2.79924 22.7456 2.99935 22.6598 3.09464C22.5645 3.18993 22.4883 3.32334 22.4883 3.38052C22.4883 3.42816 22.5645 3.46628 22.6598 3.45675C23.1267 3.4091 23.3268 3.47581 23.384 3.67592C23.4221 3.83791 23.4602 3.8665 23.5365 3.79027C23.6889 3.6378 23.5555 2.54196 23.3745 2.47525C23.2983 2.43714 23.1458 2.5229 23.0314 2.66584ZM23.3459 2.98982C23.3459 3.09464 23.2792 3.18041 23.203 3.18041C23.06 3.18041 23.0029 2.98029 23.1267 2.86595C23.2411 2.74207 23.3459 2.79924 23.3459 2.98982Z" fill="black"/>
<path d="M13.6265 2.59907C13.3215 2.68483 13.2834 2.904 13.5026 3.41857C13.7027 3.92361 13.9981 4.0189 13.9314 3.5615C13.8837 3.25657 14.0076 3.18987 14.1982 3.41857C14.2649 3.4948 14.4269 3.5615 14.5698 3.5615L14.8176 3.55198L14.5412 3.31375C14.3411 3.14223 14.2935 3.04693 14.3697 2.9707C14.5317 2.80871 14.3316 2.51331 14.0743 2.52284C13.96 2.53236 13.7599 2.56095 13.6265 2.59907ZM14.0648 2.80871C14.1506 2.95164 13.96 3.12317 13.7789 3.05646C13.6932 3.01835 13.655 2.93259 13.6836 2.84682C13.7503 2.68483 13.9695 2.65624 14.0648 2.80871Z" fill="black"/>
<path d="M14.8371 2.9615C14.7132 3.07584 14.7704 3.18066 14.961 3.18066C15.0658 3.18066 15.1516 3.11396 15.1516 3.03773C15.1516 2.89479 14.9515 2.83762 14.8371 2.9615Z" fill="black"/>
<path d="M24.128 3.32338C23.8517 3.89513 23.8612 3.99995 24.2328 4.14289C24.3948 4.20959 24.5664 4.27629 24.614 4.30488C24.6521 4.32394 24.6807 4.27629 24.6807 4.20006C24.6807 4.1143 24.595 4.01901 24.4901 3.99042C24.2614 3.92372 24.2424 3.67596 24.4425 3.40915C24.5187 3.31386 24.5854 3.15186 24.5854 3.05657C24.5854 2.75164 24.3377 2.89458 24.128 3.32338Z" fill="black"/>
<path d="M12.1589 3.476C11.8445 3.72375 11.8445 4.02868 12.1494 4.3622C12.4162 4.64807 12.5877 4.66713 12.9117 4.45749C13.0928 4.33361 13.1499 4.21926 13.1499 3.94292C13.1499 3.32353 12.6544 3.0853 12.1589 3.476ZM12.8641 3.79999C12.9689 3.99057 12.9689 4.05727 12.8641 4.18115C12.7116 4.3622 12.5877 4.3622 12.3686 4.16209C12.1494 3.97151 12.1494 3.69517 12.359 3.58082C12.5687 3.45694 12.7116 3.52364 12.8641 3.79999Z" fill="black"/>
<path d="M11.0731 4.10482C10.8348 4.26682 10.6729 4.43834 10.6729 4.55269C10.6729 4.72421 10.6824 4.72421 10.8444 4.58128C11.0064 4.43834 11.0254 4.43834 11.1493 4.61939C11.2255 4.73374 11.3399 4.87668 11.3971 4.93385C11.4542 4.99103 11.5209 5.09585 11.54 5.17208C11.5781 5.2769 11.6067 5.26737 11.702 5.16255C11.7973 5.0482 11.7687 4.95291 11.5781 4.66704C11.3018 4.26682 11.2827 4.13341 11.4828 4.13341C11.5591 4.13341 11.6258 4.06671 11.6258 3.99048C11.6258 3.79037 11.5305 3.80942 11.0731 4.10482Z" fill="black"/>
<path d="M25.7568 4.31459C25.5281 4.66716 25.4805 4.80057 25.5663 4.88633C25.652 4.97209 25.7092 4.94351 25.8331 4.79104C25.9569 4.62905 26.0237 4.60999 26.1761 4.68622C26.4429 4.83869 26.5192 4.71481 26.2905 4.52423C26.1189 4.38129 26.1094 4.3527 26.2333 4.24788C26.3381 4.15259 26.3953 4.16212 26.4906 4.27647C26.5573 4.3527 26.6812 4.41941 26.7669 4.41941C26.8717 4.40988 26.8146 4.32412 26.5859 4.13354C26.4048 3.97154 26.2142 3.84766 26.1571 3.84766C26.1094 3.84766 25.9284 4.0573 25.7568 4.31459Z" fill="black"/>
<path d="M17.9625 4.09538C16.7809 4.22879 15.3992 4.55278 14.675 4.86724C14.2081 5.06735 13.1122 5.60098 13.0551 5.65815C12.9693 5.74391 12.3976 6.13461 12.3499 6.13461C12.207 6.13461 10.3202 7.96419 9.78659 8.6217C9.64366 8.80275 9.50072 9.04098 9.47213 9.15532C9.44355 9.2792 9.38637 9.37449 9.34825 9.37449C9.20532 9.37449 8.42393 11.0897 8.16665 11.9473C7.78549 13.2338 7.70925 13.8722 7.73784 15.3778C7.77596 16.7976 8.00466 18.3509 8.20477 18.5605C8.25241 18.6177 8.29053 18.713 8.29053 18.7892C8.29053 18.9131 8.41441 19.2466 8.74792 19.9518C8.9385 20.3615 9.52931 21.3907 9.67224 21.5336C9.71989 21.5908 9.83424 21.7432 9.91047 21.8671C10.3393 22.5246 11.5971 23.7348 12.4833 24.3351C12.5977 24.4114 12.7883 24.5448 12.9026 24.6305C13.0837 24.7639 14.3701 25.3929 14.8179 25.5644C16.0281 26.0313 16.8191 26.1743 18.5819 26.2124C20.1923 26.2505 20.8403 26.1743 22.06 25.8026C23.6705 25.2976 25.4238 24.2494 26.5864 23.0868C27.3106 22.3626 28.2063 21.2096 28.2063 21.0095C28.2063 20.9618 28.2349 20.9047 28.2825 20.8856C28.3397 20.857 28.921 19.7326 29.1783 19.1418C29.5023 18.3985 29.912 16.1687 29.912 15.1872C29.912 14.2153 29.4927 11.9569 29.1687 11.2327C28.4064 9.48884 27.7298 8.44064 26.6245 7.33527C25.1093 5.82015 22.9844 4.67666 21.0118 4.31455C19.7921 4.08586 18.7249 4.00962 17.9625 4.09538ZM20.1066 4.40984C20.9547 4.52419 22.1363 4.79101 22.2411 4.90536C22.2983 4.953 22.4031 4.99112 22.4793 4.99112C22.5651 5.00065 22.8033 5.07688 23.013 5.1817C23.2226 5.28652 23.4418 5.36275 23.5085 5.37228C23.5656 5.37228 23.6323 5.40087 23.6514 5.43898C23.6705 5.48663 23.8801 5.61051 24.1374 5.73439C24.3851 5.85826 24.5852 5.99167 24.5852 6.03932C24.5852 6.07743 24.6805 6.14414 24.8044 6.17272C25.2523 6.2966 27.5393 8.47876 27.5393 8.79322C27.5393 8.85039 27.5774 8.89804 27.6155 8.89804C27.6631 8.89804 27.7489 8.99333 27.8156 9.10768C27.8728 9.23156 28.0062 9.45073 28.111 9.61272C28.4064 10.0796 28.8257 10.9754 29.102 11.7568C29.6928 13.4339 29.7977 15.7018 29.3593 17.6743C29.2545 18.1508 28.921 19.199 28.7876 19.4563C28.7399 19.542 28.6542 19.7231 28.597 19.8565C28.5493 19.9899 28.3683 20.3043 28.2063 20.5712C28.0538 20.8284 27.8728 21.1429 27.8156 21.2572C27.7489 21.3811 27.6631 21.4764 27.6155 21.4764C27.5774 21.4764 27.5393 21.5241 27.5393 21.5812C27.5393 21.7623 26.1766 23.2012 25.4429 23.7825C24.8521 24.2589 23.699 24.9259 23.013 25.1928C22.6985 25.3071 22.3078 25.4691 22.1363 25.5358C21.9743 25.612 21.7361 25.6692 21.6122 25.6692C21.4883 25.6692 21.3454 25.7073 21.2882 25.7645C21.2405 25.8121 20.6593 25.9074 20.0018 25.9646C18.2579 26.1171 16.4569 25.936 15.2944 25.4786C15.1896 25.4405 14.8465 25.3071 14.5321 25.1832C13.9413 24.9545 12.8454 24.3447 12.7883 24.2208C12.7692 24.1731 12.712 24.1446 12.6548 24.1446C12.4166 24.1446 10.5584 22.4103 10.2059 21.8576C10.1296 21.7242 10.0058 21.5812 9.93906 21.5431C9.87235 21.505 9.81518 21.4097 9.81518 21.3335C9.81518 21.2668 9.78659 21.1905 9.73895 21.1715C9.63413 21.1238 8.95756 19.9518 8.95756 19.8088C8.95756 19.7326 8.91945 19.6564 8.8718 19.6278C8.78604 19.5706 8.48111 18.7416 8.25241 17.9411C7.88078 16.6166 7.88078 13.634 8.24288 12.5477C8.31911 12.319 8.38582 12.0712 8.38582 11.995C8.38582 11.7472 9.33873 9.66037 9.45307 9.66037C9.49119 9.66037 9.52931 9.60319 9.52931 9.53649C9.52931 9.42214 9.61507 9.28873 10.0058 8.83134C10.0534 8.76463 10.1011 8.67887 10.1011 8.64075C10.1106 8.51688 11.4447 7.15422 11.9592 6.74447C12.226 6.54436 12.4547 6.34425 12.4833 6.31566C12.5881 6.20131 13.703 5.56286 13.8079 5.56286C13.865 5.56286 13.9127 5.51522 13.9127 5.46757C13.9127 5.4104 13.9699 5.37228 14.0366 5.37228C14.0937 5.37228 14.2653 5.31511 14.3987 5.23887C14.9609 4.94347 16.7333 4.45749 17.4861 4.39079C18.2294 4.32408 19.4967 4.33361 20.1066 4.40984Z" fill="black"/>
<path d="M18.9911 5.21983C19.0578 5.38183 18.8101 5.68676 18.6767 5.61053C18.6385 5.58194 18.6195 5.46759 18.6576 5.35324C18.6957 5.18172 18.6767 5.16266 18.4765 5.21031C18.3527 5.24842 18.2193 5.27701 18.1811 5.27701C18.1049 5.27701 18.0001 5.7344 17.9906 6.13463C17.981 6.29662 17.9429 6.44909 17.8953 6.47767C17.7905 6.54438 17.8 6.80166 17.9143 6.80166C17.962 6.80166 18.1716 6.6492 18.3813 6.46814C18.5814 6.28709 18.7719 6.13463 18.8101 6.13463C18.8387 6.13463 18.8672 6.32521 18.8672 6.56343C18.8672 6.87789 18.8291 6.99224 18.7243 6.99224C18.6385 6.99224 18.5814 7.078 18.5909 7.20188C18.6004 7.36388 18.61 7.38293 18.6481 7.24953C18.6957 7.078 18.9625 7.02083 18.9625 7.18282C18.9625 7.28764 19.4485 7.09706 19.5533 6.9446C19.6391 6.83025 19.5533 6.49673 19.4199 6.41097C19.3532 6.37285 19.3628 6.32521 19.4199 6.28709C19.4771 6.2585 19.6486 6.35379 19.8011 6.51579C20.1632 6.87789 20.3252 6.88742 20.2585 6.53485C20.2299 6.39191 20.1823 6.09651 20.1537 5.86781C20.087 5.44853 19.9059 5.18172 19.6677 5.18172C19.5914 5.18172 19.5343 5.27701 19.5343 5.41994C19.5343 5.55335 19.4962 5.65817 19.439 5.65817C19.3913 5.65817 19.3437 5.57241 19.3437 5.46759C19.3437 5.3723 19.2484 5.23889 19.1341 5.17219C18.9625 5.0769 18.9435 5.08643 18.9911 5.21983ZM19.1531 6.90648C19.1531 6.95413 19.115 6.99224 19.0578 6.99224C19.0102 6.99224 18.9625 6.92554 18.9625 6.83978C18.9625 6.76354 19.0102 6.72543 19.0578 6.75402C19.115 6.7826 19.1531 6.84931 19.1531 6.90648Z" fill="black"/>
<path d="M19.4772 7.41158C19.4009 7.49734 19.2199 7.5164 18.8768 7.46875C18.2955 7.39252 18.2193 7.55452 18.6958 7.84992C18.934 7.99285 19.0388 8.01191 19.1913 7.92615C19.4962 7.77368 19.8202 7.4497 19.763 7.36393C19.6963 7.24959 19.601 7.25911 19.4772 7.41158Z" fill="black"/>
<path d="M18.0572 8.45007C18.0668 8.77406 18.124 9.13617 18.1811 9.25052C18.3145 9.48874 18.2478 9.52686 17.5141 9.62215C16.99 9.67932 16.7422 9.86038 16.8375 10.0986C16.8756 10.213 16.8089 10.232 16.5231 10.2034C16.323 10.1748 16.1419 10.1177 16.1324 10.07C16.0466 9.81273 15.8179 9.63168 15.5511 9.60309C15.3796 9.58403 15.1128 9.49827 14.9412 9.41251C14.6935 9.2791 14.5601 9.2791 14.0646 9.37439C12.9115 9.58403 12.3779 9.86991 12.397 10.2701V10.4702L12.4923 10.2701C12.6352 9.97473 13.045 9.77461 13.6358 9.70791C13.9121 9.66979 14.2456 9.60309 14.36 9.54592C14.5124 9.46968 14.6077 9.46968 14.6935 9.54592C14.7602 9.59356 15.0556 9.66979 15.3415 9.70791C15.7989 9.76509 15.8941 9.81273 16.0847 10.1081C16.1991 10.2892 16.2944 10.4798 16.2944 10.5274C16.2944 10.5751 16.3801 10.6132 16.485 10.6132C16.5993 10.6132 16.6469 10.5655 16.6184 10.4893C16.5898 10.4131 16.7041 10.3178 16.8947 10.2511C17.2854 10.1081 17.4379 10.1081 17.4379 10.232C17.4379 10.2797 17.3807 10.3273 17.3045 10.3273C17.2282 10.3273 17.152 10.3845 17.1234 10.4607C17.0853 10.5465 17.1615 10.6036 17.3426 10.6322C17.495 10.6513 17.5999 10.6418 17.5713 10.5941C17.5427 10.556 17.6189 10.5179 17.7428 10.5179C17.8667 10.5179 18.0191 10.4702 18.0763 10.4131C18.2097 10.2797 19.8201 10.2987 19.9631 10.4321C20.0107 10.4798 20.1822 10.5179 20.3442 10.5274C20.592 10.5274 20.611 10.5465 20.4395 10.6227C20.2775 10.6989 20.2775 10.7085 20.4872 10.6608C20.6206 10.6418 20.7826 10.6132 20.8493 10.6132C21.0398 10.6132 20.9827 10.4226 20.754 10.3368C20.5634 10.2606 20.5539 10.2415 20.6968 10.1844C20.7826 10.1462 20.9064 10.1462 20.9636 10.1844C21.0208 10.2225 21.1256 10.1939 21.2018 10.1367C21.4496 9.92708 21.078 9.67932 20.4109 9.60309C19.763 9.53639 19.7058 9.45063 19.9631 8.95511C20.1346 8.6216 20.1441 8.47866 19.9917 8.2309C19.8868 8.06891 19.8964 8.02126 20.0107 7.9355C20.2585 7.76398 19.9726 7.88786 19.6105 8.12608L19.2484 8.34525V9.16475C19.2484 10.0414 19.1531 10.3654 18.953 10.1653C18.8863 10.0986 18.8291 9.69838 18.8196 9.22193C18.791 8.47866 18.7624 8.36431 18.5623 8.21185C18.0477 7.8021 18.0382 7.81163 18.0572 8.45007Z" fill="black"/>
<path d="M24.9087 9.13611C24.842 9.31716 24.7753 9.51727 24.7753 9.57444C24.7753 9.63162 24.661 9.78408 24.518 9.91749C24.3084 10.089 24.2798 10.1557 24.3846 10.2224C24.4513 10.2701 24.4704 10.3177 24.4227 10.3368C24.3846 10.3558 24.175 10.5845 23.9653 10.8513C23.3841 11.5755 22.9457 11.9567 22.8123 11.8424C22.7361 11.7852 22.6884 11.8138 22.6503 11.9377C22.6217 12.0615 22.4693 12.1664 22.212 12.2331C21.9642 12.2998 21.8213 12.3951 21.8213 12.4903C21.8213 12.5952 21.8594 12.6142 21.9452 12.5475C22.0023 12.4903 22.2501 12.4236 22.4693 12.3951C22.9076 12.3379 22.8123 12.4332 24.6324 10.4797C25.166 9.91749 25.2136 9.87937 25.3756 10.0128C25.6043 10.2224 25.5853 10.089 25.347 9.85079C25.0421 9.54586 24.9945 9.18375 25.2518 8.97411L25.4614 8.80259H25.2613C25.1088 8.80259 25.0135 8.89788 24.9087 9.13611Z" fill="black"/>
<path d="M21.4502 10.1271C21.193 10.3558 21.2692 10.3748 21.8409 10.2224C22.2221 10.1271 22.7557 10.1938 23.3942 10.432C23.4513 10.4511 23.4895 10.4225 23.4895 10.3748C23.499 10.2319 22.9082 10.0509 22.2507 9.98415C21.7552 9.93651 21.6503 9.95556 21.4502 10.1271Z" fill="black"/>
<path d="M25.7192 10.394C25.7764 10.5083 25.824 10.6798 25.824 10.7847C25.824 11.0324 26.2528 11.4422 26.5959 11.5184C26.7483 11.5565 26.8722 11.6232 26.8722 11.6709C26.8722 11.7185 26.9389 11.7566 27.0247 11.7566C27.1485 11.7566 27.1581 11.8424 27.1009 12.2998C27.0723 12.6047 27.0056 12.862 26.9675 12.8811C26.9198 12.9001 26.6626 13.0716 26.3862 13.2622C25.9288 13.5862 25.8621 13.672 25.7668 14.1103C25.7097 14.3866 25.5858 14.6725 25.5 14.7583C25.4143 14.844 25.3475 14.9775 25.3475 15.0537C25.3475 15.1299 25.2427 15.3586 25.1093 15.5683C24.9759 15.7779 24.8711 16.0447 24.8711 16.1591C24.8711 16.3496 24.8997 16.3401 25.0807 16.0447C25.2046 15.8637 25.3285 15.7017 25.3666 15.6826C25.4047 15.6635 25.4619 15.5016 25.5 15.33C25.5286 15.149 25.6144 14.9584 25.6906 14.8917C25.7668 14.8345 25.824 14.6344 25.824 14.4438C25.824 14.0627 26.3862 13.2813 26.6626 13.2813C27.0056 13.2813 27.2534 13.0049 27.2534 12.6142C27.2534 12.2331 27.4058 12.0044 27.7298 11.8996C27.9776 11.8233 27.9776 11.6613 27.7298 11.728C27.625 11.7566 27.5392 11.8138 27.5392 11.8614C27.5392 11.9377 27.1104 11.7185 26.9675 11.566C26.9389 11.5375 26.7579 11.4326 26.5577 11.3373C26.3386 11.223 26.1385 11.0324 26.0622 10.8609C25.9955 10.6989 25.8716 10.4797 25.7859 10.3749C25.6239 10.1843 25.6239 10.1843 25.7192 10.394Z" fill="black"/>
<path d="M18.5622 10.5848C18.6193 10.6039 18.7337 10.6039 18.8004 10.5848C18.8576 10.5562 18.8099 10.5372 18.6765 10.5372C18.5431 10.5372 18.4955 10.5562 18.5622 10.5848Z" fill="black"/>
<path d="M19.0392 10.5843C19.1059 10.6129 19.1916 10.6034 19.2202 10.5748C19.2583 10.5462 19.2012 10.5176 19.0963 10.5271C18.9915 10.5271 18.9629 10.5557 19.0392 10.5843Z" fill="black"/>
<path d="M18.0669 10.7558C18.105 10.832 18.1812 10.8987 18.2575 10.8987C18.3337 10.8987 18.3909 10.9464 18.3909 10.994C18.3909 11.0512 18.4671 11.0893 18.5624 11.0703C18.7434 11.0417 18.7339 10.975 18.6958 13.1381C18.6767 14.0433 18.6481 14.2339 18.5338 14.2339C18.429 14.2339 18.3909 14.3387 18.3909 14.6056C18.3909 14.8152 18.3623 15.0439 18.3337 15.1201C18.2956 15.2249 18.3527 15.2726 18.5433 15.3012C18.915 15.3393 18.9626 15.568 18.591 15.568H18.3051L18.2765 17.0545L18.2479 18.5411L17.8382 18.684C17.3141 18.8555 17.1711 18.8079 17.133 18.4077C17.114 18.1504 17.0187 18.036 16.5994 17.7597L16.0944 17.4262L16.4755 17.2451C16.8757 17.0545 17.0663 16.8068 16.8186 16.8068C16.7423 16.8068 16.6756 16.7496 16.6756 16.6829C16.6756 16.5971 16.6566 16.5971 16.5899 16.6924C16.5422 16.7782 16.4279 16.7972 16.2659 16.7496C16.0372 16.702 16.0086 16.6448 16.0086 16.2731C16.0086 15.9206 16.0372 15.8539 16.1992 15.8539C16.304 15.8539 16.3898 15.8062 16.3898 15.749C16.3898 15.6919 16.2468 15.6633 16.0658 15.6728C15.8847 15.6919 15.7037 15.6728 15.6655 15.6347C15.6274 15.5966 15.7513 15.568 15.9419 15.568C16.1325 15.568 16.2945 15.5299 16.2945 15.4727C16.2945 15.4251 16.1229 15.406 15.8847 15.4251C15.5512 15.4727 15.4559 15.4441 15.3416 15.2726C15.0271 14.8152 14.7984 14.6246 14.4935 14.5674C14.2171 14.5103 14.179 14.5198 14.2267 14.6627C14.2648 14.7485 14.2934 14.8628 14.2934 14.9105C14.2934 14.9581 14.3601 14.9962 14.4363 14.9962C14.5888 14.9962 14.8079 15.3393 14.7031 15.406C14.5983 15.4632 14.1028 15.406 14.0265 15.3298C13.9884 15.2917 13.9598 14.9581 13.9598 14.577V13.8909L13.0165 12.957L12.0826 12.0136L12.1303 11.5372C12.1779 11.1465 12.1684 11.0893 12.0636 11.1846C11.7872 11.4038 11.7014 13.1381 11.9397 13.5097C12.1112 13.767 12.1588 14.1863 12.0159 14.272C11.9778 14.3006 11.9111 14.4626 11.873 14.6246C11.8444 14.7866 11.6919 15.082 11.5299 15.2821C11.3775 15.4822 11.2441 15.7109 11.2441 15.7872C11.2441 15.8729 11.1678 16.0063 11.0821 16.1016C10.9296 16.2446 10.9105 16.5018 10.8819 18.0074C10.8629 18.9603 10.8915 19.8847 10.9391 20.0562L11.0154 20.3802L12.054 20.4088C12.6258 20.4183 13.1403 20.4659 13.188 20.5136C13.2452 20.5612 13.3976 20.6184 13.531 20.647C13.9408 20.7423 14.3601 21.2569 14.6364 21.9811C14.8746 22.6005 15.1605 22.9911 15.3797 23.0007C15.4178 23.0007 15.4368 22.9435 15.4083 22.8768C15.332 22.6862 15.4559 22.5433 15.7513 22.4766C15.9895 22.4099 16.0086 22.4289 16.0086 22.6957C16.0086 22.9435 15.9705 22.9911 15.7513 23.0293C15.5988 23.0483 15.7608 23.0674 16.1039 23.0769C16.4469 23.0864 16.9139 23.0388 17.1521 22.9816C17.3903 22.9244 17.8763 22.8768 18.2289 22.8673C18.8673 22.8577 18.8864 22.8482 19.2485 22.4575C19.5915 22.0764 19.8202 21.457 19.8202 20.9233C19.8202 20.7137 20.8017 19.8084 21.2972 19.5702C21.8404 19.3034 22.0119 19.332 22.5169 19.7131C22.7552 19.8942 22.9934 20.0467 23.0315 20.0467C23.1363 20.0467 23.7271 19.027 23.7271 18.8555C23.7271 18.7888 23.9368 18.3124 24.2036 17.7883C24.4609 17.2737 24.68 16.8258 24.68 16.7877C24.68 16.7591 24.5943 16.7496 24.4895 16.7782C24.3751 16.8068 24.2989 16.7782 24.2989 16.721C24.2989 16.6543 24.2512 16.6353 24.1845 16.6734C24.0607 16.7496 23.2602 16.7305 23.1268 16.6448C23.0792 16.6162 23.1745 16.4828 23.3269 16.3398C23.4889 16.2064 23.7653 15.9587 23.9463 15.8062C24.1274 15.6442 24.3084 15.406 24.3465 15.2821C24.4037 15.1011 24.3275 15.1487 23.9558 15.5108C23.5556 15.9206 23.4889 15.9492 23.4317 15.7967C23.3174 15.5013 23.3364 15.2821 23.4889 15.2821C23.5556 15.2821 23.6604 15.2249 23.6986 15.1582C23.7367 15.0915 23.9654 14.8914 24.1941 14.7104L24.6133 14.3864L24.5657 14.7294C24.5466 14.92 24.5657 15.0534 24.6038 15.0344C24.7658 14.9295 24.68 14.4436 24.4609 14.3102C24.1559 14.1005 22.8028 13.9004 22.6408 14.0338C22.5837 14.0815 22.3931 14.1482 22.2311 14.1863C22.0596 14.2149 21.9166 14.2911 21.9166 14.3387C21.9166 14.3864 21.8594 14.4245 21.7927 14.4245C21.564 14.4245 21.0018 14.7676 21.0399 14.8819C21.059 14.9486 21.0114 14.9962 20.9351 14.9962C20.8017 14.9962 20.6778 15.1868 20.6778 15.3774C20.6778 15.4155 20.7636 15.4346 20.8684 15.406C20.9732 15.3774 21.059 15.406 21.059 15.4632C21.059 15.5203 21.1066 15.568 21.1543 15.568C21.2115 15.568 21.2496 15.4346 21.2496 15.2726V14.9867L21.707 15.0534C21.9547 15.082 22.2025 15.1487 22.2501 15.1868C22.3073 15.2249 22.4979 15.2821 22.698 15.3202C23.0601 15.3869 23.1554 15.5108 23.1554 15.9492C23.1554 16.1683 23.1173 16.2064 22.9743 16.1683C22.8219 16.1302 22.7933 16.1588 22.8409 16.3208C22.8791 16.4733 22.8505 16.5209 22.7075 16.5209C22.6122 16.5209 22.4788 16.5685 22.4217 16.6257C22.3645 16.6829 22.0881 16.7115 21.7832 16.6924C21.4878 16.6829 21.2496 16.6924 21.2496 16.7305C21.2496 16.7591 21.1733 16.8068 21.0876 16.8258C20.9542 16.8544 20.9732 16.9021 21.2019 17.1212C21.3925 17.2928 21.4402 17.3785 21.3449 17.3785C21.2591 17.3785 21.1257 17.4548 21.0399 17.5405C20.573 18.0646 19.6963 18.7126 19.4772 18.7126C19.3724 18.7126 19.3438 18.3981 19.3438 17.1403C19.3438 15.6347 19.3342 15.568 19.1532 15.568C19.0484 15.568 18.9626 15.5013 18.9626 15.4251C18.9626 15.3488 19.0484 15.2821 19.1437 15.2821C19.4295 15.2821 19.4676 14.9867 19.3914 13.3287C19.3342 11.8326 19.3342 11.7945 19.5343 11.6134C19.8012 11.3657 20.6207 11.3657 21.3258 11.6039C21.7356 11.7468 21.8785 11.7564 22.0977 11.6611C22.2406 11.6039 22.4693 11.5848 22.6027 11.6134C22.9076 11.6897 23.1459 11.4514 22.9648 11.2323C22.8028 11.0417 22.6599 11.0512 22.4598 11.2799C22.2406 11.5372 21.8309 11.5277 21.0114 11.2323C20.6492 11.1084 20.1537 10.994 19.9155 10.9845C19.582 10.975 19.5343 10.9655 19.7249 10.9083C20.087 10.8035 19.7916 10.7368 18.9817 10.7368C18.6005 10.7272 18.2575 10.6986 18.2289 10.67C18.1145 10.5557 18.0192 10.6129 18.0669 10.7558ZM12.197 12.4043C12.197 12.5092 13.0546 13.3954 13.3976 13.6336L13.7026 13.8528L13.7407 15.082C13.7597 15.8825 13.8169 16.3589 13.8931 16.4542C14.0265 16.6162 13.8931 16.7687 13.7216 16.6638C13.674 16.6353 13.6263 16.6543 13.6263 16.702C13.6263 16.7591 13.5596 16.8068 13.4834 16.8068C13.2261 16.8068 13.3404 16.9878 13.7216 17.1879C14.0075 17.3309 14.2838 17.3785 14.8937 17.3785C15.494 17.3785 15.7322 17.4166 15.818 17.5215C15.8847 17.5977 16.1229 17.7597 16.3612 17.874C16.9424 18.1694 17.1902 18.8174 16.7614 18.9508C16.5994 19.008 16.5708 19.0652 16.6184 19.3129C16.9329 20.8662 16.9424 21.457 16.6566 21.781C16.3421 22.1145 15.98 22.3241 15.5607 22.3908L15.1891 22.448L14.8746 21.8381C14.503 21.1234 14.3601 20.9424 13.8836 20.5803C13.5501 20.323 13.4548 20.3039 12.3875 20.2563L11.2536 20.2087L11.1583 19.9133C11.1106 19.7513 11.0344 18.9413 10.9963 18.1123C10.9391 16.6924 10.9486 16.5971 11.1297 16.397C11.4632 16.0254 12.1207 14.8628 12.1684 14.5389C12.197 14.3673 12.2541 14.2053 12.2922 14.1863C12.3685 14.1386 12.197 13.3191 12.0159 12.8713C11.873 12.4996 11.8825 12.3281 12.054 12.3281C12.1303 12.3281 12.197 12.3662 12.197 12.4043ZM14.9318 15.6728C14.827 15.7395 14.6269 15.7395 14.3601 15.6823L13.9598 15.5871L14.5316 15.5775C14.9699 15.5775 15.0652 15.5966 14.9318 15.6728ZM15.494 16.1969C15.6655 16.3875 15.7894 16.5781 15.7704 16.6257C15.7418 16.6638 15.4464 16.702 15.1129 16.702C14.6459 16.702 14.4839 16.6638 14.4458 16.5495C14.4077 16.4637 14.3601 16.4256 14.3219 16.4542C14.2171 16.5685 14.0075 16.3113 14.0075 16.0826C14.0075 15.8634 14.0361 15.8539 14.5888 15.8539C15.1224 15.8539 15.1891 15.8729 15.494 16.1969ZM23.7653 17.4357C23.9368 17.5024 23.9654 17.7787 23.8224 18.0265C23.7748 18.1123 23.6414 18.3981 23.5366 18.6649C23.4317 18.9222 23.2983 19.2176 23.2507 19.3034C23.1935 19.3987 23.1554 19.5416 23.1554 19.6179C23.1554 19.7989 22.8314 19.8084 22.6599 19.6274C22.4502 19.4177 21.9452 19.189 21.707 19.189C21.3544 19.1986 20.9161 19.4844 20.2014 20.1705C19.6011 20.7613 19.5343 20.8566 19.5343 21.1901C19.5343 21.5808 19.3724 22.0478 19.2294 22.0478C19.1818 22.0478 19.1722 21.7333 19.1913 21.3521C19.2199 20.9805 19.2771 20.2849 19.3056 19.8275C19.3628 18.9985 19.3724 18.9794 19.6392 18.8841C19.7916 18.8365 19.9155 18.7507 19.9155 18.7031C19.9155 18.6554 19.9632 18.6173 20.0108 18.6173C20.1728 18.6173 21.0399 17.9693 21.3925 17.5977C21.564 17.3976 21.6689 17.3785 22.6027 17.3785C23.1554 17.3785 23.6795 17.4071 23.7653 17.4357ZM18.3718 19.5416C18.4004 20.1229 18.3909 20.1419 18.1336 20.2468C17.9906 20.3039 17.7905 20.3897 17.7048 20.4374C17.6095 20.485 17.4094 20.5231 17.2664 20.5231C16.9996 20.5231 16.9806 20.4945 16.9329 20.0467C16.9043 19.7798 16.8948 19.5035 16.9329 19.4177C17.0187 19.189 17.6476 18.9032 18.0097 18.9318L18.3432 18.9508L18.3718 19.5416ZM18.4004 21.476L18.4194 22.5719L18.105 22.6005C17.6095 22.6481 17.1997 22.4003 17.0758 21.9715C16.9234 21.4855 16.9329 21.3331 17.1044 20.99C17.2093 20.809 17.3522 20.6851 17.5332 20.647C17.6952 20.6184 17.8191 20.5612 17.8191 20.5136C17.8191 20.4564 18.2479 20.3516 18.3623 20.3802C18.3718 20.3802 18.3909 20.8757 18.4004 21.476ZM16.7328 22.3813C16.8471 22.6672 16.6852 23.0007 16.4374 23.0007C16.1325 23.0007 16.0467 22.8387 16.2373 22.629C16.323 22.5337 16.3898 22.4099 16.3898 22.3527C16.3898 22.1907 16.6756 22.2098 16.7328 22.3813ZM17.2378 22.467C17.3808 22.6386 17.2664 22.9054 17.0473 22.9054C16.9139 22.9054 16.8662 22.8387 16.8662 22.6195C16.8662 22.3146 17.0473 22.2383 17.2378 22.467Z" fill="black"/>
<path d="M19.9923 10.68C20.059 10.7086 20.1448 10.6991 20.1733 10.6705C20.2115 10.6419 20.1543 10.6133 20.0495 10.6228C19.9446 10.6228 19.9161 10.6514 19.9923 10.68Z" fill="black"/>
<path d="M17.0569 11.1374C16.8186 11.2041 16.5042 11.3089 16.3612 11.3661C15.9705 11.5186 15.4369 11.4995 15.4369 11.3375C15.4369 11.1755 15.2082 11.0707 15.0081 11.1469C14.8461 11.2136 14.8175 11.4328 14.9605 11.5186C15.0176 11.5471 15.0558 11.7091 15.0558 11.8616C15.0558 12.0236 15.0939 12.1284 15.151 12.0903C15.1987 12.0617 15.2082 11.9664 15.1796 11.8902C15.1034 11.6901 15.3321 11.5567 15.5417 11.671C15.799 11.8044 16.0277 11.7758 16.8758 11.509C17.5428 11.2899 17.7048 11.2708 17.9621 11.3661C18.3623 11.509 18.3909 11.4995 18.3909 11.2899C18.3909 10.9849 17.8192 10.9182 17.0569 11.1374Z" fill="black"/>
<path d="M15.9131 14.6632C15.9131 14.7394 15.9607 14.8062 16.0084 14.8062C16.0656 14.8062 16.1037 14.7394 16.1037 14.6632C16.1037 14.587 16.0656 14.5203 16.0084 14.5203C15.9607 14.5203 15.9131 14.587 15.9131 14.6632Z" fill="black"/>
<path d="M21.421 15.6351C21.4877 15.6637 21.5735 15.6541 21.6021 15.6256C21.6402 15.597 21.583 15.5684 21.4782 15.5779C21.3734 15.5779 21.3448 15.6065 21.421 15.6351Z" fill="black"/>
<path d="M21.7742 15.7592C21.8028 15.8068 21.8504 15.8545 21.879 15.8545C21.8981 15.8545 21.9171 15.8068 21.9171 15.7592C21.9171 15.702 21.8695 15.6639 21.8123 15.6639C21.7646 15.6639 21.7456 15.702 21.7742 15.7592Z" fill="black"/>
<path d="M20.754 15.9207C20.8207 15.9493 20.9065 15.9398 20.9351 15.9112C20.9732 15.8826 20.916 15.854 20.8112 15.8636C20.7064 15.8636 20.6778 15.8921 20.754 15.9207Z" fill="black"/>
<path d="M21.0596 16.0544C21.0596 16.1021 21.1072 16.1211 21.1549 16.0925C21.212 16.0639 21.2502 16.0163 21.2502 15.9877C21.2502 15.9686 21.212 15.9496 21.1549 15.9496C21.1072 15.9496 21.0596 15.9972 21.0596 16.0544Z" fill="black"/>
<path d="M21.421 16.2069C21.4877 16.2354 21.5735 16.2259 21.6021 16.1973C21.6402 16.1687 21.583 16.1402 21.4782 16.1497C21.3734 16.1497 21.3448 16.1783 21.421 16.2069Z" fill="black"/>
<path d="M10.1006 4.86716C10.1101 4.96245 10.2816 5.22926 10.4913 5.46749C10.7772 5.78195 10.8915 5.85818 10.9582 5.76289C11.0058 5.67713 10.9201 5.47702 10.6819 5.17209C10.3293 4.70516 10.1006 4.58128 10.1006 4.86716Z" fill="black"/>
<path d="M26.8432 4.94363C26.7003 5.08657 26.5859 5.28668 26.5859 5.42008C26.5859 5.66784 27.0243 6.13477 27.253 6.13477C27.5388 6.12524 27.8628 5.7536 27.8628 5.42008C27.8628 5.20092 27.7961 5.03892 27.6341 4.90551C27.3197 4.64823 27.1577 4.65776 26.8432 4.94363ZM27.5198 5.28668C27.5484 5.5249 27.3387 5.84889 27.1577 5.84889C27.11 5.84889 27.0243 5.76313 26.9671 5.64878C26.8813 5.49632 26.8909 5.40103 27.0147 5.21997C27.2053 4.91504 27.4817 4.95316 27.5198 5.28668Z" fill="black"/>
<path d="M9.26196 5.61061C9.09044 5.75354 8.95703 5.90601 8.95703 5.95365C8.95703 6.0013 9.13808 6.22047 9.35725 6.43011L9.767 6.8208L10.0719 6.4587C10.434 6.04895 10.4436 5.97271 10.2149 5.68684C9.94806 5.34379 9.60501 5.31521 9.26196 5.61061ZM9.91947 5.86789C10.1291 6.10612 10.1386 6.17282 9.98617 6.30623C9.82418 6.43964 9.30008 6.0013 9.37631 5.80119C9.45254 5.59155 9.71936 5.62967 9.91947 5.86789Z" fill="black"/>
<path d="M27.8817 6.1441C27.6149 6.42044 27.5387 6.55385 27.6149 6.63008C27.7007 6.71585 27.7769 6.69679 27.9008 6.58244C28.1676 6.34421 28.2153 6.38233 28.1867 6.81114C28.1486 7.29712 28.3677 7.44006 28.4535 7.00172C28.5011 6.77302 28.5678 6.70632 28.7298 6.70632C28.9109 6.70632 29.0634 6.55385 29.0634 6.3728C29.0634 6.28704 28.463 5.75341 28.3677 5.75341C28.301 5.75341 28.0914 5.93446 27.8817 6.1441ZM28.6822 6.27751C28.6822 6.35374 28.625 6.42044 28.5488 6.42044C28.4725 6.42044 28.3963 6.35374 28.3582 6.27751C28.3201 6.18222 28.3677 6.13457 28.4916 6.13457C28.5964 6.13457 28.6822 6.20128 28.6822 6.27751Z" fill="black"/>
<path d="M8.52913 6.52514C8.48148 6.59184 8.59583 6.76336 8.80547 6.96347C9.08181 7.23029 9.12946 7.32558 9.0437 7.4304C8.8817 7.62098 8.70065 7.59239 8.40525 7.32558C8.10985 7.04923 8.04314 7.03971 7.96691 7.23029C7.93832 7.32558 8.0622 7.46851 8.33854 7.6591C8.74829 7.94497 8.77688 7.94497 9.00558 7.7925C9.28192 7.61145 9.41533 7.22076 9.27239 7.01112C9.10087 6.72525 8.59583 6.40126 8.52913 6.52514Z" fill="black"/>
<path d="M29.6355 7.50652C29.6355 7.58275 29.6927 7.65898 29.7499 7.67804C29.8166 7.70663 29.6927 7.84957 29.4735 8.00203C29.0638 8.2879 28.9494 8.5166 29.2163 8.5166C29.302 8.5166 29.4735 8.43084 29.6069 8.32602C29.8738 8.12591 30.112 8.07826 30.112 8.23073C30.112 8.27837 30.1787 8.32602 30.2549 8.32602C30.3788 8.32602 30.3788 8.2879 30.2359 8.03062C30.1406 7.86862 30.0262 7.64946 29.9691 7.55417C29.8642 7.34453 29.6355 7.31594 29.6355 7.50652Z" fill="black"/>
<path d="M7.39478 8.09727C7.3376 8.25926 7.55677 8.67854 7.90935 9.07876C8.09993 9.30746 8.14758 9.25981 8.10946 8.86912C8.0904 8.77383 8.20475 8.64042 8.37627 8.5356C8.74791 8.32596 8.75744 8.13538 8.39533 8.13538C8.23334 8.13538 8.08087 8.08774 8.05229 8.04009C7.95699 7.88763 7.46148 7.92574 7.39478 8.09727ZM8.05229 8.32596C8.08087 8.37361 8.0904 8.45937 8.05229 8.51655C7.97605 8.64042 7.71877 8.52608 7.71877 8.36408C7.71877 8.21162 7.96652 8.18303 8.05229 8.32596Z" fill="black"/>
<path d="M30.0641 8.90764C29.559 9.17446 29.4828 9.26022 29.5971 9.37457C29.6638 9.44127 29.7782 9.4508 29.9497 9.3841C30.1594 9.29833 30.207 9.31739 30.2642 9.48892C30.3118 9.64138 30.2737 9.7462 30.1308 9.85102C29.9878 9.96537 29.9592 10.0416 30.0355 10.1178C30.1117 10.1941 30.2451 10.156 30.5024 9.98443C30.7025 9.86055 30.9122 9.75573 30.9693 9.75573C31.017 9.75573 31.0646 9.66997 31.0646 9.56515C31.0646 9.36504 30.9217 9.30786 30.8264 9.46986C30.7311 9.63185 30.5882 9.57468 30.5024 9.34598C30.4452 9.19351 30.4738 9.09822 30.6072 8.98388C30.7597 8.84094 30.7692 8.82188 30.6263 8.76471C30.4357 8.68847 30.5024 8.67894 30.0641 8.90764Z" fill="black"/>
<path d="M6.35535 9.94609C6.26959 10.1557 6.19336 10.3654 6.19336 10.4035C6.19336 10.4702 7.13674 10.8037 7.33685 10.8037C7.39402 10.8037 7.43214 10.7275 7.43214 10.6322C7.43214 10.5464 7.48931 10.3558 7.56555 10.2129C7.6799 9.99374 7.6799 9.95562 7.56555 9.90798C7.48931 9.87939 7.43214 9.89845 7.43214 9.94609C7.43214 9.99374 7.38449 10.1462 7.33685 10.2891C7.24156 10.5369 7.2225 10.5369 7.07003 10.394C6.93663 10.2606 6.93663 10.1939 7.03192 10.0414C7.17485 9.81269 7.17485 9.75551 7.05098 9.75551C6.9938 9.75551 6.90804 9.86033 6.86039 9.99374C6.71746 10.3558 6.53641 10.2891 6.60311 9.89845C6.67934 9.45058 6.56499 9.47917 6.35535 9.94609Z" fill="black"/>
<path d="M30.8739 10.2605C30.6928 10.3272 30.4546 10.4225 30.3593 10.4797C30.1783 10.5845 30.1783 10.6036 30.3307 10.9275C30.4165 11.1086 30.4927 11.3087 30.4927 11.3659C30.4927 11.4231 30.5404 11.4707 30.588 11.4707C30.7024 11.4707 30.7119 11.3564 30.5975 11.0514C30.5213 10.8799 30.5404 10.7846 30.6452 10.6988C30.7595 10.6036 30.8072 10.6321 30.9025 10.8894C31.0454 11.2897 31.1883 11.2706 31.1026 10.8513C31.0549 10.5845 31.074 10.5178 31.1979 10.5178C31.2836 10.5178 31.3503 10.594 31.3503 10.6988C31.3503 10.7941 31.417 10.9275 31.4933 10.9942C31.6648 11.1372 31.6743 11.0514 31.5028 10.5654C31.3503 10.1271 31.3218 10.1176 30.8739 10.2605Z" fill="black"/>
<path d="M6.00328 11.09C6.00328 11.1948 6.06998 11.2805 6.14622 11.2805C6.23198 11.2805 6.28915 11.3663 6.28915 11.5188C6.28915 11.7189 6.24151 11.757 6.00328 11.757C5.63165 11.757 5.61259 12.0143 5.98422 12.1C6.12716 12.1382 6.28915 12.1953 6.3368 12.2334C6.57503 12.405 6.84184 12.3954 6.88949 12.2239C6.9276 12.0905 6.88949 12.0429 6.76561 12.0429C6.5655 12.0429 6.48926 11.8904 6.55597 11.6331C6.59408 11.4997 6.66079 11.4711 6.87043 11.5188C7.09913 11.5759 7.14677 11.5474 7.14677 11.3949C7.14677 11.2424 7.06101 11.1948 6.71796 11.1471C6.48926 11.109 6.2701 11.0423 6.24151 10.9851C6.13669 10.8327 6.00328 10.8898 6.00328 11.09Z" fill="black"/>
<path d="M31.284 12.2614C30.7313 12.3662 30.5693 12.614 31.0553 12.614C31.2459 12.614 31.3412 12.6711 31.3793 12.8045C31.446 13.0618 31.6366 13.0428 31.608 12.7759C31.5985 12.6425 31.6366 12.5663 31.7319 12.5663C31.8081 12.5663 31.8844 12.6616 31.9034 12.7759C31.9225 12.8998 31.9796 12.9951 32.0368 12.9951C32.094 12.9951 32.1131 12.8998 32.0749 12.7759C32.0463 12.6616 32.0178 12.471 32.0178 12.3471C32.0178 12.1184 32.0082 12.1184 31.284 12.2614Z" fill="black"/>
<path d="M5.58401 12.7288C5.55543 12.9003 5.49825 13.1576 5.46966 13.3006C5.42202 13.5007 5.44108 13.5674 5.55543 13.5674C5.63166 13.5674 5.71742 13.4912 5.74601 13.3863C5.78412 13.2339 5.85083 13.2243 6.23199 13.2815C6.61315 13.3387 6.67033 13.3292 6.67033 13.1767C6.67033 13.0528 6.56551 12.9956 6.24152 12.9385C5.86989 12.8908 5.81271 12.8432 5.81271 12.6526C5.81271 12.3191 5.66025 12.3762 5.58401 12.7288Z" fill="black"/>
<path d="M31.4931 13.4431L31.0166 13.4812L31.0452 13.9958C31.0833 14.558 31.3025 14.6629 31.3025 14.1102C31.3025 13.6814 31.5693 13.7004 31.6455 14.1388L31.7027 14.4723L31.7218 14.1102C31.7313 13.6528 31.9695 13.6337 32.0553 14.0911C32.1315 14.4723 32.303 14.5485 32.303 14.1959C32.303 13.7957 32.1887 13.3764 32.0743 13.3955C32.0172 13.405 31.7599 13.4241 31.4931 13.4431Z" fill="black"/>
<path d="M5.33594 15.0919V15.5684H5.95533C6.50801 15.5684 6.57472 15.5493 6.57472 15.3873C6.57472 15.2539 6.49848 15.1872 6.31743 15.1681C6.13638 15.1491 6.04109 15.0728 5.99344 14.9013L5.93627 14.6631L5.89815 14.9013C5.85051 15.2253 5.58369 15.2063 5.54558 14.8727C5.4884 14.4249 5.33594 14.5869 5.33594 15.0919Z" fill="black"/>
<path d="M31.0654 15.3108C31.0654 15.8253 31.1893 15.9492 31.7039 15.9492C32.1708 15.9492 32.3042 15.7872 32.3042 15.2441V14.901H31.6848H31.0654V15.3108ZM31.9993 15.4442C31.9802 15.5585 31.8659 15.6252 31.6562 15.6443C31.3989 15.6729 31.3513 15.6443 31.3513 15.4823C31.3513 15.3203 31.4085 15.2822 31.6943 15.2822C31.9612 15.2822 32.0279 15.3108 31.9993 15.4442Z" fill="black"/>
<path d="M5.52703 15.9492C4.9934 16.4828 5.70808 17.2642 6.39417 16.9021C6.52758 16.8259 6.57523 16.702 6.57523 16.378C6.57523 16.054 6.52758 15.9301 6.39417 15.8539C6.09877 15.7014 5.73667 15.7396 5.52703 15.9492ZM6.31794 16.1779C6.4037 16.2446 6.47994 16.3304 6.47994 16.3685C6.47994 16.5209 6.19406 16.7115 5.96537 16.7115C5.65091 16.7115 5.52703 16.3494 5.77478 16.1684C5.98442 16.0159 6.09877 16.0159 6.31794 16.1779Z" fill="black"/>
<path d="M31.0364 16.5401C30.9411 16.8831 30.9602 17.3786 31.065 17.3786C31.1222 17.3786 31.1603 17.2357 31.1603 17.0546C31.1603 16.8641 31.2175 16.7116 31.2937 16.683C31.4843 16.6068 31.5415 16.6925 31.551 17.0832L31.57 17.4263L31.6653 17.0642C31.7892 16.6449 31.9798 16.6544 31.9417 17.0832C31.9321 17.2833 31.9607 17.3786 32.056 17.3786C32.1513 17.3786 32.199 17.2357 32.2275 16.9022L32.2561 16.4257H31.9607C31.7987 16.4257 31.5319 16.3971 31.3795 16.3685C31.1317 16.3209 31.0841 16.3495 31.0364 16.5401Z" fill="black"/>
<path d="M30.7785 17.7696C30.7785 17.903 30.8452 17.9507 31.0168 17.9507C31.3503 17.9507 31.3217 18.1984 30.9691 18.2651C30.5689 18.3509 30.5784 18.6272 30.9882 18.5987C31.1597 18.5891 31.3026 18.6272 31.3312 18.6939C31.3789 18.8464 31.6838 18.8464 31.8077 18.6844C31.8648 18.6272 31.9315 18.4176 31.9697 18.227C32.0268 17.9126 32.0078 17.8744 31.76 17.7792C31.6171 17.722 31.3312 17.6553 31.1406 17.6267C30.8262 17.5886 30.7785 17.6076 30.7785 17.7696ZM31.7314 18.2842C31.7314 18.4367 31.6743 18.5224 31.5885 18.5224C31.5027 18.5224 31.4456 18.4367 31.4456 18.2842C31.4456 18.1317 31.5027 18.046 31.5885 18.046C31.6743 18.046 31.7314 18.1317 31.7314 18.2842Z" fill="black"/>
<path d="M6.65067 17.9697C6.71737 18.0364 6.76502 18.1793 6.76502 18.3032C6.76502 18.5986 6.4982 18.5891 6.38385 18.2842C6.25998 17.9602 6.17421 17.9888 6.21233 18.3509C6.25045 18.7511 6.06939 18.7892 5.92646 18.408C5.76446 17.9602 5.66917 18.1603 5.81211 18.6653C5.91693 19.0465 5.96457 19.1037 6.1361 19.0465C6.25045 19.0084 6.51726 18.9417 6.74596 18.8845C7.12712 18.7987 7.24147 18.6844 7.06042 18.5796C7.01277 18.551 6.94607 18.3699 6.91748 18.1889C6.86984 17.9697 6.80313 17.8553 6.69831 17.8553C6.57444 17.8553 6.56491 17.8839 6.65067 17.9697Z" fill="black"/>
<path d="M30.4929 19.1607C30.531 19.6371 30.4929 19.761 30.35 19.761C30.2737 19.761 30.207 19.8277 30.207 19.9039C30.207 20.0183 30.3404 20.0469 30.8169 20.0469C31.3505 20.0469 31.4268 20.0183 31.4744 19.8563C31.503 19.7419 31.4744 19.6181 31.4172 19.5704C31.3505 19.5132 31.1504 19.3417 30.9694 19.1893C30.5596 18.8367 30.4738 18.8367 30.4929 19.1607ZM31.0646 19.6181C31.1695 19.7419 31.1409 19.761 30.9408 19.761C30.7597 19.761 30.7025 19.7229 30.7407 19.6181C30.7788 19.5418 30.836 19.4751 30.8741 19.4751C30.9122 19.4751 30.9979 19.5418 31.0646 19.6181Z" fill="black"/>
<path d="M6.86142 19.2848C6.86142 19.3325 6.94718 19.4659 7.052 19.5707C7.27117 19.7898 7.22352 19.9709 6.90906 20.1424C6.71848 20.2472 6.6613 20.2377 6.53743 20.1138C6.45166 20.0281 6.39449 19.8851 6.40402 19.7898C6.42308 19.6946 6.39449 19.5993 6.33732 19.5707C6.17532 19.4849 6.17532 20.1043 6.33732 20.2758C6.53743 20.4664 7.09011 20.4759 7.28069 20.2758C7.36646 20.1996 7.43316 19.9804 7.43316 19.8089C7.43316 19.5421 7.37599 19.4563 7.14729 19.3325C6.98529 19.2467 6.86142 19.2276 6.86142 19.2848Z" fill="black"/>
<path d="M29.8262 20.5522C29.8262 20.6189 29.9977 20.7714 30.2073 20.8952C30.5313 21.0763 30.579 21.143 30.5313 21.3431C30.4265 21.7529 30.6647 21.5909 30.922 21.0858C31.1793 20.5617 31.1698 20.3997 30.8934 20.6475C30.7314 20.7999 30.6933 20.7999 30.3217 20.6189C29.8548 20.3902 29.8262 20.3902 29.8262 20.5522Z" fill="black"/>
<path d="M7.22302 20.7427C6.92762 20.8761 6.76562 21.0095 6.76562 21.1239C6.76562 21.2573 6.81327 21.2859 6.96574 21.2382C7.33737 21.1144 7.81382 20.7904 7.81382 20.657C7.81382 20.4854 7.75665 20.495 7.22302 20.7427Z" fill="black"/>
<path d="M29.3496 21.4099C29.3496 21.5433 30.1405 22.0483 30.3502 22.0483C30.4264 22.0483 30.4931 21.9816 30.4931 21.9054C30.4931 21.8292 30.4264 21.7625 30.3502 21.7625C30.2739 21.7625 30.2072 21.7244 30.2072 21.6862C30.2072 21.61 29.5592 21.286 29.4163 21.286C29.3782 21.286 29.3496 21.3432 29.3496 21.4099Z" fill="black"/>
<path d="M7.57538 21.7051C7.81361 22.0672 7.55633 22.1434 7.26092 21.8004L7.03223 21.524L7.09893 21.8099C7.12752 21.9624 7.20375 22.1053 7.2514 22.1244C7.29904 22.1434 7.33716 22.2196 7.33716 22.2959C7.33716 22.4865 7.44198 22.4674 7.94702 22.1815C8.25195 22.01 8.38536 21.8766 8.38536 21.7337C8.38536 21.5812 8.35677 21.5621 8.27101 21.6479C8.10901 21.8099 7.82314 21.7908 7.75644 21.6193C7.71832 21.5431 7.63256 21.4764 7.56585 21.4764C7.45151 21.4764 7.45151 21.5145 7.57538 21.7051Z" fill="black"/>
<path d="M28.911 22.2099C28.4441 22.5911 28.568 23.2391 29.1302 23.3439C29.7496 23.4583 30.1879 22.6959 29.7305 22.3052C29.4446 22.0575 29.1397 22.0289 28.911 22.2099ZM29.5399 22.5721C29.6829 22.7436 29.6257 23.039 29.4351 23.0771C29.2064 23.1152 28.8252 22.7722 28.9015 22.5911C28.9777 22.391 29.3779 22.3815 29.5399 22.5721Z" fill="black"/>
<path d="M8.29985 22.8199C8.4809 23.1725 8.24268 23.2583 7.96633 22.9438C7.6614 22.6008 7.64235 22.7818 7.93775 23.2297C8.16645 23.6013 8.24268 23.6299 8.42373 23.4488C8.54761 23.3345 8.78584 23.163 9.04312 23.0105C9.11935 22.9629 9.14794 22.858 9.10982 22.7628C9.05265 22.6103 9.03359 22.6103 8.82395 22.7532C8.62384 22.8771 8.5762 22.8771 8.4809 22.7628C8.29985 22.5531 8.17597 22.5912 8.29985 22.8199Z" fill="black"/>
<path d="M9.13858 23.249C9.06235 23.2776 8.91941 23.4205 8.82412 23.573C8.67166 23.8493 8.67166 23.8684 8.83365 24.1447C9.10999 24.6212 9.60551 24.6402 9.93902 24.1924C10.2821 23.7159 9.73891 23.087 9.13858 23.249ZM9.75797 23.7159C9.81515 23.8779 9.51022 24.24 9.30058 24.24C9.23387 24.24 9.11952 24.1733 9.05282 24.0971C8.95753 23.9732 8.95753 23.916 9.10047 23.7636C9.30058 23.5349 9.67221 23.5158 9.75797 23.7159Z" fill="black"/>
<path d="M28.0634 23.2869C28.0348 23.3345 28.092 23.4489 28.2064 23.5442C28.4922 23.7919 28.4446 23.8586 27.9777 23.8586C27.7394 23.8586 27.5203 23.9063 27.4917 23.9634C27.425 24.0587 28.1397 24.8115 28.3017 24.8115C28.4827 24.8115 28.4922 24.6209 28.3017 24.4589C28.0063 24.2017 28.073 24.1159 28.5399 24.1826C29.1307 24.2779 29.2069 24.0683 28.7305 23.649C28.2635 23.2392 28.1397 23.1725 28.0634 23.2869Z" fill="black"/>
<path d="M25.7564 25.2881C25.4896 25.4024 25.3467 25.6692 25.3467 26.079C25.3467 26.5745 25.623 26.8604 26.109 26.8604C27.1572 26.8604 27.2811 25.4119 26.2519 25.2404C26.0899 25.2214 25.8708 25.2404 25.7564 25.2881ZM26.4711 25.5358C26.7951 25.755 26.7379 26.3839 26.3758 26.6031C26.1281 26.746 26.0995 26.746 25.8517 26.565C25.4134 26.241 25.4515 25.6406 25.9184 25.45C26.1567 25.3643 26.2424 25.3738 26.4711 25.5358Z" fill="black"/>
<path d="M11.5675 25.4498C11.215 25.6308 11.0625 25.8595 11.0625 26.193C11.0625 26.5361 11.1959 26.7362 11.5771 26.9363C11.8248 27.0602 11.9106 27.0602 12.1488 26.9554C12.7682 26.6885 12.9397 26.1168 12.549 25.6594C12.2918 25.3545 11.9011 25.2687 11.5675 25.4498ZM12.4061 25.7928C12.4537 25.85 12.4728 26.0596 12.4633 26.2407C12.4442 26.4884 12.368 26.6028 12.1774 26.7171C11.9392 26.841 11.882 26.841 11.6533 26.7171C11.2817 26.5075 11.2245 25.9453 11.5485 25.7166C11.7867 25.5451 12.2727 25.5832 12.4061 25.7928Z" fill="black"/>
<path d="M22.4506 27.4035C22.3172 28.2897 22.3172 28.4326 22.422 28.4326C22.4887 28.4326 22.5936 28.3469 22.6603 28.2325C22.7651 28.0705 22.8413 28.0419 23.1653 28.0991C23.375 28.1372 23.5369 28.1277 23.5369 28.0705C23.5369 28.0229 23.3845 27.7846 23.2034 27.5369C22.7937 27.0033 22.5173 26.9556 22.4506 27.4035ZM22.908 27.6417C22.9938 27.8513 22.7937 28.0515 22.6889 27.8704C22.5936 27.7275 22.6507 27.4797 22.7746 27.4797C22.8127 27.4797 22.8794 27.5559 22.908 27.6417Z" fill="black"/>
<path d="M15.1134 27.6416C14.98 28.4992 15.1229 28.8232 15.3802 28.2133L15.5136 27.9084L15.6661 28.2609C15.7709 28.5087 15.8852 28.623 16.0091 28.623C16.2378 28.623 16.2569 28.5659 16.3331 27.8798C16.3807 27.4319 16.3617 27.3843 16.1997 27.3843C16.0472 27.3843 16.0091 27.451 16.0091 27.7273C16.0091 28.0227 15.99 28.0608 15.8662 27.956C15.7899 27.8893 15.7232 27.7845 15.7232 27.7178C15.7232 27.5844 15.4183 27.289 15.2754 27.289C15.2182 27.289 15.1515 27.451 15.1134 27.6416Z" fill="black"/>
<path d="M21.5734 27.6416C21.6019 27.8417 21.6305 28.1181 21.6305 28.261C21.6305 28.4611 21.6782 28.5278 21.8211 28.5278C22.0022 28.5278 22.0117 28.4897 21.9641 28.0228C21.8783 27.3558 21.8497 27.2891 21.6686 27.2891C21.5352 27.2891 21.5162 27.3558 21.5734 27.6416Z" fill="black"/>
<path d="M20.3544 27.4509C20.0875 27.489 20.0875 27.5081 20.1447 27.9273C20.1733 28.1656 20.2019 28.4419 20.2019 28.5372C20.2019 28.6516 20.2686 28.7183 20.3829 28.7183C20.5259 28.7183 20.5545 28.6706 20.5164 28.5182C20.4496 28.2704 20.6593 28.1179 20.8403 28.2895C20.907 28.3657 20.9642 28.461 20.9642 28.5182C20.9642 28.5753 21.069 28.623 21.2024 28.623C21.4121 28.623 21.4311 28.5944 21.3454 28.4419C21.2977 28.3371 21.2024 28.2418 21.1453 28.2227C21.069 28.1942 21.069 28.1275 21.1643 27.975C21.4216 27.5652 21.069 27.3365 20.3544 27.4509ZM20.9642 27.813C20.9642 27.8988 20.8785 27.9559 20.726 27.9559C20.5735 27.9559 20.4878 27.8988 20.4878 27.813C20.4878 27.7272 20.5735 27.6701 20.726 27.6701C20.8785 27.6701 20.9642 27.7272 20.9642 27.813Z" fill="black"/>
<path d="M16.7425 27.6129C16.7044 27.6987 16.6567 27.975 16.6186 28.2418C16.5614 28.6801 16.571 28.7183 16.7615 28.7183C16.9426 28.7183 16.9616 28.6611 16.9616 28.1942C16.9616 27.9083 16.9616 27.6415 16.9712 27.6034C16.9807 27.4604 16.7901 27.4795 16.7425 27.6129Z" fill="black"/>
<path d="M17.6673 27.5939C17.3529 27.7369 17.1909 28.099 17.3052 28.4039C17.4958 28.9661 18.2962 29.0709 18.4964 28.5564C18.6012 28.2705 18.6107 28.2895 18.2772 28.2038C18.1152 28.1657 18.0104 28.1847 18.0104 28.2419C18.0104 28.2895 18.0771 28.3372 18.1533 28.3372C18.2295 28.3372 18.2962 28.4039 18.2962 28.4897C18.2962 28.5945 18.22 28.6231 17.9913 28.604C17.715 28.5754 17.6769 28.5373 17.6483 28.28C17.6102 27.8893 17.8293 27.6987 18.1628 27.8512C18.4678 27.9846 18.4868 27.9846 18.4868 27.8226C18.4868 27.7273 17.9532 27.4319 17.877 27.4891C17.8674 27.4891 17.7721 27.5367 17.6673 27.5939Z" fill="black"/>
<path d="M19.1052 27.5655L18.8193 27.6227L18.8479 28.2421C18.867 28.5851 18.8956 28.871 18.8956 28.871C18.9051 28.8805 19.1433 28.8615 19.4197 28.8424C19.7151 28.8138 19.9152 28.7471 19.9152 28.6709C19.9152 28.6042 19.8104 28.5756 19.6198 28.6042C19.4292 28.6328 19.2958 28.6042 19.2481 28.5184C19.1338 28.3374 19.2196 28.2421 19.4959 28.2421C19.8389 28.2421 19.7722 28.0706 19.4197 28.0324C19.029 27.9943 19.048 27.8323 19.4387 27.7656C19.6007 27.737 19.7437 27.6703 19.7532 27.6227C19.7722 27.5083 19.4864 27.4798 19.1052 27.5655Z" fill="black"/>
<path d="M5.41252 28.3659C4.7836 28.9662 3.53529 29.1663 1.69618 28.9662C1.18161 28.909 0.952908 28.9185 0.952908 28.9853C0.952908 29.0424 1.2769 29.1091 1.66759 29.1472C2.05828 29.1854 2.38227 29.2521 2.38227 29.2902C2.38227 29.3378 2.72532 29.4045 3.1446 29.4426C3.56387 29.4712 3.90692 29.5475 3.90692 29.5856C3.90692 29.6332 3.97362 29.6713 4.04986 29.6713C4.12609 29.6713 4.19279 29.719 4.19279 29.7762C4.19279 29.8429 4.12609 29.8524 4.0308 29.8048C3.93551 29.7666 3.47811 29.6713 3.00166 29.6046C2.53473 29.5284 2.07734 29.4331 1.99158 29.3855C1.91534 29.3474 1.55324 29.2807 1.21019 29.2425C0.857617 29.2044 0.571745 29.1377 0.571745 29.0901C0.571745 28.9662 0.114349 28.9853 0.0381163 29.1091C-0.0952908 29.3378 0.0476454 29.3855 1.82958 29.6999C2.17263 29.7666 2.49662 29.8524 2.53473 29.8905C2.63003 29.9858 1.35313 29.8715 1.14349 29.7666C1.06726 29.7285 0.800442 29.6713 0.562216 29.6332L0.123878 29.5665L0.0667035 30.872C0.0285872 31.5962 0 32.5682 0 33.0542V33.9308L0.285872 33.8832C0.447867 33.8641 0.628919 33.8832 0.695623 33.9404C0.752797 33.9975 1.12443 34.0738 1.50559 34.1119C1.96299 34.15 2.2298 34.2262 2.25839 34.312C2.31557 34.4645 2.14404 34.9123 1.83911 35.4078C1.54371 35.8843 1.55324 35.9987 1.87723 35.9129C2.26792 35.8081 2.60144 35.8271 3.71634 35.9987C5.079 36.2083 6.04143 36.3893 6.718 36.5799C7.41362 36.761 9.2432 37.1326 10.482 37.3232C13.8076 37.8568 18.8295 38.1808 20.4113 37.9712C20.8687 37.914 21.9645 37.8187 22.8412 37.7806C23.7274 37.7329 24.6994 37.6472 25.0138 37.59C25.3283 37.5328 26.0144 37.4185 26.5385 37.3423C27.4152 37.1993 28.1203 37.0754 29.5401 36.8182C29.826 36.7705 30.3406 36.6562 30.6836 36.5704C32.0844 36.2369 33.59 36.0654 35.1432 36.0558H36.6965L36.3915 35.5031C36.2295 35.2077 36.0294 34.8933 35.9532 34.8075C35.8865 34.7218 35.8484 34.5883 35.877 34.5026C35.9151 34.4264 35.8865 34.3311 35.8389 34.2929C35.6769 34.1977 35.8103 34.0547 36.0676 34.0547C36.1914 34.0547 36.3153 34.0166 36.3534 33.969C36.382 33.9118 36.6012 33.8451 36.8299 33.807C37.0681 33.7784 37.2587 33.7117 37.2587 33.6736C37.2587 33.6354 37.4493 33.5687 37.6875 33.5402C37.9162 33.502 38.1354 33.4353 38.164 33.3972C38.183 33.3496 38.4022 33.2829 38.6404 33.2543L39.0692 33.1876V31.4247C39.0692 30.1383 39.0406 29.6809 38.9644 29.7285C38.9072 29.7666 38.5261 29.8524 38.1258 29.9286C37.7256 30.0049 37.1062 30.1287 36.7346 30.205C35.4196 30.4813 35.2099 30.5194 34.9908 30.5194C34.5429 30.5385 34.8955 30.3574 35.4482 30.2907C35.7626 30.2526 36.039 30.1859 36.0676 30.1478C36.0961 30.1097 36.3725 30.043 36.6869 30.0049C37.0014 29.9667 37.2587 29.9 37.2587 29.8619C37.2587 29.8238 37.516 29.7571 37.8304 29.719C38.1449 29.6809 38.4308 29.6142 38.4594 29.5665C38.4879 29.5189 38.6309 29.4808 38.7929 29.4808C39.0025 29.4808 39.0692 29.4331 39.0692 29.3092C39.0692 29.1472 39.0216 29.1377 38.5261 29.214C38.2211 29.2521 37.8876 29.3283 37.7828 29.3759C37.678 29.4331 37.2968 29.5189 36.9252 29.5761C36.5631 29.6332 36.1533 29.7095 36.0199 29.7571C35.2671 30.0144 34.3237 30.1669 34.1522 30.0716C33.9902 29.9763 34.0093 29.9667 34.2856 29.9572C34.4476 29.9572 34.5905 29.9191 34.5905 29.8715C34.5905 29.8238 34.8669 29.7571 35.2099 29.719C35.553 29.6904 35.8293 29.6237 35.8293 29.5761C35.8293 29.5379 36.1343 29.4712 36.4964 29.4426C36.868 29.4045 37.1634 29.3378 37.1634 29.2997C37.1634 29.2521 37.4397 29.1854 37.7828 29.1472C38.1258 29.1187 38.4022 29.052 38.4022 29.0043C38.4022 28.9567 38.5451 28.8995 38.7166 28.8804C38.8786 28.8518 38.5546 28.8614 37.9734 28.8804C37.4016 28.8995 36.7441 28.9662 36.525 29.0234C35.9437 29.1663 34.5238 28.9662 34.2666 28.7089C34.2094 28.6613 34.1046 28.6231 34.0283 28.6231C33.9426 28.6231 33.752 28.5469 33.59 28.4516C33.3613 28.3182 33.085 28.2896 32.1416 28.2992C31.5031 28.2992 30.9219 28.3468 30.8551 28.404C30.7884 28.4612 30.6074 28.5279 30.4645 28.566C30.1309 28.6422 29.0446 29.4426 28.8255 29.7762C28.6539 30.0239 28.1489 30.2336 27.2055 30.4337C26.9482 30.4908 26.4337 30.6052 26.062 30.6814C25.1186 30.8911 24.0895 31.0721 23.2033 31.196C22.784 31.2532 22.1646 31.3485 21.8216 31.4056C20.9926 31.5581 16.7616 31.5581 15.7706 31.4152C15.3513 31.3485 14.3698 31.2055 13.5789 31.1007C12.7975 30.9864 12.0066 30.853 11.8351 30.8053C11.4825 30.691 10.3867 29.9667 10.3867 29.8429C10.3867 29.8048 10.32 29.7666 10.2438 29.7666C10.1675 29.7666 10.1008 29.7285 10.1008 29.6809C10.1008 29.6332 9.97694 29.5475 9.81495 29.4808C9.66248 29.4141 9.52908 29.3283 9.52908 29.2807C9.52908 29.233 9.48143 29.1949 9.41473 29.1949C9.35755 29.1949 9.23368 29.1377 9.15744 29.0615C8.98592 28.9185 8.15689 28.5946 7.57562 28.4421C6.92764 28.2801 5.55545 28.2229 5.41252 28.3659ZM32.8563 29.7666C33.4566 29.881 33.7139 30.0906 33.7901 30.529C33.8759 31.0626 34.1236 32.0727 34.2094 32.2347C34.257 32.3204 34.3714 32.5587 34.4762 32.7683C34.9431 33.7212 35.896 35.3602 36.0294 35.446C36.0771 35.4746 36.1152 35.5508 36.1152 35.627C36.1152 35.7414 35.8674 35.7509 34.6668 35.7033C33.1707 35.6461 33.085 35.6556 31.3507 36.1035C30.2358 36.3798 29.5687 36.5323 28.9684 36.6371C28.6253 36.6943 27.9869 36.7991 27.539 36.8753C27.0912 36.9516 26.2907 37.0754 25.7476 37.1517C25.2044 37.2279 24.728 37.3137 24.6803 37.3423C24.6422 37.3708 23.8989 37.4375 23.0413 37.4852C22.1932 37.5424 20.9735 37.6281 20.3446 37.6758C19.163 37.7806 17.2572 37.7425 15.5324 37.5805C12.6927 37.3137 12.464 37.2851 9.86259 36.8753C8.84298 36.7133 8.30935 36.6085 6.57506 36.2178C4.3262 35.7128 3.45905 35.5413 2.79202 35.4936L2.10593 35.4364L2.40133 34.96C2.76343 34.3787 3.62105 32.7207 3.62105 32.5968C3.62105 32.5491 3.67822 32.3776 3.74493 32.2156C3.82116 32.0441 3.95457 31.6534 4.04986 31.3389C4.26903 30.5861 4.4882 30.0525 4.65019 29.9C4.80265 29.738 5.9652 29.7285 6.52742 29.8715C6.73706 29.9286 7.12775 30.0144 7.38503 30.062C7.65185 30.1097 7.94725 30.1954 8.05207 30.2431C8.15689 30.2907 8.43323 30.3574 8.67146 30.3956C8.90016 30.4241 9.15744 30.4908 9.2432 30.5385C9.4719 30.6624 11.0918 31.0054 12.3402 31.196C12.7118 31.2532 13.2359 31.3485 13.5218 31.3961C13.7981 31.4533 14.3794 31.539 14.8082 31.5772C15.2275 31.6248 16.0565 31.7106 16.6282 31.7677C17.8194 31.9011 20.8687 31.844 22.0598 31.6725C24.0704 31.3866 26.0811 31.0054 27.4437 30.6719C27.7868 30.5861 28.3014 30.4813 28.5872 30.4241C28.8731 30.3765 29.178 30.2907 29.2543 30.2526C29.34 30.205 29.5973 30.1383 29.826 30.1097C30.0642 30.0716 30.3406 30.0049 30.4454 29.9572C30.9314 29.7285 32.1702 29.6332 32.8563 29.7666ZM3.64964 30.0525C3.79257 30.0525 3.90692 30.0906 3.90692 30.1383C3.90692 30.2336 3.08742 30.1573 2.81108 30.0335C2.67767 29.9763 2.73484 29.9667 3.00166 30.0049C3.2113 30.0239 3.49717 30.0525 3.64964 30.0525ZM34.6858 30.6243C34.6858 30.6719 34.6001 30.7195 34.4953 30.7195C34.3904 30.7195 34.3047 30.6719 34.3047 30.6243C34.3047 30.5671 34.3904 30.529 34.4953 30.529C34.6001 30.529 34.6858 30.5671 34.6858 30.6243ZM38.8786 32.7111C38.8786 32.7588 38.7357 32.835 38.5737 32.8636C38.4022 32.9017 38.2211 32.9684 38.164 33.0065C38.0115 33.1209 37.354 33.2162 37.354 33.1209C37.354 33.0637 37.5446 32.997 37.7828 32.9684C38.021 32.9303 38.2116 32.8636 38.2116 32.8159C38.2116 32.7683 38.3259 32.7111 38.4784 32.6921C38.6213 32.673 38.7643 32.6444 38.8119 32.6349C38.85 32.6349 38.8786 32.6635 38.8786 32.7111ZM37.211 33.2829C37.0776 33.4067 36.3248 33.5211 36.4487 33.4067C36.5059 33.3496 36.6488 33.2924 36.7822 33.2638C37.2015 33.1876 37.2968 33.1971 37.211 33.2829ZM1.30548 33.5116C1.67712 33.5783 2.02016 33.664 2.06781 33.7021C2.17263 33.8165 0.838559 33.6736 0.714681 33.5687C0.667035 33.5211 0.505041 33.483 0.362105 33.483C0.219169 33.483 0.0952908 33.4353 0.0952908 33.3782C0.0952908 33.3115 0.190582 33.2924 0.362105 33.34C0.505041 33.3686 0.92432 33.4544 1.30548 33.5116ZM36.2581 33.5687C36.1247 33.6926 35.4672 33.8165 35.5911 33.6926C35.6864 33.5973 35.9437 33.5116 36.2105 33.4925C36.2867 33.483 36.3058 33.5116 36.2581 33.5687ZM2.49662 33.8832C2.41086 33.969 2.35368 33.969 2.26792 33.8832C2.18216 33.7974 2.20122 33.7688 2.38227 33.7688C2.56332 33.7688 2.58238 33.7974 2.49662 33.8832Z" fill="black"/>
<path d="M31.6464 32.3011C31.6464 32.4059 31.675 32.4345 31.7036 32.3583C31.7322 32.2916 31.7226 32.2058 31.694 32.1772C31.6655 32.1391 31.6369 32.1963 31.6464 32.3011Z" fill="black"/>
<path d="M31.9792 32.2921C32.0173 32.3683 32.0745 32.435 32.1222 32.435C32.1698 32.435 32.2079 32.5779 32.2174 32.7399C32.2174 33.0353 32.227 33.0448 32.3223 32.8352C32.3985 32.6827 32.3985 32.5589 32.3223 32.3873C32.2079 32.1301 31.8839 32.0443 31.9792 32.2921Z" fill="black"/>
<path d="M5.11748 32.4062C5.07937 32.4348 5.05078 32.5968 5.05078 32.7588L5.06031 33.0542L5.19372 32.816C5.39383 32.4539 5.34618 32.1775 5.11748 32.4062Z" fill="black"/>
<path d="M5.9652 32.4922C5.8985 32.6637 5.88897 33.1592 5.95567 33.0925C5.97473 33.0639 6.06049 32.8829 6.14626 32.6923C6.27013 32.3969 6.27013 32.3397 6.15578 32.3397C6.07955 32.3397 5.99379 32.4064 5.9652 32.4922Z" fill="black"/>
<path d="M6.47969 32.4728C6.47969 32.5491 6.43204 32.6253 6.37487 32.6444C6.28911 32.673 6.28911 32.7397 6.37487 32.8921C6.53686 33.1875 6.64168 33.1494 6.59404 32.8159C6.56545 32.6348 6.59404 32.53 6.66074 32.53C6.72744 32.53 6.7465 32.4824 6.71791 32.4347C6.63215 32.2918 6.47969 32.3204 6.47969 32.4728Z" fill="black"/>
<path d="M30.2933 32.7208C30.1789 33.102 30.2266 33.3211 30.3886 33.1401C30.5029 33.0162 30.5887 32.3396 30.4934 32.3396C30.4457 32.3396 30.3505 32.5112 30.2933 32.7208Z" fill="black"/>
<path d="M30.7793 32.4348C30.7793 32.4824 30.846 32.5015 30.9222 32.4729C30.9985 32.4348 31.0652 32.3967 31.0652 32.3776C31.0652 32.3585 30.9985 32.3395 30.9222 32.3395C30.846 32.3395 30.7793 32.3776 30.7793 32.4348Z" fill="black"/>
<path d="M31.1034 32.6733C31.0367 33.0354 31.0843 33.1592 31.2463 33.0544C31.3797 32.9782 31.3893 32.3397 31.2559 32.3397C31.2082 32.3397 31.1415 32.4922 31.1034 32.6733Z" fill="black"/>
<path d="M7.59536 32.5012C7.5763 32.5489 7.52865 32.6918 7.49054 32.8347C7.44289 33.0349 7.46195 33.1016 7.56677 33.1016C7.69065 33.1016 7.81453 32.8347 7.81453 32.5489C7.81453 32.425 7.66206 32.3869 7.59536 32.5012Z" fill="black"/>
<path d="M8.36649 32.5016C8.4332 32.5302 8.54755 32.6922 8.62378 32.8733C8.70001 33.0543 8.80483 33.1973 8.85248 33.1973C8.98588 33.1973 8.98588 33.1687 8.7953 32.7685C8.69048 32.5398 8.57613 32.4349 8.44273 32.4445C8.32838 32.4445 8.29979 32.4731 8.36649 32.5016Z" fill="black"/>
<path d="M29.3496 32.8636C29.3496 33.321 29.483 33.4353 29.5783 33.0732C29.6736 32.7016 29.645 32.4348 29.4925 32.4348C29.3877 32.4348 29.3496 32.5491 29.3496 32.8636Z" fill="black"/>
<path d="M28.8444 32.5968C28.8158 32.6445 28.7682 32.8446 28.7301 33.0447C28.6729 33.3401 28.6824 33.4068 28.7873 33.3687C28.9302 33.321 29.0827 32.6445 28.9588 32.5682C28.9207 32.5492 28.8635 32.5587 28.8444 32.5968Z" fill="black"/>
<path d="M9.5293 32.8064C9.5293 32.9017 9.596 33.0065 9.67223 33.0446C9.74847 33.0732 9.81517 33.1685 9.81517 33.2638C9.81517 33.4162 9.8247 33.4162 9.98669 33.2542C10.1201 33.1113 10.1201 33.0732 10.0153 33.0351C9.94858 33.0065 9.80564 32.9017 9.71035 32.8064C9.5293 32.6253 9.5293 32.6253 9.5293 32.8064Z" fill="black"/>
<path d="M28.1875 32.7397C28.1303 33.2352 28.1494 33.3877 28.2637 33.3877C28.3495 33.3877 28.3971 33.2829 28.3971 33.1018C28.3971 32.9398 28.3971 32.7874 28.4066 32.7492C28.4066 32.7111 28.3685 32.6635 28.3113 32.6444C28.2542 32.6254 28.197 32.6635 28.1875 32.7397Z" fill="black"/>
<path d="M10.4344 33.0255C10.3677 33.197 10.3296 33.359 10.3487 33.3781C10.4154 33.4448 10.6441 33.1684 10.7203 32.9302C10.8156 32.5967 10.5869 32.6729 10.4344 33.0255Z" fill="black"/>
<path d="M11.0245 32.911C10.996 33.0349 11.0245 33.1016 11.1008 33.1016C11.3009 33.1016 11.3581 32.9491 11.2056 32.8252C11.1008 32.7395 11.0627 32.7585 11.0245 32.911Z" fill="black"/>
<path d="M27.6538 33.035C27.5108 33.4353 27.5108 33.4829 27.6728 33.4829C27.7776 33.4829 27.9206 33.1017 27.9206 32.8063C27.9206 32.6062 27.7586 32.7492 27.6538 33.035Z" fill="black"/>
<path d="M25.9479 32.8924C25.8907 32.9306 25.8145 33.1211 25.7763 33.3213C25.7192 33.5976 25.7382 33.6738 25.8526 33.6738C25.9383 33.6738 26.005 33.5404 26.0432 33.2736C26.1003 32.8162 26.1003 32.7972 25.9479 32.8924Z" fill="black"/>
<path d="M26.9675 32.8635C26.8913 33.4257 26.8913 33.4829 27.0247 33.4829C27.1009 33.4829 27.1581 33.4067 27.1486 33.3114C27.139 33.1113 26.9866 32.7301 26.9675 32.8635Z" fill="black"/>
<path d="M11.7594 32.9875C11.6069 33.0828 11.5116 33.4544 11.6165 33.5211C11.7308 33.5973 11.9404 33.2448 11.8928 33.0542C11.8737 32.978 11.8166 32.9494 11.7594 32.9875Z" fill="black"/>
<path d="M12.3876 33.0926C12.3876 33.1974 12.3495 33.3117 12.2923 33.3403C12.1494 33.4261 12.178 33.6738 12.3305 33.6738C12.3972 33.6738 12.4829 33.5404 12.521 33.3784C12.5973 32.9782 12.5973 32.9115 12.4829 32.9115C12.4353 32.9115 12.3876 32.9973 12.3876 33.0926Z" fill="black"/>
<path d="M24.6046 32.978C24.8333 33.4449 24.9191 33.5783 25.0239 33.6164C25.2526 33.7022 25.1668 33.3877 24.9095 33.1495C24.6523 32.9113 24.5379 32.8541 24.6046 32.978Z" fill="black"/>
<path d="M25.49 33.0063C25.4614 33.0635 25.4995 33.073 25.5757 33.0444C25.7472 32.9777 25.7758 32.911 25.6424 32.911C25.5853 32.911 25.5185 32.9492 25.49 33.0063Z" fill="black"/>
<path d="M12.8644 33.1783C12.6929 33.3689 12.731 33.6738 12.9216 33.6738C13.0836 33.6738 13.1026 33.5214 12.9502 33.4261C12.8739 33.3784 12.893 33.3308 12.9978 33.2736C13.1503 33.1878 13.2075 32.9973 13.0836 33.0163C13.0359 33.0163 12.9407 33.0926 12.8644 33.1783Z" fill="black"/>
<path d="M13.4831 33.3493C13.3116 33.7781 13.3116 33.7685 13.4831 33.7685C13.5594 33.7685 13.6261 33.6828 13.6261 33.578C13.6261 33.4731 13.6737 33.3874 13.7309 33.3874C13.7785 33.3874 13.7976 33.3397 13.7595 33.2826C13.7309 33.2254 13.7595 33.1396 13.8262 33.092C13.931 33.0253 13.9215 33.0062 13.7976 33.0062C13.6928 33.0062 13.5689 33.1396 13.4831 33.3493Z" fill="black"/>
<path d="M14.7124 33.1112C14.741 33.1874 14.7982 33.3208 14.8268 33.4066C14.8649 33.5019 14.9221 33.5781 14.9697 33.5781C15.0174 33.5781 15.0555 33.6544 15.0555 33.7401C15.0555 33.8831 15.0745 33.8926 15.1508 33.7687C15.2079 33.6734 15.1794 33.54 15.0555 33.3399C14.8744 33.054 14.5981 32.873 14.7124 33.1112Z" fill="black"/>
<path d="M23.184 33.3588C23.2126 33.8352 23.3841 33.8543 23.4223 33.3874C23.4413 33.111 23.4127 33.0062 23.3079 33.0062C23.2126 33.0062 23.1745 33.111 23.184 33.3588Z" fill="black"/>
<path d="M29.883 33.1686C29.8259 33.302 29.8354 33.3115 29.9307 33.2257C29.9974 33.159 30.026 33.0828 29.9974 33.0542C29.9688 33.0256 29.9116 33.0733 29.883 33.1686Z" fill="black"/>
<path d="M22.6027 33.4068C22.5455 33.5783 22.5074 33.7212 22.5264 33.7403C22.5836 33.807 22.8695 33.4735 22.8695 33.3401C22.8695 33.0828 22.717 33.1209 22.6027 33.4068Z" fill="black"/>
<path d="M15.7414 33.3115C15.5984 33.4545 15.5889 33.7404 15.7223 33.8166C15.7795 33.8547 15.8176 33.7689 15.8176 33.6355C15.8176 33.5021 15.8652 33.3878 15.9129 33.3878C15.9701 33.3878 16.0082 33.3401 16.0082 33.2925C16.0082 33.1591 15.8843 33.1686 15.7414 33.3115Z" fill="black"/>
<path d="M17.0098 33.5783C17.0098 33.8261 17.0479 33.9595 17.1241 33.9595C17.2003 33.9595 17.248 33.8261 17.248 33.5783C17.248 33.3306 17.2003 33.1971 17.1241 33.1971C17.0479 33.1971 17.0098 33.3306 17.0098 33.5783Z" fill="black"/>
<path d="M19.0204 33.3115C18.887 33.7498 18.8775 33.9595 18.9823 33.9595C19.0585 33.9595 19.1157 33.807 19.1348 33.5783C19.1538 33.2162 19.0967 33.0637 19.0204 33.3115Z" fill="black"/>
<path d="M19.706 33.2637C19.4963 33.3113 19.4677 33.8164 19.6678 33.8926C19.7536 33.9307 19.7822 33.8926 19.7536 33.7687C19.725 33.6734 19.7536 33.5114 19.8108 33.3971C19.8775 33.2827 19.9061 33.2065 19.8965 33.2065C19.8775 33.216 19.7917 33.2351 19.706 33.2637Z" fill="black"/>
<path d="M20.849 33.3021C20.6584 33.4069 20.6203 33.7214 20.7728 33.8167C20.83 33.8453 20.8681 33.7786 20.8681 33.6547C20.8681 33.5308 20.9157 33.3783 20.9824 33.3116C21.1254 33.1687 21.0682 33.1687 20.849 33.3021Z" fill="black"/>
<path d="M21.9169 33.3403C21.8312 33.4356 21.8216 33.5499 21.8788 33.6738C21.955 33.8453 21.9741 33.8358 22.0694 33.5309C22.1837 33.1783 22.117 33.1021 21.9169 33.3403Z" fill="black"/>
<path d="M33.1425 33.9597C33.1235 34.1979 33.152 34.3408 33.2187 34.3408C33.2759 34.3408 33.3236 34.2836 33.3331 34.2169C33.3426 34.1598 33.3712 33.9882 33.4093 33.8358C33.457 33.6452 33.4379 33.5785 33.3236 33.5785C33.2283 33.5785 33.1711 33.7024 33.1425 33.9597Z" fill="black"/>
<path d="M32.4179 33.7593C32.3226 33.8164 32.3226 33.8546 32.4464 33.9594C32.5227 34.0261 32.5894 34.1595 32.5894 34.2643C32.5894 34.4168 32.618 34.4358 32.7228 34.3501C32.8371 34.2548 32.8371 34.1976 32.7133 33.9594C32.637 33.7974 32.5703 33.6735 32.5608 33.6735C32.5513 33.6735 32.4846 33.7116 32.4179 33.7593Z" fill="black"/>
<path d="M4.98371 34.2453C4.90748 34.5502 4.90748 34.6265 5.0123 34.6265C5.08853 34.6265 5.14571 34.5407 5.14571 34.4264C5.14571 34.3215 5.19335 34.15 5.241 34.0452C5.31723 33.9118 5.3077 33.8641 5.21241 33.8641C5.14571 33.8641 5.04089 34.0357 4.98371 34.2453Z" fill="black"/>
<path d="M5.81212 34.0546C5.91694 34.1595 6.0027 34.3024 6.0027 34.3786C6.0027 34.4549 6.0694 34.5311 6.14564 34.5692C6.24093 34.6073 6.28857 34.5597 6.28857 34.4358C6.28857 34.331 6.25046 34.2452 6.20281 34.2452C6.15517 34.2452 6.07893 34.1595 6.05035 34.0546C6.02176 33.9498 5.90741 33.8641 5.80259 33.8641C5.62154 33.8641 5.62154 33.8641 5.81212 34.0546Z" fill="black"/>
<path d="M17.6095 33.931C17.6762 33.9596 17.7619 33.95 17.7905 33.9215C17.8286 33.8929 17.7715 33.8643 17.6667 33.8738C17.5618 33.8738 17.5332 33.9024 17.6095 33.931Z" fill="black"/>
<path d="M30.7415 34.0737C30.6557 34.4072 30.6748 34.7217 30.7796 34.7217C30.8368 34.7217 30.8749 34.5978 30.8749 34.4453C30.8749 34.2929 30.9035 34.1023 30.9321 34.0165C30.9607 33.9308 30.9511 33.8641 30.894 33.8641C30.8463 33.8641 30.7796 33.9594 30.7415 34.0737Z" fill="black"/>
<path d="M31.3506 34.0549C31.3506 34.1788 31.4173 34.2455 31.5412 34.2455C31.646 34.2455 31.7317 34.2836 31.7317 34.3407C31.7317 34.3884 31.7794 34.436 31.827 34.436C32.0272 34.436 31.9128 34.1883 31.6365 34.0358C31.3601 33.8833 31.3506 33.8833 31.3506 34.0549Z" fill="black"/>
<path d="M7.08946 34.1213C7.06087 34.2166 6.99417 34.3691 6.94652 34.4549C6.83218 34.6836 6.8417 34.7217 6.99417 34.7217C7.0704 34.7217 7.16569 34.5502 7.22287 34.3405C7.31816 33.9689 7.19428 33.7783 7.08946 34.1213Z" fill="black"/>
<path d="M7.88989 34.3309C7.68025 34.7597 7.68025 34.8169 7.85177 34.8169C7.98518 34.8169 8.22341 34.0832 8.10906 34.0165C8.08047 33.9974 7.97565 34.1403 7.88989 34.3309Z" fill="black"/>
<path d="M29.7877 34.2833C29.7591 34.4071 29.7019 34.5787 29.6733 34.6644C29.6352 34.7692 29.6638 34.8169 29.7686 34.8169C29.8639 34.8169 29.9211 34.7311 29.9211 34.5882C29.9211 34.4643 29.9497 34.2928 29.9783 34.207C30.0069 34.1213 29.9973 34.0546 29.9402 34.0546C29.8925 34.0546 29.8163 34.1594 29.7877 34.2833Z" fill="black"/>
<path d="M9.01402 34.3023C8.84249 34.4643 8.80438 34.8169 8.95684 34.8169C9.01402 34.8169 9.05213 34.7407 9.05213 34.6549C9.05213 34.5691 9.11884 34.4167 9.21413 34.3214C9.40471 34.1117 9.22366 34.0927 9.01402 34.3023Z" fill="black"/>
<path d="M29.1302 34.2169C29.0921 34.2455 29.0635 34.4266 29.0635 34.5981C29.0635 34.9983 29.2826 34.9888 29.3303 34.5886C29.3684 34.3122 29.2445 34.0931 29.1302 34.2169Z" fill="black"/>
<path d="M8.29972 34.3978C8.29972 34.5026 8.32831 34.5312 8.3569 34.455C8.38548 34.3883 8.37595 34.3025 8.34737 34.2739C8.31878 34.2358 8.29019 34.293 8.29972 34.3978Z" fill="black"/>
<path d="M10.2245 34.5028C10.0815 34.7982 10.0625 35.0078 10.1768 35.0078C10.2721 35.0078 10.4817 34.579 10.4817 34.3884C10.4817 34.1597 10.3483 34.2264 10.2245 34.5028Z" fill="black"/>
<path d="M27.7678 34.3882C27.8536 34.4739 27.9775 34.6264 28.0537 34.7407C28.13 34.8456 28.2348 34.9027 28.3015 34.8646C28.4349 34.7789 27.9584 34.2452 27.7488 34.2452C27.644 34.2452 27.6535 34.2738 27.7678 34.3882Z" fill="black"/>
<path d="M10.8158 34.4265C10.8444 34.4741 10.8253 34.5408 10.7681 34.5789C10.6157 34.6742 10.6538 35.103 10.8158 35.103C10.9301 35.103 10.9397 35.0649 10.873 34.922C10.7967 34.7886 10.8063 34.7123 10.9111 34.6266C11.054 34.5027 11.0254 34.3407 10.8539 34.3407C10.7967 34.3407 10.7777 34.3788 10.8158 34.4265Z" fill="black"/>
<path d="M26.9866 34.3883C27.0152 34.4169 27.0057 34.5884 26.9676 34.7695C26.9009 35.0649 26.9104 35.0839 27.0724 34.9791C27.3011 34.8362 27.3106 34.4741 27.0915 34.3978C26.9962 34.3597 26.9485 34.3597 26.9866 34.3883Z" fill="black"/>
<path d="M11.3398 34.6838C11.1397 35.2079 11.3208 35.2746 11.559 34.7696C11.7019 34.4837 11.7019 34.4361 11.5781 34.4361C11.4923 34.4361 11.3875 34.5504 11.3398 34.6838Z" fill="black"/>
<path d="M25.7852 34.5884C25.6995 34.8076 25.7185 35.1982 25.8138 35.1982C25.8615 35.1982 25.9377 35.0267 25.9949 34.8171C26.0711 34.5217 26.0616 34.4359 25.9663 34.4359C25.8996 34.4359 25.8138 34.5026 25.7852 34.5884Z" fill="black"/>
<path d="M26.3577 34.5885C26.272 34.8172 26.291 35.103 26.3958 35.103C26.453 35.103 26.4911 35.0077 26.4911 34.8839C26.4911 34.76 26.5388 34.617 26.6055 34.5503C26.6912 34.4646 26.6817 34.436 26.5674 34.436C26.4816 34.436 26.3863 34.5027 26.3577 34.5885Z" fill="black"/>
<path d="M12.1492 34.7885C12.1206 34.9314 12.0348 35.0839 11.9776 35.122C11.9014 35.1697 11.93 35.1982 12.0348 35.1982C12.1396 35.1982 12.2349 35.1125 12.2635 35.0077C12.2921 34.9028 12.3493 34.8171 12.3969 34.8171C12.4446 34.8171 12.4827 34.7504 12.4827 34.6741C12.4827 34.4264 12.2159 34.5217 12.1492 34.7885Z" fill="black"/>
<path d="M13.0547 34.636C13.0547 34.6932 13.1023 34.8171 13.15 34.9219C13.2167 35.0458 13.2167 35.1029 13.15 35.1029C13.1023 35.1029 13.0547 35.1697 13.0547 35.2459C13.0547 35.4651 13.312 35.4174 13.3691 35.1792C13.4454 34.8838 13.3501 34.5312 13.1881 34.5312C13.1119 34.5312 13.0547 34.5789 13.0547 34.636Z" fill="black"/>
<path d="M24.8711 34.6457C24.8711 34.7314 25.0045 34.8648 25.157 34.9506C25.3952 35.065 25.4428 35.065 25.4428 34.9601C25.4428 34.8839 25.3475 34.7981 25.2332 34.76C25.1093 34.7219 24.9854 34.6457 24.9473 34.5885C24.8997 34.5218 24.8711 34.5409 24.8711 34.6457Z" fill="black"/>
<path d="M22.7748 34.7883C22.7748 34.8836 22.7463 35.0552 22.7177 35.1695C22.6796 35.3029 22.6986 35.3887 22.7653 35.3887C22.8225 35.3887 22.8701 35.322 22.8701 35.2457C22.8701 35.16 22.9559 35.1028 23.0893 35.1028C23.2608 35.1028 23.2704 35.0837 23.156 35.0075C23.0798 34.9599 23.0131 34.8646 23.0131 34.8074C23.0131 34.7407 22.9559 34.674 22.8987 34.6454C22.832 34.6263 22.7748 34.6835 22.7748 34.7883Z" fill="black"/>
<path d="M23.8891 34.6934C23.851 34.7506 23.8987 34.8554 23.994 34.9317C24.2989 35.1985 24.3942 35.2175 24.3942 35.0174C24.3942 34.884 24.337 34.8173 24.2131 34.8173C24.1083 34.8173 24.013 34.7697 23.994 34.703C23.9654 34.6267 23.9368 34.6172 23.8891 34.6934Z" fill="black"/>
<path d="M8.36631 34.7884C8.43302 34.817 8.51878 34.8075 8.54736 34.7789C8.58548 34.7503 8.52831 34.7217 8.42349 34.7312C8.31867 34.7312 8.29008 34.7598 8.36631 34.7884Z" fill="black"/>
<path d="M9.48179 34.8168C9.40556 34.9406 9.52943 34.9406 9.72001 34.8168C9.84389 34.7405 9.84389 34.7215 9.70096 34.7215C9.6152 34.7215 9.51038 34.7596 9.48179 34.8168Z" fill="black"/>
<path d="M14.998 34.7979C14.8551 34.8932 14.7693 35.1791 14.8265 35.3411C14.9218 35.5793 15.0266 35.5031 15.1028 35.141C15.1695 34.7693 15.1505 34.6931 14.998 34.7979Z" fill="black"/>
<path d="M15.8462 35.0553C16.0559 35.3888 16.2941 35.4937 16.2941 35.2554C16.2941 35.1792 16.2274 35.103 16.1512 35.0648C16.0749 35.0363 16.0082 34.9505 16.0082 34.8647C16.0082 34.7885 15.9225 34.7218 15.8177 34.7218C15.6461 34.7218 15.6461 34.7313 15.8462 35.0553Z" fill="black"/>
<path d="M16.8095 34.874C16.781 34.9693 16.7142 35.1504 16.6666 35.2647C16.6094 35.4362 16.619 35.4839 16.7238 35.4839C16.8 35.4839 16.8858 35.3505 16.9239 35.1504C16.9906 34.7787 16.9048 34.5786 16.8095 34.874Z" fill="black"/>
<path d="M18.5239 34.7978C18.3715 34.8931 18.2476 35.4839 18.381 35.4839C18.4382 35.4839 18.4858 35.4267 18.4858 35.3505C18.4858 35.2742 18.5335 35.198 18.5906 35.179C18.6478 35.1599 18.6764 35.0455 18.6573 34.9312C18.6383 34.8073 18.5906 34.7501 18.5239 34.7978Z" fill="black"/>
<path d="M19.4486 35.0746C19.3438 35.4367 19.3629 35.5415 19.5153 35.4462C19.6297 35.3795 19.7154 34.722 19.6106 34.722C19.5725 34.722 19.4963 34.884 19.4486 35.0746Z" fill="black"/>
<path d="M19.9344 34.8364C19.8677 35.3891 19.8773 35.4367 20.0583 35.4653C20.2203 35.5034 20.2298 35.4844 20.106 35.3414C20.0011 35.208 20.0011 35.1699 20.106 35.1032C20.1727 35.0651 20.2013 34.9603 20.1727 34.8745C20.0964 34.6935 19.9535 34.6744 19.9344 34.8364Z" fill="black"/>
<path d="M21.2116 34.8459C21.2401 34.9317 21.1925 35.1032 21.1067 35.2366C20.9447 35.4844 20.9924 35.5511 21.2306 35.4082C21.3926 35.3033 21.4212 34.7983 21.2687 34.7506C21.202 34.7221 21.1734 34.7602 21.2116 34.8459Z" fill="black"/>
<path d="M21.8214 34.9026C21.8214 35.0074 21.7833 35.1218 21.7261 35.1504C21.5832 35.2457 21.6117 35.4839 21.7737 35.4839C21.85 35.4839 21.9167 35.3981 21.9167 35.2933C21.9167 35.1599 21.9834 35.1027 22.1358 35.0932C22.2883 35.0837 22.3074 35.0741 22.1835 35.036C22.0882 35.017 22.012 34.9312 22.012 34.855C22.012 34.7787 21.9738 34.7216 21.9167 34.7216C21.869 34.7216 21.8214 34.8073 21.8214 34.9026Z" fill="black"/>
<path d="M17.4385 35.0265C17.4385 35.1504 17.3909 35.3028 17.3242 35.3695C17.2575 35.4362 17.2479 35.4839 17.3051 35.4839C17.5624 35.4839 17.7435 34.9979 17.5338 34.8645C17.4766 34.8359 17.4385 34.9026 17.4385 35.0265Z" fill="black"/>
<path d="M18.9629 34.9601C18.9629 35.0363 19.001 35.103 19.0487 35.103C19.0963 35.103 19.1535 35.0363 19.1916 34.9601C19.2202 34.8743 19.1916 34.8172 19.1058 34.8172C19.0296 34.8172 18.9629 34.8839 18.9629 34.9601Z" fill="black"/>
<path d="M20.4491 35.0551C20.3824 35.3028 20.4395 35.4839 20.5634 35.4839C20.6015 35.4839 20.6397 35.4077 20.6397 35.3124C20.6492 35.2266 20.6778 35.0741 20.7254 34.9788C20.7731 34.8645 20.754 34.8169 20.6492 34.8169C20.5729 34.8169 20.4777 34.9217 20.4491 35.0551Z" fill="black"/>
<path d="M0.267239 28.8802C0.324413 28.8993 0.438762 28.8993 0.505466 28.8802C0.56264 28.8517 0.514995 28.8326 0.381588 28.8326C0.248181 28.8326 0.200535 28.8517 0.267239 28.8802Z" fill="black"/>
</svg>