<svg width="198" height="27" viewBox="0 0 198 27" fill="none" xmlns="http://www.w3.org/2000/svg">
<path d="M0.647796 0.701351C1.65375 2.60376 2.36544 3.82186 2.50231 3.89029C2.6118 3.93819 3.00871 3.93135 3.7683 3.88345C4.50053 3.8287 8.07953 3.80133 14.1563 3.79448C22.4434 3.7808 23.4836 3.79448 23.9147 3.89029C25.3039 4.20508 26.2346 4.71147 27.0695 5.60794C27.9796 6.58652 28.3218 7.38033 28.3765 8.60526C28.4312 9.93285 28.1233 11.3083 27.5622 12.2664C27.2337 12.8207 26.3304 13.7103 25.8035 13.984C24.8591 14.4836 23.8805 14.7026 22.7309 14.6684L22.0397 14.6478L24.1474 11.0551L26.2551 7.46245L20.7874 7.44192C17.7832 7.43507 12.8561 7.43507 9.85192 7.44192L4.37735 7.46245L5.4312 9.2759L6.47822 11.0894L13.1572 11.062C17.0852 11.0483 19.8362 11.062 19.8362 11.0962C19.8362 11.1304 19.4119 11.9448 18.8918 12.9028L17.9474 14.6478L15.826 14.6889C14.6627 14.7163 12.5892 14.7368 11.2206 14.7436C9.2634 14.7505 8.74332 14.771 8.77069 14.8326C8.79122 14.8805 9.22234 15.6264 9.72874 16.4955L10.6526 18.0694L13.1983 18.09C14.5943 18.0968 15.7302 18.131 15.7166 18.1584C15.7029 18.1926 15.128 19.2122 14.4369 20.4235C13.3556 22.3191 13.1914 22.6544 13.253 22.7844C13.3488 22.9965 15.2512 26.1239 15.347 26.2265C15.4086 26.295 15.9424 25.3917 17.7148 22.2096L20.0073 18.1105L22.1971 18.1242C24.25 18.1379 24.428 18.131 25.0849 17.9805C26.8094 17.6041 28.4107 16.7692 29.7041 15.5717C30.3953 14.9352 30.8058 14.3878 31.2096 13.5392C32.414 11.0414 32.3182 7.61984 30.9769 4.90993C29.841 2.60376 27.8906 1.07773 25.2765 0.441309C23.901 0.105991 23.7915 0.105991 11.6791 0.105991H0.333008L0.647796 0.701351Z" fill="black"/>
<path d="M72.5293 13.9567V23.3729H74.377H76.2246L76.2383 19.4039L76.2588 15.4348L78.8593 19.2122C80.2895 21.2857 81.4939 22.9965 81.5281 23.0034C81.5692 23.0171 82.7667 21.3131 84.197 19.2259L86.7974 15.4348L86.8179 19.4039L86.8316 23.3729H88.6793H90.527V13.9567C90.527 5.13575 90.5201 4.54724 90.4106 4.56777C90.349 4.58145 88.3371 7.29137 85.9352 10.6035C83.54 13.9088 81.5555 16.605 81.5213 16.5981C81.4871 16.5845 79.5025 13.8814 77.1143 10.583C74.7191 7.28452 72.7072 4.58145 72.6456 4.56777C72.5361 4.54724 72.5293 5.12207 72.5293 13.9567Z" fill="black"/>
<path d="M101.106 4.73885C100.921 5.11523 92.4424 23.3045 92.4424 23.3387C92.4424 23.3592 93.3388 23.3661 94.4269 23.3592L96.4114 23.3387L96.9863 22.1069L97.5611 20.8752L101.25 20.8546L104.931 20.8409L105.513 22.1069L106.095 23.3729H108.093H110.098L109.975 23.1197C109.906 22.976 107.929 18.7401 105.575 13.7103C103.227 8.6737 101.284 4.55408 101.256 4.55408C101.229 4.55408 101.161 4.6362 101.106 4.73885ZM102.399 15.2911C102.988 16.5776 103.453 17.652 103.439 17.6657C103.426 17.6794 102.427 17.6862 101.222 17.6794L99.0324 17.6588L100.127 15.25C100.736 13.9224 101.25 12.8549 101.284 12.8891C101.311 12.9165 101.811 13.9977 102.399 15.2911Z" fill="black"/>
<path d="M139.223 4.73885C139.038 5.11523 130.56 23.3045 130.56 23.3387C130.56 23.3592 131.456 23.3661 132.544 23.3592L134.529 23.3387L135.103 22.1069L135.678 20.8752L139.367 20.8546L143.048 20.8409L143.63 22.1069L144.212 23.3729H146.21H148.215L148.092 23.1197C148.023 22.976 146.046 18.7401 143.692 13.7103C141.344 8.6737 139.401 4.55408 139.374 4.55408C139.346 4.55408 139.278 4.6362 139.223 4.73885ZM140.516 15.2911C141.105 16.5776 141.57 17.652 141.557 17.6657C141.543 17.6794 140.544 17.6862 139.339 17.6794L137.15 17.6588L138.245 15.25C138.854 13.9224 139.367 12.8549 139.401 12.8891C139.428 12.9165 139.928 13.9977 140.516 15.2911Z" fill="black"/>
<path d="M187.256 4.69775C186.092 4.8483 184.792 5.29311 183.69 5.92268C181.145 7.38713 179.379 10.056 179.003 13.0123C178.887 13.9566 178.962 15.4142 179.174 16.3244C179.954 19.6707 182.52 22.3806 185.798 23.3318C187.687 23.8793 189.788 23.8177 191.649 23.1607C194.845 22.0316 197.199 19.2943 197.876 15.9343C198.054 15.0242 198.041 13.2312 197.835 12.2869C197.459 10.5213 196.638 8.95423 195.413 7.66086C193.278 5.40944 190.287 4.32137 187.256 4.69775ZM189.801 8.52995C191.786 8.9816 193.394 10.4871 194.031 12.4922C194.284 13.2791 194.339 14.463 194.167 15.3047C193.716 17.5493 191.916 19.3696 189.671 19.8555C189.398 19.9102 188.85 19.965 188.453 19.965C184.163 19.9718 181.357 15.4963 183.246 11.6436C184.457 9.15952 187.092 7.90722 189.801 8.52995Z" fill="black"/>
<path d="M34.8232 14.162V23.3729H36.6709H38.5186V20.3688V17.3646L40.5236 17.3372C42.4671 17.3098 42.5355 17.303 43.1309 17.1251C45.2591 16.4681 46.8194 14.9763 47.4695 12.9712C48.0238 11.2673 47.7501 9.37171 46.7236 7.84567C46.313 7.22978 45.6218 6.51809 45.0538 6.12802C44.5611 5.78586 43.5347 5.32737 42.8982 5.15629C42.3371 5.01258 42.1797 5.00573 38.5733 4.98521L34.8232 4.95783V14.162ZM41.7007 8.66001C41.9607 8.70107 42.3371 8.80372 42.5355 8.89952C43.0214 9.11851 43.5826 9.66596 43.8289 10.145C44 10.4872 44.0274 10.6172 44.0274 11.1236C44.0274 11.801 43.9179 12.1364 43.5141 12.6701C43.1993 13.0876 42.7066 13.416 42.1386 13.594C41.7828 13.7035 41.5022 13.724 40.1199 13.724H38.5186V11.1578V8.59158H39.8735C40.6126 8.59158 41.4338 8.6258 41.7007 8.66001Z" fill="black"/>
<path d="M49.8096 14.162V23.3729H51.6572H53.5049L53.5186 19.048L53.5391 14.7299L56.4475 19.048L59.3559 23.3729H61.6004C62.8322 23.3729 63.8382 23.3592 63.8382 23.3387C63.8382 23.3182 62.6817 21.6827 61.272 19.705C59.8623 17.7273 58.7058 16.0986 58.7058 16.0849C58.7058 16.0712 58.9521 15.9275 59.2464 15.777C60.1428 15.3116 60.9845 14.4357 61.4704 13.4708C61.7578 12.9028 61.9905 11.9721 62.0384 11.2604C62.1342 9.66596 61.5731 8.13993 60.4576 6.96974C59.6159 6.07328 58.5963 5.47107 57.3987 5.15629C56.8512 5.01258 56.6733 5.00573 53.3201 4.98521L49.8096 4.95783V14.162ZM56.2011 8.66001C56.7486 8.74897 57.1729 8.96796 57.5835 9.37855C58.0556 9.85073 58.2473 10.3503 58.213 11.0551C58.172 11.9105 57.7614 12.5538 56.9813 12.9781L56.5501 13.2108L55.0309 13.2313L53.5049 13.2518V10.9251V8.59158H54.6546C55.2841 8.59158 55.9753 8.61895 56.2011 8.66001Z" fill="black"/>
<path d="M65.6172 14.1688V23.3729H67.4649H69.3125V14.1688V4.96468H67.4649H65.6172V14.1688Z" fill="black"/>
<path d="M111.877 14.1688V23.3729H117.42H122.963V21.5595V19.746H119.268H115.572V12.3553V4.96468H113.725H111.877V14.1688Z" fill="black"/>
<path d="M150.062 14.1688V23.3729H155.606H161.149V21.5595V19.746H157.453H153.758V17.8299V15.9138L156.926 15.9001L160.088 15.8796L160.108 14.0456L160.122 12.2185H156.94H153.758V10.405V8.59158H157.453H161.149V6.77813V4.96468H155.606H150.062V14.1688Z" fill="black"/>
<path d="M163.886 14.162V23.3729H165.733H167.581L167.595 19.048L167.615 14.7299L170.524 19.048L173.432 23.3729H175.677C176.908 23.3729 177.914 23.3592 177.914 23.3387C177.914 23.3182 176.758 21.6827 175.348 19.705C173.938 17.7273 172.782 16.0986 172.782 16.0849C172.782 16.0712 173.028 15.9275 173.323 15.777C174.219 15.3116 175.061 14.4357 175.547 13.4708C175.834 12.9028 176.067 11.9721 176.115 11.2604C176.21 9.66596 175.649 8.13993 174.534 6.96974C173.692 6.07328 172.672 5.47107 171.475 5.15629C170.927 5.01258 170.749 5.00573 167.396 4.98521L163.886 4.95783V14.162ZM170.277 8.66001C170.825 8.74897 171.249 8.96796 171.66 9.37855C172.132 9.85073 172.323 10.3503 172.289 11.0551C172.248 11.9105 171.838 12.5538 171.057 12.9781L170.626 13.2108L169.107 13.2313L167.581 13.2518V10.9251V8.59158H168.731C169.36 8.59158 170.051 8.61895 170.277 8.66001Z" fill="black"/>
</svg>
